<svg id="Слой_1" data-name="Слой 1" xmlns="http://www.w3.org/2000/svg" viewBox="0 0 600 904">
  <defs>
    <style>
      .cls-1 {
        fill: #fff;
      }

      .cls-2 {
        fill: #4696fc;
      }

      .cls-3 {
        fill: #1d1d1b;
      }

      .cls-4 {
        fill: #fcd120;
      }

      .cls-5 {
        fill: #fec2ce;
      }

      .cls-6 {
        fill: #fcefdf;
      }
    </style>
  </defs>
  <title>brjyrb</title>
  <g>
    <rect class="cls-1" x="355.67" y="177.14" width="6.67" height="2.17"/>
    <path class="cls-1" d="M362.33,179.8h-6.67a.5.5,0,0,1-.5-.5v-2.17a.5.5,0,0,1,.5-.5h6.67a.5.5,0,0,1,.5.5v2.17A.5.5,0,0,1,362.33,179.8Zm-6.17-1h5.67v-1.17h-5.67Z"/>
  </g>
  <g>
    <path class="cls-1" d="M377.54,177.14H359.83V174.8h13.9Z"/>
    <path class="cls-1" d="M377.54,177.64H359.83a.5.5,0,0,1-.5-.5V174.8a.5.5,0,0,1,.5-.5h13.9a.5.5,0,0,1,.26.07l3.81,2.33a.5.5,0,0,1-.26.93Zm-17.21-1h15.44l-2.18-1.33H360.33Z"/>
  </g>
  <g>
    <path class="cls-1" d="M355.67,284.64a57.45,57.45,0,0,1-55.88-45.06l2.93-.63A54.18,54.18,0,0,0,408,241.34l2.9.77A57.2,57.2,0,0,1,355.67,284.64Z"/>
    <path class="cls-1" d="M408,213.6a54.19,54.19,0,0,0-104.38-1.31l-2.88-.84a57.19,57.19,0,0,1,110.17,1.38Z"/>
    <g>
      <path class="cls-1" d="M319.67,250.8h-13.5l-4.91-11.54h18.41Z"/>
      <path class="cls-1" d="M319.67,251.3h-13.5a.5.5,0,0,1-.46-.3l-4.91-11.54a.5.5,0,0,1,.46-.7h18.41a.5.5,0,0,1,.5.5V250.8A.5.5,0,0,1,319.67,251.3Zm-13.17-1h12.67V239.76H302Z"/>
    </g>
    <g>
      <path class="cls-1" d="M317,262.47l-4.49.16-4.18-8.49-3.52-6.52H317Z"/>
      <path class="cls-1" d="M312.51,263.13a.5.5,0,0,1-.45-.28l-4.18-8.49-3.51-6.5a.5.5,0,0,1,.44-.74H317a.5.5,0,0,1,.5.5v14.85a.5.5,0,0,1-.48.5l-4.49.16Zm-6.86-15,3.12,5.78,4,8.22,3.68-.13V248.12Z"/>
    </g>
    <g>
      <rect class="cls-1" x="366.5" y="239.26" width="24.5" height="4.37"/>
      <path class="cls-1" d="M391,244.14H366.5a.5.5,0,0,1-.5-.5v-4.37a.5.5,0,0,1,.5-.5H391a.5.5,0,0,1,.5.5v4.38A.5.5,0,0,1,391,244.14Zm-24-1h23.5v-3.37H367Z"/>
    </g>
    <g>
      <rect class="cls-1" x="366.5" y="243.64" width="21.83" height="2.83"/>
      <path class="cls-1" d="M388.33,247H366.5a.5.5,0,0,1-.5-.5v-2.83a.5.5,0,0,1,.5-.5h21.83a.5.5,0,0,1,.5.5v2.83A.5.5,0,0,1,388.33,247ZM367,246h20.83v-1.83H367Z"/>
    </g>
    <g>
      <rect class="cls-1" x="368.83" y="245.03" width="7.5" height="15.1"/>
      <path class="cls-1" d="M376.33,260.64h-7.5a.5.5,0,0,1-.5-.5V245a.5.5,0,0,1,.5-.5h7.5a.5.5,0,0,1,.5.5v15.1A.5.5,0,0,1,376.33,260.64Zm-7-1h6.5v-14.1h-6.5Z"/>
    </g>
    <g>
      <rect class="cls-1" x="376.33" y="245.05" width="2.42" height="13.42"/>
      <path class="cls-1" d="M378.75,259h-2.42a.5.5,0,0,1-.5-.5V245.05a.5.5,0,0,1,.5-.5h2.42a.5.5,0,0,1,.5.5v13.42A.5.5,0,0,1,378.75,259Zm-1.92-1h1.42V245.55h-1.42Z"/>
    </g>
    <g>
      <rect class="cls-1" x="378.75" y="245.03" width="2.42" height="11.1"/>
      <path class="cls-1" d="M381.17,256.64h-2.42a.5.5,0,0,1-.5-.5V245a.5.5,0,0,1,.5-.5h2.42a.5.5,0,0,1,.5.5v11.1A.5.5,0,0,1,381.17,256.64Zm-1.92-1h1.42v-10.1h-1.42Z"/>
    </g>
    <g>
      <rect class="cls-1" x="381.17" y="243.64" width="2.33" height="9.67"/>
      <path class="cls-1" d="M383.5,253.8h-2.33a.5.5,0,0,1-.5-.5v-9.67a.5.5,0,0,1,.5-.5h2.33a.5.5,0,0,1,.5.5v9.67A.5.5,0,0,1,383.5,253.8Zm-1.83-1H383v-8.67h-1.33Z"/>
    </g>
    <g>
      <rect class="cls-1" x="383.5" y="242.64" width="2.17" height="5.83"/>
      <path class="cls-1" d="M385.67,249H383.5a.5.5,0,0,1-.5-.5v-5.83a.5.5,0,0,1,.5-.5h2.17a.5.5,0,0,1,.5.5v5.83A.5.5,0,0,1,385.67,249ZM384,248h1.17v-4.83H384Z"/>
    </g>
    <g>
      <rect class="cls-1" x="391" y="245.55" width="2" height="8.58"/>
      <path class="cls-1" d="M393,254.64h-2a.5.5,0,0,1-.5-.5v-8.58a.5.5,0,0,1,.5-.5h2a.5.5,0,0,1,.5.5v8.58A.5.5,0,0,1,393,254.64Zm-1.5-1h1v-7.58h-1Z"/>
    </g>
    <g>
      <rect class="cls-1" x="393" y="242.64" width="2.33" height="5.83"/>
      <path class="cls-1" d="M395.33,249H393a.5.5,0,0,1-.5-.5v-5.83a.5.5,0,0,1,.5-.5h2.33a.5.5,0,0,1,.5.5v5.83A.5.5,0,0,1,395.33,249Zm-1.83-1h1.33v-4.83H393.5Z"/>
    </g>
    <g>
      <rect class="cls-1" x="338.67" y="205.97" width="44.83" height="9.11"/>
      <path class="cls-1" d="M383.5,215.58H338.67a.5.5,0,0,1-.5-.5V206a.5.5,0,0,1,.5-.5H383.5a.5.5,0,0,1,.5.5v9.11A.5.5,0,0,1,383.5,215.58Zm-44.33-1H383v-8.11H339.17Z"/>
    </g>
    <g>
      <rect class="cls-1" x="352.94" y="194.14" width="9.39" height="15.67"/>
      <path class="cls-1" d="M362.33,210.3h-9.39a.5.5,0,0,1-.5-.5V194.14a.5.5,0,0,1,.5-.5h9.39a.5.5,0,0,1,.5.5V209.8A.5.5,0,0,1,362.33,210.3Zm-8.89-1h8.39V194.64h-8.39Z"/>
    </g>
    <g>
      <rect class="cls-1" x="357.64" y="198.64" width="23.53" height="9.17"/>
      <path class="cls-1" d="M381.17,208.3H357.64a.5.5,0,0,1-.5-.5v-9.17a.5.5,0,0,1,.5-.5h23.53a.5.5,0,0,1,.5.5v9.17A.5.5,0,0,1,381.17,208.3Zm-23-1h22.53v-8.17H358.14Z"/>
    </g>
    <g>
      <rect class="cls-1" x="348" y="196.64" width="4.94" height="11.17"/>
      <path class="cls-1" d="M352.95,208.3H348a.5.5,0,0,1-.5-.5V196.64a.5.5,0,0,1,.5-.5h4.95a.5.5,0,0,1,.5.5V207.8A.5.5,0,0,1,352.95,208.3Zm-4.45-1h3.95V197.14H348.5Z"/>
    </g>
    <g>
      <rect class="cls-1" x="340.83" y="203.22" width="9.64" height="4.58"/>
      <path class="cls-1" d="M350.47,208.3h-9.64a.5.5,0,0,1-.5-.5v-4.58a.5.5,0,0,1,.5-.5h9.64a.5.5,0,0,1,.5.5v4.58A.5.5,0,0,1,350.47,208.3Zm-9.14-1H350v-3.58h-8.64Z"/>
    </g>
    <g>
      <rect class="cls-1" x="342.83" y="200.97" width="8.83" height="4.54"/>
      <path class="cls-1" d="M351.67,206h-8.83a.5.5,0,0,1-.5-.5V201a.5.5,0,0,1,.5-.5h8.83a.5.5,0,0,1,.5.5v4.54A.5.5,0,0,1,351.67,206Zm-8.33-1h7.83v-3.54h-7.83Z"/>
    </g>
    <g>
      <rect class="cls-1" x="345.65" y="198.64" width="6.01" height="3.33"/>
      <path class="cls-1" d="M351.67,202.47h-6a.5.5,0,0,1-.5-.5v-3.33a.5.5,0,0,1,.5-.5h6a.5.5,0,0,1,.5.5V202A.5.5,0,0,1,351.67,202.47Zm-5.51-1h5v-2.33h-5Z"/>
    </g>
    <g>
      <rect class="cls-1" x="348" y="189.3" width="4.94" height="4.83"/>
      <path class="cls-1" d="M352.95,194.64H348a.5.5,0,0,1-.5-.5V189.3a.5.5,0,0,1,.5-.5h4.95a.5.5,0,0,1,.5.5v4.83A.5.5,0,0,1,352.95,194.64Zm-4.45-1h3.95V189.8H348.5Z"/>
    </g>
    <g>
      <rect class="cls-1" x="347.25" y="182.64" width="8.42" height="1.5"/>
      <path class="cls-1" d="M355.67,184.64h-8.42a.5.5,0,0,1-.5-.5v-1.5a.5.5,0,0,1,.5-.5h8.42a.5.5,0,0,1,.5.5v1.5A.5.5,0,0,1,355.67,184.64Zm-7.92-1h7.42v-.5h-7.42Z"/>
    </g>
    <g>
      <rect class="cls-1" x="350.47" y="179.3" width="3.33" height="3.33"/>
      <path class="cls-1" d="M353.81,183.14h-3.33a.5.5,0,0,1-.5-.5V179.3a.5.5,0,0,1,.5-.5h3.33a.5.5,0,0,1,.5.5v3.33A.5.5,0,0,1,353.81,183.14Zm-2.83-1h2.33V179.8H351Z"/>
    </g>
    <g>
      <rect class="cls-1" x="352.14" y="184.14" width="18.53" height="6"/>
      <path class="cls-1" d="M370.67,190.64H352.14a.5.5,0,0,1-.5-.5v-6a.5.5,0,0,1,.5-.5h18.53a.5.5,0,0,1,.5.5v6A.5.5,0,0,1,370.67,190.64Zm-18-1h17.53v-5H352.64Z"/>
    </g>
    <g>
      <rect class="cls-1" x="374.67" y="178.22" width="8.83" height="15.92"/>
      <path class="cls-1" d="M383.5,194.64h-8.83a.5.5,0,0,1-.5-.5V178.22a.5.5,0,0,1,.5-.5h8.83a.5.5,0,0,1,.5.5v15.92A.5.5,0,0,1,383.5,194.64Zm-8.33-1H383V178.72h-7.83Z"/>
    </g>
    <g>
      <rect class="cls-1" x="386.33" y="186.18" width="6.67" height="19.33"/>
      <path class="cls-1" d="M393,206h-6.67a.5.5,0,0,1-.5-.5V186.18a.5.5,0,0,1,.5-.5H393a.5.5,0,0,1,.5.5v19.33A.5.5,0,0,1,393,206Zm-6.17-1h5.67V186.68h-5.67Z"/>
    </g>
    <g>
      <path class="cls-1" d="M399,193.8l-15.5-13.67-4,10L380,202h24.91Z"/>
      <path class="cls-1" d="M404.87,202.47H380a.5.5,0,0,1-.5-.48L379,190.16a.5.5,0,0,1,0-.21l4-10a.5.5,0,0,1,.79-.19l15.5,13.67.08.08,5.87,8.17a.5.5,0,0,1-.41.79Zm-24.43-1h23.45l-5.27-7.33L383.7,181l-3.7,9.24Z"/>
    </g>
    <g>
      <rect class="cls-1" x="381.17" y="212.47" width="14.17" height="2.61"/>
      <path class="cls-1" d="M395.33,215.58H381.17a.5.5,0,0,1-.5-.5v-2.61a.5.5,0,0,1,.5-.5h14.17a.5.5,0,0,1,.5.5v2.61A.5.5,0,0,1,395.33,215.58Zm-13.67-1h13.17V213H381.67Z"/>
    </g>
    <g>
      <rect class="cls-1" x="381.17" y="207.8" width="4.5" height="5.97"/>
      <path class="cls-1" d="M385.67,214.28h-4.5a.5.5,0,0,1-.5-.5v-6a.5.5,0,0,1,.5-.5h4.5a.5.5,0,0,1,.5.5v6A.5.5,0,0,1,385.67,214.28Zm-4-1h3.5v-5h-3.5Z"/>
    </g>
    <g>
      <rect class="cls-1" x="388.33" y="205.51" width="10" height="2.29"/>
      <path class="cls-1" d="M398.33,208.3h-10a.5.5,0,0,1-.5-.5v-2.29a.5.5,0,0,1,.5-.5h10a.5.5,0,0,1,.5.5v2.29A.5.5,0,0,1,398.33,208.3Zm-9.5-1h9V206h-9Z"/>
    </g>
    <g>
      <rect class="cls-1" x="391" y="207.8" width="7.33" height="4.67"/>
      <path class="cls-1" d="M398.33,213H391a.5.5,0,0,1-.5-.5V207.8a.5.5,0,0,1,.5-.5h7.33a.5.5,0,0,1,.5.5v4.67A.5.5,0,0,1,398.33,213Zm-6.83-1h6.33V208.3H391.5Z"/>
    </g>
    <g>
      <rect class="cls-1" x="359.83" y="174.8" width="2.5" height="10.33"/>
      <path class="cls-1" d="M362.33,185.64h-2.5a.5.5,0,0,1-.5-.5V174.8a.5.5,0,0,1,.5-.5h2.5a.5.5,0,0,1,.5.5v10.33A.5.5,0,0,1,362.33,185.64Zm-2-1h1.5V175.3h-1.5Z"/>
    </g>
    <g>
      <rect class="cls-1" x="361.4" y="181.64" width="14.93" height="2.5"/>
      <path class="cls-1" d="M376.33,184.64H361.4a.5.5,0,0,1-.5-.5v-2.5a.5.5,0,0,1,.5-.5h14.93a.5.5,0,0,1,.5.5v2.5A.5.5,0,0,1,376.33,184.64Zm-14.43-1h13.93v-1.5H361.9Z"/>
    </g>
    <g>
      <rect class="cls-1" x="369.4" y="184.14" width="6.26" height="7.58"/>
      <path class="cls-1" d="M375.67,192.22H369.4a.5.5,0,0,1-.5-.5v-7.58a.5.5,0,0,1,.5-.5h6.26a.5.5,0,0,1,.5.5v7.58A.5.5,0,0,1,375.67,192.22Zm-5.76-1h5.26v-6.58H369.9Z"/>
    </g>
    <g>
      <rect class="cls-1" x="366.5" y="177.14" width="11.04" height="4.5"/>
      <path class="cls-1" d="M377.54,182.14h-11a.5.5,0,0,1-.5-.5v-4.5a.5.5,0,0,1,.5-.5h11a.5.5,0,0,1,.5.5v4.5A.5.5,0,0,1,377.54,182.14Zm-10.54-1h10v-3.5H367Z"/>
    </g>
    <g>
      <rect class="cls-1" x="402.5" y="201.97" width="2.37" height="5.83"/>
      <path class="cls-1" d="M404.87,208.3H402.5a.5.5,0,0,1-.5-.5V202a.5.5,0,0,1,.5-.5h2.37a.5.5,0,0,1,.5.5v5.83A.5.5,0,0,1,404.87,208.3Zm-1.87-1h1.37v-4.83H403Z"/>
    </g>
    <g>
      <rect class="cls-1" x="404.87" y="206.66" width="2.44" height="5.81"/>
      <path class="cls-1" d="M407.31,213h-2.44a.5.5,0,0,1-.5-.5v-5.81a.5.5,0,0,1,.5-.5h2.44a.5.5,0,0,1,.5.5v5.81A.5.5,0,0,1,407.31,213Zm-1.94-1h1.44v-4.81h-1.44Z"/>
    </g>
    <g>
      <rect class="cls-1" x="297.5" y="233.97" width="15.17" height="2.67"/>
      <path class="cls-1" d="M312.67,237.14H297.5a.5.5,0,0,1-.5-.5V234a.5.5,0,0,1,.5-.5h15.17a.5.5,0,0,1,.5.5v2.67A.5.5,0,0,1,312.67,237.14Zm-14.67-1h14.17v-1.67H298Z"/>
    </g>
    <g>
      <rect class="cls-1" x="297.5" y="224.97" width="10.33" height="4.83"/>
      <path class="cls-1" d="M307.83,230.3H297.5a.5.5,0,0,1-.5-.5V225a.5.5,0,0,1,.5-.5h10.33a.5.5,0,0,1,.5.5v4.83A.5.5,0,0,1,307.83,230.3Zm-9.83-1h9.33v-3.83H298Z"/>
    </g>
    <g>
      <rect class="cls-1" x="297.5" y="217.97" width="15.17" height="2.67"/>
      <path class="cls-1" d="M312.67,221.14H297.5a.5.5,0,0,1-.5-.5V218a.5.5,0,0,1,.5-.5h15.17a.5.5,0,0,1,.5.5v2.67A.5.5,0,0,1,312.67,221.14Zm-14.67-1h14.17v-1.67H298Z"/>
    </g>
    <g>
      <rect class="cls-1" x="317" y="217.97" width="15.17" height="2.67"/>
      <path class="cls-1" d="M332.17,221.14H317a.5.5,0,0,1-.5-.5V218a.5.5,0,0,1,.5-.5h15.17a.5.5,0,0,1,.5.5v2.67A.5.5,0,0,1,332.17,221.14Zm-14.67-1h14.17v-1.67H317.5Z"/>
    </g>
    <g>
      <rect class="cls-1" x="375.83" y="217.97" width="15.17" height="2.67"/>
      <path class="cls-1" d="M391,221.14H375.83a.5.5,0,0,1-.5-.5V218a.5.5,0,0,1,.5-.5H391a.5.5,0,0,1,.5.5v2.67A.5.5,0,0,1,391,221.14Zm-14.67-1H390.5v-1.67H376.33Z"/>
    </g>
    <g>
      <rect class="cls-1" x="375.83" y="234.68" width="15.17" height="2.67"/>
      <path class="cls-1" d="M391,237.85H375.83a.5.5,0,0,1-.5-.5v-2.67a.5.5,0,0,1,.5-.5H391a.5.5,0,0,1,.5.5v2.67A.5.5,0,0,1,391,237.85Zm-14.67-1H390.5v-1.67H376.33Z"/>
    </g>
    <g>
      <rect class="cls-1" x="317" y="224.91" width="15.17" height="2.67"/>
      <path class="cls-1" d="M332.17,228.07H317a.5.5,0,0,1-.5-.5v-2.67a.5.5,0,0,1,.5-.5h15.17a.5.5,0,0,1,.5.5v2.67A.5.5,0,0,1,332.17,228.07Zm-14.67-1h14.17v-1.67H317.5Z"/>
    </g>
    <g>
      <rect class="cls-1" x="297.5" y="217.97" width="2.5" height="18.67"/>
      <path class="cls-1" d="M300,237.14h-2.5a.5.5,0,0,1-.5-.5V218a.5.5,0,0,1,.5-.5H300a.5.5,0,0,1,.5.5v18.67A.5.5,0,0,1,300,237.14Zm-2-1h1.5V218.47H298Z"/>
    </g>
    <g>
      <rect class="cls-1" x="317" y="217.97" width="2.5" height="18.67"/>
      <path class="cls-1" d="M319.5,237.14H317a.5.5,0,0,1-.5-.5V218a.5.5,0,0,1,.5-.5h2.5a.5.5,0,0,1,.5.5v18.67A.5.5,0,0,1,319.5,237.14Zm-2-1H319V218.47h-1.5Z"/>
    </g>
    <g>
      <rect class="cls-1" x="329.67" y="217.97" width="2.5" height="9.42"/>
      <path class="cls-1" d="M332.17,227.89h-2.5a.5.5,0,0,1-.5-.5V218a.5.5,0,0,1,.5-.5h2.5a.5.5,0,0,1,.5.5v9.42A.5.5,0,0,1,332.17,227.89Zm-2-1h1.5v-8.42h-1.5Z"/>
    </g>
    <g>
      <rect class="cls-1" x="326.34" y="225.1" width="2.5" height="9.42"/>
      <path class="cls-1" d="M328.84,235h-2.5a.5.5,0,0,1-.5-.5V225.1a.5.5,0,0,1,.5-.5h2.5a.5.5,0,0,1,.5.5v9.42A.5.5,0,0,1,328.84,235Zm-2-1h1.5V225.6h-1.5Z"/>
    </g>
    <g>
      <rect class="cls-1" x="328.84" y="232.28" width="2.5" height="4.71"/>
      <path class="cls-1" d="M331.34,237.49h-2.5a.5.5,0,0,1-.5-.5v-4.71a.5.5,0,0,1,.5-.5h2.5a.5.5,0,0,1,.5.5V237A.5.5,0,0,1,331.34,237.49Zm-2-1h1.5v-3.71h-1.5Z"/>
    </g>
    <g>
      <rect class="cls-1" x="336.17" y="217.97" width="2.5" height="4.71"/>
      <path class="cls-1" d="M338.67,223.18h-2.5a.5.5,0,0,1-.5-.5V218a.5.5,0,0,1,.5-.5h2.5a.5.5,0,0,1,.5.5v4.71A.5.5,0,0,1,338.67,223.18Zm-2-1h1.5v-3.71h-1.5Z"/>
    </g>
    <g>
      <rect class="cls-1" x="345.54" y="230.82" width="2.5" height="4.71"/>
      <path class="cls-1" d="M348,236h-2.5a.5.5,0,0,1-.5-.5v-4.71a.5.5,0,0,1,.5-.5H348a.5.5,0,0,1,.5.5v4.71A.5.5,0,0,1,348,236Zm-2-1h1.5v-3.71H346Z"/>
    </g>
    <g>
      <rect class="cls-1" x="344.44" y="233.44" width="2.5" height="4.71" transform="translate(109.9 581.48) rotate(-90)"/>
      <path class="cls-1" d="M348,237.54h-4.71a.5.5,0,0,1-.5-.5v-2.5a.5.5,0,0,1,.5-.5H348a.5.5,0,0,1,.5.5V237A.5.5,0,0,1,348,237.54Zm-4.21-1h3.71V235h-3.71Z"/>
    </g>
    <g>
      <rect class="cls-1" x="338.67" y="220.33" width="2.5" height="9.48"/>
      <path class="cls-1" d="M341.17,230.3h-2.5a.5.5,0,0,1-.5-.5v-9.48a.5.5,0,0,1,.5-.5h2.5a.5.5,0,0,1,.5.5v9.48A.5.5,0,0,1,341.17,230.3Zm-2-1h1.5v-8.48h-1.5Z"/>
    </g>
    <g>
      <rect class="cls-1" x="341.17" y="227.1" width="2.5" height="7.44"/>
      <path class="cls-1" d="M343.67,235h-2.5a.5.5,0,0,1-.5-.5V227.1a.5.5,0,0,1,.5-.5h2.5a.5.5,0,0,1,.5.5v7.44A.5.5,0,0,1,343.67,235Zm-2-1h1.5V227.6h-1.5Z"/>
    </g>
    <g>
      <rect class="cls-1" x="362.24" y="218.07" width="2.5" height="4.71" transform="translate(726.97 440.84) rotate(-180)"/>
      <path class="cls-1" d="M364.74,223.28h-2.5a.5.5,0,0,1-.5-.5v-4.71a.5.5,0,0,1,.5-.5h2.5a.5.5,0,0,1,.5.5v4.71A.5.5,0,0,1,364.74,223.28Zm-2-1h1.5v-3.71h-1.5Z"/>
    </g>
    <g>
      <rect class="cls-1" x="352.86" y="230.91" width="2.5" height="4.71" transform="translate(708.22 466.53) rotate(-180)"/>
      <path class="cls-1" d="M355.36,236.12h-2.5a.5.5,0,0,1-.5-.5v-4.71a.5.5,0,0,1,.5-.5h2.5a.5.5,0,0,1,.5.5v4.71A.5.5,0,0,1,355.36,236.12Zm-2-1h1.5v-3.71h-1.5Z"/>
    </g>
    <g>
      <rect class="cls-1" x="353.96" y="233.53" width="2.5" height="4.71" transform="translate(119.32 591.1) rotate(-90)"/>
      <path class="cls-1" d="M357.57,237.64h-4.71a.5.5,0,0,1-.5-.5v-2.5a.5.5,0,0,1,.5-.5h4.71a.5.5,0,0,1,.5.5v2.5A.5.5,0,0,1,357.57,237.64Zm-4.21-1h3.71v-1.5h-3.71Z"/>
    </g>
    <g>
      <rect class="cls-1" x="359.74" y="220.42" width="2.5" height="9.48" transform="translate(721.97 450.32) rotate(-180)"/>
      <path class="cls-1" d="M362.24,230.4h-2.5a.5.5,0,0,1-.5-.5v-9.48a.5.5,0,0,1,.5-.5h2.5a.5.5,0,0,1,.5.5v9.48A.5.5,0,0,1,362.24,230.4Zm-2-1h1.5v-8.48h-1.5Z"/>
    </g>
    <g>
      <rect class="cls-1" x="348" y="220.42" width="4.86" height="11.39" transform="translate(700.86 452.23) rotate(-180)"/>
      <path class="cls-1" d="M352.86,232.31H348a.5.5,0,0,1-.5-.5V220.42a.5.5,0,0,1,.5-.5h4.86a.5.5,0,0,1,.5.5v11.39A.5.5,0,0,1,352.86,232.31Zm-4.36-1h3.86V220.92H348.5Z"/>
    </g>
    <g>
      <rect class="cls-1" x="357.24" y="227.2" width="2.5" height="7.44" transform="translate(716.97 461.84) rotate(-180)"/>
      <path class="cls-1" d="M359.74,235.14h-2.5a.5.5,0,0,1-.5-.5V227.2a.5.5,0,0,1,.5-.5h2.5a.5.5,0,0,1,.5.5v7.44A.5.5,0,0,1,359.74,235.14Zm-2-1h1.5V227.7h-1.5Z"/>
    </g>
    <g>
      <rect class="cls-1" x="349.13" y="214.4" width="2.5" height="9.67" transform="translate(569.61 -131.14) rotate(90)"/>
      <path class="cls-1" d="M355.21,221h-9.67a.5.5,0,0,1-.5-.5V218a.5.5,0,0,1,.5-.5h9.67a.5.5,0,0,1,.5.5v2.5A.5.5,0,0,1,355.21,221ZM346,220h8.67v-1.5H346Z"/>
    </g>
    <g>
      <rect class="cls-1" x="375.83" y="217.97" width="2.5" height="9.42"/>
      <path class="cls-1" d="M378.33,227.89h-2.5a.5.5,0,0,1-.5-.5V218a.5.5,0,0,1,.5-.5h2.5a.5.5,0,0,1,.5.5v9.42A.5.5,0,0,1,378.33,227.89Zm-2-1h1.5v-8.42h-1.5Z"/>
    </g>
    <g>
      <rect class="cls-1" x="388.42" y="227.1" width="2.5" height="9.42"/>
      <path class="cls-1" d="M390.92,237h-2.5a.5.5,0,0,1-.5-.5V227.1a.5.5,0,0,1,.5-.5h2.5a.5.5,0,0,1,.5.5v9.42A.5.5,0,0,1,390.92,237Zm-2-1h1.5V227.6h-1.5Z"/>
    </g>
    <g>
      <rect class="cls-1" x="394.92" y="233.97" width="15.17" height="2.67"/>
      <path class="cls-1" d="M410.08,237.14H394.92a.5.5,0,0,1-.5-.5V234a.5.5,0,0,1,.5-.5h15.17a.5.5,0,0,1,.5.5v2.67A.5.5,0,0,1,410.08,237.14Zm-14.67-1h14.17v-1.67H395.42Z"/>
    </g>
    <g>
      <rect class="cls-1" x="394.92" y="224.97" width="10.33" height="4.83"/>
      <path class="cls-1" d="M405.25,230.3H394.92a.5.5,0,0,1-.5-.5V225a.5.5,0,0,1,.5-.5h10.33a.5.5,0,0,1,.5.5v4.83A.5.5,0,0,1,405.25,230.3Zm-9.83-1h9.33v-3.83h-9.33Z"/>
    </g>
    <g>
      <rect class="cls-1" x="394.92" y="217.97" width="15.17" height="2.67"/>
      <path class="cls-1" d="M410.08,221.14H394.92a.5.5,0,0,1-.5-.5V218a.5.5,0,0,1,.5-.5h15.17a.5.5,0,0,1,.5.5v2.67A.5.5,0,0,1,410.08,221.14Zm-14.67-1h14.17v-1.67H395.42Z"/>
    </g>
    <g>
      <rect class="cls-1" x="394.92" y="217.97" width="2.5" height="18.67"/>
      <path class="cls-1" d="M397.42,237.14h-2.5a.5.5,0,0,1-.5-.5V218a.5.5,0,0,1,.5-.5h2.5a.5.5,0,0,1,.5.5v18.67A.5.5,0,0,1,397.42,237.14Zm-2-1h1.5V218.47h-1.5Z"/>
    </g>
    <g>
      <rect class="cls-1" x="360.83" y="225.76" width="19.69" height="2.69" transform="translate(597.78 -143.58) rotate(90)"/>
      <path class="cls-1" d="M372,237.44h-2.69a.5.5,0,0,1-.5-.5V217.26a.5.5,0,0,1,.5-.5H372a.5.5,0,0,1,.5.5v19.69A.5.5,0,0,1,372,237.44Zm-2.19-1h1.69V217.76h-1.69Z"/>
    </g>
    <g>
      <rect class="cls-1" x="378.75" y="224.97" width="9.58" height="4.83"/>
      <path class="cls-1" d="M388.33,230.3h-9.58a.5.5,0,0,1-.5-.5V225a.5.5,0,0,1,.5-.5h9.58a.5.5,0,0,1,.5.5v4.83A.5.5,0,0,1,388.33,230.3Zm-9.08-1h8.58v-3.83h-8.58Z"/>
    </g>
  </g>
  <rect class="cls-2" width="600" height="904"/>
  <g>
    <g>
      <path class="cls-3" d="M44-61.46h83.25V-36H80.76V23h38V48.79h-38V141H44Z"/>
      <path class="cls-3" d="M148.25-61.46h36.5V141h-36.5Z"/>
      <path class="cls-3" d="M216-61.46h48.75q32,0,47.75,12.13T328.25-7.71q0,19.25-5.62,31.38T303.25,41.29L331.5,141h-37L270.25,48.29h-17.5V141H216Zm48.5,86.75q15.75,0,22.38-7.25T293.5-5.71q0-16-5.87-23.25T266.5-36.21H252.75v61.5Z"/>
      <path class="cls-3" d="M365.62,128.29Q352,112.8,350.75,82l31.75-6.25q.75,19.25,6.13,29.37t16.88,10.13q8.5,0,12.63-5.12t4.13-13.87q0-12-5.37-20.37T400,57.54L374.5,35.29q-11.75-10-17.62-21.5T351-13.71q0-23.75,13.88-36.87t38.38-13.12q26.25,0,37.63,14.88T454-8.71l-31.75,5.5q-.75-16.5-4.62-24.87T402.5-36.46q-8,0-12.5,5.38t-4.5,13.63q0,9.75,3.88,16.37T402,13l25.25,22.25A101,101,0,0,1,449.5,61.54q8,14,8,32.5a51.31,51.31,0,0,1-6.37,25.75,45.47,45.47,0,0,1-17.87,17.63q-11.5,6.38-26.5,6.38Q379.25,143.79,365.62,128.29Z"/>
      <path class="cls-3" d="M499.5-34.21H467.25V-61.46H568v27.25H536.5V141h-37Z"/>
    </g>
    <g>
      <path class="cls-3" d="M44,150.83h83.25v25.5H80.76v59h38v25.75h-38v92.25H44Z"/>
      <path class="cls-3" d="M148.25,150.83h36.5v202.5h-36.5Z"/>
      <path class="cls-3" d="M216,150.83h48.75q32,0,47.75,12.13t15.75,41.63q0,19.25-5.62,31.38t-19.37,17.63l28.25,99.75h-37l-24.25-92.75h-17.5v92.75H216Zm48.5,86.75q15.75,0,22.38-7.25t6.63-23.75q0-16-5.87-23.25t-21.12-7.25H252.75v61.5Z"/>
      <path class="cls-3" d="M365.62,340.58q-13.63-15.5-14.87-46.25l31.75-6.25q.75,19.25,6.13,29.38t16.88,10.13q8.5,0,12.63-5.12t4.13-13.87q0-12-5.37-20.37T400,269.83l-25.5-22.25q-11.75-10-17.62-21.5T351,198.58q0-23.75,13.88-36.87t38.38-13.12q26.25,0,37.63,14.88T454,203.58l-31.75,5.5q-.75-16.5-4.62-24.87t-15.12-8.37q-8,0-12.5,5.38t-4.5,13.63q0,9.75,3.88,16.38T402,225.33l25.25,22.25a101,101,0,0,1,22.25,26.25q8,14,8,32.5a51.31,51.31,0,0,1-6.37,25.75,45.47,45.47,0,0,1-17.87,17.63q-11.5,6.38-26.5,6.38Q379.25,356.08,365.62,340.58Z"/>
      <path class="cls-3" d="M499.5,178.08H467.25V150.83H568v27.25H536.5V353.33h-37Z"/>
    </g>
    <g>
      <path class="cls-3" d="M44,363.12h83.25v25.5H80.76v59h38v25.75h-38v92.25H44Z"/>
      <path class="cls-3" d="M148.25,363.12h36.5v202.5h-36.5Z"/>
      <path class="cls-3" d="M216,363.12h48.75q32,0,47.75,12.13t15.75,41.63q0,19.25-5.62,31.38t-19.37,17.63l28.25,99.75h-37l-24.25-92.75h-17.5v92.75H216Zm48.5,86.75q15.75,0,22.38-7.25t6.63-23.75q0-16-5.87-23.25t-21.12-7.25H252.75v61.5Z"/>
      <path class="cls-3" d="M365.62,552.87q-13.63-15.5-14.87-46.25l31.75-6.25q.75,19.25,6.13,29.38t16.88,10.13q8.5,0,12.63-5.12t4.13-13.87q0-12-5.37-20.37T400,482.12l-25.5-22.25q-11.75-10-17.62-21.5T351,410.87q0-23.75,13.88-36.87t38.38-13.12q26.25,0,37.63,14.88T454,415.87l-31.75,5.5q-.75-16.5-4.62-24.87t-15.12-8.37q-8,0-12.5,5.38t-4.5,13.63q0,9.75,3.88,16.38T402,437.62l25.25,22.25a101,101,0,0,1,22.25,26.25q8,14,8,32.5a51.31,51.31,0,0,1-6.37,25.75A45.47,45.47,0,0,1,433.25,562q-11.5,6.38-26.5,6.38Q379.25,568.37,365.62,552.87Z"/>
      <path class="cls-3" d="M499.5,390.37H467.25V363.12H568v27.25H536.5V565.62h-37Z"/>
    </g>
    <g>
      <path class="cls-3" d="M44,575.41h83.25v25.5H80.76v59h38v25.75h-38v92.25H44Z"/>
      <path class="cls-3" d="M148.25,575.41h36.5v202.5h-36.5Z"/>
      <path class="cls-3" d="M216,575.41h48.75q32,0,47.75,12.13t15.75,41.63q0,19.25-5.62,31.38t-19.37,17.63l28.25,99.75h-37l-24.25-92.75h-17.5v92.75H216Zm48.5,86.75q15.75,0,22.38-7.25t6.63-23.75q0-16-5.87-23.25t-21.12-7.25H252.75v61.5Z"/>
      <path class="cls-3" d="M365.62,765.16q-13.63-15.5-14.87-46.25l31.75-6.25q.75,19.25,6.13,29.38t16.88,10.13q8.5,0,12.63-5.12t4.13-13.87q0-12-5.37-20.37T400,694.41l-25.5-22.25q-11.75-10-17.62-21.5T351,623.16q0-23.75,13.88-36.87t38.38-13.12q26.25,0,37.63,14.88T454,628.16l-31.75,5.5q-.75-16.5-4.62-24.87t-15.12-8.37q-8,0-12.5,5.38t-4.5,13.63q0,9.75,3.88,16.38T402,649.91l25.25,22.25a101,101,0,0,1,22.25,26.25q8,14,8,32.5a51.31,51.31,0,0,1-6.37,25.75,45.47,45.47,0,0,1-17.87,17.63q-11.5,6.38-26.5,6.38Q379.25,780.66,365.62,765.16Z"/>
      <path class="cls-3" d="M499.5,602.66H467.25V575.41H568v27.25H536.5V777.91h-37Z"/>
    </g>
    <g>
      <path class="cls-3" d="M44,787.7h83.25v25.5H80.76v59h38v25.75h-38V990.2H44Z"/>
      <path class="cls-3" d="M148.25,787.7h36.5V990.2h-36.5Z"/>
      <path class="cls-3" d="M216,787.7h48.75q32,0,47.75,12.13t15.75,41.63q0,19.25-5.62,31.38t-19.37,17.63L331.5,990.2h-37l-24.25-92.75h-17.5V990.2H216Zm48.5,86.75q15.75,0,22.38-7.25t6.63-23.75q0-16-5.87-23.25t-21.12-7.25H252.75v61.5Z"/>
      <path class="cls-3" d="M365.62,977.45Q352,961.95,350.75,931.2l31.75-6.25q.75,19.25,6.13,29.38t16.88,10.13q8.5,0,12.63-5.12t4.13-13.87q0-12-5.37-20.37T400,906.7l-25.5-22.25q-11.75-10-17.62-21.5T351,835.45q0-23.75,13.88-36.87t38.38-13.12q26.25,0,37.63,14.88T454,840.45l-31.75,5.5q-.75-16.5-4.62-24.87T402.5,812.7q-8,0-12.5,5.38t-4.5,13.63q0,9.75,3.88,16.38T402,862.2l25.25,22.25A101,101,0,0,1,449.5,910.7q8,14,8,32.5a51.31,51.31,0,0,1-6.37,25.75,45.47,45.47,0,0,1-17.87,17.63q-11.5,6.38-26.5,6.38Q379.25,992.95,365.62,977.45Z"/>
      <path class="cls-3" d="M499.5,814.95H467.25V787.7H568v27.25H536.5V990.2h-37Z"/>
    </g>
  </g>
  <path class="cls-4" d="M573,641.14,62.76,683.86l-33.49-400,47.42-51.28,79.91-100.68,371.19-31.08Z"/>
  <g>
    <rect x="93.11" y="379.01" width="424.6" height="188.03" transform="matrix(0.98, 0.2, -0.2, 0.98, 100.13, -51.27)"/>
    <path d="M494.78,608.37l-.2,0L78.46,523.94a1,1,0,0,1-.78-1.18l37.38-184.28a1,1,0,0,1,1.18-.78l416.12,84.41a1,1,0,0,1,.78,1.18L495.76,607.57A1,1,0,0,1,494.78,608.37ZM79.83,522.18l414.16,84,37-182.32-414.16-84Z"/>
  </g>
  <g>
    <path class="cls-1" d="M128.54,395,152,400q13.5,2.86,19.49,9.89t3.16,20.42q-1.84,8.69-6.39,12.81a15.18,15.18,0,0,1-11.47,3.77q15.76,6.65,11.47,27-2.91,13.74-11.08,19.31T135.9,495.9l-27.47-5.81Zm15,43.78q7.51,1.59,11-1.17t5.06-10.28q1.54-7.28-1.48-10.68t-11.36-5.16l-3.52-.75-5.66,26.77ZM135,482.95q7.63,1.61,11.34-1.4t5.47-11.35q1.81-8.57-.58-13.19t-10-6.23L135,449.48l-6.78,32.05Z"/>
    <path class="cls-1" d="M208,411.81l18.55,3.92-1.1,99.12-16.08-3.4.89-22.75-16.55-3.5-8.52,21.13-16.32-3.45Zm2.71,65.46,2-41.28-14.9,38.55Z"/>
    <path class="cls-1" d="M255.1,421.77l12.09,2.56,11.65,59.13,11.48-54.24,14.32,3-20.12,95.09L273,524.92,261.8,463.18l-12,56.82L235,516.87Z"/>
    <path class="cls-1" d="M319.08,435.31l12.09,2.56L342.83,497l11.48-54.24,14.32,3L348.5,540.89,337,538.46l-11.22-61.74-12,56.82L299,530.41Z"/>
    <path class="cls-1" d="M383.07,448.85,423,457.3l-2.58,12.21-22.66-4.79L392,492.07l17.85,3.78-2.56,12.09-17.85-3.78-6.68,31.58,22.89,4.84-2.51,11.86-40.15-8.5Z"/>
    <path class="cls-1" d="M433.31,459.48l22.89,4.84q15,3.18,21.22,10.44t3.26,21.11q-1.91,9-5.76,14.18a16.49,16.49,0,0,1-10.85,6.35l3.35,49.65-17.38-3.68-2.17-46-8.22-1.74-9.22,43.56-17.26-3.65ZM447.47,505q7.4,1.57,11.23-1.18t5.47-10.5q1.59-7.51-.45-11.5t-9.2-5.5L448.06,475,442,503.87Z"/>
  </g>
  <g>
    <rect x="159.47" y="200.2" width="336.02" height="188.03" transform="translate(-78.17 123.17) rotate(-19.07)"/>
    <path d="M199.42,439a1,1,0,0,1-.95-.67L137,260.59a1,1,0,0,1,.62-1.27l317.58-109.8a1,1,0,0,1,1.27.62l61.44,177.71a1,1,0,0,1-.62,1.27L199.74,438.92A1,1,0,0,1,199.42,439ZM139.24,260.88,200,436.7,515.72,327.55,454.93,151.73Z"/>
  </g>
  <rect class="cls-5" x="346.29" y="547.06" width="202.23" height="188.03"/>
  <path class="cls-6" d="M29.26,283.82,171,263,156.59,131.86Z"/>
  <g>
    <path class="cls-1" d="M198.13,293.68l37.52-13.76,4.21,11.49-21,7.69,9.75,26.59,17.12-6.28L250,331l-17.12,6.28,15.25,41.57-16.56,6.07Z"/>
    <path class="cls-1" d="M245.11,276.45l16.45-6L295,361.67l-16.45,6Z"/>
    <path class="cls-1" d="M275.64,265.25l22-8.06q14.42-5.29,23.52-2.43t14,16.15q3.18,8.68,2.65,15.07a16.49,16.49,0,0,1-5.82,11.14l29.22,40.28-16.67,6.12-26.26-37.79-7.89,2.89,15.33,41.8-16.56,6.07Zm36.19,31.08q7.1-2.6,8.88-7t-.94-11.8q-2.64-7.21-6.49-9.51t-10.72.22l-6.2,2.27,10.17,27.72Z"/>
    <path class="cls-1" d="M374.42,326q-8.7-4.73-14.35-18.38l13.28-8.06q3.52,8.55,7.62,12.23a8.57,8.57,0,0,0,9.28,1.77q3.83-1.4,4.84-4.4a10.32,10.32,0,0,0-.43-6.93,17.74,17.74,0,0,0-5.79-8.29,43.62,43.62,0,0,0-10.64-5.49l-15.17-5.81a34,34,0,0,1-11.5-6.78,28.68,28.68,0,0,1-7.19-11.42q-3.92-10.7.16-18.91t15.12-12.26q11.83-4.34,19.41.49t12.55,15.91l-13.4,7.73Q375.14,250.1,372,247t-8.2-1.27a7.4,7.4,0,0,0-4.74,4.49,9.85,9.85,0,0,0,.22,6.88,15.33,15.33,0,0,0,4.45,6.74,28.06,28.06,0,0,0,8,4.28l15.06,5.85a48.48,48.48,0,0,1,14.37,8.15,30.91,30.91,0,0,1,9,13.32,24.62,24.62,0,0,1,1.38,12.66,21.82,21.82,0,0,1-5.14,10.9,25.8,25.8,0,0,1-10.89,7.25Q383.13,330.76,374.42,326Z"/>
    <path class="cls-1" d="M407.9,230.67,393.36,236l-4.5-12.28,45.4-16.65,4.5,12.28-14.2,5.21,29,79-16.67,6.12Z"/>
  </g>
  <g>
    <path d="M401.19,590.34h19l19.44,97.2H423.15l-3.84-22.44H402.39l-4,22.44H381.75Zm16.2,63.48-6.6-40.8-6.6,40.8Z"/>
    <path d="M449.31,590.34h22.92q11.76,0,18.48,3.18a18.7,18.7,0,0,1,9.54,9.72q2.82,6.54,2.82,17.34V656q0,11-2.82,17.88a19.68,19.68,0,0,1-9.42,10.26q-6.6,3.42-17.88,3.42H449.31Zm23.16,84.84q5.88,0,8.52-2a9.14,9.14,0,0,0,3.36-5.7,60.76,60.76,0,0,0,.72-10.86v-37.2a43.42,43.42,0,0,0-.84-9.84,7.71,7.71,0,0,0-3.54-5q-2.7-1.62-8.46-1.62h-5.28v72.24Z"/>
  </g>
  <g>
    <path class="cls-3" d="M156.36,182.56a2.47,2.47,0,0,1-.26,1.68,1.56,1.56,0,0,1-1.17.74,2.28,2.28,0,0,1-.64,0,2,2,0,0,1-.64-.21,2.09,2.09,0,0,1-.58-.43,2.47,2.47,0,0,1-.45-.71,3.71,3.71,0,0,1-.27-1l0-.27-2.7,2.57-.14-1,2.71-2.5-.1-.74-3.08-.23-.12-.89,7.14.54Zm-1.07-1.67-2.39-.18.25,1.83a2.77,2.77,0,0,0,.22.8,1.29,1.29,0,0,0,.38.5,1.23,1.23,0,0,0,.46.22,1.39,1.39,0,0,0,.51,0,.88.88,0,0,0,.68-.45,1.66,1.66,0,0,0,.13-1Z"/>
    <path class="cls-3" d="M153.62,191.28l-.51-3.79-2.33-.17.54,4-.84-.07-.66-4.84,7.14.54.65,4.78-.84-.06-.53-3.88-2.28-.17.51,3.79Z"/>
    <path class="cls-3" d="M151.53,199l-.12-.9,1.85-.61-.45-3.31-2-.89-.13-.95,7.52,3.31.15,1.08Zm2.17-4.43.36,2.66,3.28-1.07Z"/>
    <path class="cls-3" d="M159.16,203.26a3.37,3.37,0,0,1-.47,2.46,2.77,2.77,0,0,1-2,1.15,4.22,4.22,0,0,1-1.6-.08,3.71,3.71,0,0,1-2.44-1.92,5.21,5.21,0,0,1-.57-1.81l-.35-2.62,7.14.54Zm-1-1.47-5.43-.41.22,1.66a4,4,0,0,0,.43,1.39,2.9,2.9,0,0,0,.8,1,2.94,2.94,0,0,0,1.07.5,3.37,3.37,0,0,0,1.26.06,2.11,2.11,0,0,0,1.5-.82,2.49,2.49,0,0,0,.34-1.85Z"/>
    <path class="cls-3" d="M154.15,218.44l-.12-.89,6.06.46-5.59-2.57-.12-.92,5-1.91-6.09-.46-.12-.89,7.14.54.17,1.28-5,1.9,5.65,2.63.19,1.37Z"/>
    <path class="cls-3" d="M162,223.8a3.63,3.63,0,0,1-.16,1.74,3,3,0,0,1-1,1.34,3.28,3.28,0,0,1-1.63.66,4.07,4.07,0,0,1-1.56-.08,4,4,0,0,1-1.36-.62,3.71,3.71,0,0,1-1-1.11,3.86,3.86,0,0,1-.52-1.5,3.62,3.62,0,0,1,.16-1.74,3,3,0,0,1,1-1.34,3.28,3.28,0,0,1,1.63-.67,4.08,4.08,0,0,1,1.55.08,4,4,0,0,1,1.36.62,3.72,3.72,0,0,1,1,1.11A3.89,3.89,0,0,1,162,223.8Zm-.85,0a2.75,2.75,0,0,0-.62-1.44,2.88,2.88,0,0,0-1.25-.87,3.22,3.22,0,0,0-1.54-.16,2.37,2.37,0,0,0-1.68.93,2.47,2.47,0,0,0-.43,1.87,2.74,2.74,0,0,0,.63,1.43,2.88,2.88,0,0,0,1.25.87,3.21,3.21,0,0,0,1.54.16,2.36,2.36,0,0,0,1.67-.93A2.47,2.47,0,0,0,161.2,223.84Z"/>
    <path class="cls-3" d="M163.07,232.08a2.47,2.47,0,0,1-.26,1.68,1.56,1.56,0,0,1-1.17.74,2.28,2.28,0,0,1-.64,0,2,2,0,0,1-.64-.21,2.09,2.09,0,0,1-.58-.43,2.47,2.47,0,0,1-.45-.71,3.71,3.71,0,0,1-.27-1l0-.27-2.7,2.57-.14-1,2.71-2.5-.1-.74-3.08-.23-.12-.89,7.14.54ZM162,230.42l-2.39-.18.25,1.83a2.77,2.77,0,0,0,.22.8,1.29,1.29,0,0,0,.38.5,1.23,1.23,0,0,0,.46.22,1.39,1.39,0,0,0,.51,0,.88.88,0,0,0,.68-.45,1.66,1.66,0,0,0,.13-1Z"/>
    <path class="cls-3" d="M160.32,240.81l-.51-3.79-2.33-.17.54,4-.84-.07-.66-4.84,7.14.54.65,4.78-.84-.06-.53-3.88-2.28-.17.51,3.79Z"/>
  </g>
</svg>
