<svg id="Слой_1" data-name="Слой 1" xmlns="http://www.w3.org/2000/svg" viewBox="0 0 127.5 151">
  <title>6Roy0LCd05cK4nNCipgzheYcNVU</title>
  <rect x="33.01" y="17.52" width="78.5" height="104.31" rx="3.4" ry="3.4" fill="#fff" stroke="#000" stroke-miterlimit="10" stroke-width="6"/>
  <path d="M37.1,104.57H82.93a4.7,4.7,0,0,0,4.26-2.71L111,51.13a4.7,4.7,0,0,0,.44-2q0-13.57.08-27.14a4.52,4.52,0,0,0-.68-2.45,6.76,6.76,0,0,0-.65-.86c-3.48-3.9-10.69-2.65-13.25-2.25-18.48,2.92-30.57-1-40.75,3.25-18.33,7.64-28.81,41-23.74,80.76A4.72,4.72,0,0,0,37.1,104.57Z" fill="#eaeaea"/>
  <line x1="43.39" y1="42.38" x2="100.51" y2="42.38" fill="none" stroke="#f7efdf" stroke-linecap="round" stroke-linejoin="round" stroke-width="4"/>
  <line x1="43.39" y1="55.71" x2="100.51" y2="55.71" fill="none" stroke="#9e9e9e" stroke-linecap="round" stroke-linejoin="round" stroke-width="4"/>
  <line x1="43.39" y1="69.05" x2="100.51" y2="69.05" fill="none" stroke="#9e9e9e" stroke-linecap="round" stroke-linejoin="round" stroke-width="4"/>
  <rect x="33.01" y="17.52" width="78.5" height="104.31" rx="3.4" ry="3.4" fill="none" stroke="#000" stroke-miterlimit="10" stroke-width="6"/>
  <line x1="43.39" y1="82.39" x2="100.51" y2="82.39" fill="none" stroke="#9e9e9e" stroke-linecap="round" stroke-linejoin="round" stroke-width="4"/>
  <line x1="43.39" y1="95.72" x2="100.51" y2="95.72" fill="none" stroke="#9e9e9e" stroke-linecap="round" stroke-linejoin="round" stroke-width="4"/>
  <line x1="43.39" y1="108.6" x2="100.51" y2="108.6" fill="none" stroke="#9e9e9e" stroke-linecap="round" stroke-linejoin="round" stroke-width="4"/>
  <line x1="38.51" y1="17.52" x2="100.51" y2="17.52" fill="none" stroke="#000" stroke-miterlimit="10" stroke-width="6"/>
  <path d="M32.6,17.52,4,84.55,84,85l24.11-67.5Z" fill="#6594f8" stroke="#000" stroke-linecap="round" stroke-linejoin="round" stroke-width="6"/>
  <line x1="36.33" y1="35.23" x2="81.47" y2="35.23" fill="#6594f8" stroke="#000" stroke-linecap="round" stroke-linejoin="round" stroke-width="4"/>
  <line x1="29.32" y1="49.53" x2="74.47" y2="49.53" fill="#6594f8" stroke="#000" stroke-linecap="round" stroke-linejoin="round" stroke-width="4"/>
</svg>
