<svg id="Слой_1" data-name="Слой 1" xmlns="http://www.w3.org/2000/svg" xmlns:xlink="http://www.w3.org/1999/xlink" viewBox="0 0 127.5 151">
  <defs>
    <clipPath id="clip-path">
      <rect x="103.39" y="-165.06" width="130" height="130" fill="none"/>
    </clipPath>
    <clipPath id="clip-path-2">
      <rect x="270.39" y="-165.06" width="130" height="130" fill="none"/>
    </clipPath>
    <clipPath id="clip-path-3">
      <rect x="437.39" y="-165.06" width="130" height="130" fill="none"/>
    </clipPath>
    <clipPath id="clip-path-4">
      <rect x="611.39" y="-165.06" width="130" height="130" fill="none"/>
    </clipPath>
  </defs>
  <title>admin</title>
  <path d="M18.37,78.42a89.33,89.33,0,0,0,17.45,37.21C41.19,122.49,46.54,129,56,132.88a38.77,38.77,0,0,0,8.58,2.38V78.42Z" fill="#4373f4"/>
  <path d="M64.57,15.74a22.19,22.19,0,0,0-8.23,1.94c-4.1,1.88-5.27,4-8.81,7.23-.9.81-12.95,11.55-22.33,12-1,0-4.27.06-6.63,2.26a8.67,8.67,0,0,0-1.67,2.31c-1.58,3.27-1,17.63,1.46,37h46.2Z" fill="#edc0cb"/>
  <path d="M110.62,79.13c3.28-19.53,3.71-34.14,1.62-37.7a10.18,10.18,0,0,0-3.59-3.65,45.73,45.73,0,0,1-4.71-.92,55.75,55.75,0,0,1-22.33-12c-3.74-3.44-4.84-5.42-8.81-7.23a22.19,22.19,0,0,0-8.23-1.94V78.42Z" fill="#8ee2c1"/>
  <path d="M64.57,135.26a38.77,38.77,0,0,0,8.58-2.38C82.68,129,88,122.33,93.33,115.64a94.29,94.29,0,0,0,12.5-21.23,99.24,99.24,0,0,0,5.31-16H64.57Z" fill="#efcf3b"/>
  <rect x="61.57" y="15.74" width="6" height="119.53" fill="#201600"/>
  <path d="M64.57,138.27a21,21,0,0,1-10-2.73c-11.75-6.17-20.76-17.57-21.14-18A96.75,96.75,0,0,1,20.55,95.56c-8.39-20.26-8.23-40.81-6.62-54.48a7.2,7.2,0,0,1,6.15-6.27,42.82,42.82,0,0,0,4.4-.86,52.54,52.54,0,0,0,21-11.25c.82-.76,1.54-1.48,2.22-2.18A23.48,23.48,0,0,1,55.07,15h0a21.44,21.44,0,0,1,19,0,23.47,23.47,0,0,1,7.34,5.56c.69.7,1.4,1.42,2.22,2.18a52.55,52.55,0,0,0,21,11.25,43.2,43.2,0,0,0,4.4.86,7.2,7.2,0,0,1,6.15,6.26c1.61,13.67,1.77,34.22-6.62,54.48a96.77,96.77,0,0,1-12.91,21.93c-.38.48-9.39,11.88-21.14,18A21,21,0,0,1,64.57,138.27Zm-7-117.88A17.85,17.85,0,0,0,52,24.73c-.71.72-1.51,1.53-2.44,2.39A59.09,59.09,0,0,1,25.94,39.77a49,49,0,0,1-5,1,1.2,1.2,0,0,0-1,1c-1.53,13-1.69,32.41,6.2,51.48a90.58,90.58,0,0,0,12.09,20.53c.34.44,8.58,10.86,19.21,16.44a15.17,15.17,0,0,0,7.19,2,15.16,15.16,0,0,0,7.19-2c10.62-5.58,18.86-16,19.21-16.44a90.58,90.58,0,0,0,12.09-20.53c7.9-19.07,7.73-38.52,6.2-51.48a1.19,1.19,0,0,0-1-1,49.41,49.41,0,0,1-5-1A59.1,59.1,0,0,1,79.58,27.12c-.93-.86-1.73-1.67-2.44-2.39a17.85,17.85,0,0,0-5.61-4.34,16.88,16.88,0,0,0-7-1.65,16.88,16.88,0,0,0-7,1.65Z" fill="#201600"/>
  <rect x="18.38" y="75.42" width="92.76" height="6" fill="#201600"/>
</svg>
