<svg id="Слой_1" data-name="Слой 1" xmlns="http://www.w3.org/2000/svg" xmlns:xlink="http://www.w3.org/1999/xlink" viewBox="0 0 127.5 151">
  <defs>
    <clipPath id="clip-path">
      <rect x="259.19" y="-165.06" width="130" height="130" fill="none"/>
    </clipPath>
    <clipPath id="clip-path-2">
      <rect x="426.19" y="-165.06" width="130" height="130" fill="none"/>
    </clipPath>
    <clipPath id="clip-path-3">
      <rect x="593.19" y="-165.06" width="130" height="130" fill="none"/>
    </clipPath>
    <clipPath id="clip-path-4">
      <rect x="767.19" y="-165.06" width="130" height="130" fill="none"/>
    </clipPath>
  </defs>
  <title>computer</title>
  <g>
    <rect x="15.2" y="25.05" width="100.09" height="80.02" rx="5.16" ry="5.16" fill="#f7efdf"/>
    <path d="M110.13,28a2.16,2.16,0,0,1,2.16,2.16V99.9a2.16,2.16,0,0,1-2.16,2.16H20.36A2.16,2.16,0,0,1,18.2,99.9V30.21A2.16,2.16,0,0,1,20.36,28h89.76m0-6H20.36a8.17,8.17,0,0,0-8.16,8.16V99.9a8.17,8.17,0,0,0,8.16,8.16h89.76a8.17,8.17,0,0,0,8.16-8.16V30.21A8.17,8.17,0,0,0,110.13,22Z"/>
  </g>
  <rect x="5.62" y="104.77" width="116.26" height="22.39" rx="1.28" ry="1.28" fill="#f7efdf" stroke="#000" stroke-miterlimit="10" stroke-width="6"/>
  <rect x="21.34" y="113.51" width="11.5" height="6.53" fill="#db3f50"/>
  <rect x="83.8" y="113.51" width="25.35" height="6.53" fill="#efcf3b"/>
  <rect x="30.97" y="37.3" width="72.1" height="51.63" rx="0.89" ry="0.89" fill="#fff"/>
  <path d="M103.08,81.67v6.14H31V81.67a2.23,2.23,0,0,0,2.23,2.23h67.64A2.23,2.23,0,0,0,103.08,81.67Z" fill="#eff1f0"/>
  <rect x="36.56" y="74.1" width="20.24" height="14.8" fill="#8ee2c1"/>
  <rect x="61.38" y="48.41" width="10.4" height="1.54" fill="#e8ebe9"/>
  <rect x="61.38" y="53.99" width="36.09" height="1.54" fill="#e8ebe9"/>
  <rect x="61.38" y="59.58" width="36.09" height="1.54" fill="#e8ebe9"/>
  <rect x="61.38" y="74.1" width="10.4" height="1.54" fill="#e8ebe9"/>
  <rect x="61.38" y="79.68" width="36.09" height="1.54" fill="#e8ebe9"/>
  <rect x="61.38" y="85.26" width="36.09" height="1.54" fill="#e8ebe9"/>
  <rect x="36.56" y="48.41" width="20.24" height="20.24" fill="#4f81f1"/>
  <rect x="36.56" y="66.92" width="20.24" height="1.73" fill="#2a2a2c" opacity="0.3"/>
  <rect x="69.08" y="65.25" width="11.35" height="3.39" rx="0.47" ry="0.47" fill="#f2e53e"/>
  <rect x="85.83" y="65.25" width="11.35" height="3.39" rx="0.47" ry="0.47" fill="#db3f50"/>
</svg>
