<svg id="Слой_1" data-name="Слой 1" xmlns="http://www.w3.org/2000/svg" viewBox="0 0 127.12 118.06">
  <title>computer_icon</title>
  <path d="M34.12,4.46a3.44,3.44,0,0,1,2.39-1h77.54l1.54-.06a.91.91,0,0,1,.93.89s0,0,0,0v9.24s0,.42-2.35.42L26.74,14V12.62a2.12,2.12,0,0,1,.63-1.51Z" fill="#abffe5" stroke="#000" stroke-miterlimit="10" stroke-width="4"/>
  <path d="M30.93,77.55a4.68,4.68,0,0,1,2.74-.83l84.46-13.2h5c.48.19.88.58.84,2v7.19S110.8,85.58,108.1,85.58s-86.39,1.13-86.39,1.13V83.64a1.6,1.6,0,0,1,.71-1.27Z" fill="#abffe5" stroke="#000" stroke-miterlimit="10" stroke-width="4"/>
  <path d="M115.19,65.57A5.65,5.65,0,0,0,117,61.45V5a.63.63,0,0,0-.93-.56l-12.2,5.17a3.22,3.22,0,0,1-1.26.29h-2.47L31.76,11.19a4.22,4.22,0,0,0-4.18,4.21V73.52a.64.64,0,0,0,.64.64l71.88,3.29A5.27,5.27,0,0,0,104,76Z" fill="#629688" stroke="#000" stroke-miterlimit="10" stroke-width="4"/>
  <path d="M31.08,77.53a5,5,0,0,1-2.51-.67,4.49,4.49,0,0,1-2.14-4.09V14.12A4.46,4.46,0,0,1,31.2,10h70a4.08,4.08,0,0,1,4.06,4.1V73A5.2,5.2,0,0,1,104,76.46a3.65,3.65,0,0,1-2.65,1.07Z" fill="#fcd120"/>
  <path d="M101.23,12a2.11,2.11,0,0,1,2.06,2.16h0V73s0,2.53-2,2.53H31.08a2.54,2.54,0,0,1-2.65-2.76V14.12S28.52,12,31.25,12h70m.07-4h-70a6.48,6.48,0,0,0-6.82,6V72.77a6.49,6.49,0,0,0,6.21,6.76H101.4a5.7,5.7,0,0,0,4.07-1.66A7.17,7.17,0,0,0,107.29,73V14.12A6.07,6.07,0,0,0,101.37,8Z"/>
  <path d="M122.47,93.45c1-.66,1.56-1,1.56-1.31V67.76c0-.2-.58-.33-1.07-.24l-17.54,17.4c-.06,0-.12-.37-.19-.37l-82,.68c-.7,0-1.27.21-1.27.47v19.79c0,.14.32.26.73.26l80.64,1.79c.67,0,1,.47,1.49.3Z" fill="#629688" stroke="#000" stroke-linecap="round" stroke-linejoin="round" stroke-width="4"/>
  <path d="M21.84,102.12l-.27-17.23A1.42,1.42,0,0,1,23,83.45h0c11.38.08,80.18.68,80.18.68s2.43,0,2.43.64v17.42s0,.75-2.31.75H25s-3.21,0-3.21-.81" fill="#fcd120" stroke="#000" stroke-linecap="round" stroke-linejoin="round" stroke-width="4"/>
  <path d="M4.41,108.55v5.89l79.7.51a13.91,13.91,0,0,0,1.79-.07H86l18.76-7a1.33,1.33,0,0,0,.85-1.24v-6.08a1.69,1.69,0,0,1-.73.25L86.25,108.5c-.06,0-.13-.11-.19-.11l-81.67.2" fill="#68edc6" stroke="#000" stroke-linecap="round" stroke-linejoin="round" stroke-width="4"/>
  <path d="M3.52,114.49a.42.42,0,0,0,.42.41H83.28c2.25,0,2.24-.24,2.24-.24v-5.43c0-.2-2.36-.2-2.36-.2H4.22a.72.72,0,0,0-.72.72h0Z" fill="#fcd120" stroke="#000" stroke-miterlimit="10" stroke-width="4"/>
  <path d="M86.07,108.52c-2.08,0-71.24.28-81.88.28a.3.3,0,0,1-.11-.57l18.22-8.08c2.41.28,75.8.31,81.86.31a.08.08,0,0,1,0,.16Z" fill="#68edc6" stroke="#000" stroke-linecap="round" stroke-linejoin="round" stroke-width="4"/>
  <path d="M20.29,102.49l1-2.12v-2.1h0l-.94,2.41h0l-4.11.06v1.83h4.11Z" fill="#fff" stroke="#000" stroke-linecap="round" stroke-linejoin="round"/>
  <path d="M16.15,102.54h4c.12,0,.12-.07.12-.07v-1.69c0-.06-.12-.06-.12-.06h-4Z" fill="#fff" stroke="#000" stroke-linecap="round" stroke-linejoin="round"/>
  <path d="M20.26,100.68c-.11,0-3.57.09-4.11.09a.36.36,0,0,1,0-.18l1-2.22a.19.19,0,0,1,.18-.13h3.86v.08Z" fill="#fff" stroke="#000" stroke-linecap="round" stroke-linejoin="round"/>
  <path d="M17.81,104.32l1-2.11V100.1l-.94,2.42h0l-4.11.06v1.82h4.1Z" fill="#fff" stroke="#000" stroke-linecap="round" stroke-linejoin="round"/>
  <path d="M13.67,104.38h4c.11,0,.11-.07.11-.07v-1.69c0-.06-.12-.06-.12-.06h-4Z" fill="#fff" stroke="#000" stroke-linecap="round" stroke-linejoin="round"/>
  <path d="M17.78,102.52c-.11,0-3.57.08-4.1.08v-.17l.95-2.22a.2.2,0,0,1,.18-.13h3.86v.08Z" fill="#fff" stroke="#000" stroke-linecap="round" stroke-linejoin="round"/>
  <path d="M15.16,106.49l1-2.11v-2.1h0l-.95,2.42H11v1.83h4.1Z" fill="#fff" stroke="#000" stroke-linecap="round" stroke-linejoin="round"/>
  <path d="M11,106.55h4c.11,0,.11-.07.11-.07v-1.69c0-.06-.12-.06-.12-.06H11Z" fill="#fff" stroke="#000" stroke-linecap="round" stroke-linejoin="round"/>
  <path d="M15.13,104.69c-.1,0-3.57.09-4.1.09a.36.36,0,0,1,0-.18l1-2.22a.19.19,0,0,1,.17-.13h3.87v.08Z" fill="#fff" stroke="#000" stroke-linecap="round" stroke-linejoin="round"/>
  <path d="M24.83,102.49l1-2.12v-2.1h0l-.94,2.41h0l-4.11.06v1.83h4.11Z" fill="#fff" stroke="#000" stroke-linecap="round" stroke-linejoin="round"/>
  <path d="M20.69,102.54h4c.12,0,.12-.07.12-.07v-1.69c0-.06-.12-.06-.12-.06h-4Z" fill="#fff" stroke="#000" stroke-linecap="round" stroke-linejoin="round"/>
  <path d="M24.8,100.68c-.11,0-3.57.09-4.11.09a.36.36,0,0,1,0-.18l1-2.22a.19.19,0,0,1,.18-.13h3.86v.08Z" fill="#fff" stroke="#000" stroke-linecap="round" stroke-linejoin="round"/>
  <path d="M22.35,104.32l1-2.11V100.1l-.94,2.42h0l-4.11.06v1.82h4.1Z" fill="#fff" stroke="#000" stroke-linecap="round" stroke-linejoin="round"/>
  <path d="M18.21,104.38h4c.11,0,.11-.07.11-.07v-1.69c0-.06-.12-.06-.12-.06h-4Z" fill="#fff" stroke="#000" stroke-linecap="round" stroke-linejoin="round"/>
  <path d="M22.32,102.52c-.11,0-3.57.08-4.1.08v-.17l1-2.22a.2.2,0,0,1,.18-.13h3.86v.08Z" fill="#fff" stroke="#000" stroke-linecap="round" stroke-linejoin="round"/>
  <path d="M19.7,106.49l1-2.11v-2.1h0l-1,2.42h0l-4.11.06v1.83h4.1Z" fill="#fff" stroke="#000" stroke-linecap="round" stroke-linejoin="round"/>
  <path d="M15.57,106.55h4c.11,0,.11-.07.11-.07v-1.69c0-.06-.12-.06-.12-.06h-4Z" fill="#fff" stroke="#000" stroke-linecap="round" stroke-linejoin="round"/>
  <path d="M19.67,104.69c-.1,0-3.57.09-4.1.09a.36.36,0,0,1,0-.18l1-2.22a.19.19,0,0,1,.17-.13h3.87v.08Z" fill="#fff" stroke="#000" stroke-linecap="round" stroke-linejoin="round"/>
  <path d="M29.37,102.49l1-2.12v-2.1h0l-.94,2.41h0l-4.11.06v1.83h4.11Z" fill="#fff" stroke="#000" stroke-linecap="round" stroke-linejoin="round"/>
  <path d="M25.23,102.54h4c.12,0,.12-.07.12-.07v-1.69c0-.06-.12-.06-.12-.06h-4Z" fill="#fff" stroke="#000" stroke-linecap="round" stroke-linejoin="round"/>
  <path d="M29.34,100.68c-.11,0-3.57.09-4.11.09a.36.36,0,0,1,0-.18l1-2.22a.19.19,0,0,1,.18-.13h3.86v.08Z" fill="#fff" stroke="#000" stroke-linecap="round" stroke-linejoin="round"/>
  <path d="M26.89,104.32l1-2.11V100.1l-.94,2.42h0l-4.11.06v1.82h4.1Z" fill="#fff" stroke="#000" stroke-linecap="round" stroke-linejoin="round"/>
  <path d="M22.75,104.38h4c.12,0,.12-.07.12-.07v-1.69c0-.06-.12-.06-.12-.06h-4Z" fill="#fff" stroke="#000" stroke-linecap="round" stroke-linejoin="round"/>
  <path d="M26.86,102.52c-.11,0-3.57.08-4.1.08v-.17l1-2.22a.2.2,0,0,1,.18-.13h3.86v.08Z" fill="#fff" stroke="#000" stroke-linecap="round" stroke-linejoin="round"/>
  <path d="M24.24,106.49l1-2.11v-2.1h0l-1,2.42h0l-4.11.06v1.83h4.1Z" fill="#fff" stroke="#000" stroke-linecap="round" stroke-linejoin="round"/>
  <path d="M20.11,106.55h4c.11,0,.11-.07.11-.07v-1.69c0-.06-.12-.06-.12-.06h-4Z" fill="#fff" stroke="#000" stroke-linecap="round" stroke-linejoin="round"/>
  <path d="M24.21,104.69c-.1,0-3.57.09-4.1.09a.36.36,0,0,1,0-.18l1-2.22a.19.19,0,0,1,.17-.13H25.1v.08Z" fill="#fff" stroke="#000" stroke-linecap="round" stroke-linejoin="round"/>
  <path d="M33.91,102.49l1-2.12v-2.1h0l-.94,2.41h0l-4.11.06v1.83h4.1Z" fill="#fff" stroke="#000" stroke-linecap="round" stroke-linejoin="round"/>
  <path d="M29.77,102.54h4c.12,0,.12-.07.12-.07v-1.69c0-.06-.12-.06-.12-.06h-4Z" fill="#fff" stroke="#000" stroke-linecap="round" stroke-linejoin="round"/>
  <path d="M33.88,100.68c-.11,0-3.57.09-4.11.09a.36.36,0,0,1,0-.18l1-2.22a.19.19,0,0,1,.18-.13h3.86v.08Z" fill="#fff" stroke="#000" stroke-linecap="round" stroke-linejoin="round"/>
  <path d="M31.43,104.32l1-2.11V100.1h0l-.94,2.42h0l-4.11.06v1.82h4.1Z" fill="#fff" stroke="#000" stroke-linecap="round" stroke-linejoin="round"/>
  <path d="M27.29,104.38h4c.12,0,.12-.07.12-.07v-1.69c0-.06-.12-.06-.12-.06h-4Z" fill="#fff" stroke="#000" stroke-linecap="round" stroke-linejoin="round"/>
  <path d="M31.4,102.52c-.11,0-3.57.08-4.1.08v-.17l1-2.22a.2.2,0,0,1,.18-.13h3.86v.08Z" fill="#fff" stroke="#000" stroke-linecap="round" stroke-linejoin="round"/>
  <path d="M28.78,106.49l1-2.11v-2.1h0l-1,2.42h0l-4.11.06v1.83h4.1Z" fill="#fff" stroke="#000" stroke-linecap="round" stroke-linejoin="round"/>
  <path d="M24.65,106.55h4c.11,0,.11-.07.11-.07v-1.69c0-.06-.12-.06-.12-.06h-4Z" fill="#fff" stroke="#000" stroke-linecap="round" stroke-linejoin="round"/>
  <path d="M28.75,104.69c-.1,0-3.57.09-4.1.09a.36.36,0,0,1,0-.18l1-2.22a.19.19,0,0,1,.17-.13h3.87v.08Z" fill="#fff" stroke="#000" stroke-linecap="round" stroke-linejoin="round"/>
  <path d="M38.45,102.49l1-2.12v-2.1h0l-.94,2.41h0l-4.11.06v1.83h4.1Z" fill="#fff" stroke="#000" stroke-linecap="round" stroke-linejoin="round"/>
  <path d="M34.31,102.54h4c.12,0,.12-.07.12-.07v-1.69c0-.06-.12-.06-.12-.06h-4Z" fill="#fff" stroke="#000" stroke-linecap="round" stroke-linejoin="round"/>
  <path d="M38.42,100.68c-.11,0-3.57.09-4.11.09a.36.36,0,0,1,0-.18l1-2.22a.19.19,0,0,1,.18-.13H39.3v.08Z" fill="#fff" stroke="#000" stroke-linecap="round" stroke-linejoin="round"/>
  <path d="M36,104.32l1-2.11V100.1h0l-1,2.4h0l-4.11.06v1.82H36Z" fill="#fff" stroke="#000" stroke-linecap="round" stroke-linejoin="round"/>
  <path d="M31.83,104.38h4c.12,0,.12-.07.12-.07v-1.69c0-.06-.12-.06-.12-.06h-4Z" fill="#fff" stroke="#000" stroke-linecap="round" stroke-linejoin="round"/>
  <path d="M35.94,102.52c-.11,0-3.57.08-4.1.08v-.17l1-2.22a.2.2,0,0,1,.18-.13h3.86v.08Z" fill="#fff" stroke="#000" stroke-linecap="round" stroke-linejoin="round"/>
  <path d="M33.32,106.49l1-2.11v-2.1h0l-1,2.42h0l-4.11.06v1.83h4.1Z" fill="#fff" stroke="#000" stroke-linecap="round" stroke-linejoin="round"/>
  <path d="M29.19,106.55h4c.11,0,.11-.07.11-.07v-1.69c0-.06-.12-.06-.12-.06h-4Z" fill="#fff" stroke="#000" stroke-linecap="round" stroke-linejoin="round"/>
  <path d="M33.29,104.69c-.1,0-3.57.09-4.1.09a.36.36,0,0,1,0-.18l1-2.22a.19.19,0,0,1,.17-.13h3.87v.08Z" fill="#fff" stroke="#000" stroke-linecap="round" stroke-linejoin="round"/>
  <path d="M43,102.49l1-2.12v-2.1h0l-.9,2.39h0l-4.11.06v1.83H43Z" fill="#fff" stroke="#000" stroke-linecap="round" stroke-linejoin="round"/>
  <path d="M38.85,102.54h4c.12,0,.12-.07.12-.07v-1.69c0-.06-.12-.06-.12-.06h-4Z" fill="#fff" stroke="#000" stroke-linecap="round" stroke-linejoin="round"/>
  <path d="M43,100.68c-.11,0-3.57.09-4.11.09a.36.36,0,0,1,0-.18l1-2.22a.19.19,0,0,1,.18-.13h3.86v.08Z" fill="#fff" stroke="#000" stroke-linecap="round" stroke-linejoin="round"/>
  <path d="M40.51,104.32l1-2.11V100.1h0l-.94,2.42h0l-4.11.06v1.82h4.1Z" fill="#fff" stroke="#000" stroke-linecap="round" stroke-linejoin="round"/>
  <path d="M36.37,104.38h4c.12,0,.12-.07.12-.07v-1.69c0-.06-.12-.06-.12-.06h-4Z" fill="#fff" stroke="#000" stroke-linecap="round" stroke-linejoin="round"/>
  <path d="M40.48,102.52c-.11,0-3.57.08-4.1.08v-.17l1-2.22a.2.2,0,0,1,.18-.13h3.86v.08Z" fill="#fff" stroke="#000" stroke-linecap="round" stroke-linejoin="round"/>
  <path d="M37.86,106.49l1-2.11v-2.1h0l-1,2.42h0l-4.11.06v1.83h4.1Z" fill="#fff" stroke="#000" stroke-linecap="round" stroke-linejoin="round"/>
  <path d="M33.73,106.55h4c.11,0,.11-.07.11-.07v-1.69c0-.06-.12-.06-.12-.06h-4Z" fill="#fff" stroke="#000" stroke-linecap="round" stroke-linejoin="round"/>
  <path d="M37.83,104.69c-.1,0-3.57.09-4.1.09a.36.36,0,0,1,0-.18l1-2.22a.19.19,0,0,1,.17-.13h3.87v.08Z" fill="#fff" stroke="#000" stroke-linecap="round" stroke-linejoin="round"/>
  <path d="M47.53,102.49l1-2.12v-2.1h0l-.94,2.41h0l-4.11.06v1.83h4.1Z" fill="#fff" stroke="#000" stroke-linecap="round" stroke-linejoin="round"/>
  <path d="M43.39,102.54h4c.12,0,.12-.07.12-.07v-1.69c0-.06-.12-.06-.12-.06h-4Z" fill="#fff" stroke="#000" stroke-linecap="round" stroke-linejoin="round"/>
  <path d="M47.5,100.68c-.11,0-3.57.09-4.11.09a.36.36,0,0,1,0-.18l1-2.22a.19.19,0,0,1,.18-.13h3.86v.08Z" fill="#fff" stroke="#000" stroke-linecap="round" stroke-linejoin="round"/>
  <path d="M45,104.32l1-2.11V100.1l-1,2.4h0l-4.11.06v1.82H45Z" fill="#fff" stroke="#000" stroke-linecap="round" stroke-linejoin="round"/>
  <path d="M40.91,104.38h4c.12,0,.12-.07.12-.07v-1.69c0-.06-.12-.06-.12-.06h-4Z" fill="#fff" stroke="#000" stroke-linecap="round" stroke-linejoin="round"/>
  <path d="M45,102.52c-.11,0-3.57.08-4.1.08v-.17l1-2.22a.2.2,0,0,1,.18-.13h3.86v.08Z" fill="#fff" stroke="#000" stroke-linecap="round" stroke-linejoin="round"/>
  <path d="M42.4,106.49l1-2.11v-2.1h0l-1,2.42h0l-4.11.06v1.83h4.1Z" fill="#fff" stroke="#000" stroke-linecap="round" stroke-linejoin="round"/>
  <path d="M38.27,106.55h4c.11,0,.11-.07.11-.07v-1.69c0-.06-.12-.06-.12-.06h-4Z" fill="#fff" stroke="#000" stroke-linecap="round" stroke-linejoin="round"/>
  <path d="M42.37,104.69c-.1,0-3.57.09-4.1.09a.36.36,0,0,1,0-.18l1-2.22a.19.19,0,0,1,.17-.13h3.87v.08Z" fill="#fff" stroke="#000" stroke-linecap="round" stroke-linejoin="round"/>
  <path d="M52.07,102.49l1-2.12v-2.1h0l-.94,2.41h0l-4.11.06v1.83h4.1Z" fill="#fff" stroke="#000" stroke-linecap="round" stroke-linejoin="round"/>
  <path d="M47.93,102.54h4c.12,0,.12-.07.12-.07v-1.69c0-.06-.12-.06-.12-.06h-4Z" fill="#fff" stroke="#000" stroke-linecap="round" stroke-linejoin="round"/>
  <path d="M52,100.68c-.11,0-3.57.09-4.11.09a.36.36,0,0,1,0-.18l1-2.22a.19.19,0,0,1,.18-.13h3.86v.08Z" fill="#fff" stroke="#000" stroke-linecap="round" stroke-linejoin="round"/>
  <path d="M49.59,104.32l1-2.11V100.1l-.94,2.42h0l-4.11.06v1.82h4.1Z" fill="#fff" stroke="#000" stroke-linecap="round" stroke-linejoin="round"/>
  <path d="M45.45,104.38h4c.12,0,.12-.07.12-.07v-1.69c0-.06-.12-.06-.12-.06h-4Z" fill="#fff" stroke="#000" stroke-linecap="round" stroke-linejoin="round"/>
  <path d="M49.56,102.52c-.11,0-3.57.08-4.1.08v-.17l1-2.22a.2.2,0,0,1,.18-.13h3.86v.08Z" fill="#fff" stroke="#000" stroke-linecap="round" stroke-linejoin="round"/>
  <path d="M46.94,106.49l1-2.11v-2.1h0l-1,2.42h0l-4.11.06v1.83h4.1Z" fill="#fff" stroke="#000" stroke-linecap="round" stroke-linejoin="round"/>
  <path d="M42.81,106.55h4c.11,0,.11-.07.11-.07v-1.69c0-.06-.12-.06-.12-.06h-4Z" fill="#fff" stroke="#000" stroke-linecap="round" stroke-linejoin="round"/>
  <path d="M46.91,104.69c-.1,0-3.57.09-4.1.09a.36.36,0,0,1,0-.18l1-2.22a.19.19,0,0,1,.17-.13H47.8v.08Z" fill="#fff" stroke="#000" stroke-linecap="round" stroke-linejoin="round"/>
  <path d="M56.61,102.49l1-2.12v-2.1h0l-.94,2.41h0l-4.11.06v1.83h4.1Z" fill="#fff" stroke="#000" stroke-linecap="round" stroke-linejoin="round"/>
  <path d="M52.47,102.54h4c.12,0,.12-.07.12-.07v-1.69c0-.06-.12-.06-.12-.06h-4Z" fill="#fff" stroke="#000" stroke-linecap="round" stroke-linejoin="round"/>
  <path d="M56.58,100.68c-.11,0-3.57.09-4.11.09a.36.36,0,0,1,0-.18l1-2.22a.19.19,0,0,1,.18-.13h3.86v.08Z" fill="#fff" stroke="#000" stroke-linecap="round" stroke-linejoin="round"/>
  <path d="M54.13,104.32l1-2.11V100.1l-.94,2.42h0l-4.11.06v1.82h4.1Z" fill="#fff" stroke="#000" stroke-linecap="round" stroke-linejoin="round"/>
  <path d="M50,104.38h4c.12,0,.12-.07.12-.07v-1.69c0-.06-.12-.06-.12-.06H50Z" fill="#fff" stroke="#000" stroke-linecap="round" stroke-linejoin="round"/>
  <path d="M54.1,102.52c-.11,0-3.57.08-4.1.08v-.17l1-2.22a.2.2,0,0,1,.18-.13H55v.08Z" fill="#fff" stroke="#000" stroke-linecap="round" stroke-linejoin="round"/>
  <path d="M51.48,106.49l1-2.11v-2.1h0l-1,2.42h0l-4.11.06v1.83h4.1Z" fill="#fff" stroke="#000" stroke-linecap="round" stroke-linejoin="round"/>
  <path d="M47.35,106.55h4c.11,0,.11-.07.11-.07v-1.69c0-.06-.12-.06-.12-.06h-4Z" fill="#fff" stroke="#000" stroke-linecap="round" stroke-linejoin="round"/>
  <path d="M51.45,104.69c-.1,0-3.57.09-4.1.09a.36.36,0,0,1,0-.18l1-2.22a.19.19,0,0,1,.17-.13h3.87v.08Z" fill="#fff" stroke="#000" stroke-linecap="round" stroke-linejoin="round"/>
  <path d="M61.15,102.49l1-2.12v-2.1h0l-.94,2.41h0l-4.11.06v1.83h4.1Z" fill="#fff" stroke="#000" stroke-linecap="round" stroke-linejoin="round"/>
  <path d="M57,102.54h4c.12,0,.12-.07.12-.07v-1.69c0-.06-.12-.06-.12-.06H57Z" fill="#fff" stroke="#000" stroke-linecap="round" stroke-linejoin="round"/>
  <path d="M61.12,100.68c-.11,0-3.57.09-4.11.09a.36.36,0,0,1,0-.18l1-2.22a.19.19,0,0,1,.18-.13H62v.08Z" fill="#fff" stroke="#000" stroke-linecap="round" stroke-linejoin="round"/>
  <path d="M58.67,104.32l1-2.11V100.1h0l-.94,2.42h0l-4.11.06v1.82h4.1Z" fill="#fff" stroke="#000" stroke-linecap="round" stroke-linejoin="round"/>
  <path d="M54.53,104.38h4c.12,0,.12-.07.12-.07v-1.69c0-.06-.12-.06-.12-.06h-4Z" fill="#fff" stroke="#000" stroke-linecap="round" stroke-linejoin="round"/>
  <path d="M58.64,102.52c-.11,0-3.57.08-4.1.08v-.17l1-2.22a.2.2,0,0,1,.18-.13h3.86v.08Z" fill="#fff" stroke="#000" stroke-linecap="round" stroke-linejoin="round"/>
  <path d="M56,106.49l1-2.11v-2.1h0l-1,2.42h0l-4.11.06v1.83h4.1Z" fill="#fff" stroke="#000" stroke-linecap="round" stroke-linejoin="round"/>
  <path d="M51.89,106.55h4c.11,0,.11-.07.11-.07v-1.69c0-.06-.12-.06-.12-.06h-4Z" fill="#fff" stroke="#000" stroke-linecap="round" stroke-linejoin="round"/>
  <path d="M56,104.69c-.1,0-3.57.09-4.1.09a.36.36,0,0,1,0-.18l1-2.22a.19.19,0,0,1,.17-.13h3.87v.08Z" fill="#fff" stroke="#000" stroke-linecap="round" stroke-linejoin="round"/>
  <path d="M65.69,102.49l1-2.12v-2.1h0l-.94,2.41h0l-4.11.06v1.83h4.1Z" fill="#fff" stroke="#000" stroke-linecap="round" stroke-linejoin="round"/>
  <path d="M61.55,102.54h4c.12,0,.12-.07.12-.07v-1.69c0-.06-.12-.06-.12-.06h-4Z" fill="#fff" stroke="#000" stroke-linecap="round" stroke-linejoin="round"/>
  <path d="M65.66,100.68c-.11,0-3.57.09-4.11.09a.36.36,0,0,1,0-.18l1-2.22a.19.19,0,0,1,.17-.13h3.87v.08Z" fill="#fff" stroke="#000" stroke-linecap="round" stroke-linejoin="round"/>
  <path d="M63.21,104.32l.95-2.11V100.1l-.94,2.42h0l-4.11.06v1.82h4.1Z" fill="#fff" stroke="#000" stroke-linecap="round" stroke-linejoin="round"/>
  <path d="M59.07,104.38h4c.12,0,.12-.07.12-.07v-1.69c0-.06-.12-.06-.12-.06h-4Z" fill="#fff" stroke="#000" stroke-linecap="round" stroke-linejoin="round"/>
  <path d="M63.18,102.52c-.11,0-3.57.08-4.1.08v-.17l1-2.22a.2.2,0,0,1,.18-.13h3.86v.08Z" fill="#fff" stroke="#000" stroke-linecap="round" stroke-linejoin="round"/>
  <path d="M60.56,106.49l1-2.11v-2.1h0l-1,2.42h0l-4.11.06v1.83h4.1Z" fill="#fff" stroke="#000" stroke-linecap="round" stroke-linejoin="round"/>
  <path d="M56.43,106.55h4c.11,0,.11-.07.11-.07v-1.69c0-.06-.12-.06-.12-.06h-4Z" fill="#fff" stroke="#000" stroke-linecap="round" stroke-linejoin="round"/>
  <path d="M60.53,104.69c-.1,0-3.57.09-4.1.09a.36.36,0,0,1,0-.18l1-2.22a.19.19,0,0,1,.17-.13h3.87v.08Z" fill="#fff" stroke="#000" stroke-linecap="round" stroke-linejoin="round"/>
  <path d="M70.23,102.49l1-2.12v-2.1h0l-.94,2.41h0l-4.11.06v1.83h4.1Z" fill="#fff" stroke="#000" stroke-linecap="round" stroke-linejoin="round"/>
  <path d="M66.09,102.54h4c.12,0,.12-.07.12-.07v-1.69c0-.06-.12-.06-.12-.06h-4Z" fill="#fff" stroke="#000" stroke-linecap="round" stroke-linejoin="round"/>
  <path d="M70.2,100.68c-.11,0-3.57.09-4.11.09a.36.36,0,0,1,0-.18l1-2.22a.19.19,0,0,1,.17-.13h3.87v.08Z" fill="#fff" stroke="#000" stroke-linecap="round" stroke-linejoin="round"/>
  <path d="M67.75,104.32l1-2.11V100.1h0l-.94,2.42h0l-4.11.06v1.82h4.1Z" fill="#fff" stroke="#000" stroke-linecap="round" stroke-linejoin="round"/>
  <path d="M63.61,104.38h4c.12,0,.12-.07.12-.07v-1.69c0-.06-.12-.06-.12-.06h-4Z" fill="#fff" stroke="#000" stroke-linecap="round" stroke-linejoin="round"/>
  <path d="M67.72,102.52c-.11,0-3.57.08-4.1.08v-.17l1-2.22a.2.2,0,0,1,.18-.13h3.86v.08Z" fill="#fff" stroke="#000" stroke-linecap="round" stroke-linejoin="round"/>
  <path d="M65.1,106.49l1-2.11v-2.1h0l-1,2.42H61v1.83h4.1Z" fill="#fff" stroke="#000" stroke-linecap="round" stroke-linejoin="round"/>
  <path d="M61,106.55h4c.11,0,.11-.07.11-.07v-1.69c0-.06-.12-.06-.12-.06H61Z" fill="#fff" stroke="#000" stroke-linecap="round" stroke-linejoin="round"/>
  <path d="M65.07,104.69c-.1,0-3.57.09-4.1.09a.36.36,0,0,1,0-.18l1-2.22a.19.19,0,0,1,.17-.13H66v.08Z" fill="#fff" stroke="#000" stroke-linecap="round" stroke-linejoin="round"/>
  <path d="M74.77,102.49l1-2.12v-2.1h0l-.94,2.41h0l-4.11.06v1.83h4.1Z" fill="#fff" stroke="#000" stroke-linecap="round" stroke-linejoin="round"/>
  <path d="M70.63,102.54h4c.12,0,.12-.07.12-.07v-1.69c0-.06-.12-.06-.12-.06h-4Z" fill="#fff" stroke="#000" stroke-linecap="round" stroke-linejoin="round"/>
  <path d="M74.74,100.68c-.11,0-3.57.09-4.11.09a.36.36,0,0,1,0-.18l1-2.22a.19.19,0,0,1,.17-.13h3.87v.08Z" fill="#fff" stroke="#000" stroke-linecap="round" stroke-linejoin="round"/>
  <path d="M72.29,104.32l.95-2.11V100.1l-.94,2.42h0l-4.11.06v1.82h4.1Z" fill="#fff" stroke="#000" stroke-linecap="round" stroke-linejoin="round"/>
  <path d="M68.15,104.38h4c.12,0,.12-.07.12-.07v-1.69c0-.06-.12-.06-.12-.06h-4Z" fill="#fff" stroke="#000" stroke-linecap="round" stroke-linejoin="round"/>
  <path d="M72.26,102.52c-.11,0-3.57.08-4.1.08v-.17l.95-2.22a.2.2,0,0,1,.18-.13h3.86v.08Z" fill="#fff" stroke="#000" stroke-linecap="round" stroke-linejoin="round"/>
  <path d="M69.64,106.49l1-2.11v-2.1h-.05l-.95,2.42h0l-4.11.06v1.83h4.1Z" fill="#fff" stroke="#000" stroke-linecap="round" stroke-linejoin="round"/>
  <path d="M65.51,106.55h4c.11,0,.11-.07.11-.07v-1.69c0-.06-.12-.06-.12-.06h-4Z" fill="#fff" stroke="#000" stroke-linecap="round" stroke-linejoin="round"/>
  <path d="M69.61,104.69c-.1,0-3.57.09-4.1.09a.36.36,0,0,1,0-.18l.95-2.22a.19.19,0,0,1,.17-.13H70.5v.08Z" fill="#fff" stroke="#000" stroke-linecap="round" stroke-linejoin="round"/>
  <path d="M79.31,102.49l1-2.12v-2.1h0l-.94,2.41h0l-4.11.06v1.83h4.1Z" fill="#fff" stroke="#000" stroke-linecap="round" stroke-linejoin="round"/>
  <path d="M75.17,102.54h4c.12,0,.12-.07.12-.07v-1.69c0-.06-.12-.06-.12-.06h-4Z" fill="#fff" stroke="#000" stroke-linecap="round" stroke-linejoin="round"/>
  <path d="M79.28,100.68c-.11,0-3.57.09-4.11.09a.36.36,0,0,1,0-.18l1-2.22a.19.19,0,0,1,.17-.13h3.87v.08Z" fill="#fff" stroke="#000" stroke-linecap="round" stroke-linejoin="round"/>
  <path d="M76.83,104.32l1-2.11V100.1h0l-.94,2.42h0l-4.11.06v1.82h4.1Z" fill="#fff" stroke="#000" stroke-linecap="round" stroke-linejoin="round"/>
  <path d="M72.69,104.38h4c.12,0,.12-.07.12-.07v-1.69c0-.06-.12-.06-.12-.06h-4Z" fill="#fff" stroke="#000" stroke-linecap="round" stroke-linejoin="round"/>
  <path d="M76.8,102.52c-.11,0-3.57.08-4.1.08v-.17l1-2.22a.2.2,0,0,1,.18-.13h3.86v.08Z" fill="#fff" stroke="#000" stroke-linecap="round" stroke-linejoin="round"/>
  <path d="M74.18,106.49l.95-2.11v-2.1h0l-1,2.42H70v1.83h4.1Z" fill="#fff" stroke="#000" stroke-linecap="round" stroke-linejoin="round"/>
  <path d="M70.05,106.55h4c.11,0,.11-.07.11-.07v-1.69c0-.06-.12-.06-.12-.06H70Z" fill="#fff" stroke="#000" stroke-linecap="round" stroke-linejoin="round"/>
  <path d="M74.15,104.69c-.1,0-3.57.09-4.1.09a.36.36,0,0,1,0-.18l1-2.22a.19.19,0,0,1,.17-.13h3.87v.08Z" fill="#fff" stroke="#000" stroke-linecap="round" stroke-linejoin="round"/>
  <path d="M83.85,102.49l1-2.12v-2.1h0l-.94,2.41h0l-4.11.06v1.83h4.1Z" fill="#fff" stroke="#000" stroke-linecap="round" stroke-linejoin="round"/>
  <path d="M79.71,102.54h4c.12,0,.12-.07.12-.07v-1.69c0-.06-.12-.06-.12-.06h-4Z" fill="#fff" stroke="#000" stroke-linecap="round" stroke-linejoin="round"/>
  <path d="M83.82,100.68c-.11,0-3.57.09-4.11.09a.36.36,0,0,1,0-.18l1-2.22a.19.19,0,0,1,.17-.13h3.87v.08Z" fill="#fff" stroke="#000" stroke-linecap="round" stroke-linejoin="round"/>
  <path d="M81.37,104.32l.95-2.11V100.1h0l-.94,2.42h0l-4.11.06v1.82h4.1Z" fill="#fff" stroke="#000" stroke-linecap="round" stroke-linejoin="round"/>
  <path d="M77.23,104.38h4c.12,0,.12-.07.12-.07v-1.69c0-.06-.12-.06-.12-.06h-4Z" fill="#fff" stroke="#000" stroke-linecap="round" stroke-linejoin="round"/>
  <path d="M81.34,102.52c-.11,0-3.57.08-4.1.08v-.17l1-2.22a.2.2,0,0,1,.18-.13h3.86v.08Z" fill="#fff" stroke="#000" stroke-linecap="round" stroke-linejoin="round"/>
  <path d="M78.72,106.49l1-2.11v-2.1h0l-1,2.42h0l-4.11.06v1.83h4.1Z" fill="#fff" stroke="#000" stroke-linecap="round" stroke-linejoin="round"/>
  <path d="M74.59,106.55h4c.11,0,.11-.07.11-.07v-1.69c0-.06-.12-.06-.12-.06h-4Z" fill="#fff" stroke="#000" stroke-linecap="round" stroke-linejoin="round"/>
  <path d="M78.69,104.69c-.1,0-3.57.09-4.1.09a.36.36,0,0,1,0-.18l1-2.22a.19.19,0,0,1,.17-.13h3.87v.08Z" fill="#fff" stroke="#000" stroke-linecap="round" stroke-linejoin="round"/>
  <path d="M88.39,102.49l1-2.12v-2.1h0l-.94,2.41h0l-4.11.06v1.83h4.1Z" fill="#fff" stroke="#000" stroke-linecap="round" stroke-linejoin="round"/>
  <path d="M84.25,102.54h4c.12,0,.12-.07.12-.07v-1.69c0-.06-.12-.06-.12-.06h-4Z" fill="#fff" stroke="#000" stroke-linecap="round" stroke-linejoin="round"/>
  <path d="M88.36,100.68c-.11,0-3.57.09-4.11.09a.36.36,0,0,1,0-.18l1-2.22a.19.19,0,0,1,.17-.13h3.87v.08Z" fill="#fff" stroke="#000" stroke-linecap="round" stroke-linejoin="round"/>
  <path d="M85.91,104.32l1-2.11V100.1h0L86,102.52h0l-4.11.06v1.82H86Z" fill="#fff" stroke="#000" stroke-linecap="round" stroke-linejoin="round"/>
  <path d="M81.77,104.38h4c.12,0,.12-.07.12-.07v-1.69c0-.06-.12-.06-.12-.06h-4Z" fill="#fff" stroke="#000" stroke-linecap="round" stroke-linejoin="round"/>
  <path d="M85.88,102.52c-.11,0-3.57.08-4.1.08v-.17l1-2.22a.2.2,0,0,1,.18-.13h3.86v.08Z" fill="#fff" stroke="#000" stroke-linecap="round" stroke-linejoin="round"/>
  <path d="M83.26,106.49l.95-2.11v-2.1h0l-1,2.42h0l-4.11.06v1.83h4.1Z" fill="#fff" stroke="#000" stroke-linecap="round" stroke-linejoin="round"/>
  <path d="M79.13,106.55h4c.11,0,.11-.07.11-.07v-1.69c0-.06-.12-.06-.12-.06h-4Z" fill="#fff" stroke="#000" stroke-linecap="round" stroke-linejoin="round"/>
  <path d="M83.23,104.69c-.1,0-3.57.09-4.1.09a.36.36,0,0,1,0-.18l1-2.22a.19.19,0,0,1,.17-.13h3.87v.08Z" fill="#fff" stroke="#000" stroke-linecap="round" stroke-linejoin="round"/>
  <path d="M92.93,102.49l.95-2.12v-2.1h-.05l-.94,2.41h0l-4.11.06v1.83h4.1Z" fill="#fff" stroke="#000" stroke-linecap="round" stroke-linejoin="round"/>
  <path d="M88.79,102.54h4c.12,0,.12-.07.12-.07v-1.69c0-.06-.12-.06-.12-.06h-4Z" fill="#fff" stroke="#000" stroke-linecap="round" stroke-linejoin="round"/>
  <path d="M92.9,100.68c-.11,0-3.57.09-4.11.09a.36.36,0,0,1,0-.18l.95-2.22a.19.19,0,0,1,.17-.13h3.87v.08Z" fill="#fff" stroke="#000" stroke-linecap="round" stroke-linejoin="round"/>
  <path d="M90.45,104.32l1-2.11V100.1h0l-.94,2.42h0l-4.11.06v1.82h4.11Z" fill="#fff" stroke="#000" stroke-linecap="round" stroke-linejoin="round"/>
  <path d="M86.31,104.38h4c.12,0,.12-.07.12-.07v-1.69c0-.06-.12-.06-.12-.06h-4Z" fill="#fff" stroke="#000" stroke-linecap="round" stroke-linejoin="round"/>
  <path d="M90.42,102.52c-.11,0-3.57.08-4.1.08v-.17l1-2.22a.2.2,0,0,1,.18-.13h3.86v.08Z" fill="#fff" stroke="#000" stroke-linecap="round" stroke-linejoin="round"/>
  <path d="M87.8,106.49l1-2.11v-2.1h0l-1,2.42h0l-4.11.06v1.83h4.1Z" fill="#fff" stroke="#000" stroke-linecap="round" stroke-linejoin="round"/>
  <path d="M83.67,106.55h4c.11,0,.11-.07.11-.07v-1.69c0-.06-.12-.06-.12-.06h-4Z" fill="#fff" stroke="#000" stroke-linecap="round" stroke-linejoin="round"/>
  <path d="M87.77,104.69c-.1,0-3.57.09-4.1.09a.36.36,0,0,1,0-.18l1-2.22a.19.19,0,0,1,.17-.13h3.87v.08Z" fill="#fff" stroke="#000" stroke-linecap="round" stroke-linejoin="round"/>
  <line x1="65.1" y1="106.49" x2="65.08" y2="106.52" fill="none" stroke="#000" stroke-linecap="round" stroke-linejoin="round"/>
  <path d="M85.24,19.49H40a5.19,5.19,0,0,0-5.19,5.18L34.7,62.79A5.19,5.19,0,0,0,39.87,68H85.31a5.19,5.19,0,0,0,5.19-5.19h0l-.07-38.12a5.19,5.19,0,0,0-5.19-5.19Z" fill="#4696fc" stroke="#201600" stroke-miterlimit="10" stroke-width="4"/>
  <ellipse cx="43.23" cy="36.58" rx="1.26" ry="7.16" fill="#fff"/>
  <circle cx="30.91" cy="91.66" r="2.48"/>
  <rect x="78.94" y="89.18" width="20.95" height="2.48" fill="#1d1d1b"/>
</svg>
