<svg id="Слой_1" data-name="Слой 1" xmlns="http://www.w3.org/2000/svg" viewBox="0 0 130.94 97.58">
  <title>computer_about</title>
  <path d="M.77,106.79C21.21,103.14,75,90.53,109.32,43.5a143.65,143.65,0,0,0,16.61-29.63l-109.81.52L.77,29.76Z" transform="translate(1.82 -11.87)" fill="#a36473" stroke="#000" stroke-linecap="round" stroke-linejoin="round" stroke-width="4"/>
  <rect x="2" y="17.36" width="111.58" height="39.11" rx="1.18" ry="1.18" fill="#fec2ce" stroke="#000" stroke-miterlimit="10" stroke-width="4"/>
  <line x1="91.34" y1="26.95" x2="101.11" y2="26.95" fill="none" stroke="#000" stroke-linecap="round" stroke-linejoin="round" stroke-width="2"/>
  <line x1="13.69" y1="36.15" x2="101.11" y2="36.15" fill="none" stroke="#000" stroke-linecap="round" stroke-linejoin="round" stroke-width="2"/>
  <line x1="13.69" y1="45.35" x2="101.11" y2="45.35" fill="none" stroke="#000" stroke-linecap="round" stroke-linejoin="round" stroke-width="2"/>
  <rect x="2" y="56.47" width="111.58" height="39.11" rx="1.18" ry="1.18" fill="#fec2ce" stroke="#000" stroke-miterlimit="10" stroke-width="4"/>
  <line x1="91.34" y1="66.05" x2="101.11" y2="66.05" fill="none" stroke="#000" stroke-linecap="round" stroke-linejoin="round" stroke-width="2"/>
  <line x1="13.69" y1="75.25" x2="101.11" y2="75.25" fill="none" stroke="#000" stroke-linecap="round" stroke-linejoin="round" stroke-width="2"/>
  <line x1="13.69" y1="84.46" x2="101.11" y2="84.46" fill="none" stroke="#000" stroke-linecap="round" stroke-linejoin="round" stroke-width="2"/>
  <path d="M111.76,107.46l15.36-15.62V15L111.76,30.38Z" transform="translate(1.82 -11.87)" fill="#a36473" stroke="#000" stroke-linecap="round" stroke-linejoin="round" stroke-width="4"/>
</svg>
