<svg id="Слой_1" data-name="Слой 1" xmlns="http://www.w3.org/2000/svg" viewBox="0 0 127.12 118.06">
  <title>credits</title>
  <ellipse cx="58.88" cy="44.13" rx="35.34" ry="8.35" fill="#a36473" stroke="#000" stroke-miterlimit="10" stroke-width="4"/>
  <rect x="66.73" y="27.38" width="5.15" height="36.13" fill="#fcf0e0" stroke="#201600" stroke-linecap="round" stroke-linejoin="round" stroke-width="3"/>
  <rect x="81.99" y="39.68" width="5.15" height="36.13" transform="translate(169.14 115.49) rotate(-180)" fill="#fcf0e0" stroke="#201600" stroke-linecap="round" stroke-linejoin="round" stroke-width="3"/>
  <rect x="33.2" y="21.29" width="11.3" height="36.99" transform="translate(-8.86 11.22) rotate(-14.77)" fill="#68edc6" stroke="#000" stroke-linecap="round" stroke-linejoin="round" stroke-width="3"/>
  <rect x="48.35" y="15.87" width="11.3" height="39.23" transform="translate(-1.28 2.03) rotate(-2.13)" fill="#f0491f" stroke="#000" stroke-linecap="round" stroke-linejoin="round" stroke-width="3"/>
  <path d="M66.73,27.38C63.38,25.71,63,21,62.8,19.09,61.89,8.6,71.24-.53,72.62.19c.9.47-2.32,4.71-.74,10.55,1,3.84,3,4.22,3.44,7.85.3,2.68-.24,7.17-3.44,8.78A5.9,5.9,0,0,1,66.73,27.38Z" fill="#0c74f9" stroke="#000" stroke-miterlimit="10" stroke-width="3"/>
  <path d="M87.15,39.68c3.35-1.68,3.76-6.39,3.93-8.29.91-10.49-8.44-19.62-9.82-18.9-.9.47,2.32,4.71.74,10.55-1,3.84-3,4.22-3.44,7.85-.3,2.68.24,7.17,3.44,8.78A5.9,5.9,0,0,0,87.15,39.68Z" fill="#fcd120" stroke="#000" stroke-miterlimit="10" stroke-width="3"/>
  <polygon points="31.64 12.45 39.59 20.47 28.67 23.35 31.64 12.45" fill="#fcf0e0" stroke="#201600" stroke-linecap="round" stroke-linejoin="round" stroke-width="3"/>
  <polygon points="52.89 5.52 58.92 15.68 47.63 16.1 52.89 5.52" fill="#fcf0e0" stroke="#201600" stroke-linecap="round" stroke-linejoin="round" stroke-width="3"/>
  <path d="M23.53,44.13c0,4.61,15.82,8.35,35.34,8.35s35.34-3.74,35.34-8.35v62.4c0,4.61-15.82,8.35-35.34,8.35s-35.34-3.74-35.34-8.35Z" fill="#fec2ce" stroke="#000" stroke-miterlimit="10" stroke-width="4"/>
  <path d="M58.88,52.47a46.07,46.07,0,0,0,25-2.44,44.07,44.07,0,0,0,10.35-5.9v62.4a68.22,68.22,0,0,1-11.63,5,69.12,69.12,0,0,1-23.72,3.32c8.5-13.39,8.55-22.32,6.94-28-1.55-5.53-4.73-8.34-6.62-16.11A43,43,0,0,1,58.88,52.47Z" fill="#a36473"/>
  <path d="M32.37,58.36c2.87,6.75,16.4,36.84,42.57,42,4.07.8,11.5,2.14,17.07-2,8.21-6.05,9.47-21.86,2.22-39.51" fill="none" stroke="#000" stroke-linecap="round" stroke-linejoin="round" stroke-width="4"/>
  <path d="M23.53,44.13c0,4.61,15.82,8.35,35.34,8.35s35.34-3.74,35.34-8.35v62.4c0,4.61-15.82,8.35-35.34,8.35s-35.34-3.74-35.34-8.35Z" fill="none" stroke="#000" stroke-miterlimit="10" stroke-width="4"/>
</svg>
