<?xml version="1.0" encoding="utf-8"?>
<!-- Generator: Adobe Illustrator 21.0.2, SVG Export Plug-In . SVG Version: 6.00 Build 0)  -->
<svg version="1.1" id="Слой_1" xmlns="http://www.w3.org/2000/svg" xmlns:xlink="http://www.w3.org/1999/xlink" x="0px" y="0px"
	 viewBox="0 0 127.1 118.1" style="enable-background:new 0 0 127.1 118.1;" xml:space="preserve">
<style type="text/css">
	.st0{fill:#CEA97C;stroke:#000000;stroke-width:4;stroke-miterlimit:10;}
	.st1{fill:#FCF0E0;stroke:#201600;stroke-width:3;stroke-linecap:round;stroke-linejoin:round;}
	.st2{fill:#68EDC6;stroke:#000000;stroke-width:3;stroke-linecap:round;stroke-linejoin:round;}
	.st3{fill:#F0491F;stroke:#000000;stroke-width:3;stroke-linecap:round;stroke-linejoin:round;}
	.st4{fill:#0C74F9;stroke:#000000;stroke-width:3;stroke-miterlimit:10;}
	.st5{fill:#FCD120;stroke:#000000;stroke-width:3;stroke-miterlimit:10;}
	.st6{fill:#FCF0E0;stroke:#000000;stroke-width:4;stroke-miterlimit:10;}
	.st7{fill:#CEA97C;}
	.st8{fill:none;stroke:#000000;stroke-width:4;stroke-linecap:round;stroke-linejoin:round;}
	.st9{fill:none;stroke:#000000;stroke-width:4;stroke-miterlimit:10;}
</style>
<title>credits</title>
<ellipse class="st0" cx="58.9" cy="44.1" rx="35.3" ry="8.4"/>
<rect x="66.7" y="27.4" class="st1" width="5.2" height="36.1"/>
<rect x="82" y="39.7" class="st1" width="5.2" height="36.1"/>
<rect x="33.2" y="21.3" transform="matrix(0.967 -0.2549 0.2549 0.967 -8.8593 11.2188)" class="st2" width="11.3" height="37"/>
<rect x="48.4" y="15.9" transform="matrix(0.9993 -3.716695e-02 3.716695e-02 0.9993 -1.2815 2.0316)" class="st3" width="11.3" height="39.2"/>
<path class="st4" d="M66.7,27.4c-3.4-1.7-3.7-6.4-3.9-8.3C61.9,8.6,71.2-0.5,72.6,0.2c0.9,0.5-2.3,4.7-0.7,10.6c1,3.8,3,4.2,3.4,7.9
	c0.3,2.7-0.2,7.2-3.4,8.8C70.3,28.2,68.4,28.2,66.7,27.4z"/>
<path class="st5" d="M87.2,39.7c3.3-1.7,3.8-6.4,3.9-8.3c0.9-10.5-8.4-19.6-9.8-18.9C80.4,13,83.6,17.2,82,23c-1,3.8-3,4.2-3.4,7.9
	c-0.3,2.7,0.2,7.2,3.4,8.8C83.6,40.5,85.5,40.5,87.2,39.7z"/>
<polygon class="st1" points="31.6,12.4 39.6,20.5 28.7,23.3 "/>
<polygon class="st1" points="52.9,5.5 58.9,15.7 47.6,16.1 "/>
<path class="st6" d="M23.5,44.1c0,4.6,15.8,8.4,35.3,8.4s35.3-3.7,35.3-8.3v62.4c0,4.6-15.8,8.3-35.3,8.3s-35.3-3.7-35.3-8.3
	L23.5,44.1z"/>
<path class="st7" d="M58.9,52.5c8.4,1.5,17.1,0.7,25-2.4c3.7-1.5,7.2-3.5,10.3-5.9v62.4c-3.7,2-7.6,3.7-11.6,5
	c-7.7,2.5-15.7,3.6-23.7,3.3c8.5-13.4,8.6-22.3,6.9-28c-1.6-5.5-4.7-8.3-6.6-16.1C57.8,64.7,57.7,58.5,58.9,52.5z"/>
<path class="st8" d="M32.4,58.4c2.9,6.8,16.4,36.8,42.6,42c4.1,0.8,11.5,2.1,17.1-2c8.2-6.1,9.5-21.9,2.2-39.5"/>
<path class="st9" d="M23.5,44.1c0,4.6,15.8,8.4,35.3,8.4s35.3-3.7,35.3-8.3v62.4c0,4.6-15.8,8.3-35.3,8.3s-35.3-3.7-35.3-8.3
	L23.5,44.1z"/>
</svg>
