<svg id="Слой_1" data-name="Слой 1" xmlns="http://www.w3.org/2000/svg" viewBox="0 0 127.5 151">
  <title>icons</title>
  <g>
    <g>
      <path d="M86.24,129.39a5,5,0,0,1-1.65-.28l-56-19.61a5,5,0,0,1-3.07-6.37l28.28-80.8a5,5,0,0,1,6.37-3.07l56,19.61a5,5,0,0,1,3.07,6.37L91,126A5,5,0,0,1,86.24,129.39Z" fill="#fff"/>
      <path d="M58.49,22a2,2,0,0,1,.66.11l56,19.61a2,2,0,0,1,1.23,2.55l-28.28,80.8a2,2,0,0,1-2.55,1.23l-56-19.61a2,2,0,0,1-1.23-2.55L56.6,23.32A2,2,0,0,1,58.49,22m0-6h0a8,8,0,0,0-7.55,5.36l-28.28,80.8a8,8,0,0,0,4.91,10.19l56,19.61A8,8,0,0,0,93.79,127l28.28-80.8A8,8,0,0,0,117.16,36l-56-19.61A8,8,0,0,0,58.49,16Z"/>
    </g>
    <polygon points="79.44 76.67 70.62 58.35 104.59 41.99 112.28 44.68 98.72 83.42 79.44 76.67" fill="#7ccaa5"/>
    <circle cx="84.88" cy="50.09" r="10.73" transform="translate(9.56 113.66) rotate(-70.71)" fill="#f2e53e" opacity="0.2"/>
    <circle cx="84.88" cy="50.09" r="6.73" transform="translate(9.56 113.66) rotate(-70.71)" fill="#f2e53e"/>
    <path d="M69.47,116.67C68.56,114.07,53,82.52,53,82.52L108.5,55.8,85.27,122.2Z" fill="#8ee2c1"/>
    <ellipse cx="70.14" cy="101.56" rx="4.85" ry="2.87" transform="translate(-48.89 134.21) rotate(-70.71)" fill="#252623" opacity="0.1"/>
    <rect x="66.23" y="96.8" width="1.07" height="7.15" transform="translate(-50.03 130.23) rotate(-70.71)" fill="#514943"/>
    <circle cx="60.73" cy="98.26" r="4.85" transform="translate(-52.08 123.12) rotate(-70.71)" fill="#7ccaa5"/>
  </g>
  <g id="folder">
    <path d="M67.13,55.31,65,50.71a6,6,0,0,0-5.4-3.44H35a6,6,0,0,0-5.4,3.44l-2.14,4.6H23.22a6,6,0,0,0-6,6v68.42a6,6,0,0,0,6,6h84.49a5.95,5.95,0,0,0,6-6V61.26a6,6,0,0,0-6-6Z" fill="#f7efdf" stroke="#000" stroke-miterlimit="10" stroke-width="6"/>
    <line x1="113.99" y1="129.8" x2="112.95" y2="132.51" fill="#f7efdf" stroke="#000" stroke-miterlimit="10" stroke-width="6"/>
  </g>
  <path d="M75.92,118.83c-30.33.39-46.31-4.81-50.7,2a6.06,6.06,0,0,0-.55,5.76c2.91,5.49,25.87,2.43,30.52,2.71,10.54.64,47.81.65,51-3.21,2.74-3.34.66-7.39-.5-15.75-3.51-25.28,8.4-39.75.75-46.25a10,10,0,0,0-9-1.75c-8.38,2.55-13,19.25-9.95,32.74,2.45,10.7,8.76,15,6.45,19.51C92.24,117.86,87.3,118.69,75.92,118.83Z" fill="#f7e6c6"/>
</svg>
