<svg id="Слой_1" data-name="Слой 1" xmlns="http://www.w3.org/2000/svg" viewBox="0 0 123.39 117.2">
  <title>folder</title>
  <g>
    <rect x="19.27" y="31.13" width="92.03" height="83.07" rx="2.17" ry="2.17" fill="#faefdf" stroke="#010101" stroke-miterlimit="10" stroke-width="6"/>
    <g>
      <g>
        <path d="M89.31,130.71a5,5,0,0,1-1.65-.28l-56-19.61a5,5,0,0,1-3.07-6.37l28.28-80.8a5,5,0,0,1,6.37-3.07l56,19.61a5,5,0,0,1,3.07,6.37L94,127.36A5,5,0,0,1,89.31,130.71Z" transform="translate(-2.19 -17.3)" fill="#fff"/>
        <path d="M61.56,23.3a2,2,0,0,1,.66.11l56,19.61a2,2,0,0,1,1.23,2.55L91.2,126.36a2,2,0,0,1-2.55,1.23L32.62,108a2,2,0,0,1-1.23-2.55l28.28-80.8a2,2,0,0,1,1.89-1.34m0-6h0A8,8,0,0,0,54,22.65l-28.28,80.8a8,8,0,0,0,4.91,10.19l56,19.61a8,8,0,0,0,10.19-4.91l28.28-80.8a8,8,0,0,0-4.91-10.19l-56-19.61a8,8,0,0,0-2.64-.45Z" transform="translate(-2.19 -17.3)" fill="#010101"/>
      </g>
      <polygon points="80.32 60.68 71.5 42.36 105.47 26 113.16 28.69 99.6 67.43 80.32 60.68" fill="#56b99e"/>
      <circle cx="87.95" cy="51.4" r="10.73" transform="translate(8.19 100.14) rotate(-70.71)" fill="#f7e51e" opacity="0.2"/>
      <circle cx="87.95" cy="51.4" r="6.73" transform="translate(8.19 100.14) rotate(-70.71)" fill="#f7e51e"/>
      <path d="M72.54,118c-.91-2.6-16.44-34.15-16.44-34.15l55.48-26.72-23.24,66.4Z" transform="translate(-2.19 -17.3)" fill="#6fc2b2"/>
      <ellipse cx="73.21" cy="102.87" rx="4.85" ry="2.87" transform="translate(-50.26 120.69) rotate(-70.71)" fill="#20211e" opacity="0.1"/>
      <rect x="69.3" y="98.11" width="1.07" height="7.15" transform="translate(-51.4 116.72) rotate(-70.71)" fill="#544841"/>
      <circle cx="63.8" cy="99.57" r="4.85" transform="translate(-53.45 109.61) rotate(-70.71)" fill="#56b99e"/>
    </g>
    <path d="M108.4,131.49H20a2.17,2.17,0,0,1-2.11-1.7L5.25,72.92a2.17,2.17,0,0,1,2.11-2.63H91.68a2.17,2.17,0,0,1,2.08,1.56l16.72,56.87A2.17,2.17,0,0,1,108.4,131.49Z" transform="translate(-2.19 -17.3)" fill="#faefdf" stroke="#010101" stroke-miterlimit="10" stroke-width="6"/>
    <path d="M71.55,105.77c6-11-.38-24.3,4.81-26.47,3.59-1.5,10,3.49,13.16,8.92,4.39,7.57.16,12.06,3.86,21.39,3.78,9.53,11.07,12.07,9.83,14.67-2,4.13-20-3-33.17-.33a44.45,44.45,0,0,1-17.53.31c-11.39-2-26.51.1-26.64-.81C25.69,122,61.7,123.76,71.55,105.77Z" transform="translate(-2.19 -17.3)" fill="#fee7c7"/>
  </g>
</svg>
