<svg id="Слой_1" data-name="Слой 1" xmlns="http://www.w3.org/2000/svg" xmlns:xlink="http://www.w3.org/1999/xlink" viewBox="0 0 127 151">
  <defs>
    <clipPath id="clip-path">
      <path d="M71.58,13l40,40v75a5,5,0,0,1-5,5h-90a5,5,0,0,1-5-5V18a5,5,0,0,1,5-5Z"/>
    </clipPath>
    <clipPath id="clip-path-2">
      <rect width="127" height="151" fill="none"/>
    </clipPath>
    <clipPath id="clip-path-3">
      <path d="M112,53H86.71C79,53,72,46,72,38.29V13Z" fill="none" clip-rule="evenodd"/>
    </clipPath>
    <clipPath id="clip-path-6">
      <path d="M80.79,82.61l-1.55,1.27-1.51,1.31.16.18,8.59,9.89-5.25-12L51.55,15.35,50,11.75l-2,3.39L36.68,34.44l.93-.82L17.2,42.46l-3.43,1.49,3.14,2L78.19,85.59l10.76,7-8.13-9.91ZM77.7,85.14l0,0,1.55-1.27,1.09-1.68L19.08,42.61l-.29,3.51L39.2,37.28l.6-.26.33-.56,11.31-19.3L47.88,17,77.57,84.86l1.83-.8,1.51-1.31-.16-.18Zm63.54-45.67L95,122.86-18.09,60.16,28.14-23.22Z" fill="none" clip-rule="evenodd"/>
    </clipPath>
    <clipPath id="clip-path-7">
      <polygon points="79.25 83.88 79.27 83.91 18 44.29 38.41 35.45 49.72 16.15 79.4 84.06 79.25 83.88" fill="none" clip-rule="evenodd"/>
    </clipPath>
    <clipPath id="clip-path-12">
      <rect x="27.37" y="230.21" width="130" height="130" fill="none"/>
    </clipPath>
    <clipPath id="clip-path-13">
      <rect x="194.37" y="230.21" width="130" height="130" fill="none"/>
    </clipPath>
    <clipPath id="clip-path-14">
      <rect x="361.37" y="230.21" width="130" height="130" fill="none"/>
    </clipPath>
    <clipPath id="clip-path-15">
      <rect x="535.37" y="230.21" width="130" height="130" fill="none"/>
    </clipPath>
  </defs>
  <title>folder</title>
  <g>
    <path d="M71.58,13l40,40v75a5,5,0,0,1-5,5h-90a5,5,0,0,1-5-5V18a5,5,0,0,1,5-5Z"/>
    <g clip-path="url(#clip-path)">
      <rect x="-0.22" y="3.3" width="128.05" height="146.44"/>
    </g>
  </g>
  <g clip-path="url(#clip-path-2)">
    <path d="M72,13l40,40v75a5,5,0,0,1-5,5H17a5,5,0,0,1-5-5V18a5,5,0,0,1,5-5Z" fill="none" stroke="#000" stroke-miterlimit="10" stroke-width="6"/>
  </g>
  <g clip-path="url(#clip-path-3)">
    <g clip-path="url(#clip-path-2)">
      <rect x="67" y="8" width="50" height="50" fill="#fff"/>
    </g>
  </g>
  <g clip-path="url(#clip-path-2)">
    <path d="M112,53H86.71C79,53,72,46,72,38.29V13Z" fill="none" stroke="#000" stroke-linejoin="round" stroke-width="6"/>
    <text transform="translate(31 102)" font-size="30" fill="#fff" font-family="BebasNeue, Bebas Neue">e-Mail</text>
  </g>
  <g clip-path="url(#clip-path-6)">
    <g clip-path="url(#clip-path-7)">
      <g clip-path="url(#clip-path-2)">
        <polygon points="79.25 83.88 79.27 83.91 18 44.29 38.41 35.45 49.72 16.15 79.4 84.06 79.25 83.88" fill="#fff"/>
      </g>
    </g>
  </g>
  <g clip-path="url(#clip-path-7)">
    <g clip-path="url(#clip-path-2)">
      <polygon points="79.25 83.88 79.27 83.91 18 44.29 38.41 35.45 49.72 16.15 79.4 84.06 79.25 83.88" fill="none" stroke="#000" stroke-miterlimit="10" stroke-width="8"/>
    </g>
  </g>
  <g clip-path="url(#clip-path-2)">
    <polyline points="38.67 36.07 52 51.81 75.14 79.15" fill="none" stroke="#000" stroke-miterlimit="10" stroke-width="2"/>
  </g>
</svg>
