<svg id="Слой_1" data-name="Слой 1" xmlns="http://www.w3.org/2000/svg" xmlns:xlink="http://www.w3.org/1999/xlink" viewBox="0 0 127 151">
  <defs>
    <clipPath id="clip-path">
      <path d="M72,13l40,40v75a5,5,0,0,1-5,5H17a5,5,0,0,1-5-5V18a5,5,0,0,1,5-5Z" fill="#6594f8"/>
    </clipPath>
    <clipPath id="clip-path-2">
      <rect width="127" height="151" fill="none"/>
    </clipPath>
    <clipPath id="clip-path-3">
      <circle cx="35" cy="61" r="1" fill="none"/>
    </clipPath>
    <clipPath id="clip-path-5">
      <circle cx="53" cy="33" r="1" fill="none"/>
    </clipPath>
    <clipPath id="clip-path-7">
      <circle cx="24" cy="25" r="1" fill="none"/>
    </clipPath>
    <clipPath id="clip-path-9">
      <circle cx="88" cy="42" r="1" fill="none"/>
    </clipPath>
    <clipPath id="clip-path-11">
      <circle cx="80" cy="76" r="1" fill="none"/>
    </clipPath>
    <clipPath id="clip-path-13">
      <circle cx="103" cy="99" r="1" fill="none"/>
    </clipPath>
    <clipPath id="clip-path-15">
      <circle cx="21" cy="107" r="1" fill="none"/>
    </clipPath>
    <clipPath id="clip-path-17">
      <circle cx="35" cy="102" r="1" fill="none"/>
    </clipPath>
    <clipPath id="clip-path-19">
      <circle cx="57" cy="115" r="1" fill="none"/>
    </clipPath>
    <clipPath id="clip-path-22">
      <path d="M112,53H86.71C79,53,72,46,72,38.29V13Z" fill="none" clip-rule="evenodd"/>
    </clipPath>
    <clipPath id="clip-path-25">
      <rect x="-700.73" y="228" width="130" height="130" fill="none"/>
    </clipPath>
    <clipPath id="clip-path-26">
      <rect x="-533.73" y="228" width="130" height="130" fill="none"/>
    </clipPath>
    <clipPath id="clip-path-27">
      <rect x="-366.73" y="228" width="130" height="130" fill="none"/>
    </clipPath>
    <clipPath id="clip-path-28">
      <rect x="-192.73" y="228" width="130" height="130" fill="none"/>
    </clipPath>
  </defs>
  <title>folder</title>
  <g>
    <path d="M72,13l40,40v75a5,5,0,0,1-5,5H17a5,5,0,0,1-5-5V18a5,5,0,0,1,5-5Z" fill="#6594f8"/>
    <g clip-path="url(#clip-path)">
      <rect x="0.2" y="3.3" width="128.05" height="146.44" fill="#6594f8"/>
    </g>
  </g>
  <g clip-path="url(#clip-path-2)">
    <path d="M72,13l40,40v75a5,5,0,0,1-5,5H17a5,5,0,0,1-5-5V18a5,5,0,0,1,5-5Z" fill="none" stroke="#000" stroke-miterlimit="10" stroke-width="6"/>
    <text transform="translate(45 79)" font-size="30" fill="#fff" font-family="BebasNeue, Bebas Neue">NSF</text>
    <text transform="translate(45 104)" font-size="30" fill="#fff" font-family="BebasNeue, Bebas Neue">NET</text>
    <polygon points="25.06 126 103 99.11 79.92 76.11 88 42 24.23 24.96 35.03 61.24 21.32 107.1 25.06 126" fill="none" stroke="#fff" stroke-miterlimit="10"/>
  </g>
  <g clip-path="url(#clip-path-3)">
    <g clip-path="url(#clip-path-2)">
      <rect x="29" y="55" width="12" height="12" fill="#fff"/>
    </g>
  </g>
  <g clip-path="url(#clip-path-5)">
    <g clip-path="url(#clip-path-2)">
      <rect x="47" y="27" width="12" height="12" fill="#fff"/>
    </g>
  </g>
  <g clip-path="url(#clip-path-7)">
    <g clip-path="url(#clip-path-2)">
      <rect x="18" y="19" width="12" height="12" fill="#fff"/>
    </g>
  </g>
  <g clip-path="url(#clip-path-9)">
    <g clip-path="url(#clip-path-2)">
      <rect x="82" y="36" width="12" height="12" fill="#fff"/>
    </g>
  </g>
  <g clip-path="url(#clip-path-11)">
    <g clip-path="url(#clip-path-2)">
      <rect x="74" y="70" width="12" height="12" fill="#fff"/>
    </g>
  </g>
  <g clip-path="url(#clip-path-13)">
    <g clip-path="url(#clip-path-2)">
      <rect x="97" y="93" width="12" height="12" fill="#fff"/>
    </g>
  </g>
  <g clip-path="url(#clip-path-15)">
    <g clip-path="url(#clip-path-2)">
      <rect x="15" y="101" width="12" height="12" fill="#fff"/>
    </g>
  </g>
  <g clip-path="url(#clip-path-17)">
    <g clip-path="url(#clip-path-2)">
      <rect x="29" y="96" width="12" height="12" fill="#fff"/>
    </g>
  </g>
  <g clip-path="url(#clip-path-19)">
    <g clip-path="url(#clip-path-2)">
      <rect x="51" y="109" width="12" height="12" fill="#fff"/>
    </g>
  </g>
  <g clip-path="url(#clip-path-2)">
    <polyline points="21 107.42 34.79 102 57 115" fill="none" stroke="#fff" stroke-miterlimit="10"/>
    <line x1="35" y1="61" x2="35" y2="102.15" fill="none" stroke="#fff" stroke-miterlimit="10"/>
    <line x1="35" y1="62" x2="53" y2="33" fill="none" stroke="#fff" stroke-miterlimit="10"/>
  </g>
  <g clip-path="url(#clip-path-22)">
    <g clip-path="url(#clip-path-2)">
      <rect x="67" y="8" width="50" height="50" fill="#fff"/>
    </g>
  </g>
  <g clip-path="url(#clip-path-2)">
    <path d="M112,53H86.71C79,53,72,46,72,38.29V13Z" fill="none" stroke="#000" stroke-linejoin="round" stroke-width="6"/>
  </g>
</svg>
