<svg id="Слой_1" data-name="Слой 1" xmlns="http://www.w3.org/2000/svg" xmlns:xlink="http://www.w3.org/1999/xlink" viewBox="0 0 127 151">
  <defs>
    <clipPath id="clip-path">
      <path d="M72,13l40,40v66a14,14,0,0,1-14,14H26a14,14,0,0,1-14-14V27A14,14,0,0,1,26,13Z" fill="none" clip-rule="evenodd"/>
    </clipPath>
    <clipPath id="clip-path-2">
      <rect width="127" height="151" fill="none"/>
    </clipPath>
    <clipPath id="clip-path-4">
      <rect x="32" y="100" width="77" height="1" fill="none"/>
    </clipPath>
    <clipPath id="clip-path-6">
      <rect x="66" y="119" width="43" height="1" fill="none"/>
    </clipPath>
    <clipPath id="clip-path-8">
      <rect x="44" y="110" width="65" height="1" fill="none"/>
    </clipPath>
    <clipPath id="clip-path-10">
      <rect x="26" y="125" width="57" height="1" fill="none"/>
    </clipPath>
    <clipPath id="clip-path-12">
      <rect x="15" y="89" width="65" height="1" fill="none"/>
    </clipPath>
    <clipPath id="clip-path-14">
      <rect x="15" y="57" width="85" height="1" fill="none"/>
    </clipPath>
    <clipPath id="clip-path-16">
      <rect x="15" y="29" width="26" height="1" fill="none"/>
    </clipPath>
    <clipPath id="clip-path-18">
      <rect x="34" y="20" width="36" height="1" fill="none"/>
    </clipPath>
    <clipPath id="clip-path-20">
      <rect x="56" y="94" width="53" height="1" fill="none"/>
    </clipPath>
    <clipPath id="clip-path-22">
      <rect x="15" y="81" width="24" height="1" fill="none"/>
    </clipPath>
    <clipPath id="clip-path-24">
      <rect x="32" y="64" width="77" height="1" fill="none"/>
    </clipPath>
    <clipPath id="clip-path-26">
      <rect x="15" y="46" width="57" height="1" fill="none"/>
    </clipPath>
    <clipPath id="clip-path-28">
      <rect x="53" y="32" width="34" height="1" fill="none"/>
    </clipPath>
    <clipPath id="clip-path-30">
      <rect x="49" y="82" width="60" height="1" fill="none"/>
    </clipPath>
    <clipPath id="clip-path-32">
      <rect x="14" y="115" width="84" height="1" fill="none"/>
    </clipPath>
    <clipPath id="clip-path-34">
      <rect x="19" y="59" width="64" height="1" fill="none"/>
    </clipPath>
    <clipPath id="clip-path-36">
      <rect x="30" y="37" width="44" height="1" fill="none"/>
    </clipPath>
    <clipPath id="clip-path-38">
      <rect x="14" y="26" width="44" height="1" fill="none"/>
    </clipPath>
    <clipPath id="clip-path-40">
      <path d="M112,53H86.71C79,53,72,46,72,38.29V13Z" fill="none" clip-rule="evenodd"/>
    </clipPath>
    <clipPath id="clip-path-43">
      <rect x="231.42" y="229" width="130" height="130" fill="none"/>
    </clipPath>
    <clipPath id="clip-path-44">
      <rect x="398.42" y="229" width="130" height="130" fill="none"/>
    </clipPath>
    <clipPath id="clip-path-45">
      <rect x="565.42" y="229" width="130" height="130" fill="none"/>
    </clipPath>
    <clipPath id="clip-path-46">
      <rect x="739.42" y="229" width="130" height="130" fill="none"/>
    </clipPath>
  </defs>
  <title>folder</title>
  <g clip-path="url(#clip-path)">
    <g clip-path="url(#clip-path-2)">
      <rect x="7" y="8" width="110" height="130" fill="#fff"/>
    </g>
  </g>
  <g clip-path="url(#clip-path-2)">
    <path d="M72,13l40,40v75a5,5,0,0,1-5,5H17a5,5,0,0,1-5-5V18a5,5,0,0,1,5-5Z" fill="none" stroke="#000" stroke-miterlimit="10" stroke-width="6"/>
  </g>
  <g clip-path="url(#clip-path-4)">
    <g clip-path="url(#clip-path-2)">
      <rect x="27" y="95" width="87" height="11" fill="#bfbfbd"/>
    </g>
  </g>
  <g clip-path="url(#clip-path-6)">
    <g clip-path="url(#clip-path-2)">
      <rect x="61" y="114" width="53" height="11" fill="#bfbfbd"/>
    </g>
  </g>
  <g clip-path="url(#clip-path-8)">
    <g clip-path="url(#clip-path-2)">
      <rect x="39" y="105" width="75" height="11" fill="#edc0cb"/>
    </g>
  </g>
  <g clip-path="url(#clip-path-10)">
    <g clip-path="url(#clip-path-2)">
      <rect x="21" y="120" width="67" height="11" fill="#edc0cb"/>
    </g>
  </g>
  <g clip-path="url(#clip-path-12)">
    <g clip-path="url(#clip-path-2)">
      <rect x="10" y="84" width="75" height="11" fill="#edc0cb"/>
    </g>
  </g>
  <g clip-path="url(#clip-path-14)">
    <g clip-path="url(#clip-path-2)">
      <rect x="10" y="52" width="95" height="11" fill="#edc0cb"/>
    </g>
  </g>
  <g clip-path="url(#clip-path-16)">
    <g clip-path="url(#clip-path-2)">
      <rect x="10" y="24" width="36" height="11" fill="#edc0cb"/>
    </g>
  </g>
  <g clip-path="url(#clip-path-18)">
    <g clip-path="url(#clip-path-2)">
      <rect x="29" y="15" width="46" height="11" fill="#edc0cb"/>
    </g>
  </g>
  <g clip-path="url(#clip-path-20)">
    <g clip-path="url(#clip-path-2)">
      <rect x="51" y="89" width="63" height="11" fill="#fff"/>
    </g>
  </g>
  <g clip-path="url(#clip-path-22)">
    <g clip-path="url(#clip-path-2)">
      <rect x="10" y="76" width="34" height="11" fill="#bfbfbd"/>
    </g>
  </g>
  <g clip-path="url(#clip-path-24)">
    <g clip-path="url(#clip-path-2)">
      <rect x="27" y="59" width="87" height="11" fill="#bfbfbd"/>
    </g>
  </g>
  <g clip-path="url(#clip-path-26)">
    <g clip-path="url(#clip-path-2)">
      <rect x="10" y="41" width="67" height="11" fill="#bfbfbd"/>
    </g>
  </g>
  <g clip-path="url(#clip-path-28)">
    <g clip-path="url(#clip-path-2)">
      <rect x="48" y="27" width="44" height="11" fill="#bfbfbd"/>
    </g>
  </g>
  <g clip-path="url(#clip-path-30)">
    <g clip-path="url(#clip-path-2)">
      <rect x="44" y="77" width="70" height="11"/>
    </g>
  </g>
  <g clip-path="url(#clip-path-32)">
    <g clip-path="url(#clip-path-2)">
      <rect x="9" y="110" width="94" height="11"/>
    </g>
  </g>
  <g clip-path="url(#clip-path-34)">
    <g clip-path="url(#clip-path-2)">
      <rect x="14" y="54" width="74" height="11"/>
    </g>
  </g>
  <g clip-path="url(#clip-path-36)">
    <g clip-path="url(#clip-path-2)">
      <rect x="25" y="32" width="54" height="11"/>
    </g>
  </g>
  <g clip-path="url(#clip-path-38)">
    <g clip-path="url(#clip-path-2)">
      <rect x="9" y="21" width="54" height="11"/>
    </g>
  </g>
  <g clip-path="url(#clip-path-40)">
    <g clip-path="url(#clip-path-2)">
      <rect x="67" y="8" width="50" height="50" fill="#fff"/>
    </g>
  </g>
  <g clip-path="url(#clip-path-2)">
    <path d="M112,53H86.71C79,53,72,46,72,38.29V13Z" fill="none" stroke="#000" stroke-linejoin="round" stroke-width="6"/>
    <text transform="translate(45 80)" font-size="30" font-family="BebasNeue, Bebas Neue">not</text>
    <text transform="translate(34 105)" font-size="30" font-family="BebasNeue, Bebas Neue">Found</text>
  </g>
</svg>
