<svg id="Слой_1" data-name="Слой 1" xmlns="http://www.w3.org/2000/svg" xmlns:xlink="http://www.w3.org/1999/xlink" viewBox="0 0 127.5 151">
  <defs>
    <clipPath id="clip-path">
      <rect x="410.02" y="-165.06" width="130" height="130" fill="none"/>
    </clipPath>
    <clipPath id="clip-path-2">
      <rect x="577.02" y="-165.06" width="130" height="130" fill="none"/>
    </clipPath>
    <clipPath id="clip-path-3">
      <rect x="744.02" y="-165.06" width="130" height="130" fill="none"/>
    </clipPath>
    <clipPath id="clip-path-4">
      <rect x="918.02" y="-165.06" width="130" height="130" fill="none"/>
    </clipPath>
  </defs>
  <title>folder</title>
  <g>
    <rect x="24.19" y="40.42" width="92.03" height="83.07" rx="2.17" ry="2.17" fill="#f7efdf" stroke="#000" stroke-miterlimit="10" stroke-width="6"/>
    <g>
      <g>
        <path d="M81.85,123.58a5,5,0,0,1-1.65-.28l-56-19.61a5,5,0,0,1-3.07-6.37l28.28-80.8a5,5,0,0,1,6.37-3.07l56,19.61a5,5,0,0,1,3.07,6.37l-28.28,80.8A5,5,0,0,1,81.85,123.58Z" fill="#fff"/>
        <path d="M54.1,16.17a2,2,0,0,1,.66.11l56,19.61A2,2,0,0,1,112,38.44l-28.28,80.8a2,2,0,0,1-2.55,1.23l-56-19.61a2,2,0,0,1-1.23-2.55l28.28-80.8a2,2,0,0,1,1.89-1.34m0-6h0a8,8,0,0,0-7.55,5.36L18.27,96.33a8,8,0,0,0,4.91,10.19l56,19.61a8,8,0,0,0,10.19-4.91l28.28-80.8a8,8,0,0,0-4.91-10.19l-56-19.61a8,8,0,0,0-2.64-.45Z"/>
      </g>
      <polygon points="75.06 70.86 66.24 52.54 100.21 36.18 107.89 38.87 94.34 77.61 75.06 70.86" fill="#7ccaa5"/>
      <circle cx="80.49" cy="44.28" r="10.73" transform="translate(12.11 105.63) rotate(-70.71)" fill="#f2e53e" opacity="0.2"/>
      <circle cx="80.49" cy="44.28" r="6.73" transform="translate(12.11 105.63) rotate(-70.71)" fill="#f2e53e"/>
      <path d="M65.08,110.86c-.91-2.6-16.44-34.15-16.44-34.15L104.12,50l-23.24,66.4Z" fill="#8ee2c1"/>
      <ellipse cx="65.75" cy="95.75" rx="4.85" ry="2.87" transform="translate(-46.34 126.18) rotate(-70.71)" fill="#252623" opacity="0.1"/>
      <rect x="61.84" y="90.99" width="1.07" height="7.15" transform="translate(-47.48 122.2) rotate(-70.71)" fill="#514943"/>
      <circle cx="56.34" cy="92.45" r="4.85" transform="translate(-49.53 115.09) rotate(-70.71)" fill="#7ccaa5"/>
    </g>
    <path d="M111.12,123.49H22.68a2.17,2.17,0,0,1-2.11-1.7L8,64.92a2.17,2.17,0,0,1,2.11-2.63H94.4a2.17,2.17,0,0,1,2.08,1.56l16.72,56.87A2.17,2.17,0,0,1,111.12,123.49Z" fill="#f7efdf" stroke="#000" stroke-miterlimit="10" stroke-width="6"/>
    <path d="M74.27,97.77c6-11-.38-24.3,4.81-26.47,3.59-1.5,10,3.49,13.16,8.92,4.39,7.57.16,12.06,3.86,21.39,3.78,9.53,11.07,12.07,9.83,14.67-2,4.13-20-3-33.17-.33a44.45,44.45,0,0,1-17.53.31c-11.39-2-26.51.1-26.64-.81C28.42,114,64.42,115.76,74.27,97.77Z" fill="#f7e6c6"/>
  </g>
</svg>
