<svg id="Слой_1" data-name="Слой 1" xmlns="http://www.w3.org/2000/svg" viewBox="0 0 127.12 118.06">
  <title>computer_icon</title>
  <path d="M32.48,116.69l-2.35-5.26A120.55,120.55,0,0,0,70.87,81.95c22.19-24.62,28.58-52.72,30.41-67.28l5.72.72C105.08,30.62,98.39,60,75.15,85.8A126.25,126.25,0,0,1,32.48,116.69Z"/>
  <path d="M39.45,22.28H78.17c21.93,0,35.57,11.66,35.57,29.63S100,81.53,77.93,81.53h-14v24.26H39.45ZM75.37,63.8c8.28,0,13.76-4.67,13.76-11.9S83.65,40,75.37,40H63.94V63.8Z" fill="#0c74f9" stroke="#000" stroke-miterlimit="10" stroke-width="4"/>
  <g>
    <path d="M104.14,15c1.54-1.56-1.5-8.27-4.27-10.35C91.23-1.8,59.38,17.33,39.19,45.18,21.64,69.4,9.91,104.36,20,112.69c3.07,2.52,7.63,2.18,11.27,1.37C22.92,108.53,33.92,69.82,57.52,43c16.74-19,38.74-29.27,44.08-27.8C101.91,15.26,103.44,15.73,104.14,15Z" fill="#fcd120"/>
    <path d="M26.44,117.53a12.56,12.56,0,0,1-8.23-2.61C5.36,104.35,20.41,66.19,36.86,43.49,50.3,25,75.38,3.35,92.47.76c3.85-.58,6.91,0,9.12,1.61,2.78,2.08,5.55,7.21,5.82,10.75A4.82,4.82,0,0,1,106.19,17h0c-.85.86-2.46,1.73-5.32.91-3.62-1-24.75,8.21-41.18,26.91C40,67.29,30,96.92,31.55,108.3c.23,1.69.73,2.95,1.35,3.35a2.88,2.88,0,0,1-1,5.22A25.44,25.44,0,0,1,26.44,117.53ZM95.31,6.29a13.2,13.2,0,0,0-2,.16C81.12,8.3,57.39,25,41.53,46.87c-17.6,24.29-27.71,57-19.65,63.59a7,7,0,0,0,4.55,1.31h0a15.92,15.92,0,0,1-.59-2.71c-1.9-14.12,9.76-45.51,29.52-68,16.36-18.61,38-29.65,46-28.85-.59-1.76-2-4.29-3.24-5.24A4.8,4.8,0,0,0,95.31,6.29Z"/>
  </g>
</svg>
