<svg id="Слой_1" data-name="Слой 1" xmlns="http://www.w3.org/2000/svg" viewBox="0 0 152.8 49.14">
  <defs>
    <style>
      .cls-1 {
        fill: #d8d8d8;
        stroke-width: 2.14px;
      }

      .cls-1, .cls-10 {
        stroke: #000;
      }

      .cls-2 {
        fill-opacity: 0.3;
      }

      .cls-3, .cls-4 {
        isolation: isolate;
      }

      .cls-4 {
        font-size: 30px;
        font-family: CeraPro-Bold, Cera Pro;
        font-weight: 700;
        letter-spacing: 0.01em;
      }

      .cls-5 {
        letter-spacing: -0.07em;
      }

      .cls-6 {
        letter-spacing: 0.01em;
      }

      .cls-7 {
        letter-spacing: -0.01em;
      }

      .cls-8 {
        letter-spacing: -0.04em;
      }

      .cls-9 {
        fill: #74ffa4;
      }

      .cls-10 {
        fill: none;
        stroke-width: 3px;
      }

      .cls-11 {
        fill: #ff85a6;
      }

      .cls-12 {
        fill: #3544f1;
      }

      .cls-13 {
        fill: #ffdf50;
      }
    </style>
  </defs>
  <title>Pusk</title>
  <g id="Page-1">
    <g id="A4-Copy-2">
      <g id="Group-30">
        <g id="Group-29">
          <path id="Path-18-Copy" class="cls-1" d="M1,6V43c0,2.76,2.56,5,5.71,5H144.16a7.28,7.28,0,0,0,1.31-.11q6.2-1.14,6.2-5.89V8.23a7.41,7.41,0,0,0-2.3-5.53A6.56,6.56,0,0,0,144.82,1H6.71C3.56,1,1,3.24,1,6Z" transform="translate(0.07 0.07)"/>
          <path id="Path-19-Copy" class="cls-2" d="M2.84,3Q6.25,34,8.52,38c2.27,4,9.09,6,18.18,6h125q-4.54,4-13.63,4H8.52q-5.66-.16-6.82-2c-1.35-2.15-.41-6.32,0-11Q2.84,22,2.84,3Z" transform="translate(0.07 0.07)"/>
          <g id="start-copy" class="cls-3">
            <text class="cls-4" transform="translate(50.4 33.07)">S<tspan class="cls-5" x="17.07" y="0">T</tspan><tspan class="cls-6" x="32.67" y="0">A</tspan><tspan class="cls-7" x="52.8" y="0">R</tspan><tspan class="cls-8" x="71.55" y="0">T</tspan></text>
          </g>
        </g>
        <g id="Rectangle-51">
          <rect id="path-1" class="cls-9" x="13.07" y="10.07" width="15" height="15"/>
          <rect class="cls-10" x="14.57" y="11.57" width="12" height="12"/>
        </g>
        <g id="Rectangle-51-Copy-2">
          <rect id="path-2" class="cls-11" x="13.07" y="22.07" width="15" height="15"/>
          <rect class="cls-10" x="14.57" y="23.57" width="12" height="12"/>
        </g>
        <g id="Rectangle-51-Copy">
          <rect id="path-3" class="cls-12" x="25.07" y="10.07" width="15" height="15"/>
          <rect class="cls-10" x="26.57" y="11.57" width="12" height="12"/>
        </g>
        <g id="Rectangle-51-Copy-3">
          <rect id="path-4" class="cls-13" x="25.07" y="22.07" width="15" height="15"/>
          <rect class="cls-10" x="26.57" y="23.57" width="12" height="12"/>
        </g>
      </g>
    </g>
  </g>
</svg>
