<svg id="Слой_1" data-name="Слой 1" xmlns="http://www.w3.org/2000/svg" viewBox="0 0 127.5 151">
  <title>icons</title>
  <g id="Combined-Shape">
    <path id="path-1" d="M28,135h-.11L16,47.78H119.26L105.36,135h-.11c-1.52,5.68-18.24,10.16-38.63,10.16S29.51,140.65,28,135Z" fill="#6594f8" stroke="#000" stroke-linecap="round" stroke-linejoin="round" stroke-width="6"/>
    <path d="M29.22,133.81l.21.77c1.27,4.73,17.62,9.05,37.19,9.05s35.92-4.32,37.19-9.05l.26-1,13.45-84.35H17.66Z" fill="#6594f8" stroke="#000" stroke-linecap="round" stroke-linejoin="round" stroke-width="6"/>
  </g>
  <g id="Oval-7-Copy">
    <ellipse id="path-3" cx="67.61" cy="47.45" rx="52" ry="11" fill="#4a78bc" stroke="#000" stroke-linecap="round" stroke-linejoin="round" stroke-width="6"/>
    <ellipse id="path-3-2" data-name="path-3" cx="67.61" cy="47.45" rx="52" ry="11" fill="#4a78bc" stroke="#000" stroke-linecap="round" stroke-linejoin="round" stroke-width="6"/>
    <ellipse cx="67.61" cy="47.45" rx="50.5" ry="9.5" fill="#4a78bc" stroke="#000" stroke-linecap="round" stroke-linejoin="round" stroke-width="6"/>
  </g>
  <g id="Group-8">
    <g id="Combined-Shape-2" data-name="Combined-Shape">
      <path id="path-5" d="M8.5,57.45,4.06,45.24,101.78,9.67l4.45,12.22c2.46,6.75-17.43,20.18-44.42,30S11,64.2,8.5,57.45Z" fill="#6594f8" stroke="#000" stroke-linecap="round" stroke-linejoin="round" stroke-width="6"/>
      <path id="path-5-2" data-name="path-5" d="M8.5,57.45,4.06,45.24,101.78,9.67l4.45,12.22c2.46,6.75-17.43,20.18-44.42,30S11,64.2,8.5,57.45Z" fill="#6594f8" stroke="#000" stroke-linecap="round" stroke-linejoin="round" stroke-width="6"/>
      <path d="M100.89,11.59,6,46.13,9.91,56.94c2,5.46,25.34,3,51.39-6.47s45.51-22.62,43.52-28.08Z" fill="#6594f8" stroke="#000" stroke-linecap="round" stroke-linejoin="round" stroke-width="6"/>
    </g>
    <g id="Oval-7-Copy-3">
      <ellipse id="path-7" cx="52.92" cy="27.45" rx="52" ry="13" transform="translate(-6.2 19.75) rotate(-20)" fill="#6594f8" stroke="#000" stroke-linecap="round" stroke-linejoin="round" stroke-width="6"/>
      <ellipse cx="52.92" cy="27.45" rx="50.5" ry="11.5" transform="translate(-6.2 19.75) rotate(-20)" fill="#6594f8" stroke="#000" stroke-linecap="round" stroke-linejoin="round" stroke-width="6"/>
    </g>
  </g>
  <path d="M85,127.26c-18.1,14-49.55,1.86-50.12,4.4-.32,1.43,9.58,5.29,19,7.25,0,0,16.23,3.37,36.57-2.16a14.23,14.23,0,0,0,6.93-3.59c4.05-4.13,3.62-10,3.68-16.55.08-9.39,2.13-18.66,2.91-28,1.64-19.72,2.21-23.9,1.82-24s-2.38,7.09-8.65,41.27C95.8,112.25,92.75,121.27,85,127.26Z" fill="#4f81f1" opacity="0.3"/>
  <ellipse cx="67.61" cy="22.29" rx="14.14" ry="7.36" transform="translate(-3.53 19.55) rotate(-16.04)" fill="#fff" opacity="0.3"/>
</svg>
