<svg id="Слой_1" data-name="Слой 1" xmlns="http://www.w3.org/2000/svg" viewBox="0 0 127.12 118.06">
  <title>trash</title>
  <line x1="111.93" y1="15.62" x2="37.19" y2="15.62" fill="#fff" stroke="#000" stroke-linecap="round" stroke-linejoin="round" stroke-width="4"/>
  <line x1="18.46" y1="30.87" x2="37.19" y2="15.62" fill="#fff" stroke="#000" stroke-linecap="round" stroke-linejoin="round" stroke-width="4"/>
  <g id="Page-1">
    <g id="Profile">
      <g id="Notifications">
        <path id="Popover" d="M41.33,38.25l-3.06,1.82c-.91.54-1.63.12-1.59-.94l.13-3.56L24.36,28.19a3.22,3.22,0,0,1-1.13-4.41l9.51-16a3.22,3.22,0,0,1,4.41-1.12L66.71,24.16a3.22,3.22,0,0,1,1.13,4.41l-9.51,16a3.22,3.22,0,0,1-4.41,1.12Z" fill="#f0491f" stroke="#000" stroke-miterlimit="10" stroke-width="4"/>
        <g id="Likes">
          <g id="_134" data-name="134" style="isolation: isolate">
            <text transform="translate(40.89 27.53) rotate(30.68)" font-size="9.64" fill="#fff" font-family="ArialMT, Arial" style="isolation: isolate">134</text>
          </g>
          <path id="btn_like_suggestion" data-name="btn like suggestion" d="M35.9,24.57l-.12-.33c-.74-2-1.19-3.19-1.14-4.38a2.84,2.84,0,0,1,.84-2.05,2.07,2.07,0,0,1,1.59-.53,2,2,0,0,1,.86.28A2.19,2.19,0,0,1,39,19.35a2.19,2.19,0,0,1,2.09.08,2,2,0,0,1,.66.62A2.07,2.07,0,0,1,42,21.7a2.84,2.84,0,0,1-1.4,1.72,12,12,0,0,1-4.39,1.1Z" fill="#fff"/>
        </g>
      </g>
    </g>
  </g>
  <g id="Page-1-2" data-name="Page-1">
    <g id="Profile-2" data-name="Profile">
      <g id="Notifications-2" data-name="Notifications">
        <path id="Popover-2" data-name="Popover" d="M81,24.31l-2.2-2.81c-.65-.84-.33-1.6.73-1.69l3.55-.33L88.84,6.19a3.22,3.22,0,0,1,4.23-1.68l17.11,7.39a3.22,3.22,0,0,1,1.67,4.23L98.23,47.68A3.22,3.22,0,0,1,94,49.36L76.89,42a3.22,3.22,0,0,1-1.67-4.23Z" fill="#f0491f" stroke="#000" stroke-miterlimit="10" stroke-width="4"/>
        <g id="Likes-2" data-name="Likes">
          <g id="_134-2" data-name="134" style="isolation: isolate">
            <text transform="translate(91.6 22.5) rotate(113.35)" font-size="9.64" fill="#fff" font-family="ArialMT, Arial" style="isolation: isolate">134</text>
          </g>
          <path id="btn_like_suggestion-2" data-name="btn like suggestion" d="M93.89,17.18l.31-.17c1.88-1,3-1.58,4.2-1.69a2.84,2.84,0,0,1,2.14.57,2.07,2.07,0,0,1,.73,1.5,2,2,0,0,1-.17.89,2.19,2.19,0,0,1-1.64,1.29,2.19,2.19,0,0,1,.19,2.08,2,2,0,0,1-.53.73,2.07,2.07,0,0,1-1.59.5,2.84,2.84,0,0,1-1.89-1.17A12,12,0,0,1,94,17.51Z" fill="#fff"/>
        </g>
      </g>
    </g>
  </g>
  <g id="Page-1-3" data-name="Page-1">
    <g id="Profile-3" data-name="Profile">
      <g id="Notifications-3" data-name="Notifications">
        <path id="Popover-3" data-name="Popover" d="M73,33.72,72,37.15c-.28,1-1.09,1.22-1.8.42l-2.38-2.65L53.78,38.26a3.22,3.22,0,0,1-3.87-2.39L45.62,17.74A3.22,3.22,0,0,1,48,13.87L81.46,6a3.22,3.22,0,0,1,3.87,2.39l4.29,18.14a3.22,3.22,0,0,1-2.39,3.87Z" fill="#f0491f" stroke="#000" stroke-miterlimit="10" stroke-width="4"/>
        <g id="Likes-3" data-name="Likes">
          <g id="_134-3" data-name="134" style="isolation: isolate">
            <text transform="matrix(0.97, -0.23, 0.23, 0.97, 65.22, 26.31)" font-size="9.64" fill="#fff" font-family="ArialMT, Arial" style="isolation: isolate">134</text>
          </g>
          <path id="btn_like_suggestion-3" data-name="btn like suggestion" d="M59.58,27.64l-.32-.15c-1.91-.92-3.07-1.47-3.86-2.36a2.84,2.84,0,0,1-.82-2.06,2.07,2.07,0,0,1,.77-1.48,2,2,0,0,1,.82-.4,2.19,2.19,0,0,1,2,.55,2.19,2.19,0,0,1,1.56-1.39,2,2,0,0,1,.91,0,2.07,2.07,0,0,1,1.36,1,2.84,2.84,0,0,1,.19,2.21,12,12,0,0,1-2.4,3.84Z" fill="#fff"/>
        </g>
      </g>
    </g>
  </g>
  <polygon points="84.13 30.87 27.18 30.87 18.11 30.87 27.18 113.82 84.13 113.82 93.2 30.87 84.13 30.87" fill="#fcf0e0" stroke="#201600" stroke-linecap="round" stroke-linejoin="round" stroke-width="4"/>
  <path d="M93.2,30.87l18.73-15.24-9.36,83L84.13,113.82Z" fill="#cea97c" stroke="#201600" stroke-linecap="round" stroke-linejoin="round" stroke-width="4"/>
</svg>
