<?xml version="1.0" encoding="utf-8"?>
<!-- Generator: Adobe Illustrator 21.0.2, SVG Export Plug-In . SVG Version: 6.00 Build 0)  -->
<svg version="1.1" id="Слой_1" xmlns="http://www.w3.org/2000/svg" xmlns:xlink="http://www.w3.org/1999/xlink" x="0px" y="0px"
	 viewBox="0 0 127.5 151" style="enable-background:new 0 0 127.5 151;" xml:space="preserve">
<style type="text/css">
	.st0{fill:#4373F4;stroke:#1D1D1B;stroke-width:6;stroke-miterlimit:10;}
	.st1{fill:#EDC0CB;}
</style>
<title>user</title>
<circle class="st0" cx="63.7" cy="74.4" r="60.8"/>
<g>
	<path class="st1" d="M46.3,96l0.1,15.7l12.1-7.7l10.1,11l2.8-13.7l13.9,5.7l-1.5-10.4l22.5,2.6L93.5,85.3l11.1-1l-10.2-9.4l11-8.5
		l-12.6-1.6l7.3-8.2l-11.9,0.4l1.7-11.5l-11,3.7L74.6,38L65,45.1l-12.5-9l-0.9,13.3l-10.8-6.1l1.5,12.4l-11.3-2.5l5.6,10.3
		l-14.4,4.2l11.9,8.7L18.3,88.2L38,87.9l-4.3,14.5L46.3,96z"/>
	<path d="M65,92.4c-10.3,0-18.9-8.6-20-19.9l2.3-0.2c0.9,10.2,8.5,17.8,17.7,17.8s16.8-7.7,17.7-17.8l2.3,0.2
		C83.9,83.9,75.4,92.4,65,92.4z"/>
	<path d="M59.9,67.3h-2.3c0-2.8-2.3-5.1-5.1-5.1s-5.1,2.3-5.1,5.1c0,0,0,0,0,0h-2.3c0-4.1,3.3-7.4,7.4-7.4S59.9,63.2,59.9,67.3
		L59.9,67.3z"/>
	<path d="M85,67.3h-2.3c0-2.8-2.3-5.1-5.1-5.1c-2.8,0-5.1,2.3-5.1,5.1c0,0,0,0,0,0h-2.3c0-4.1,3.3-7.4,7.4-7.4S85,63.2,85,67.3
		L85,67.3L85,67.3z"/>
	<polygon points="69.5,79.4 61,79.4 61,77.1 66.5,77.1 62.6,63.4 64.8,62.8 	"/>
</g>
</svg>
