<svg id="Слой_1" data-name="Слой 1" xmlns="http://www.w3.org/2000/svg" viewBox="0 0 592.36 592.36">
  <title>benice</title>
  <rect width="592.36" height="592.36" fill="#fcd120"/>
  <path d="M230.79,378.56l.43,54.83,42.31-26.77,35.4,38,9.93-47.92,48.36,19.86L362,380.29l78.58,9.07L395.72,341l38.86-3.45-35.4-32.81,38.43-29.79-44-5.61L419,240.83l-41.45,1.3,6-40.15-38.43,13-15.54-38.86L296,200.68l-43.61-31.52-3,46.63L211.8,194.63,217,237.81l-39.29-8.63L197.12,265,147,279.69l41.45,30.22-55.26,41.45,68.65-1.3-15.11,50.51Z" fill="#fec2ce"/>
  <path d="M296.18,365.93c-36.1,0-66.05-29.83-69.67-69.39l8-.73c3.24,35.41,29.77,62.12,61.71,62.12s58.46-26.71,61.71-62.12l8,.73C362.23,336.1,332.28,365.93,296.18,365.93Z"/>
  <path d="M278.35,278.21h-8a17.76,17.76,0,0,0-35.52,0h-8a25.76,25.76,0,0,1,51.52,0Z"/>
  <path d="M365.87,278.21h-8a17.76,17.76,0,1,0-35.52,0h-8a25.76,25.76,0,1,1,51.52,0Z"/>
  <polygon points="311.94 320.38 282.07 320.38 282.07 312.38 301.35 312.38 287.8 264.63 295.49 262.45 311.94 320.38"/>
  <g>
    <path d="M188.91,112c5.33,6.68,2.44,15.4-7.05,23L152,158.81l-30.85-38.65,27.66-22.08c9.5-7.58,18.56-8.57,23.49-2.39,3.48,4.36,3.49,10.59-2,15.55C176.62,106.78,184.15,106,188.91,112Zm-44.32,14.68L159.21,115c3.75-3,5.58-5.81,3.2-8.79s-5.48-1.77-9.24,1.23L138.55,119.1Zm31.73-6.79c-2.51-3.15-5.59-2.14-9.57,1L150.4,134l6.48,8.12,16.34-13C177.2,125.85,178.82,123,176.31,119.87Z"/>
    <path d="M247.58,91.41l4,10.28-49.23,19L184.5,74.57,233,55.84l4,10.28L201.72,79.73l2.93,7.58,29.06-11.23,3.79,9.82L208.44,97.13l3.16,8.17Z"/>
    <path d="M334.25,50.22l-1.69,49.42-12.64-.43-30.8-33.57L288,98.12l-13.91-.48,1.69-49.42,15.25.52L319.31,80l1-30.22Z"/>
    <path d="M341.09,103.42l12.82-47.75,13.92,3.74L355,107.16Z"/>
    <path d="M411.44,113.09l8.06,11.33c-7.42,4.36-18.86,4.8-30.73-1.33-16.57-8.57-23.29-22.94-15.64-37.75s23.27-17.63,40.34-8.81c11.36,5.87,17.48,15.56,18.19,23.88l-14-.06c-.55-6-3.9-10.45-9.8-13.5-9-4.67-17.43-3.21-21.78,5.2s-.69,16.11,8.34,20.78C400.37,115.88,405.93,116.21,411.44,113.09Z"/>
    <path d="M462.43,166.48l-7.71,7.87L417,137.44l34.6-35.33,37.14,36.38L481,146.36l-27-26.44-5.68,5.8,22.25,21.8L463.26,155,441,133.24l-6.13,6.26Z"/>
  </g>
  <g>
    <path d="M87.12,425c-7.78,3.53-15.53-1.41-20.56-12.47l-15.8-34.8,45-20.44,14.63,32.23c5,11.06,3.77,20.09-3.44,23.36-5.08,2.31-11.13.78-14.58-5.8C95.17,414.32,94.07,421.81,87.12,425Zm-4.56-14.15c3.67-1.66,3.44-4.9,1.34-9.53l-8.64-19-9.46,4.29,8.64,19C76.55,410.21,78.9,412.48,82.57,410.81Zm1.19-32.43,7.74,17c2,4.37,4.27,6.83,7.74,5.25s3.06-4.88,1.07-9.25l-7.74-17Z"/>
    <path d="M130.32,480.2l-8.25,7.31L87.09,448l37-32.78,34.47,38.92-8.25,7.31-25.05-28.3-6.08,5.39,20.65,23.32-7.88,7-20.65-23.32-6.56,5.81Z"/>
    <path d="M231.13,495.86l-21.84,44.37-12.93-6.37,8.46-17.18-26.62-13.11-8.46,17.18-12.93-6.37L178.65,470l12.93,6.37-8.14,16.54L210.05,506l8.14-16.54Z"/>
    <path d="M296.5,506.19l-3.57,25.89c-2.06,14.91-13.55,23.31-31.82,20.79S234,539.15,236,524.25l3.57-25.9,14.28,2-3.42,24.78c-1.18,8.54,2.82,14.72,12.27,16s14.9-3.58,16.08-12.12l3.42-24.78Z"/>
    <path d="M372.28,493l10,48.43-14,2.89-6.37-30.93-14.43,27.64-.69.14-24.18-19.69,6.37,30.93-13.63,2.81-10-48.43,15.43-3.18,23,19.5,13.55-27Z"/>
    <path d="M449.11,489.16c4.42,7.32.42,15.59-10,21.88L406.42,530.8l-25.57-42.33,30.29-18.3c10.4-6.28,19.51-6.09,23.6.68,2.89,4.78,2.08,11-4,15.16C437.6,482.41,445.17,482.63,449.11,489.16ZM403.26,498l16-9.68c4.11-2.48,6.28-5,4.31-8.3s-5.21-2.47-9.32,0l-16,9.68Zm32.34-2.62c-2.08-3.45-5.27-2.84-9.62-.21l-17.9,10.81,5.37,8.89L431.35,504C435.7,501.39,437.68,498.79,435.6,495.34Z"/>
    <path d="M495.07,443.84l8.51,7.86-32.34,35L434.9,453.21l9.77-10.59L472.5,468.3Z"/>
    <path d="M528.57,384.54l9.79,5.06-24.25,46.86L470.2,413.74l23.9-46.17,9.79,5.06-17.37,33.56,7.21,3.73L508,382.26l9.35,4.84-14.32,27.67,7.78,4Z"/>
  </g>
</svg>
