<svg id="Слой_1" data-name="Слой 1" xmlns="http://www.w3.org/2000/svg" viewBox="0 0 1051.7 459.39">
  <title>GOHST</title>
  <rect width="1051.7" height="459.39" fill="#fec2ce"/>
  <g>
    <path d="M435,257.66H421l-2.29,5h-5.46l12-26.73h5.5l12,26.73h-5.5Zm-7-16.08L423,253h9.93Z"/>
    <path d="M447.51,240.55H439V236h22v4.58h-8.48V262.7h-5Z"/>
    <path d="M471,240.55h-8.48V236h22v4.58H476V262.7h-5Z"/>
    <path d="M507.5,262.7h-20V236h20v4.89h-15V247H507v4.7H492.49v6h15Z"/>
    <path d="M529.76,235.93h5V262.7h-3.13v0l-14.06-18.07v18h-5V236h4.09l13.1,16.58Z"/>
    <path d="M546.33,240.55h-8.48V236h22v4.58h-8.48V262.7h-5Z"/>
    <path d="M562.95,262.7V236h5V262.7Z"/>
    <path d="M599.76,249.49c-.08,6.91-4.32,13.83-13.71,13.83s-13.75-6.76-13.75-13.79,4.51-14.09,13.75-14.09S599.84,242.5,599.76,249.49Zm-22.5.12c.11,4.39,2.48,9.09,8.78,9.09s8.67-4.74,8.74-9.13-2.44-9.55-8.74-9.55S577.15,245.1,577.27,249.6Z"/>
    <path d="M621,235.93h5V262.7h-3.13v0l-14.06-18.07v18h-5V236h4.09L621,252.54Z"/>
    <path d="M637.22,260c0,4-6.11,4-6.11,0S637.22,255.9,637.22,260ZM636.64,236v19.71h-5V236Z"/>
    <path d="M198.46,286.37H190v-4.58h22v4.58H203.5v22.15h-5Z"/>
    <path d="M233.25,308.57V297.75H220.11v10.81h-5V281.83h5V293.1h13.14V281.83h5v26.73Z"/>
    <path d="M262.92,308.52h-20V281.79h20v4.89h-15v6.15h14.47v4.7H247.91v6h15Z"/>
    <path d="M290.53,308.52h-6l-7.79-8.94h-4.85v8.94h-5V281.75c4.24,0,8.48,0,12.72,0,6.3,0,9.62,4.24,9.62,8.86,0,3.66-1.68,7.37-6.76,8.4l8.1,9.13Zm-18.64-22V295h7.68c3.21,0,4.58-2.14,4.58-4.27a4.19,4.19,0,0,0-4.58-4.28Z"/>
    <path d="M312.52,308.52h-20V281.79h20v4.89h-15v6.15H312v4.7H297.52v6h15Z"/>
    <path d="M324.17,308.52V281.79h5v26.73Z"/>
    <path d="M351.17,288.25c-.92-1.53-3.44-3-6.34-3-3.74,0-5.54,1.57-5.54,3.55,0,2.33,2.75,3,6,3.36,5.58.68,10.77,2.14,10.77,8.52,0,6-5.27,8.52-11.23,8.52-5.46,0-9.66-1.68-11.65-6.57l4.2-2.18c1.18,2.94,4.28,4.24,7.52,4.24s6.15-1.11,6.15-4c0-2.52-2.63-3.55-6.19-3.94-5.46-.65-10.5-2.1-10.5-8.09,0-5.5,5.42-7.75,10.35-7.79,4.16,0,8.48,1.18,10.5,5.31Z"/>
    <path d="M386.61,303.48h-14l-2.29,5h-5.46l12-26.73h5.5l12,26.73h-5.5Zm-7-16.08-5,11.38h9.93Z"/>
    <path d="M423.8,288.32a10.24,10.24,0,0,0-6.8-2.67c-5.73,0-9.2,4.35-9.2,9.85,0,4.39,2.56,8.94,9.2,8.94a8.89,8.89,0,0,0,6-2.14v-4.74H416.2v-4.51h11.46v11.27A13.32,13.32,0,0,1,417,309.13c-10,0-14.13-6.6-14.13-13.63,0-7.52,4.7-14.47,14.13-14.47a14.12,14.12,0,0,1,9.93,4.09Z"/>
    <path d="M450,308.57V297.75H436.86v10.81h-5V281.83h5V293.1H450V281.83h5v26.73Z"/>
    <path d="M486,295.31c-.08,6.91-4.32,13.83-13.71,13.83s-13.75-6.76-13.75-13.78,4.51-14.09,13.75-14.09S486.08,288.32,486,295.31Zm-22.5.12c.11,4.39,2.48,9.09,8.78,9.09s8.67-4.74,8.74-9.13-2.44-9.55-8.74-9.55S463.4,290.92,463.51,295.42Z"/>
    <path d="M507,288.25c-.92-1.53-3.44-3-6.34-3-3.74,0-5.54,1.57-5.54,3.55,0,2.33,2.75,3,6,3.36,5.58.68,10.77,2.14,10.77,8.52,0,6-5.27,8.52-11.23,8.52-5.46,0-9.66-1.68-11.65-6.57l4.2-2.18c1.18,2.94,4.28,4.24,7.52,4.24s6.15-1.11,6.15-4c0-2.52-2.63-3.55-6.19-3.94-5.46-.65-10.5-2.1-10.5-8.09,0-5.5,5.42-7.75,10.35-7.79,4.16,0,8.48,1.18,10.5,5.31Z"/>
    <path d="M522.62,286.37h-8.48v-4.58h22v4.58h-8.48v22.15h-5Z"/>
    <path d="M546.95,308.52V281.79h5v26.73Z"/>
    <path d="M574.25,281.75h5v26.77h-3.13v0L562.11,290.5v18h-5V281.79h4.09l13.1,16.58Z"/>
    <path d="M602.89,292.83l7.1-11h6.07V282l-10.66,15.47v11h-5v-11L590.1,282v-.23h6Z"/>
    <path d="M644.56,295.31c-.08,6.91-4.32,13.83-13.71,13.83s-13.75-6.76-13.75-13.78,4.51-14.09,13.75-14.09S644.63,288.32,644.56,295.31Zm-22.5.12c.11,4.39,2.48,9.09,8.78,9.09s8.67-4.74,8.74-9.13-2.44-9.55-8.74-9.55S621.95,290.92,622.06,295.42Z"/>
    <path d="M671.71,281.83v15.31c0,7.91-4.85,12-11.57,12-6.42,0-11.88-3.9-11.88-12V281.83h5v15.31c0,4.81,2.75,7.37,6.91,7.37s6.53-2.79,6.53-7.37V281.83Z"/>
    <path d="M700.35,308.52h-6l-7.79-8.94h-4.85v8.94h-5V281.75c4.24,0,8.48,0,12.72,0,6.3,0,9.62,4.24,9.62,8.86,0,3.66-1.68,7.37-6.76,8.4l8.1,9.13Zm-18.64-22V295h7.68c3.21,0,4.58-2.14,4.58-4.27a4.19,4.19,0,0,0-4.58-4.28Z"/>
    <path d="M726.62,288.25c-.92-1.53-3.44-3-6.34-3-3.74,0-5.54,1.57-5.54,3.55,0,2.33,2.75,3,6,3.36,5.58.68,10.77,2.14,10.77,8.52,0,6-5.27,8.52-11.23,8.52-5.46,0-9.66-1.68-11.65-6.57l4.2-2.18c1.18,2.94,4.28,4.24,7.52,4.24s6.15-1.11,6.15-4c0-2.52-2.63-3.55-6.19-3.94-5.46-.65-10.5-2.1-10.5-8.09,0-5.5,5.42-7.75,10.35-7.79,4.16,0,8.48,1.18,10.5,5.31Z"/>
    <path d="M745.44,292.83l7.1-11h6.07V282L748,297.49v11h-5v-11L732.65,282v-.23h6Z"/>
    <path d="M777.33,288.25c-.92-1.53-3.44-3-6.34-3-3.74,0-5.54,1.57-5.54,3.55,0,2.33,2.75,3,6,3.36,5.58.68,10.77,2.14,10.77,8.52,0,6-5.27,8.52-11.23,8.52-5.46,0-9.66-1.68-11.65-6.57l4.2-2.18c1.18,2.94,4.28,4.24,7.52,4.24s6.15-1.11,6.15-4c0-2.52-2.63-3.55-6.19-3.94-5.46-.65-10.5-2.1-10.5-8.09,0-5.5,5.42-7.75,10.35-7.79,4.16,0,8.48,1.18,10.5,5.31Z"/>
    <path d="M793,286.37H784.5v-4.58h22v4.58H798v22.15h-5Z"/>
    <path d="M829.49,308.52h-20V281.79h20v4.89h-15v6.15H829v4.7H814.48v6h15Z"/>
    <path d="M856.68,289.16,848,300.77h-1l-8.52-11.65v19.44h-5V281.83h5.8l8.37,11.5,8.36-11.5h5.77v26.73h-5Z"/>
  </g>
  <g>
    <path d="M526.6,136.1l-44.31,76.75a.61.61,0,0,0,.53.92h88.62a.61.61,0,0,0,.53-.92L527.66,136.1A.61.61,0,0,0,526.6,136.1Z" fill="#fcd120"/>
    <path d="M571.44,216.26H482.82a3.11,3.11,0,0,1-2.7-4.67l44.31-76.75a3.11,3.11,0,0,1,5.39,0l44.31,76.75a3.11,3.11,0,0,1-2.7,4.67Zm-85.35-5h82.08l-41-71.08Zm42.68-73.92h0Z"/>
  </g>
  <rect x="522.79" y="198.23" width="8.68" height="8.68"/>
  <rect x="522.79" y="156.59" width="8.68" height="35.51"/>
  <g>
    <path d="M152.85,292a15.39,15.39,0,0,1-30.79,0,15.39,15.39,0,0,1-30.79,0,15.39,15.39,0,0,1-30.79,0l1.33-119.82a44.08,44.08,0,1,1,88.16,0Z" fill="#fcefdf"/>
    <path d="M137.46,309.89a17.9,17.9,0,0,1-15.39-8.78,17.89,17.89,0,0,1-30.79,0A17.89,17.89,0,0,1,58,292l1.33-119.85a46.58,46.58,0,0,1,93.16,0L155.35,292A17.91,17.91,0,0,1,137.46,309.89ZM124.57,292a12.89,12.89,0,0,0,25.79,0l-2.87-119.79a41.58,41.58,0,1,0-83.16-.06L63,292a12.89,12.89,0,0,0,25.79,0h5a12.89,12.89,0,0,0,25.79,0Z"/>
  </g>
  <ellipse cx="106.67" cy="351.8" rx="55.3" ry="18.77"/>
  <ellipse cx="84.25" cy="191.81" rx="6.12" ry="14.28"/>
  <circle cx="106.67" cy="229.36" r="11.46"/>
  <ellipse cx="126.29" cy="191.81" rx="6.12" ry="14.28"/>
  <g>
    <path d="M995.49,292a15.39,15.39,0,0,1-30.79,0,15.39,15.39,0,0,1-30.79,0,15.39,15.39,0,0,1-30.79,0l1.33-119.82a44.08,44.08,0,1,1,88.16,0Z" fill="#fcefdf"/>
    <path d="M980.1,309.89a17.9,17.9,0,0,1-15.39-8.78,17.89,17.89,0,0,1-30.79,0A17.89,17.89,0,0,1,900.63,292L902,172.15a46.58,46.58,0,0,1,93.16,0L998,292A17.91,17.91,0,0,1,980.1,309.89ZM967.2,292A12.89,12.89,0,0,0,993,292l-2.87-119.79a41.58,41.58,0,1,0-83.16-.06L905.63,292a12.89,12.89,0,0,0,25.79,0h5a12.89,12.89,0,0,0,25.79,0Z"/>
  </g>
  <ellipse cx="949.31" cy="351.8" rx="55.3" ry="18.77"/>
  <ellipse cx="926.89" cy="191.81" rx="6.12" ry="14.28"/>
  <circle cx="949.31" cy="229.36" r="11.46"/>
  <ellipse cx="968.93" cy="191.81" rx="6.12" ry="14.28"/>
</svg>
