<?xml version="1.0" encoding="UTF-8"?>
<svg width="256px" height="226px" viewBox="0 0 256 226" version="1.1" xmlns="http://www.w3.org/2000/svg" xmlns:xlink="http://www.w3.org/1999/xlink">
    <!-- Generator: Sketch 50.2 (55047) - http://www.bohemiancoding.com/sketch -->
    <title>Illustration 3</title>
    <desc>Created with Sketch.</desc>
    <defs>
        <polygon id="path-1" points="0 0.496460227 127.514909 0.496460227 127.514909 131 0 131"></polygon>
    </defs>
    <g id="Illustration-3" stroke="none" stroke-width="1" fill="none" fill-rule="evenodd">
        <rect id="Rectangle-2-Copy" fill="#FCD120" x="0" y="0" width="256" height="226"></rect>
        <g id="Group" transform="translate(64.000000, 22.000000)">
            <g id="Group-3">
                <mask id="mask-2" fill="white">
                    <use xlink:href="#path-1"></use>
                </mask>
                <g id="Clip-2"></g>
                <path d="M63.7574545,4.96236932 C31.0076364,4.96236932 4.36327273,32.2312102 4.36327273,65.7486023 C4.36327273,99.2659943 31.0076364,126.534091 63.7574545,126.534091 C96.5072727,126.534091 123.151636,99.2659943 123.151636,65.7486023 C123.151636,32.2312102 96.5072727,4.96236932 63.7574545,4.96236932 M63.7574545,131 C28.6018182,131 -0.000363636364,101.728199 -0.000363636364,65.7486023 C-0.000363636364,29.7682614 28.6018182,0.496460227 63.7574545,0.496460227 C98.9138182,0.496460227 127.515273,29.7682614 127.515273,65.7486023 C127.515273,101.728199 98.9138182,131 63.7574545,131" id="Fill-1" fill="#1D1D1B" mask="url(#mask-2)"></path>
            </g>
            <path d="M47.8312482,45.4301217 C46.676361,45.4301217 45.7371057,46.3913908 45.7371057,47.5733457 C45.7371057,48.7553006 46.676361,49.7172467 47.8312482,49.7172467 C48.9861354,49.7172467 49.9260522,48.7553006 49.9260522,47.5733457 C49.9260522,46.3913908 48.9861354,45.4301217 47.8312482,45.4301217 M47.8312482,53.7789474 C44.4882929,53.7789474 41.7684211,50.9953285 41.7684211,47.5733457 C41.7684211,44.1520399 44.4882929,41.3684211 47.8312482,41.3684211 C51.174865,41.3684211 53.8947368,44.1520399 53.8947368,47.5733457 C53.8947368,50.9953285 51.174865,53.7789474 47.8312482,53.7789474" id="Fill-4" fill="#1D1D1B"></path>
            <path d="M61.9793116,104.8 C41.9199226,104.8 25.6,88.4609908 25.6,68.3772455 C25.6,67.1681369 26.5782048,66.1894737 27.7851186,66.1894737 C28.9920325,66.1894737 29.9702372,67.1681369 29.9702372,68.3772455 C29.9702372,86.0478785 44.3301084,100.424456 61.9793116,100.424456 C79.6285147,100.424456 93.9876575,86.0478785 93.9876575,68.3772455 C93.9876575,67.1681369 94.9658623,66.1894737 96.1727761,66.1894737 C97.3804183,66.1894737 98.3578947,67.1681369 98.3578947,68.3772455 C98.3578947,88.4609908 82.0387005,104.8 61.9793116,104.8" id="Fill-6" fill="#1D1D1B"></path>
            <path d="M76.1259851,45.4301217 C74.9710978,45.4301217 74.0318425,46.3913908 74.0318425,47.5733457 C74.0318425,48.7553006 74.9710978,49.7172467 76.1259851,49.7172467 C77.2808723,49.7172467 78.2207891,48.7553006 78.2207891,47.5733457 C78.2207891,46.3913908 77.2808723,45.4301217 76.1259851,45.4301217 M76.1259851,53.7789474 C72.7830297,53.7789474 70.0631579,50.9953285 70.0631579,47.5733457 C70.0631579,44.1520399 72.7830297,41.3684211 76.1259851,41.3684211 C79.4696018,41.3684211 82.1894737,44.1520399 82.1894737,47.5733457 C82.1894737,50.9953285 79.4696018,53.7789474 76.1259851,53.7789474" id="Fill-8" fill="#1D1D1B"></path>
            <path d="M28.9684211,70.3263158 C24.8827198,70.3263158 21.5578947,66.9822009 21.5578947,62.8727953 C21.5578947,61.6581529 22.5366847,60.6736842 23.7443207,60.6736842 C24.9519566,60.6736842 25.9307466,61.6581529 25.9307466,62.8727953 C25.9307466,64.5573144 27.2936188,65.9280936 28.9684211,65.9280936 C30.6432233,65.9280936 32.0060955,64.5573144 32.0060955,62.8727953 C32.0060955,61.6581529 32.9856143,60.6736842 34.1925214,60.6736842 C35.4001574,60.6736842 36.3789474,61.6581529 36.3789474,62.8727953 C36.3789474,66.9822009 33.0548511,70.3263158 28.9684211,70.3263158" id="Fill-10" fill="#1D1D1B"></path>
            <path d="M96.3372065,70.3263158 C92.2509773,70.3263158 88.9263158,66.9822009 88.9263158,62.8727953 C88.9263158,61.6581529 89.9050577,60.6736842 91.1126342,60.6736842 C92.3202108,60.6736842 93.2989526,61.6581529 93.2989526,62.8727953 C93.2989526,64.5573144 94.6617578,65.9280936 96.3372065,65.9280936 C98.0119264,65.9280936 99.3747316,64.5573144 99.3747316,62.8727953 C99.3747316,61.6581529 100.353473,60.6736842 101.56105,60.6736842 C102.768627,60.6736842 103.747368,61.6581529 103.747368,62.8727953 C103.747368,66.9822009 100.422707,70.3263158 96.3372065,70.3263158" id="Fill-12" fill="#1D1D1B"></path>
        </g>
        <text id="良い一日を" font-family="PingFangSC-Semibold, PingFang SC" font-size="28" font-weight="500" line-spacing="21" letter-spacing="1.40591908" fill="#000000">
            <tspan x="51.9692023" y="196.344">良い一日を</tspan>
        </text>
    </g>
</svg>