<?xml version="1.0" encoding="UTF-8"?>
<svg width="252px" height="227px" viewBox="0 0 252 227" version="1.1" xmlns="http://www.w3.org/2000/svg" xmlns:xlink="http://www.w3.org/1999/xlink">
    <!-- Generator: Sketch 50.2 (55047) - http://www.bohemiancoding.com/sketch -->
    <title>Illustration 2</title>
    <desc>Created with Sketch.</desc>
    <defs></defs>
    <g id="Illustration-2" stroke="none" stroke-width="1" fill="none" fill-rule="evenodd">
        <rect id="Rectangle-2" fill="#FCD120" x="0" y="0" width="252" height="227"></rect>
        <g id="spam-04" transform="translate(35.000000, 30.000000)" fill-rule="nonzero">
            <g id="Group" transform="translate(19.000000, 0.000000)">
                <rect id="Rectangle-path" fill="#FCD120" x="1.17848276" y="1.22666667" width="45.6165517" height="10.5866667" rx="5.29333333"></rect>
                <path d="M42.8855172,12.8133333 L5.088,12.8133333 C2.38186947,12.8096609 0.189026391,10.6015898 0.18537931,7.87666667 L0.18537931,5.16333333 C0.189026391,2.43841023 2.38186947,0.230339075 5.088,0.226666667 L42.8855172,0.226666667 C45.5916478,0.230339075 47.7844908,2.43841023 47.7881379,5.16333333 L47.7881379,7.87666667 C47.7844908,10.6015898 45.5916478,12.8096609 42.8855172,12.8133333 Z M5.088,2.22666667 C3.47806539,2.22850363 2.1734105,3.54221862 2.17158621,5.16333333 L2.17158621,7.87666667 C2.1734105,9.49778138 3.47806539,10.8114964 5.088,10.8133333 L42.8855172,10.8133333 C44.4954519,10.8114964 45.8001067,9.49778138 45.801931,7.87666667 L45.801931,5.16333333 C45.8001067,3.54221862 44.4954519,2.22850363 42.8855172,2.22666667 L5.088,2.22666667 Z" id="Shape" fill="#1D1D1B"></path>
            </g>
            <g id="Group" transform="translate(0.000000, 5.000000)">
                <rect id="Rectangle-path" fill="#FCD120" x="1.01442623" y="1.18666667" width="179.672787" height="10.5866667" rx="5.29333333"></rect>
                <path d="M176.772058,12.7933333 L4.92958106,12.7933333 C2.20856292,12.7896609 0.00365237828,10.5726355 -1.65312208e-15,7.83666667 L-1.65312208e-15,5.12333333 C0.00182582804,2.38606289 2.20727021,0.167009375 4.92958106,0.163333333 L176.772058,0.163333333 C179.494369,0.167009375 181.699814,2.38606289 181.701639,5.12333333 L181.701639,7.83666667 C181.697987,10.5726355 179.493076,12.7896609 176.772058,12.7933333 Z M4.92958106,2.20666667 C3.32831022,2.2085036 2.03067935,3.51326431 2.02885246,5.12333333 L2.02885246,7.83666667 C2.03067935,9.44673569 3.32831022,10.7514964 4.92958106,10.7533333 L176.772058,10.7533333 C177.542259,10.7542179 178.281263,10.4474239 178.826499,9.90044271 C179.371734,9.3534615 179.678538,8.61109897 179.679417,7.83666667 L179.679417,5.12333333 C179.67759,3.51326431 178.379959,2.2085036 176.778689,2.20666667 L4.92958106,2.20666667 Z" id="Shape" fill="#1D1D1B"></path>
            </g>
            <g id="Group" transform="translate(2.000000, 154.000000)">
                <rect id="Rectangle-path" fill="#FCD120" x="1.17329545" y="1.05368421" width="172.570549" height="10.8652632" rx="5.43263158"></rect>
                <path d="M169.829545,12.9452632 L5.10416667,12.9452632 C3.79826588,12.9479902 2.54499451,12.4142049 1.62095969,11.4617179 C0.696924884,10.5092309 0.178094018,9.21634877 0.178977273,7.86842105 L0.178977273,5.08368421 C0.182628815,2.2870526 2.37815411,0.0208743136 5.0875947,0.0171052632 L169.812973,0.0171052632 C172.522414,0.0208743136 174.717939,2.2870526 174.721591,5.08368421 L174.721591,7.86842105 C174.723446,10.6624033 172.53639,12.9320758 169.829545,12.9452632 Z M5.10416667,2.08 C3.49226283,2.0818853 2.18601213,3.43017174 2.18418561,5.09394737 L2.18418561,7.86842105 C2.18601213,9.53219668 3.49226283,10.8804831 5.10416667,10.8823684 L169.829545,10.8823684 C171.441449,10.8804831 172.7477,9.53219668 172.749527,7.86842105 L172.749527,5.08368421 C172.7477,3.41990858 171.441449,2.07162214 169.829545,2.06973684 L5.10416667,2.08 Z" id="Shape" fill="#1D1D1B"></path>
            </g>
            <g id="Group" transform="translate(7.000000, 13.000000)">
                <rect id="Rectangle-path" fill="#408FCD" x="1.09345238" y="1.14148984" width="164.673929" height="144.836479" rx="14.74"></rect>
                <path d="M160.883294,146.970135 L5.96428571,146.970135 C2.72457259,146.959177 0.103034627,144.327914 0.0994047619,141.083499 L0.0994047619,6.0293228 C0.104856635,2.78620289 2.72586349,0.156956421 5.96428571,0.146004515 L160.87004,0.146004515 C164.11493,0.1496619 166.744523,2.78305762 166.748175,6.03264108 L166.748175,141.086817 C166.742723,144.329937 164.121716,146.959184 160.883294,146.970135 Z M5.96428571,2.13697517 C3.82256682,2.1479152 2.09111457,3.88779974 2.0875,6.03264108 L2.0875,141.086817 C2.09293253,143.230363 3.82385614,144.968235 5.96428571,144.979165 L160.87004,144.979165 C163.016936,144.975511 164.756431,143.233501 164.760079,141.083499 L164.760079,6.0293228 C164.756431,3.87932102 163.016936,2.13731025 160.87004,2.13365688 L5.96428571,2.13697517 Z" id="Shape" fill="#1D1D1B"></path>
            </g>
            <g id="Group" transform="translate(7.000000, 13.000000)">
                <rect id="Rectangle-path" fill="#2B98F0" x="1.09620362" y="1.14189707" width="165.088266" height="144.888149" rx="4"></rect>
                <path d="M161.288093,147.022567 L5.97929249,147.022567 C2.7314279,147.011605 0.103293873,144.379404 0.0996548749,141.133831 L0.0996548749,6.03147378 C0.105120466,2.78719688 2.73272205,0.157012415 5.97929249,0.146056602 L161.274806,0.146056602 C164.527861,0.149715292 167.16407,2.78405049 167.167731,6.03479325 L167.167731,141.13715 C167.162265,144.381427 164.534664,147.011612 161.288093,147.022567 Z M5.97929249,2.13773754 C3.8321848,2.14868147 2.09637603,3.88918672 2.09275237,6.03479325 L2.09275237,141.13715 C2.09819857,143.281461 3.83347737,145.019953 5.97929249,145.030887 L161.274806,145.030887 C163.427104,145.027232 165.170976,143.2846 165.174633,141.133831 L165.174633,6.03147378 C165.170976,3.88070498 163.427104,2.13807274 161.274806,2.13441807 L5.97929249,2.13773754 Z" id="Shape" fill="#1D1D1B"></path>
            </g>
            <g id="Group" transform="translate(17.000000, 109.000000)">
                <path d="M1.06256944,20.6866197 L1.06256944,7.89070423 C4.37275463,7.00807512 7.75686728,6.1993662 11.2149074,5.46457746 C59.2854167,-4.73309859 104.601852,3.92549296 141.854676,17.8202817 L138.104236,40.7675352 C116.405972,41.899507 99.4578241,42.9785211 89.55375,43.6371831 C45.8427546,46.5333099 28.9773611,48.5059859 14.5217824,37.4576761 C7.28240741,31.9269014 3.23074074,25.1085915 1.06256944,20.6866197 Z" id="Shape" fill="#F7846D"></path>
                <path d="M46.9284954,46.8940845 C31.8936343,46.8940845 22.5390509,44.8287324 13.9226389,38.2454225 C8.2456713,33.909507 3.61803241,28.1338028 0.17212963,21.1235211 C0.10502693,20.9876261 0.0699252203,20.8381755 0.0695138889,20.6866197 L0.0695138889,7.89070423 C0.0694388263,7.44040193 0.372425144,7.04642266 0.807685185,6.93084507 C4.17414352,6.03387324 7.60680556,5.21302817 11.0096759,4.49147887 C52.4465741,-4.3028169 96.5878935,-0.125774648 142.202245,16.8802817 C142.645643,17.0461691 142.910276,17.5019574 142.834491,17.9692254 L139.084051,40.9164789 C139.008541,41.3766733 138.622925,41.7223164 138.157199,41.7472535 C121.689028,42.6078169 105.359884,43.5709859 89.6232639,44.6135915 L81.4636574,45.1597183 C67.157037,46.1394366 56.0050231,46.8940845 46.9284954,46.8940845 Z M2.055625,20.4549296 C5.36581019,27.1077465 9.75180556,32.5623944 15.1275463,36.6732394 C28.368287,46.7782394 43.8632639,45.7290141 81.33125,43.1969718 L89.4908565,42.6475352 C104.985833,41.6214789 121.050162,40.6616197 137.253519,39.8209155 L140.742454,18.4690141 C95.7603472,1.82042254 52.2545833,-2.22753521 11.4201389,6.4343662 C8.29863426,7.09633803 5.15064815,7.84105634 2.055625,8.65528169 L2.055625,20.4549296 Z" id="Shape" fill="#1D1D1B"></path>
            </g>
            <g id="Group" transform="translate(23.000000, 23.000000)">
                <g id="Shape">
                    <path d="M9.26419753,24.3539286 C9.42301235,25.7942857 9.70424691,26.5111607 10.3064198,27.3271429 C11.2659259,28.5263393 12.9533333,29.206875 14.9914568,29.206875 C18.0751111,29.206875 19.914716,27.8491071 19.914716,25.6092857 C19.9542166,24.4277326 19.2964801,23.3327542 18.2339259,22.8111607 C17.3935309,22.4114286 16.3910123,22.130625 12.2287407,21.159375 C8.54622222,20.3599107 7.26577778,19.8808929 5.78350617,18.846875 C3.26232099,17.089375 1.89916049,14.4101786 1.89916049,11.1726786 C1.89916049,5.018125 6.86212346,1.13973214 14.7499259,1.13973214 C19.8353086,1.13973214 23.7163457,2.69901786 25.8801975,5.69535714 C26.8727901,7.01678571 27.3624691,8.21267857 27.8653827,10.4921429 L19.378716,11.4105357 C18.898963,8.810625 17.4563951,7.73366071 14.4157531,7.73366071 C11.9739753,7.73366071 10.1707654,9.05508929 10.1707654,10.891875 C10.1707654,12.0117857 10.7696296,12.8508929 12.0533827,13.4488393 C12.8540741,13.8089286 12.8540741,13.8089286 17.5788148,14.7702679 C20.6227654,15.4111607 22.5417778,16.0916964 24.0637531,17.0497321 C26.9455802,18.8501786 28.3881481,21.5260714 28.3881481,25.2029464 C28.3881481,28.2025893 27.428642,30.7595536 25.5857284,32.5566964 C23.269679,34.7965179 19.739358,35.9560714 15.0576296,35.9560714 C11.653037,35.9560714 8.29145679,35.2358929 6.1242963,33.9970536 C4.10574809,32.8753171 2.56770161,31.0552843 1.79990123,28.8798214 C1.39955556,27.9217857 1.20103704,27.0000893 0.919802469,25.1633036 L9.26419753,24.3539286 Z" fill="#FCD120"></path>
                    <path d="M15.0840988,36.7720536 C11.4942222,36.7720536 8.00360494,35.9990179 5.74380247,34.7040179 C3.55862007,33.4924971 1.89324611,31.5241392 1.06207407,29.1705357 C0.612098765,28.0869643 0.400345679,27.0496429 0.132345679,25.275625 L0,24.4133929 L10.0119506,23.4553571 L10.101284,24.2647321 C10.2534815,25.645625 10.5082469,26.1874107 10.9813827,26.8183929 C11.7655309,27.8094643 13.2345679,28.3677679 15.0046914,28.3677679 C16.2355062,28.3677679 19.1007901,28.096875 19.1007901,25.5960714 C19.1385828,24.7369402 18.6685968,23.9354396 17.8997531,23.5478571 C17.1586173,23.194375 16.2454321,22.9333929 12.0533827,21.9654464 C8.32123457,21.1560714 6.93491358,20.6440179 5.31698765,19.5175 C2.58735802,17.6146429 1.08192593,14.6480357 1.08192593,11.1660714 C1.08192593,4.55892857 6.45185185,0.307232143 14.7598519,0.307232143 C20.1694815,0.307232143 24.249037,2.00196429 26.5617778,5.20642857 C27.6006914,6.57410714 28.1433086,7.84928571 28.6991605,10.3038393 L28.9042963,11.2090179 L18.7302222,12.3124107 L18.5945679,11.5625 C18.1842963,9.34580357 17.0990617,8.55955357 14.4422222,8.55955357 C12.457037,8.55955357 11.0243951,9.550625 11.0243951,10.891875 C11.0243951,11.4270536 11.1832099,12.1208036 12.4305679,12.7022321 C13.1353086,13.0325893 13.1353086,13.0325893 17.770716,13.9608929 C20.8973827,14.6216071 22.918963,15.331875 24.5335802,16.349375 C27.6569383,18.2984821 29.2417778,21.2783036 29.2417778,25.2029464 C29.2417778,28.4503571 28.186321,31.1989286 26.1912099,33.1480357 C23.6898765,35.5497321 19.9544198,36.7720536 15.0840988,36.7720536 Z M1.90577778,25.8900893 C2.02622397,26.8022224 2.25731954,27.6963453 2.59397531,28.5527679 L2.59397531,28.5858036 C3.29661937,30.579149 4.70846846,32.2451408 6.56103704,33.2669643 C8.58923457,34.4298214 11.7721481,35.1202679 15.0840988,35.1202679 C19.5110617,35.1202679 22.8594074,34.0565179 25.0398025,31.9554464 C26.6941235,30.3267857 27.5907654,27.9911607 27.5907654,25.1930357 C27.5907654,21.83 26.3037037,19.3919643 23.6567901,17.7401786 C22.2175309,16.8316964 20.3481481,16.1841964 17.4398519,15.5697321 C12.6323951,14.5786607 12.6323951,14.5786607 11.745679,14.1954464 C10.1707654,13.45875 9.37669136,12.3454464 9.37669136,10.891875 C9.37669136,8.579375 11.5107654,6.90776786 14.4488395,6.90776786 C17.5887407,6.90776786 19.3456296,8.02767857 20.053679,10.5119643 L26.8760988,9.77196429 C26.449284,8.14660714 26.0092346,7.20508929 25.2416296,6.19419643 C23.2564444,3.4225 19.6169383,1.965625 14.7697778,1.965625 C7.35180247,1.965625 2.74617284,5.49383929 2.74617284,11.1726786 C2.74617284,14.1458929 3.96706173,16.5608036 6.27649383,18.1696429 C7.57679012,19.0814286 8.7017284,19.5505357 12.4239506,20.3599107 C16.6358519,21.3311607 17.6747654,21.6152679 18.6078025,22.06125 C19.9621787,22.7162961 20.8054153,24.1040168 20.7617284,25.6059821 C20.7617284,28.3347321 18.5581728,30.0294643 15.0113086,30.0294643 C12.6952593,30.0294643 10.812642,29.253125 9.68108642,27.8391964 C9.10018153,27.0878865 8.72095261,26.2009639 8.57930864,25.2624107 L1.90577778,25.8900893 Z" fill="#000000"></path>
                </g>
                <g transform="translate(31.762963, 0.660714)" id="Shape">
                    <path d="M1.1745679,34.525625 C1.42154293,32.563386 1.53209556,30.5864227 1.5054321,28.6089286 L1.5054321,6.98375 C1.52297087,5.03281914 1.41244599,3.08283747 1.1745679,1.14633929 C3.05718519,1.225625 4.48320988,1.26526786 7.06064198,1.26526786 L15.8285432,1.26526786 C23.769284,1.26526786 28.1201481,5.064375 28.1201481,12.0183929 C28.1201481,19.1342857 23.5575309,23.3694643 15.7888395,23.3694643 L9.46271605,23.3694643 L9.46271605,28.4866964 C9.45556743,30.5032785 9.56604251,32.5185651 9.79358025,34.5223214 L1.1745679,34.525625 Z M15.4281975,16.5773214 C18.2306173,16.5773214 19.8717037,15.0180357 19.8717037,12.2595536 C19.8717037,9.50107143 18.3100247,8.06071429 15.4281975,8.06071429 L9.47264198,8.06071429 L9.47264198,16.5740179 L15.4281975,16.5773214 Z" fill="#FCD120"></path>
                    <path d="M10.7133827,35.3482143 L0.228296296,35.3482143 L0.357333333,34.41 C0.594298919,32.4857751 0.696012745,30.547343 0.661728395,28.6089286 L0.661728395,6.98375 C0.683272807,5.06836255 0.578271261,3.15364158 0.347407407,1.25205357 L0.221679012,0.280803571 L1.2142716,0.32375 C3.07703704,0.403035714 4.4931358,0.442678571 7.06395062,0.442678571 L15.8318519,0.442678571 C24.1696296,0.442678571 28.9506173,4.66464286 28.9506173,12.0051786 C28.9506173,19.6298214 24.0306667,24.1821429 15.7921481,24.1821429 L10.2898765,24.1821429 L10.2898765,28.4767857 C10.2845269,30.4636592 10.3950017,32.4491594 10.6207407,34.4232143 L10.7133827,35.3482143 Z M2.11091358,33.6964286 L8.86716049,33.6964286 C8.71496296,32.0809821 8.6388642,30.3664286 8.6388642,28.4866964 L8.6388642,22.5402679 L15.7921481,22.5402679 C23.1042469,22.5402679 27.2962963,18.7048214 27.2962963,12.0150893 C27.2962963,7.48589286 25.3111111,2.104375 15.8318519,2.104375 L7.06395062,2.104375 C4.92325926,2.104375 3.57333333,2.07794643 2.10098765,2.02178571 C2.25802117,3.6742983 2.32980328,5.33378323 2.31604938,6.99366071 L2.31604938,28.6089286 C2.33686801,30.3072512 2.26728844,32.0054788 2.10760494,33.6964286 L2.11091358,33.6964286 Z M15.4315062,17.3999107 L8.63555556,17.3999107 L8.63555556,7.23482143 L15.4281975,7.23482143 C18.7765432,7.23482143 20.6988642,9.065 20.6988642,12.2595536 C20.6988642,15.4541071 18.7302222,17.4032143 15.4281975,17.4032143 L15.4315062,17.3999107 Z M10.2931852,15.748125 L15.4315062,15.748125 C17.7971852,15.748125 19.0478519,14.5423214 19.0478519,12.25625 C19.0478519,9.97017857 17.8666667,8.88660714 15.4281975,8.88660714 L10.2898765,8.88660714 L10.2931852,15.748125 Z" fill="#000000"></path>
                </g>
                <g transform="translate(57.901235, 0.991071)" id="Shape">
                    <path d="M26.2805432,34.1952679 C26.0594135,32.7359013 25.7388339,31.2932965 25.321037,29.8775 L24.2391111,26.478125 L12.8309136,26.478125 L11.7489877,29.8775 C11.2800241,31.2815908 10.9476246,32.7275256 10.7563951,34.1952679 L1.3797037,34.1952679 C1.98187654,32.9960714 2.33920988,32.0380357 3.30202469,29.3191964 L11.9508148,5.25267857 C12.5110162,3.85597561 12.9407608,2.41057511 13.2345679,0.934910714 L23.6832593,0.934910714 C24.033534,2.40451256 24.4879625,3.84740275 25.0431111,5.25267857 L33.7316049,29.3158929 C34.4925926,31.4334821 35.1311605,33.0720536 35.6539259,34.1919643 L26.2805432,34.1952679 Z M18.4721481,7.76669643 L14.7499259,19.7586607 L22.2770864,19.7586607 L18.4721481,7.76669643 Z" fill="#FCD120"></path>
                    <path d="M36.9476049,35.0178571 L25.5824198,35.0178571 L25.4666173,34.3274107 C25.2497447,32.90151 24.9357992,31.4920242 24.526963,30.10875 L23.6336296,27.3040179 L13.4363951,27.3040179 L12.5397531,30.1252679 C12.0866219,31.4843795 11.7653105,32.883814 11.5802469,34.3042857 L11.4842963,35.0211607 L0.0430123457,35.0211607 L0.641876543,33.8252679 C1.21096296,32.6888393 1.55506173,31.7869643 2.52449383,29.0416964 L11.173284,4.971875 C11.7164851,3.62027139 12.1329522,2.22127277 12.4173333,0.792857143 L12.5364444,0.105714286 L24.3350617,0.105714286 L24.4872593,0.736696429 C24.8260278,2.17254004 25.2672024,3.58235613 25.8074074,4.95535714 L34.4992099,29.0317857 C35.2800494,31.2088393 35.8987654,32.7813393 36.3917531,33.8417857 L36.9476049,35.0178571 Z M26.9819753,33.3660714 L34.3900247,33.3660714 C33.9797531,32.375 33.5033086,31.1295536 32.9540741,29.5933929 L24.2622716,5.53348214 C23.7783402,4.301081 23.3673602,3.04135009 23.0314568,1.76080357 L13.8962963,1.76080357 C13.5868339,3.04459367 13.1911067,4.30611038 12.7118025,5.53678571 L4.06632099,29.5966964 C3.42444444,31.4103571 3.04395062,32.4708036 2.66014815,33.369375 L10.0218765,33.369375 C10.2297735,32.0978823 10.5395754,30.8451076 10.9482963,29.623125 L12.2121975,25.6588393 L24.831358,25.6588393 L26.0952593,29.623125 C26.4665869,30.8514346 26.7616171,32.1014608 26.9786667,33.3660714 L26.9819753,33.3660714 Z M23.4119506,20.5878571 L13.6282963,20.5878571 L18.4655309,5.00821429 L23.4119506,20.5878571 Z M15.8781728,18.9360714 L21.1521481,18.9360714 L18.4853827,10.5317857 L15.8781728,18.9360714 Z" fill="#000000"></path>
                </g>
                <g transform="translate(95.619753, 0.991071)" id="Shape">
                    <path d="M15.6664198,34.1952679 C15.4679012,32.7978571 15.0245432,31.3178571 13.9459259,28.2785714 L10.2567901,17.644375 C10.2170864,17.4461607 9.01604938,13.7263393 8.89693827,13.4058929 C8.45688889,11.9655357 8.45688889,11.9655357 8.25506173,11.4072321 C8.49659259,13.9245536 8.65540741,17.205 8.65540741,19.3358036 L8.65540741,28.0109821 C8.61525302,30.0820895 8.72583208,32.1533734 8.9862716,34.2084821 L1.09516049,34.2084821 C1.35071183,32.152938 1.46127223,30.0820035 1.42602469,28.0109821 L1.42602469,7.19848214 C1.43394336,5.1148604 1.32347784,3.03246771 1.09516049,0.961339286 L11.662963,0.961339286 C11.9441975,2.67919643 12.2651358,3.96098214 13.1849383,6.59723214 L19.1901235,23.7857143 L25.145679,6.55758929 C26.0654815,3.87839286 26.3864198,2.59330357 26.6279506,0.921696429 L37.2387654,0.921696429 C36.9880645,2.99094394 36.8775252,5.07472704 36.9079012,7.15883929 L36.9079012,27.9713393 C36.9079012,31.010625 36.9873086,32.5699107 37.2387654,34.1688393 L29.3575802,34.1688393 C29.6153837,32.113495 29.7259526,30.042401 29.6884444,27.9713393 L29.6884444,19.2829464 C29.6884444,18.3249107 29.8075556,15.3186607 29.8902716,14.0864286 C30.0093827,11.9688393 30.0093827,11.9688393 30.0490864,11.3675893 C29.1689877,14.4861607 28.768642,15.9232143 28.2491852,17.3635714 L24.3648395,28.3149107 C23.3722469,31.1526786 22.8428642,32.9134821 22.6443457,34.1919643 L15.6664198,34.1952679 Z" fill="#FCD120"></path>
                    <path d="M38.2048889,35.0178571 L28.4179259,35.0178571 L28.5403457,34.08625 C28.7903363,32.0668313 28.8953778,30.0321482 28.8546667,27.9977679 L28.8546667,19.2829464 C28.8546667,19.0021429 28.8546667,18.5561607 28.8811358,18.0341964 L25.1390617,28.605625 C24.1464691,31.4202679 23.6435556,33.1315179 23.454963,34.3340179 L23.3457778,35.0310714 L14.9484444,35.0310714 L14.8458765,34.3208036 C14.6605926,33.0191964 14.250321,31.6184821 13.1650864,28.5659821 L9.46933333,17.8921429 C9.46933333,18.4075 9.48918519,18.8832143 9.48918519,19.3358036 L9.48918519,28.0109821 C9.44575905,30.0420123 9.54970169,32.073516 9.80019753,34.0895536 L9.92592593,35.0178571 L0.148888889,35.0178571 L0.274617284,34.0829464 C0.523423088,32.064531 0.628460566,30.0310308 0.588938272,27.9977679 L0.588938272,7.18526786 C0.594200143,5.13357639 0.483737187,3.08321708 0.258074074,1.04392857 L0.152197531,0.122232143 L12.3544691,0.122232143 L12.466963,0.815982143 C12.725037,2.39178571 13.0128889,3.61741071 13.9525432,6.313125 L19.1901235,21.2816071 L24.3747654,6.30321429 C25.2416296,3.78589286 25.5791111,2.50410714 25.8173333,0.819285714 L25.9199012,0.109017857 L38.1817284,0.109017857 L38.0659259,1.03732143 C37.8230661,3.07284469 37.7180538,5.12241141 37.7516049,7.17205357 L37.7516049,27.9845536 C37.7516049,30.9775893 37.8310123,32.5104464 38.0626173,34.0565179 L38.2048889,35.0178571 Z M30.2873086,33.3660714 L36.3024198,33.3660714 C36.1343449,31.5807183 36.0658605,29.7874127 36.097284,27.9944643 L36.097284,7.18196429 C36.0748268,5.37556274 36.1488248,3.56925007 36.318963,1.77071429 L27.3459259,1.77071429 C27.0243695,3.50048289 26.5538996,5.19931585 25.9397531,6.84830357 L19.1934321,26.339375 L12.4040988,6.84830357 C11.7862138,5.19701858 11.3059321,3.4976148 10.9681481,1.76741071 L2.01165432,1.76741071 C2.16385185,3.39276786 2.23995062,5.23946429 2.23995062,7.17866071 L2.23995062,27.9911607 C2.26404274,29.7842418 2.19225336,31.5773286 2.02488889,33.3627679 L8.04330864,33.3627679 C7.87756686,31.5772355 7.80688303,29.7841764 7.83155556,27.9911607 L7.83155556,19.3225893 C7.83155556,17.1554464 7.6694321,13.9311607 7.43451852,11.4865179 L6.80587654,4.89589286 L9.03590123,11.1297321 C9.24103704,11.7045536 9.24434568,11.7078571 9.69762963,13.1515179 C9.83659259,13.5545536 10.8887407,16.7854464 11.0607901,17.3966071 L14.7366914,28.0076786 C15.6796543,30.6505357 16.1329383,32.1239286 16.3910123,33.369375 L21.9693827,33.369375 C22.4016516,31.5624795 22.9453044,29.7839731 23.5972346,28.0440179 L27.4617284,17.089375 C27.9480988,15.7448214 28.3385185,14.360625 29.1160494,11.6021429 L31.3923951,3.54142857 L30.866321,11.4270536 C30.8266173,12.025 30.8266173,12.025 30.7075062,14.1359821 C30.6280988,15.355 30.5089877,18.3249107 30.5089877,19.28625 L30.5089877,28.0010714 C30.5356107,29.7920607 30.4627086,31.5831456 30.2906173,33.3660714 L30.2873086,33.3660714 Z" fill="#000000"></path>
                </g>
            </g>
            <path d="M60.0420718,136 C59.9107397,135.99991 59.7807159,135.973324 59.6594526,135.921763 L17.7376976,118.005595 C17.36317,117.902085 17.0812416,117.586069 17.0147852,117.195278 C16.9483289,116.804486 17.1093863,116.409728 17.4277638,116.183052 C17.7461413,115.956376 18.1641499,115.938854 18.4996089,116.138123 L60.4213638,134.054291 C60.8401632,134.252661 61.071309,134.71873 60.9803329,135.181364 C60.8893569,135.643999 60.4999898,135.982523 60.0387446,136 L60.0420718,136 Z" id="Shape" fill="#1D1D1B"></path>
            <path d="M58.1287703,150.999989 C57.6170817,151.0024 57.1878045,150.612223 57.1383463,150.099777 C56.6578012,144.680168 57.4330352,139.222268 59.4031158,134.155059 C59.54271,133.80262 59.8690876,133.56051 60.2449761,133.530557 L159.066176,126 C159.561617,126.028551 159.959578,126.42162 159.997128,126.919508 C160.034678,127.417396 159.700225,127.866388 159.21474,127.969837 L61.0274111,135.450567 C59.3286378,140.073137 58.6734306,145.018128 59.10929,149.927042 C59.1533054,150.469633 58.7564245,150.947354 58.2179084,150.999989 L58.1287703,150.999989 Z" id="Shape" fill="#1D1D1B"></path>
            <g id="Group" transform="translate(24.000000, 107.000000)">
                <path d="M21.6806443,1.26967742 C19.4098454,1.41846774 8.04920103,2.36741935 3.39456186,10.5277419 C0.694871134,15.2658871 0.638350515,21.7696774 2.23090206,22.4309677 C3.58407216,22.9864516 5.73185567,19.1245161 7.38425258,19.7858065 C9.21618557,20.5066129 7.21801546,25.5059677 10.0440464,28.0519355 C11.7629381,29.5993548 13.4585567,28.4751613 16.1948196,30.6970968 C17.8904381,32.0725806 18.691701,33.5637903 19.1870876,33.3422581 C19.9617526,33.0116129 17.9602577,29.3745161 19.5195619,26.3987097 C20.5169845,24.5074194 22.4686082,23.7370161 22.8443041,23.5882258 C26.5713402,22.1201613 28.8986598,25.2183065 34.4809021,25.9027419 C40.648299,26.6566129 41.5991753,23.1881452 45.7850258,24.2495161 C53.3587887,26.1705645 55.0145103,38.9037097 58.4822165,38.3912097 C61.1087629,38.0010484 61.2251289,30.5383871 64.5299227,30.1052419 C66.7142784,29.8208871 67.8546649,32.9223387 69.8894072,32.5156452 C72.6888402,31.9568548 71.8842526,25.7969355 75.2089948,24.4148387 C78.0649485,23.2212097 80.1429124,27.1856452 85.681933,26.8946774 C89.0864691,26.716129 89.1163918,25.178629 91.9989433,25.2414516 C98.0599485,25.3770161 102.571624,32.2875 103.13683,33.1769355 C105.680258,37.1810484 105.184871,39.6079839 106.794046,39.9551613 C108.945155,40.4180645 111.867603,36.5230645 117.599459,28.8785484 C119.085619,26.8946774 120.385593,25.0728226 122.919046,23.5882258 C125.765026,21.935 127.793119,22.1069355 127.90616,21.4390323 C128.335052,18.8798387 108.123943,14.3301613 108.123943,14.3301613 C95.6195876,11.5130645 70.7338918,6.77491935 21.6806443,1.26967742 Z" id="Shape" fill="#FCD120"></path>
                <path d="M107.183041,41 C106.981754,40.9992911 106.781122,40.9771214 106.584588,40.933871 C105.181546,40.6296774 104.772603,39.4393548 104.30049,38.0572581 C103.823238,36.5319043 103.152915,35.073084 102.305644,33.7158871 C101.349665,32.237477 100.225092,30.8738888 98.9543041,29.6522581 C96.6269845,27.4402419 94.2797165,26.2929032 91.9889691,26.24 C91.1171388,26.1990288 90.2527189,26.4165342 89.5053866,26.8649194 C88.3507358,27.4966112 87.062255,27.8478328 85.7451031,27.8899194 C82.5899227,28.0552419 80.4853608,26.9740323 78.7963918,26.101129 C77.3168814,25.3373387 76.5023196,24.9570968 75.6046392,25.3340323 C74.3379124,25.8630645 73.8026289,27.5592742 73.2773196,29.1992742 C72.6688918,31.1203226 72.0371907,33.1075 70.0922165,33.4976613 C68.602732,33.7952419 67.5088918,32.866129 66.6278351,32.1221774 C65.8132732,31.431129 65.2746649,31.0178226 64.6662371,31.1004839 C63.5025773,31.2525806 62.7312371,33.2331452 62.0529897,34.9822581 C61.261701,37.0124194 60.4471392,39.1153226 58.6384794,39.3831452 C56.4408247,39.7137903 55.0909794,37.105 53.5250258,34.0928226 C51.703067,30.581371 49.432268,26.2102419 45.5456443,25.2249194 C43.8832732,24.7983871 42.8592526,25.2249194 41.4661856,25.8068548 C39.8536856,26.4681452 37.8455412,27.3278226 34.3678608,26.9012903 C31.8876031,26.5970968 30.0456959,25.8597581 28.4464948,25.2083871 C26.3751804,24.3718548 25.0053866,23.8196774 23.22,24.5239516 C22.4752577,24.8149194 21.1220876,25.5158871 20.4139175,26.8682258 C19.6159794,28.3991129 19.9517784,30.2110484 20.1978093,31.5369355 C20.4039433,32.6545161 20.6200515,33.8117742 19.6026804,34.2614516 C18.6651031,34.6780645 17.9735567,33.9308065 17.2421134,33.1141129 C16.7309848,32.5280077 16.1752171,31.98193 15.5797423,31.4807258 C14.6553305,30.7056995 13.5246358,30.214101 12.3248196,30.0655645 C11.3706186,29.8870161 10.3864948,29.6985484 9.38907216,28.8025 C7.50726804,27.1129032 7.40087629,24.6 7.31443299,22.7748387 C7.28451031,22.0672581 7.23463918,20.8835484 7.01188144,20.7083065 C6.71930412,20.5958871 5.63543814,21.5580645 5.22649485,21.9217742 C4.16590206,22.8674194 3.06873711,23.846129 1.84190722,23.3468548 C1.26340206,23.1087903 0.827860825,22.5797581 0.545257732,21.7696774 C-0.315850515,19.2898387 0.269304124,13.9829839 2.5168299,10.0383871 C4.60476804,6.37153226 8.16889175,3.65362903 13.0928351,1.95741935 C15.8458469,1.02859138 18.7097312,0.463856996 21.6108247,0.277741935 L21.7005928,0.277741935 L21.7903608,0.277741935 C59.4497165,4.5033871 88.571134,8.90427419 108.343376,13.3580645 C108.393247,13.3580645 113.483428,14.518629 118.457242,15.9701613 C128.468041,18.8897581 129.096418,20.3512097 128.890284,21.591129 C128.734021,22.5235484 127.846314,22.7682258 126.895438,23.026129 C125.673599,23.3300959 124.500713,23.8031249 123.411108,24.431371 C121.163582,25.7539516 119.966675,27.3443548 118.583582,29.1959677 L118.387423,29.4604839 C112.466057,37.3794355 109.763041,41 107.183041,41 Z M91.8327062,24.2594355 L92.0222165,24.2594355 C98.4190206,24.4016129 103.106907,31.2790323 103.991289,32.6578226 C104.928441,34.1447347 105.670347,35.7448354 106.198918,37.4191129 C106.597887,38.5895968 106.754149,38.9400806 107.016804,38.9962903 C108.546186,39.3269355 112.003918,34.6979032 116.80817,28.2999194 L117.007655,28.0354032 C118.457242,26.0978226 119.827036,24.2660484 122.42366,22.7450806 C123.662121,22.0291197 124.994859,21.4882741 126.383428,21.1381452 L126.503119,21.1050806 C124.338711,19.613871 115.647835,17.051371 107.914485,15.308871 C88.2286856,10.8782258 59.2136598,6.49056452 21.6673454,2.27814516 C9.6982732,3.08822581 5.32623711,9.17870968 4.27229381,11.0303226 C1.73551546,15.4841129 1.94497423,20.6190323 2.60992268,21.4820161 C3.09093694,21.1929852 3.53713505,20.8501934 3.93981959,20.4603226 C5.01371134,19.5014516 6.35025773,18.311129 7.78654639,18.8765323 C9.22283505,19.4419355 9.28268041,21.0984677 9.3525,22.7054032 C9.42231959,24.3123387 9.5021134,26.2069355 10.7522165,27.3344355 C11.3307216,27.8568548 11.8826289,27.9593548 12.7204639,28.1180645 C14.2464197,28.3291971 15.6819291,28.9628002 16.8630928,29.9465323 C17.2929901,30.3003228 17.7015343,30.6790178 18.0865979,31.0806452 C17.8472165,29.6191935 17.6976031,27.7179839 18.6351804,25.9258871 C19.6326031,23.9949194 21.4745103,23.0459677 22.4785825,22.6491935 C25.0087113,21.6572581 27.0401289,22.4739516 29.1912371,23.3402419 C30.9134598,24.1089217 32.735341,24.6342271 34.6039175,24.9008871 C37.5529639,25.2612903 39.1455155,24.5933871 40.6815464,23.948629 C42.1643814,23.3237097 43.7004124,22.6789516 46.0310567,23.2873387 C50.7854381,24.4908871 53.2823196,29.3017742 55.2871392,33.1670161 C56.2845619,35.1079032 57.5512887,37.5249194 58.3359278,37.4091935 C59.0008763,37.31 59.6658247,35.6170968 60.1844845,34.2548387 C61.0655412,31.9932258 62.0629639,29.4274194 64.4002577,29.1232258 C65.9296392,28.9215323 67.0334536,29.8539516 67.9145103,30.6045161 C68.6825258,31.2658065 69.1779124,31.6460484 69.6932474,31.5468548 C70.4845361,31.3881452 70.9134278,30.0358065 71.3556186,28.6008065 C71.9806701,26.6169355 72.6855155,24.3916935 74.8100258,23.5055645 C76.6087113,22.755 78.1048454,23.5254032 79.6907474,24.3420968 C81.2766495,25.1587903 83.0154897,26.0449194 85.6154381,25.9093548 C86.6561909,25.8818396 87.6743611,25.6014534 88.5811082,25.0926613 C89.5696655,24.5271546 90.6923282,24.2349045 91.8327062,24.2462097 L91.8327062,24.2594355 Z" id="Shape" fill="#1D1D1B"></path>
            </g>
            <g id="Group" transform="translate(73.000000, 101.000000)">
                <path d="M2.7328626,1.35924051 C1.91193023,3.29659439 1.41183682,5.35256212 1.25187023,7.4478481 C1.17881679,8.40886076 1.08916031,9.6035443 1.32824427,10.6435443 C2.15839695,14.2637975 7.03305344,16.1726582 9.09515267,16.9329114 C29.4837023,24.4498734 63.3970992,26.7635443 77.6624427,23.2387342 C82.3112977,22.0868354 84.0247328,21.2903797 84.9677863,19.618481 C86.8738168,16.2582278 84.4464504,11.7197468 83.7624046,10.5316456 C82.2260687,10.8761181 80.6687023,11.1909705 79.0903053,11.4762025 C61.4479008,14.6587342 35.5039695,15.0997468 2.7328626,1.35924051 Z" id="Shape" fill="#FEC2CE"></path>
                <path d="M59.8208015,25.8321519 C43.7922137,25.8321519 23.2210305,23.1992405 8.74316794,17.8577215 C6.91019084,17.183038 1.32824427,15.1227848 0.351984733,10.8607595 C0.147851831,9.70992994 0.115406192,8.53562042 0.255687023,7.37544304 C0.424708916,5.17690669 0.950591157,3.01981059 1.81305344,0.987341772 L2.19824427,0.0724050633 L3.11805344,0.457468354 C29.3874046,11.4696203 54.8896947,14.8496203 78.9176336,10.4987342 C80.4583969,10.2189873 82.0157634,9.90303797 83.5498855,9.56075949 L84.270458,9.39949367 L84.6357252,10.0379747 C85.6783969,11.864557 87.8866031,16.498481 85.8444275,20.0956962 C84.6357252,22.2250633 82.4175573,23.0840506 77.8982061,24.1997468 C73.4884351,25.2858228 67.126145,25.8321519 59.8208015,25.8321519 Z M3.28740458,2.66253165 C2.71941249,4.22764042 2.36756059,5.86168538 2.24141221,7.52025316 C2.12262235,8.48557777 2.14050516,9.46261868 2.29454198,10.423038 C3.03171756,13.6450633 7.85324427,15.4222785 9.44049618,16.0179747 C30.1909924,23.6698734 63.5963359,25.7070886 77.4167176,22.2908861 C81.8364504,21.1982278 83.3373664,20.4906329 84.1077481,19.1346835 C85.4691985,16.7387342 84.1774809,13.4541772 83.2510305,11.6572152 C81.9227863,11.9435443 80.594542,12.2101266 79.2662977,12.4470886 C72.3321338,13.6971215 65.2980801,14.3227942 58.2501527,14.3164557 C40.4815649,14.3065823 22.0754198,10.4164557 3.29072519,2.66253165 L3.28740458,2.66253165 Z" id="Shape" fill="#1D1D1B"></path>
            </g>
            <g id="Group" transform="translate(75.000000, 92.000000)">
                <path d="M46.5066667,6.06666667 C46.5066667,6.06666667 24.3433333,-0.543333333 7.84,1.55333333 C5.28,1.88666667 1.86666667,2.55333333 1.35,4.44666667 C0.966666667,5.85 2.2,7.82333333 6.18666667,10.78 C26.15,25.5766667 62.47,25.9166667 66.4333333,25.9533333 C69.0461489,25.9903855 71.6439368,25.55215 74.1,24.66 C75.3233333,24.2133333 81.6066667,21.92 81.7666667,19.3266667 C81.96,16.2433333 73.46,14.1066667 46.5066667,6.06666667 Z" id="Shape" fill="#EF7F9F"></path>
                <path d="M66.6366667,26.9466667 L66.41,26.9466667 C58.2795975,26.8476286 50.1671329,26.1580357 42.1366667,24.8833333 C26.3733333,22.35 14.0733333,17.8833333 5.57666667,11.58 C1.42,8.5 -0.186666667,6.21666667 0.37,4.18 C1.03666667,1.71 4.64333333,0.946666667 7.70333333,0.56 C16.37,-0.54 26.53,0.756666667 33.54,2.04 C41.11,3.42333333 46.7366667,5.09333333 46.7933333,5.11 L54.9233333,7.52666667 C65.2566667,10.5866667 72.0666667,12.61 76.3333333,14.2266667 C80.4066667,15.77 82.9033333,17.1733333 82.7566667,19.39 C82.6166667,21.54 79.8133333,23.63 74.4233333,25.5966667 C71.9270692,26.4999675 69.2913195,26.9569361 66.6366667,26.9466667 Z M14.8066667,2.14333333 C12.516103,2.13313829 10.227158,2.2667343 7.95333333,2.54333333 C3.39333333,3.12333333 2.45333333,4.14666667 2.28666667,4.70666667 C2.15333333,5.19333333 2.32,6.68333333 6.75333333,9.97 C15,16.0733333 27,20.4266667 42.4533333,22.9066667 C50.384491,24.1663822 58.396695,24.8481771 66.4266667,24.9466667 C68.9177533,24.979515 71.3942546,24.561683 73.7366667,23.7133333 C78.8233333,21.8533333 80.7,20.15 80.7566667,19.2533333 C80.8066667,18.47 79.09,17.4033333 75.6166667,16.0933333 C71.42,14.5033333 64.6166667,12.4866667 54.3466667,9.42666667 L46.2133333,7.01 C46.0266667,6.96666667 29.6466667,2.14333333 14.8066667,2.14333333 Z" id="Shape" fill="#1D1D1B"></path>
            </g>
            <g id="Group" transform="translate(22.000000, 94.000000)">
                <path d="M1.73666667,12.3098901 C1.285631,14.3664797 1.17307339,16.4815732 1.40333333,18.5736264 C1.51,19.532967 1.64333333,20.7263736 2.07,21.7054945 C3.56,25.1208791 8.73666667,26.1131868 10.9033333,26.4857143 C32.42,30.178022 49.07,28.4637363 49.07,28.4637363 C52.3033333,28.1340659 66.26,26.5912088 79.7366667,20.221978 C82.45,18.9395604 86.4033333,16.8626374 86.9033333,13.4637363 C87.4766667,9.50769231 83.0433333,5.8978022 81.4033333,4.56263736 C69.0466667,-5.50549451 14.28,8.9010989 1.73666667,12.3098901 Z" id="Shape" fill="#FEC2CE"></path>
                <path d="M38.83,29.8384615 C29.4132151,29.832824 20.013911,29.0365584 10.7333333,27.4582418 C8.79666667,27.1285714 2.90666667,26.1164835 1.15333333,22.0945055 C0.737774004,20.9981902 0.487322107,19.847442 0.41,18.6791209 C0.160611476,16.4779293 0.273178738,14.2513241 0.743333333,12.0857143 L0.87,11.4989011 L1.45666667,11.3406593 C15.9233333,7.41758242 29.7566667,4.32197802 41.4566667,2.39340659 C62.9,-1.14065934 76.55,-0.672527473 82.02,3.78461538 C83.8,5.23516484 88.5266667,9.08571429 87.8733333,13.589011 C87.3633333,17.2549451 83.69,19.4505495 80.1666667,21.0989011 C68.0633333,26.8186813 55.5533333,28.7736264 49.1666667,29.432967 C49.0933333,29.4527473 45.2033333,29.8384615 38.83,29.8384615 Z M2.59666667,13.1010989 C2.26687369,14.8699063 2.19949894,16.6768083 2.39666667,18.4648352 C2.46273288,19.4374332 2.66580504,20.396142 3,21.3131868 C4.33333333,24.3494505 9.41333333,25.2230769 11.0866667,25.5098901 C32.22,29.1362637 48.8133333,27.4879121 48.98,27.4879121 C55.2333333,26.8285714 67.4866667,24.9296703 79.3133333,19.3384615 C82.36,17.8978022 85.5266667,16.0582418 85.92,13.3318681 C86.4133333,9.92967033 82.3166667,6.59010989 80.7733333,5.33406593 C69.4366667,-3.90659341 18.8533333,8.71648352 2.59666667,13.1010989 Z" id="Shape" fill="#1D1D1B"></path>
            </g>
            <g id="Group" transform="translate(21.000000, 146.000000)">
                <path d="M5.4860396,1.30285714 C2.12277228,3.93232143 0.557227723,8.05464286 1.50584158,11.70875 C2.2819802,14.6944643 4.4909901,16.3671429 5.26381188,16.91 C10.6238119,17.1271429 19.6754455,17.4494643 30.9161881,17.6292857 C51.1024257,17.9516071 64.2735644,17.5817857 94.5993564,17.1373214 C102.742178,17.0185714 115.379307,16.8455357 131.084505,16.6860714 L132.852376,4.92303571 C110.08769,8.29385827 87.0672052,9.50573618 64.084505,8.54321429 C44.3954694,7.71577789 24.8014039,5.29475831 5.4860396,1.30285714 Z" id="Shape" fill="#F2A775"></path>
                <path d="M45.8585149,18.7658929 C41.0623762,18.7658929 36.219802,18.7285714 30.9029208,18.64375 C22.2791584,18.5080357 13.655396,18.26375 5.22732673,17.9244643 C5.04248071,17.9171058 4.8632994,17.8571846 4.70990099,17.7514286 C3.49925743,16.9167857 1.34663366,15.0371429 0.543960396,11.9835714 C-0.517425743,7.91214286 1.18742574,3.39625 4.88237624,0.508928571 C5.11053195,0.329942713 5.40322222,0.260660289 5.6850495,0.318928571 C24.9498558,4.29477181 44.4914006,6.70893573 64.1276238,7.53892857 C87.0493128,8.49408805 110.008279,7.28564118 132.713069,3.92892857 C133.025283,3.88316558 133.340219,3.99152489 133.561931,4.22099431 C133.783642,4.45046373 133.885872,4.77386732 133.837475,5.09267857 L132.069604,16.8557143 C131.994859,17.3485663 131.582011,17.7134204 131.094455,17.7175 C118.822178,17.8430357 106.549901,17.9923214 94.6093069,18.16875 C88.6390099,18.2569643 83.3088614,18.3417857 78.4762376,18.4198214 C65.3415842,18.6132143 55.6929208,18.7658929 45.8585149,18.7658929 Z M5.59549505,15.9023214 C13.9141089,16.2416071 22.4383663,16.4757143 30.9327723,16.6080357 C47.1189109,16.8658929 58.9102475,16.6758929 78.4463861,16.36375 C83.2823267,16.2857143 88.5992079,16.2008929 94.5827723,16.1126786 C106.261337,15.9396429 118.248366,15.7903571 130.225446,15.6682143 L131.678218,6.10714286 C109.284172,9.33314946 86.6509329,10.4823472 64.0546535,9.54071429 C44.4653687,8.71873791 24.9691138,6.32851172 5.74475248,2.39196429 C2.93207921,4.76696429 1.64846535,8.28875 2.46772277,11.4441071 C2.98085614,13.2525198 4.08488456,14.8261622 5.59549505,15.9023214 Z" id="Shape" fill="#1D1D1B"></path>
            </g>
            <g id="Group" transform="translate(23.000000, 95.000000)">
                <path d="M44.7108765,1.0959375 C44.7108765,1.0959375 21.7717928,0.56765625 6.5176494,6.838125 C4.15330677,7.8225 1.0614741,9.3384375 1.0614741,11.2678125 C1.0614741,12.6984375 2.75784861,14.25375 7.34434263,16.025625 C30.3131873,24.885 65.1599602,15.8025 68.962749,14.8115625 C71.4721975,14.1691885 73.8430995,13.0796089 75.9598805,11.5959375 C77.014741,10.854375 82.4246215,7.04484375 81.9120717,4.54125 C81.3003187,1.56515625 72.6068127,1.7390625 44.7108765,1.0959375 Z" id="Shape" fill="#EF7F9F"></path>
                <path d="M31.7450199,20.8720312 C22.0528685,20.8720312 13.7627888,19.5595312 6.98721116,16.9345312 C2.20231076,15.0871875 0.0694422311,13.3251562 0.072749004,11.2579687 C0.072749004,8.73796875 3.31669323,7.0809375 6.14067729,5.919375 C14.139761,2.638125 24.2121912,1.22390625 31.2523108,0.6234375 C38.8578884,-0.0328125 44.6778088,0.0984375 44.7373307,0.10171875 L53.149761,0.28875 C63.8306375,0.5184375 70.8839841,0.669375 75.3911155,1.09921875 C79.6899203,1.509375 82.4477689,2.19515625 82.8875697,4.33453125 C83.3141434,6.41484375 81.1779681,9.12515625 76.5385657,12.39 C74.3222214,13.9387339 71.8419234,15.0770454 69.2173705,15.75 C61.4105863,17.764124 53.4666479,19.212781 45.4482869,20.0845312 C40.8979589,20.5894048 36.3236623,20.8522807 31.7450199,20.8720313 Z M43.5072112,2.07046875 C38.6363347,2.07046875 19.8274104,2.43140625 6.90123506,7.74703125 C2.68840637,9.47953125 2.05681275,10.7001562 2.05681275,11.2678125 C2.05681275,11.7665625 2.60573705,13.138125 7.70808765,15.106875 C17.181992,18.76875 29.8105578,19.7859375 45.2399602,18.13875 C53.1597779,17.2830075 61.0064662,15.857379 68.7180478,13.873125 C71.1126525,13.2543009 73.3745817,12.2104386 75.3944223,10.7920312 C79.7792032,7.70765625 81.1250598,5.60109375 80.9498008,4.738125 C80.7943825,3.98015625 78.8632271,3.425625 75.2059363,3.06796875 C70.7715538,2.6446875 63.7479681,2.49375 53.1133865,2.2640625 L44.6976494,2.07703125 C44.6414343,2.07703125 44.238008,2.07046875 43.5039044,2.07046875 L43.5072112,2.07046875 Z" id="Shape" fill="#1D1D1B"></path>
            </g>
            <g id="Group" transform="translate(25.000000, 64.000000)">
                <path d="M1.50186869,34.7233333 C9.01782828,36.01 18.6708081,37.4766667 29.9513636,38.7233333 C35.3832323,39.3233333 49.1613889,40.75 67.8851263,41.39 C88.302601,42.0866667 98.7892172,42.39 112.435051,39.8333333 C118.331793,38.7316346 124.151787,37.2474361 129.858712,35.39 C129.151756,30.4190395 127.424622,25.6510443 124.787424,21.39 C111.19452,-0.183333333 77.1510606,0.933333333 59.0757071,1.53 C42.9124242,2.06 10.6817929,3.12 2.8780303,21.53 C0.813787879,26.4066667 0.992424242,31.2433333 1.50186869,34.7233333 Z" id="Shape" fill="#F2A775"></path>
                <path d="M88.180202,42.8833333 C82.3182828,42.8833333 75.8013636,42.66 67.8487374,42.39 C54.775202,41.9433333 41.632197,41.02 29.842197,39.7233333 C20.3281566,38.6733333 10.7380303,37.3233333 1.33315657,35.7233333 C0.91119644,35.6504998 0.583146544,35.3132271 0.519368687,34.8866667 C-0.241489899,29.8333333 0.241489899,25.22 1.95838384,21.1633333 C5.45502525,12.9066667 14.0825,7.08666667 27.6059343,3.86333333 C38.7574747,1.19666667 50.9609848,0.806666667 59.032702,0.53 C77.4454798,-0.0766666667 111.720505,-1.2 125.614444,20.8633333 C128.329439,25.2401295 130.106394,30.1405008 130.831288,35.25 C130.90682,35.7310514 130.62743,36.1969719 130.169672,36.3533333 C124.426739,38.222948 118.570364,39.7182596 112.636843,40.83 C104.204545,42.3866667 96.9267677,42.8833333 88.180202,42.8833333 Z M2.38512626,33.86 C11.5187374,35.41 20.8276768,36.71 30.0605303,37.73 C41.8009091,39.0266667 54.8942929,39.9466667 67.9182071,40.3966667 C89.0899242,41.12 98.9943182,41.3333333 112.24649,38.8566667 C117.821311,37.8141154 123.327463,36.4281828 128.733965,34.7066667 C127.989312,30.1716125 126.360128,25.8302128 123.940556,21.9333333 C110.651995,0.843333333 77.1146717,1.93333333 59.1021717,2.53666667 C43.6005051,3.04666667 11.340101,4.10666667 3.78444444,21.9433333 C2.29580808,25.4533333 1.82606061,29.46 2.38512626,33.86 Z" id="Shape" fill="#1D1D1B"></path>
            </g>
            <g id="Group" transform="translate(14.000000, 129.000000)">
                <path d="M10.7733784,13.1666667 C10.0284459,12.43 7.06527027,15.8333333 4.37358108,14.9433333 C1.95006757,14.14 0.877364865,10.2266667 1.06277027,7.38666667 C1.27797297,4.13 3.23466216,0.966666667 4.37358108,1.16333333 C5.63168919,1.38 4.59871622,5.46333333 7.24405405,7.60666667 C9.05837838,9.07666667 10.2535811,7.72666667 13.6438514,9.38333333 C15.5177703,10.3 17.0010135,11.6133333 18.5008108,12.94 C20.4376351,14.6566667 20.335,14.9566667 21.3712838,15.6066667 C23.5067568,16.94 24.6820946,16.13 27.9929054,16.7166667 C32.6280405,17.5366667 33.2239865,19.66 37.485,19.8266667 C39.1404054,19.8933333 39.69,19.5933333 41.457973,19.3833333 C47.3346622,18.6866667 50.2150676,20.97 54.7012162,21.6066667 C61.6539189,22.6066667 61.6837162,18.1033333 70.1527703,17.83 C78.942973,17.5466667 80.9658784,22.3166667 87.8093243,20.2733333 C91.4810135,19.1766667 92.6861486,17.2733333 96.4174324,17.3833333 C100.148716,17.4933333 100.373851,19.4133333 104.585203,20.4933333 C107.862905,21.3333333 108.799865,20.4533333 120.698919,18.9366667 C127.082162,18.1233333 126.529257,18.4133333 127.760878,18.0466667 C135.561149,15.7133333 138.779257,9.74666667 141.004122,10.9366667 C142.308581,11.6333333 141.232568,13.7 143.212432,17.8266667 C144.586419,20.69 145.606149,20.7366667 145.861081,22.4933333 C146.390811,26.16 142.679392,30.7433333 139.901622,30.4933333 C137.584054,30.2866667 136.554392,26.75 134.826149,27.16 C133.776622,27.41 133.935541,28.7633333 132.617838,29.6033333 C130.439324,30.9933333 126.989459,29.22 125.996216,28.7133333 C121.953716,26.6366667 121.788176,24 119.814932,24.0466667 C116.957703,24.1133333 116.451149,29.6733333 113.193311,30.0466667 C110.961824,30.3 110.418851,27.78 106.131351,26.27 C105.138108,25.9166667 102.313986,24.9366667 99.2879054,25.6033333 C94.4806081,26.6833333 94.4772973,30.79 90.6797973,31.38 C86.6836486,32.0033333 85.2864865,27.67 80.0852027,28.0466667 C77.2147297,28.2533333 77.3372297,29.5966667 74.3475676,29.8233333 C69.5435811,30.19 68.0007432,26.8233333 64.1933108,27.38 C61.1639189,27.82 61.3758108,30.0466667 57.5716892,32.0466667 C51.7148649,35.1033333 43.3352027,33.9033333 41.457973,30.27 C40.4647297,28.36 41.5275,26.27 40.5739865,25.8266667 C39.5608784,25.3566667 38.2233108,27.66 34.614527,29.8266667 C32.3201351,31.2033333 29.9529054,32.6233333 28.2147297,31.8266667 C25.6124324,30.6333333 27.1056081,25.6933333 24.4635811,24.27 C22.3579054,23.1366667 20.6097973,25.8366667 16.0772973,25.8266667 C13.1273649,25.8266667 8.85972973,24.66 7.90952703,22.05 C6.65472973,18.6133333 11.6871622,14.07 10.7733784,13.1666667 Z" id="Shape" fill="#68EDC6"></path>
                <path d="M50.0925676,34.7733333 C45.8414865,34.7733333 41.9148649,33.3333333 40.5739865,30.74 C39.9515541,29.5366667 39.9846622,28.3233333 40.0078378,27.4333333 C40.0078378,27.2833333 40.0078378,27.1 40.0078378,26.95 C39.7164865,27.16 39.3158784,27.5066667 38.9748649,27.8033333 C37.7790816,28.8841492 36.4868028,29.8515828 35.1144595,30.6933333 C32.6015541,32.2 30.0058784,33.76 27.7942568,32.7433333 C26.0196622,31.93 25.6753378,30.0133333 25.3674324,28.32 C25.1191216,26.9433333 24.8840541,25.6533333 23.9835135,25.16 C23.3577703,24.8266667 22.7717568,25.0466667 21.5037162,25.58 C19.8102996,26.3793464 17.9672701,26.8065927 16.0971622,26.8333333 L16.0640541,26.8333333 C13.0512162,26.8333333 8.14459459,25.6366667 6.96594595,22.4 C6.04554054,19.8666667 7.73074324,17.1366667 8.95243243,15.1433333 L9.19412162,14.7533333 C7.8697973,15.5166667 5.95945946,16.5333333 4.04581081,15.8966667 C1.88385135,15.18 -0.258243243,11.9333333 0.0562837838,7.32666667 C0.245,4.44666667 1.66202703,1.69 2.92675676,0.686666667 C3.36115325,0.291719138 3.94539724,0.10782476 4.52587838,0.183333333 C5.7575,0.396666667 5.96939189,1.73333333 6.1547973,2.91333333 C6.36006757,4.21666667 6.61831081,5.83666667 7.84993243,6.83666667 C8.49222973,7.35666667 8.9722973,7.38666667 9.83641892,7.43333333 C11.3029056,7.46873914 12.7433975,7.83074273 14.0543919,8.49333333 C16.0408784,9.46666667 17.6168243,10.8566667 19.1331757,12.1966667 C19.7576638,12.741531 20.3522793,13.320162 20.9143919,13.93 C21.1870751,14.25745 21.5101114,14.5387941 21.8712162,14.7633333 C22.9406081,15.43 23.6789189,15.43 24.9072297,15.4666667 C25.99122,15.4647308 27.0733873,15.5561754 28.1418919,15.74 C29.8703483,16.0462606 31.5348911,16.6447038 33.0650676,17.51 C34.3893919,18.2066667 35.455473,18.7533333 37.4982432,18.8433333 C38.2482971,18.8742198 38.9992146,18.8092576 39.7330405,18.65 C40.1667568,18.57 40.6567568,18.4833333 41.3156081,18.4033333 C45.3216892,17.93 48.0067568,18.7633333 50.5858784,19.5733333 C51.9582564,20.0420883 53.3668616,20.3955202 54.7972297,20.63 C58.0352027,21.09 59.5614865,20.2733333 61.4916892,19.2433333 C63.4781757,18.1833333 65.7195946,16.9833333 70.0766216,16.8433333 C74.3806757,16.7066667 77.1187162,17.7166667 79.5322973,18.61 C82.1180405,19.5666667 84.1674324,20.3233333 87.4782432,19.33 C88.6087662,18.9749158 89.7012376,18.5070382 90.7393919,17.9333333 C92.3385135,17.1066667 93.8515541,16.32 96.4008784,16.4 C98.682027,16.47 99.8408108,17.17 101.069122,17.9133333 C102.209975,18.6585138 103.465048,19.2092318 104.783851,19.5433333 C106.717365,20.04 107.727162,19.8766667 111.478311,19.2766667 C113.537635,18.9433333 116.358446,18.4933333 120.526757,17.9633333 C123.64223,17.5666667 125.145338,17.43 125.949865,17.3533333 C126.453011,17.3382584 126.951874,17.2552963 127.433108,17.1066667 C131.406081,15.9233333 134.197095,13.7 136.226622,12.08 C138.256149,10.46 139.81223,9.21333333 141.424595,10.08 C142.500608,10.6566667 142.633041,11.72 142.775405,12.8433333 C142.928111,14.432931 143.36322,15.9819794 144.06,17.4166667 C144.472945,18.2929735 144.989892,19.1156425 145.599527,19.8666667 C146.149122,20.57 146.622568,21.1766667 146.798041,22.3733333 C147.129122,24.6 146.106081,27.34 144.212297,29.3733333 C142.805203,30.87 141.182905,31.6566667 139.765878,31.53 C138.206486,31.39 137.170203,30.2233333 136.339189,29.2866667 C135.872365,28.76 135.283041,28.1066667 135.014865,28.1733333 C134.928784,28.1933333 134.849324,28.3233333 134.644054,28.6966667 C134.305367,29.4232937 133.775152,30.0424342 133.111149,30.4866667 C131.346486,31.6133333 128.790541,31.33 125.496284,29.6433333 C123.863588,28.8083585 122.423215,27.6375459 121.268378,26.2066667 C120.523446,25.35 120.235405,25.0766667 119.791757,25.0833333 C118.983919,25.1033333 118.387973,25.9766667 117.500676,27.4166667 C116.507432,29.0166667 115.395,30.8333333 113.259527,31.0833333 C111.713378,31.2566667 110.753243,30.46 109.733514,29.6166667 C108.573269,28.5786838 107.224013,27.7772074 105.760541,27.2566667 C104.790473,26.9233333 102.208041,26.0066667 99.47,26.6233333 C97.2848649,27.1133333 96.2651351,28.29 95.1858108,29.53 C94.1064865,30.77 92.9741892,32.0733333 90.7989865,32.4133333 C88.5079054,32.7733333 86.9485135,31.7733333 85.4387838,30.8033333 C83.9290541,29.8333333 82.4987838,28.9166667 80.1249324,29.0866667 C79.2748493,29.12319 78.4488099,29.3816474 77.7279054,29.8366667 C76.716519,30.4505828 75.5700826,30.8032658 74.3906081,30.8633333 C71.6459459,31.0766667 69.8647297,30.1966667 68.2920946,29.4066667 C66.9247297,28.74 65.8420946,28.19 64.3191216,28.4066667 C63.0444595,28.59 62.544527,29.1366667 61.7135135,30.0366667 C60.6769705,31.2433602 59.4205192,32.2390657 58.012027,32.97 C55.5488748,34.1871473 52.8362211,34.8048433 50.0925676,34.7733333 Z M40.2892568,24.7733333 C40.531174,24.7757294 40.7696296,24.831482 40.9878378,24.9366667 C42.0472973,25.43 42.0175,26.5766667 41.9810811,27.5 C41.9612162,28.2433333 41.9380405,29.0866667 42.3121622,29.8333333 C43.855,32.8333333 51.5824324,34.0566667 57.0883108,31.1866667 C58.2921797,30.5587743 59.3645737,29.7031716 60.2468243,28.6666667 C61.1771622,27.6666667 62.0578378,26.7033333 64.0244595,26.4166667 C66.1764865,26.1033333 67.7027703,26.8633333 69.1760811,27.5966667 C70.6493919,28.33 72.0399324,29.02 74.2416216,28.8533333 C75.1364854,28.812064 76.0060357,28.5412778 76.7677703,28.0666667 C77.7402988,27.4698091 78.8451303,27.1261384 79.9825676,27.0666667 C83.0086486,26.8466667 84.9487838,28.09 86.5081757,29.09 C87.8689189,29.9633333 88.9482432,30.65 90.4811486,30.4233333 C91.944527,30.1933333 92.7093243,29.3133333 93.6793919,28.2 C94.8050676,26.9033333 96.2055405,25.2933333 99.0263514,24.66 C102.337162,23.92 105.402973,24.9933333 106.41277,25.36 C108.098479,25.9563522 109.654236,26.8742007 110.994932,28.0633333 C111.941824,28.85 112.352365,29.1633333 113.034392,29.0866667 C114.216351,28.9533333 114.991081,27.6933333 115.812162,26.36 C116.745811,24.8433333 117.798649,23.1266667 119.742095,23.08 C121.159122,23.05 121.940473,23.94 122.764865,24.8866667 C123.756716,26.1246654 124.997962,27.1369148 126.406757,27.8566667 C129.661284,29.5233333 131.270338,29.2866667 132.035135,28.7933333 C132.411299,28.5272634 132.70695,28.1615315 132.889324,27.7366667 C133.180676,27.1933333 133.584595,26.45 134.54473,26.22 C135.978311,25.8866667 136.955,26.9766667 137.815811,27.9466667 C138.477973,28.69 139.16,29.46 139.938041,29.53 C140.716081,29.6 141.808649,29.01 142.762162,27.9933333 C144.232162,26.4266667 145.059865,24.29 144.824797,22.66 C144.728784,21.9933333 144.493716,21.71 144.033514,21.1 C143.334458,20.2356527 142.740895,19.2900105 142.265541,18.2833333 C141.475389,16.6531923 140.978795,14.8948272 140.798851,13.09 C140.699527,12.2833333 140.639932,11.9233333 140.487635,11.8433333 C140.024122,11.5966667 138.719662,12.64 137.458243,13.65 C135.299595,15.3733333 132.346351,17.7366667 127.992635,19.03 C127.38783,19.2201194 126.761489,19.3321268 126.128649,19.3633333 C125.334054,19.4366667 123.854122,19.5733333 120.771757,19.9633333 C116.636554,20.49 113.819054,20.94 111.786216,21.2666667 C107.9225,21.8866667 106.621351,22.0933333 104.290541,21.4966667 C102.784709,21.1132724 101.350301,20.4874295 100.04277,19.6433333 C98.9137838,18.9766667 98.0993243,18.47 96.337973,18.4166667 C94.3051351,18.3533333 93.1297973,18.96 91.6465541,19.73 C90.4994419,20.3612701 89.2927743,20.8760292 88.0443919,21.2666667 C84.0714189,22.4466667 81.5386486,21.5066667 78.8436486,20.5066667 C76.4896622,19.6366667 74.0562162,18.7333333 70.1362162,18.8633333 C66.2162162,18.9933333 64.3389865,20 62.4617568,21 C60.3925,22.1066667 58.4358108,23.1533333 54.5588514,22.6 C53.0230476,22.3506573 51.5103658,21.9738165 50.0362838,21.4733333 C47.5266892,20.6933333 45.1561486,19.9533333 41.5705405,20.38 C40.9745946,20.45 40.5342568,20.53 40.110473,20.6066667 C39.2338216,20.7936972 38.337251,20.868733 37.4419595,20.83 C34.9555405,20.73 33.5385135,19.9933333 32.1711486,19.2833333 C30.8174172,18.5117703 29.3427877,17.9785549 27.8108108,17.7066667 C26.8461811,17.5412624 25.8691892,17.4598502 24.8906757,17.4633333 C23.5398649,17.44 22.3744595,17.4233333 20.8382432,16.4633333 C20.3294277,16.1476037 19.871643,15.7552776 19.4808108,15.3 C18.9583617,14.7367127 18.4057364,14.2025834 17.8254054,13.7 C16.345473,12.3866667 14.945,11.15 13.1902703,10.2933333 C12.1154191,9.74608027 10.9314568,9.45092512 9.72716216,9.43 C8.73391892,9.37666667 7.74067568,9.32 6.59844595,8.39333333 C4.77087838,6.91 4.41993243,4.69333333 4.18817568,3.22666667 C4.14513514,2.94666667 4.08885135,2.60333333 4.02925676,2.34333333 C3.35054054,2.98 2.18844595,5.03666667 2.04277027,7.45666667 C1.87060811,10.08 2.90689189,13.41 4.67486486,13.9966667 C5.84689189,14.3866667 7.27385135,13.56 8.41939189,12.8966667 C9.50202703,12.27 10.6177703,11.6233333 11.462027,12.4533333 C12.3923649,13.3733333 11.584527,14.6833333 10.6475676,16.1966667 C9.63114865,17.84 8.24060811,20.0933333 8.82993243,21.71 C9.5252027,23.6266667 13.1339865,24.8233333 16.0673649,24.83 L16.0971622,24.83 C18.1200676,24.83 19.5106081,24.2466667 20.7322973,23.73 C22.1228378,23.1466667 23.4339189,22.5966667 24.9138514,23.3966667 C26.6586486,24.3366667 27.0062838,26.2633333 27.3141892,27.9633333 C27.6055405,29.57 27.8372973,30.57 28.6087162,30.9233333 C29.8734459,31.5033333 32.1115541,30.16 34.0881081,28.9733333 C35.3611855,28.1913244 36.5593318,27.2919023 37.6670946,26.2866667 C38.640473,25.46 39.4383784,24.7633333 40.2892568,24.7633333 L40.2892568,24.7733333 Z" id="Shape" fill="#1D1D1B"></path>
            </g>
            <rect id="Rectangle-path" fill="#FCBF2E" x="16" y="160" width="144" height="5"></rect>
            <path d="M168.122758,160 L12.8772418,160 C9.63070065,159.989028 7.00363752,157.354614 7,154.106312 L7,18.8903654 C7.00546336,15.6433609 9.63199427,13.010965 12.8772418,13 L168.109476,13 C171.361206,13.0036618 173.99634,15.6402118 174,18.8936877 L174,154.109635 C173.994537,157.356639 171.368006,159.989035 168.122758,160 Z M12.8772418,14.9933555 C10.731009,15.0043086 8.99590755,16.7462772 8.99228536,18.8936877 L8.99228536,154.109635 C8.99772934,156.255748 10.7323011,157.995702 12.8772418,158.006645 L168.109476,158.006645 C170.260898,158.002987 172.004059,156.258889 172.007715,154.106312 L172.007715,18.8903654 C172.004059,16.7377883 170.260898,14.993691 168.109476,14.9900332 L12.8772418,14.9933555 Z" id="Shape" fill="#1D1D1B"></path>
        </g>
    </g>
</svg>