<svg id="Слой_1" data-name="Слой 1" xmlns="http://www.w3.org/2000/svg" viewBox="0 0 714.65 716.13">
  <title>visitor</title>
  <rect x="-9.6" width="726.75" height="732.49" fill="#68ebc4"/>
  <rect x="20.92" y="136.17" width="473.89" height="99.29" fill="#fcc0cc"/>
  <rect x="20.92" y="245.8" width="649.81" height="99.29" fill="#fcc0cc"/>
  <rect x="20.92" y="358.06" width="419.77" height="99.29" fill="#fcc0cc"/>
  <g>
    <rect x="-122.19" y="682.71" width="652.18" height="54.48" transform="translate(505.61 35.73) rotate(40.13)" fill="#facf20"/>
    <g>
      <path d="M-33.89,538.66a20.83,20.83,0,0,1-7.79-15.12,22.42,22.42,0,0,1,5.6-16.35A22.35,22.35,0,0,1-20.9,499a21,21,0,0,1,16.36,5.16,22.38,22.38,0,0,1,6,7.41,28.28,28.28,0,0,1,2.38,8.92l-4.75.58q-1-8.67-6.65-13.47a15.88,15.88,0,0,0-12.61-3.83,18.17,18.17,0,0,0-12,6.73,18.13,18.13,0,0,0-4.56,13,15.87,15.87,0,0,0,5.87,11.78,17.12,17.12,0,0,0,6.75,3.64,26.71,26.71,0,0,0,8.14.64l.27,4.73a27.09,27.09,0,0,1-9.52-.74A23.17,23.17,0,0,1-33.89,538.66Z"/>
      <path d="M-13.41,554.95l28.24-33.49,3.78,3.19-25.29,30,18.85,15.89L9.22,574Z"/>
      <path d="M13.34,577.5,57,556.63l3.54,3L47.4,606.22l-4.07-3.43,3.54-12.16L28.65,575.26l-11.43,5.5ZM33,573.11,48.26,586l6.79-23.5Z"/>
      <path d="M54.34,612.06l28.24-33.49,3.78,3.19L58.12,615.25Z"/>
      <path d="M67.93,623.52,96.17,590l3.83,3.23-3.21,28.56,27.61-8,3.83,3.23L100,650.55l-3.78-3.19,22.87-27.13-27.33,7.66-.19-.16,2.88-28.18L71.61,626.63Z"/>
      <path d="M134.29,679.47l11.17-13.25,3.14-32,4.59,3.87-2.83,26.26,25.51-7.14,4.4,3.71-30.95,8.45-11.21,13.3Z"/>
      <path d="M189.73,718.47a22.7,22.7,0,0,1-24.57-20.67,23.51,23.51,0,0,1,20.68-24.43A22.7,22.7,0,0,1,210.41,694a23.51,23.51,0,0,1-20.68,24.43ZM170.12,697.8a17.12,17.12,0,0,0,18.83,15.92A19.34,19.34,0,0,0,205.46,694a17.12,17.12,0,0,0-18.83-15.92,19.34,19.34,0,0,0-16.51,19.68Z"/>
      <path d="M211.69,745.62q-6.36-5.37-6.94-12.35T210,719.34l16.42-19.47,3.78,3.19L214,722.28q-4.56,5.41-4.34,10.63t5.06,9.3q4.74,4,9.8,3.43t9.62-6l16.42-19.47,3.78,3.19-16.17,19.19q-6.05,7.18-13.06,7.82T211.69,745.62Z"/>
    </g>
  </g>
  <g>
    <path d="M65.4,62.38H50.27V90.31H39.66V62.38h-15V53.91H65.4Z"/>
    <path d="M113.5,53.91v36.4H102.89V76.22H81.05V90.31H70.44V53.91H81.05V67.48h21.84V53.91Z"/>
    <path d="M122,90.31V53.91h10.61v36.4Z"/>
    <path d="M181.31,78.92c0,7.49-6.92,12.58-20.12,12.58-9.36,0-17.21-2.55-22.93-7.12l5.56-6.55c4.32,3.64,10.3,5.67,17.58,5.67,6.24,0,9.36-1.14,9.36-3.54s-2.91-3.12-10.4-3.74c-10.82-.94-20.64-3.33-20.64-11.44,0-7.8,8.42-12.06,20-12.06,7.8,0,15,1.87,20,5.41l-5.36,6.6c-4.06-2.86-8.94-4-14.61-4.06-4.26,0-9.41.68-9.41,3.28,0,2.44,4.21,2.76,10.71,3.28C172.88,68.21,181.31,70.55,181.31,78.92Z"/>
    <path d="M200.86,90.31V53.91h10.61v36.4Z"/>
    <path d="M260.14,78.92c0,7.49-6.92,12.58-20.12,12.58-9.36,0-17.21-2.55-22.93-7.12l5.56-6.55c4.32,3.64,10.3,5.67,17.58,5.67,6.24,0,9.36-1.14,9.36-3.54s-2.91-3.12-10.4-3.74c-10.82-.94-20.64-3.33-20.64-11.44,0-7.8,8.42-12.06,20-12.06,7.8,0,15,1.87,20,5.41l-5.36,6.6c-4.06-2.86-8.94-4-14.61-4.06-4.26,0-9.41.68-9.41,3.28,0,2.44,4.21,2.76,10.71,3.28C251.71,68.21,260.14,70.55,260.14,78.92Z"/>
    <path d="M322.74,53.91v36.4h-9.31l-23.5-23.92V90.31H279.69V53.91h11.23L312.5,76.16V53.91Z"/>
    <path d="M329.19,72.11c0-12.32,9.31-19.4,23.71-19.4s23.77,7.07,23.77,19.4-9.36,19.4-23.77,19.4S329.19,84.43,329.19,72.11Zm36.66,0c0-6.86-4.94-10.76-12.95-10.76S340,65.24,340,72.11s4.94,10.76,12.95,10.76S365.85,79,365.85,72.11Z"/>
    <path d="M419.31,62.38H404.17V90.31H393.57V62.38h-15V53.91h40.77Z"/>
    <path d="M464.81,83.34h-20l-3.43,7H430.28l18.82-36.4h11.6l18.83,36.4H468.24Zm-3.69-7.54-6.29-12.9-6.34,12.9Z"/>
    <path d="M505.05,82.77c6.29,0,8.68-3.59,8.68-9.31V53.91h10.61V74.29c0,10.09-6.5,17.21-19.19,17.21-7.54,0-12.58-2.5-16.07-6.71l7.12-6.19A10.21,10.21,0,0,0,505.05,82.77Z"/>
    <path d="M530.12,72.11c0-12.32,9.31-19.4,23.71-19.4s23.76,7.07,23.76,19.4-9.36,19.4-23.76,19.4S530.12,84.43,530.12,72.11Zm36.66,0c0-6.86-4.94-10.76-12.95-10.76s-12.95,3.9-12.95,10.76,4.94,10.76,12.95,10.76S566.78,79,566.78,72.11Z"/>
    <path d="M614.93,90.31,602.71,74.66l-8.06,7.18v8.48H584V53.91h10.61V70.76l18.62-16.85h13.21L610.3,68.42l17.11,21.89Z"/>
    <path d="M670.05,82.2v8.11H631.21V53.91h38.27V62H641.66v6h22.93v7.75H641.66V82.2Z"/>
    <path d="M687.63,53.91,686,77.31h-8.89l-1.66-23.4ZM675.51,85.84c0-2.91,2.44-5.2,6-5.2s5.93,2.29,5.93,5.2S685,91,681.49,91,675.51,88.8,675.51,85.84Z"/>
    <path d="M23.8,96.81v-2.6h667v2.6Z"/>
  </g>
  <g>
    <path d="M47.33,218.32V192.38L22,152.52H39l15.7,26.41,16-26.41H87.09L61.81,192.1v26.23Z"/>
    <path d="M153.13,209.53q-10,9.92-25.05,9.92t-25-9.87a34.21,34.21,0,0,1,.09-48.27q10-9.92,25.05-9.92t25,9.87a34.21,34.21,0,0,1-.09,48.27ZM114,200.09a18.74,18.74,0,0,0,14.29,6,18.51,18.51,0,0,0,14.19-6,22.08,22.08,0,0,0-.09-29.37,18.74,18.74,0,0,0-14.29-6,18.51,18.51,0,0,0-14.19,6,22.08,22.08,0,0,0,.09,29.38Z"/>
    <path d="M203.46,219.36q-13.44,0-21-7.47T175,190.12v-37.6h14.48v37.22q0,7.9,3.71,12.08T203.65,206q6.77,0,10.48-4t3.71-11.75V152.52h14.48v37.13q0,14.66-7.66,22.18T203.46,219.36Z"/>
    <path d="M269.64,218.32l28.2-66.27h13.35l28.2,66.27H324.25l-6-14.76H290.41l-6,14.76Zm25.94-27.54h17.48l-8.74-21.34Z"/>
    <path d="M349.54,218.32v-65.8h30.08q12.5,0,19.18,6.67,5.64,5.64,5.64,15.23,0,15.14-14.1,20.4l16.07,23.5H389.49L375.2,197.27H364v21.06ZM364,184.48h14.66q5.26,0,8.18-2.58a8.78,8.78,0,0,0,2.91-6.91,8.42,8.42,0,0,0-3-7q-3-2.4-8.37-2.4H364Z"/>
    <path d="M417.5,218.32v-65.8h49.63V165.4H431.88v13.35h31v12.88h-31v13.82H467.6v12.88Z"/>
    <path d="M37.65,331.12V279.52l-11.47,2.82-3-11.84,18.89-5.64h9.87v66.27Z"/>
    <path d="M66.41,331.12v-15H81.64v15Z"/>
    <path d="M142.84,322.52a26.35,26.35,0,0,1-21.15,9.73,26.13,26.13,0,0,1-21.06-9.68q-8.09-9.68-8.08-24.35t8.18-24.3a26.35,26.35,0,0,1,21.15-9.73,26.17,26.17,0,0,1,21,9.68q8.13,9.68,8.13,24.35T142.84,322.52Zm-31.44-9.26q4,5.92,10.48,5.92t10.39-5.87q3.9-5.87,3.9-15.09,0-9-4-15t-10.43-6q-6.39,0-10.34,5.88t-3.95,15.09Q107.4,307.34,111.39,313.26Z"/>
    <path d="M211.46,322.52a27.79,27.79,0,0,1-42.21,0q-8.09-9.68-8.08-24.35t8.18-24.3a27.74,27.74,0,0,1,42.16,0q8.13,9.68,8.13,24.35T211.46,322.52ZM180,313.26q4,5.92,10.48,5.92t10.39-5.87q3.9-5.87,3.9-15.09,0-9-4-15t-10.43-6q-6.39,0-10.34,5.88T176,298.22Q176,307.34,180,313.26Z"/>
    <path d="M280.07,322.52a27.79,27.79,0,0,1-42.21,0q-8.09-9.68-8.08-24.35t8.18-24.3a27.74,27.74,0,0,1,42.16,0q8.13,9.68,8.13,24.35T280.07,322.52Zm-31.44-9.26q4,5.92,10.48,5.92t10.39-5.87q3.9-5.87,3.9-15.09,0-9-4-15t-10.43-6q-6.39,0-10.34,5.88t-3.95,15.09Q244.64,307.34,248.63,313.26Z"/>
    <path d="M299.16,331.12v-15h15.23v15Z"/>
    <path d="M375.58,322.52a27.79,27.79,0,0,1-42.21,0q-8.09-9.68-8.08-24.35t8.18-24.3a27.74,27.74,0,0,1,42.16,0q8.13,9.68,8.13,24.35T375.58,322.52Zm-31.44-9.26q4,5.92,10.48,5.92T365,313.31q3.9-5.87,3.9-15.09,0-9-4-15t-10.43-6q-6.39,0-10.34,5.88t-3.95,15.09Q340.14,307.34,344.13,313.26Z"/>
    <path d="M444.2,322.52a27.79,27.79,0,0,1-42.21,0q-8.09-9.68-8.08-24.35t8.18-24.3a27.74,27.74,0,0,1,42.16,0q8.13,9.68,8.13,24.35T444.2,322.52Zm-31.44-9.26q4,5.92,10.48,5.92t10.39-5.87q3.9-5.87,3.9-15.09,0-9-4-15t-10.43-6q-6.39,0-10.34,5.88t-3.95,15.09Q408.76,307.34,412.75,313.26Z"/>
    <path d="M512.82,322.52a27.79,27.79,0,0,1-42.21,0q-8.09-9.68-8.08-24.35t8.18-24.3a27.74,27.74,0,0,1,42.16,0q8.13,9.68,8.13,24.35T512.82,322.52Zm-31.44-9.26q4,5.92,10.48,5.92t10.39-5.87q3.9-5.87,3.9-15.09,0-9-4-15t-10.43-6q-6.39,0-10.34,5.88t-3.95,15.09Q477.38,307.34,481.37,313.26Z"/>
    <path d="M549.29,331.12V278.67h-20V265.32h54.52v13.35h-20v52.45Z"/>
    <path d="M594.88,331.12v-65.8h14.48v26h26.7v-26h14.48v65.8H636.05V304.71h-26.7v26.41Z"/>
    <path d="M49.78,444.39l-26.6-66.27h16l17.2,46.34,17.2-46.34h15.6l-26.6,66.27Z"/>
    <path d="M100,443.92v-65.8h14.48v65.8Z"/>
    <path d="M154.3,444.86a40.43,40.43,0,0,1-27.92-10.53l8.55-10.25q9.68,8,19.65,8a12.42,12.42,0,0,0,7-1.69,5.35,5.35,0,0,0,2.54-4.7,5.26,5.26,0,0,0-2.63-4.56q-2.63-1.74-10.62-3.81a76.81,76.81,0,0,1-9.12-2.77,30.31,30.31,0,0,1-6.63-3.62,13.27,13.27,0,0,1-4.61-5.69A21,21,0,0,1,129,397a17.92,17.92,0,0,1,6.44-14.38q6.44-5.45,16.59-5.45a37.91,37.91,0,0,1,24.44,8.37L169,396.45Q159.66,390,151.86,390a10.31,10.31,0,0,0-6.25,1.65,5.1,5.1,0,0,0-2.21,4.28,5.2,5.2,0,0,0,2.73,4.79q2.73,1.6,11.47,3.85,10.72,2.82,15.79,7.24t5.08,12.69q0,9.59-6.63,15T154.3,444.86Z"/>
    <path d="M191.72,443.92v-65.8h14.48v65.8Z"/>
    <path d="M238,443.92V391.47h-20V378.12h54.52v13.35h-20v52.45Z"/>
    <path d="M340.57,435.13q-10,9.92-25.05,9.92t-25-9.87a34.21,34.21,0,0,1,.09-48.27q10-9.92,25.05-9.92t25,9.87a34.21,34.21,0,0,1-.09,48.27Zm-39.15-9.45a18.74,18.74,0,0,0,14.29,6,18.51,18.51,0,0,0,14.19-6,22.08,22.08,0,0,0-.09-29.37,18.75,18.75,0,0,0-14.29-6,18.51,18.51,0,0,0-14.19,6,22.08,22.08,0,0,0,.09,29.38Z"/>
    <path d="M363.45,443.92v-65.8h30.08q12.5,0,19.18,6.67,5.64,5.64,5.64,15.23,0,15.14-14.1,20.4l16.07,23.5H403.4l-14.29-21.06H377.93v21.06Zm14.48-33.84h14.66q5.26,0,8.18-2.58a8.78,8.78,0,0,0,2.91-6.91,8.42,8.42,0,0,0-3-7q-3-2.4-8.37-2.4H377.93Z"/>
  </g>
  <g>
    <rect x="-40.31" y="590.32" width="652.18" height="54.48" transform="translate(-128.98 78.1) rotate(-12.72)" fill="#facf20"/>
    <g>
      <path d="M5.66,703.68a20.83,20.83,0,0,1-16.76-2.92,22.42,22.42,0,0,1-9.65-14.34,22.35,22.35,0,0,1,2.63-17,21,21,0,0,1,14-9.93,22.38,22.38,0,0,1,9.55-.33A28.28,28.28,0,0,1,14,662.6l-2.4,4.14q-7.49-4.47-14.75-2.83a15.88,15.88,0,0,0-10.67,7.73,18.17,18.17,0,0,0-1.89,13.64,18.13,18.13,0,0,0,7.59,11.47,15.87,15.87,0,0,0,12.93,2.44,17.12,17.12,0,0,0,7-3.18,26.71,26.71,0,0,0,5.42-6.1l3.93,2.64a27.09,27.09,0,0,1-6.34,7.14A23.17,23.17,0,0,1,5.66,703.68Z"/>
      <path d="M31,697.18l-9.65-42.73,4.82-1.09,8.64,38.27,24.05-5.43,1,4.46Z"/>
      <path d="M65.14,689.48,74.9,642l4.52-1,29.19,38.64-5.19,1.17-7.56-10.16L72.6,675.93l-2.52,12.44Zm8.38-18.31L93,666.77l-14.63-19.6Z"/>
      <path d="M117.45,677.67l-9.65-42.73,4.82-1.09,9.65,42.73Z"/>
      <path d="M134.79,673.75,125.14,631l4.88-1.1,20.83,19.8,10.3-26.83,4.88-1.1,9.65,42.73-4.82,1.09L163.05,631l-10.4,26.41-.24.06-20.72-19.32,7.8,34.55Z"/>
      <path d="M219.46,654.64l-3.82-16.91L192,615.92l5.86-1.32,19.23,18.11,9.71-24.64,5.62-1.27-11.95,29.77,3.83,17Z"/>
      <path d="M284,634a22.7,22.7,0,0,1-31.31,7.1,23.51,23.51,0,0,1-7-31.24,22.7,22.7,0,0,1,31.31-7.1A23.51,23.51,0,0,1,284,634Zm-28.32,3.15a17.12,17.12,0,0,0,24.06-5.4,19.34,19.34,0,0,0-5.72-25,17.12,17.12,0,0,0-24.06,5.4,19.34,19.34,0,0,0,5.72,25Z"/>
      <path d="M318.92,632.89q-8.12,1.83-14-1.93T297,618.34l-5.61-24.85,4.82-1.09,5.54,24.54q1.56,6.9,5.85,9.87T318,628.4q6-1.36,8.65-5.74t1-11.27l-5.61-24.85,4.82-1.09,5.53,24.48q2.07,9.16-1.65,15.13T318.92,632.89Z"/>
      <path d="M348,625.62l-9.65-42.73,18.37-4.15q7.88-1.78,13.11,1.53a11.86,11.86,0,0,1,5.23,7.8,11.51,11.51,0,0,1-1.3,9,16,16,0,0,1-7.49,6.05l17.07,14.5L377.44,619l-16.14-13.81-12.21,2.76,3.75,16.6Zm.1-22,13.12-3a12.86,12.86,0,0,0,7.4-4.17,8,8,0,0,0,1.58-7.22,7.56,7.56,0,0,0-4.3-5.54q-3.4-1.57-8.53-.42l-13.19,3Z"/>
      <path d="M410.46,611.52l-9.65-42.73,16-3.61q7.32-1.65,12.49,1a12.73,12.73,0,0,1,6.59,9q1.5,6.65-2.46,11.4A19.67,19.67,0,0,1,422.25,593l-10.38,2.34,3.4,15.08Zm.43-20.56,10.56-2.38a13.45,13.45,0,0,0,7.93-4.52A8.67,8.67,0,0,0,431,576.4a8.42,8.42,0,0,0-4.63-6.17q-3.63-1.71-8.94-.52l-10.8,2.44Z"/>
      <path d="M451.24,602.31l-9.65-42.73L460,555.43q7.88-1.78,13.11,1.53a11.86,11.86,0,0,1,5.23,7.8,11.51,11.51,0,0,1-1.3,9,16,16,0,0,1-7.49,6.05l17.07,14.5-5.92,1.34-16.14-13.81-12.21,2.76,3.75,16.6Zm.1-22,13.12-3a12.86,12.86,0,0,0,7.4-4.17,8,8,0,0,0,1.58-7.22,7.56,7.56,0,0,0-4.3-5.54q-3.4-1.57-8.53-.42l-13.19,3Z"/>
      <path d="M495.8,592.25l-9.65-42.73,4.82-1.09,9.65,42.73Z"/>
      <path d="M511.18,588.78l-.73-3.24,19.71-41.4-26.74,6-1-4.33,33.33-7.52.73,3.24L516.73,583l27.71-6.26,1,4.34Z"/>
      <path d="M555.44,578.79l-9.65-42.73,30.89-7,1,4.39-26.06,5.88L554.9,554l23.32-5.26,1,4.39-23.32,5.26,3.38,15,26.37-6,1,4.39Z"/>
    </g>
  </g>
  <g>
    <rect x="570.1" y="455.19" width="652.18" height="54.48" transform="translate(-84.24 209.2) rotate(-12.72)" fill="#facf20"/>
    <g>
      <path d="M616.07,568.54a20.83,20.83,0,0,1-16.76-2.92,23.71,23.71,0,0,1-7-31.39,21,21,0,0,1,14-9.93,22.38,22.38,0,0,1,9.55-.33,28.28,28.28,0,0,1,8.55,3.49L622,531.6q-7.49-4.47-14.75-2.83a15.88,15.88,0,0,0-10.67,7.73,19.47,19.47,0,0,0,5.7,25.11,15.87,15.87,0,0,0,12.93,2.44,17.12,17.12,0,0,0,7-3.18,26.71,26.71,0,0,0,5.42-6.1l3.93,2.64a27.09,27.09,0,0,1-6.34,7.14A23.17,23.17,0,0,1,616.07,568.54Z"/>
      <path d="M641.42,562l-9.65-42.73,4.82-1.09,8.64,38.27,24.05-5.43,1,4.46Z"/>
      <path d="M675.54,554.34l9.76-47.43,4.52-1L719,544.53l-5.19,1.17-7.56-10.16L683,540.79l-2.52,12.44ZM683.92,536l19.47-4.4L688.76,512Z"/>
    </g>
  </g>
  <g>
    <rect x="-89.15" y="594.69" width="652.18" height="54.48" transform="translate(310.12 -39.57) rotate(27.17)" fill="#facf20"/>
    <g>
      <path d="M-9.6,519.64l20-39,4.4,2.26L-3.12,517.83l21.94,11.26-2.09,4.06Z"/>
      <path d="M21.52,535.61l37.91-30.14,4.12,2.11L61.16,556l-4.73-2.43.72-12.64L35.94,530,26,537.92Zm18.17-8.68L57.45,536l1.35-24.42Z"/>
      <path d="M69.23,560.1l20-39,4.4,2.26-20,39Z"/>
      <path d="M85,568.21l20-39,4.45,2.29,3.28,28.55,25.11-14,4.45,2.29-20,39-4.4-2.26,16.2-31.57-24.91,13.59L109,567l-3.51-28.11L89.33,570.41Z"/>
      <path d="M162.27,607.84l7.92-15.42-4.12-31.87,5.34,2.74,3.14,26.23,23.25-12.68,5.12,2.63-28.26,15.18-7.94,15.48Z"/>
      <path d="M225,633.41a22.7,22.7,0,0,1-28.58-14.63,23.51,23.51,0,0,1,14.67-28.45A22.7,22.7,0,0,1,239.71,605,23.51,23.51,0,0,1,225,633.41Zm-23.75-15.74A17.12,17.12,0,0,0,223.21,629a19.34,19.34,0,0,0,11.67-22.88A17.12,17.12,0,0,0,213,594.79a19.34,19.34,0,0,0-11.67,22.88Z"/>
      <path d="M252.54,654.94q-7.41-3.8-9.53-10.48t2-14.76L256.65,607l4.4,2.26-11.49,22.38Q246.33,638,247.72,643t7,7.92q5.51,2.83,10.32,1.14t8-8l11.63-22.66,4.4,2.26L277.65,646q-4.29,8.35-11,10.55T252.54,654.94Z"/>
      <path d="M279.52,668l20-39,16.76,8.6q7.18,3.69,9.08,9.58a11.86,11.86,0,0,1-1,9.34,11.51,11.51,0,0,1-6.78,6.09,16,16,0,0,1-9.63-.16l3.8,22.07-5.4-2.77-3.53-20.94-11.13-5.71-7.77,15.14Zm14.2-16.84,12,6.14a12.86,12.86,0,0,0,8.35,1.54,8,8,0,0,0,5.84-4.53,7.56,7.56,0,0,0,.26-7q-1.6-3.39-6.28-5.79l-12-6.17Z"/>
      <path d="M336.47,697.25l20-39,14.59,7.49q6.68,3.43,8.92,8.8a12.73,12.73,0,0,1-.73,11.16q-3.11,6.07-9.2,7.17a19.67,19.67,0,0,1-12.65-2.28l-9.46-4.86-7.06,13.75ZM350,681.75l9.63,4.94a13.45,13.45,0,0,0,9,1.62,8.67,8.67,0,0,0,6.17-4.82,8.42,8.42,0,0,0,.4-7.71q-1.68-3.64-6.53-6.13l-9.85-5.06Z"/>
      <path d="M373.67,716.34l20-39,16.76,8.6q7.18,3.69,9.08,9.58a11.86,11.86,0,0,1-1,9.34,11.51,11.51,0,0,1-6.78,6.09,16,16,0,0,1-9.63-.16l3.8,22.07-5.4-2.77L397,709.17l-11.13-5.71-7.77,15.14Zm14.2-16.84,12,6.14a12.86,12.86,0,0,0,8.35,1.54,8,8,0,0,0,5.84-4.53,7.56,7.56,0,0,0,.26-7q-1.6-3.39-6.28-5.79l-12-6.17Z"/>
      <path d="M414.31,737.2l20-39,4.4,2.26-20,39Z"/>
      <path d="M428.34,744.4l1.51-3,41.68-19.13-24.39-12.52,2-4,30.4,15.6-1.51,3-41.73,19.1,25.28,13-2,4Z"/>
    </g>
  </g>
  <g>
    <rect x="369.17" y="603.76" width="652.18" height="54.48" transform="translate(-168.97 264.05) rotate(-19.22)" fill="#facf20"/>
    <g>
      <path d="M426.69,748.26a20.83,20.83,0,0,1-17-1,23.71,23.71,0,0,1-10.53-30.39,21,21,0,0,1,12.78-11.45A22.38,22.38,0,0,1,421.4,704a28.28,28.28,0,0,1,8.89,2.5l-1.92,4.38q-7.95-3.59-15-1.14a15.88,15.88,0,0,0-9.72,8.89,19.47,19.47,0,0,0,8.51,24.31,15.87,15.87,0,0,0,13.12,1,17.12,17.12,0,0,0,6.58-4,26.71,26.71,0,0,0,4.7-6.67l4.21,2.18a27.09,27.09,0,0,1-5.49,7.81A23.17,23.17,0,0,1,426.69,748.26Z"/>
      <path d="M451.14,738.94l-14.42-41.36,4.67-1.63L454.3,733l23.28-8.12,1.5,4.31Z"/>
      <path d="M484.17,727.43l4.33-48.23,4.37-1.52,33.37,35.09-5,1.75-8.66-9.24-22.51,7.85L489,725.76Zm6.25-19.14,18.85-6.57-16.75-17.82Z"/>
      <path d="M534.81,709.77l-14.42-41.36,4.67-1.63,14.42,41.36Z"/>
      <path d="M551.59,703.92l-14.42-41.36,4.73-1.65,22.94,17.32L572,650.4l4.73-1.65,14.42,41.36-4.67,1.63-11.68-33.51-7.34,27.41-.24.08-22.77-16.85,11.66,33.45Z"/>
      <path d="M633.55,675.35,627.85,659l-25.91-19,5.67-2,21.16,15.82,6.85-25.58,5.44-1.9-8.5,30.93,5.73,16.43Z"/>
      <path d="M695.37,647.53a22.7,22.7,0,0,1-30.3,10.6,23.51,23.51,0,0,1-10.48-30.25,22.7,22.7,0,0,1,30.3-10.6,23.51,23.51,0,0,1,10.48,30.25Zm-27.78,6.34a17.12,17.12,0,0,0,23.29-8.09,19.34,19.34,0,0,0-8.52-24.24,17.12,17.12,0,0,0-23.29,8.09,19.34,19.34,0,0,0,8.52,24.24Z"/>
      <path d="M729.92,642.48q-7.86,2.74-14.16-.33t-9.29-11.64l-8.38-24.05,4.67-1.63L711,628.59q2.33,6.68,6.93,9.15t10.57.39q5.85-2,7.94-6.68t-.23-11.32l-8.38-24.05,4.67-1.63,8.26,23.7q3.09,8.87.07,15.22T729.92,642.48Z"/>
    </g>
  </g>
  <g>
    <rect x="209.29" y="565.98" width="652.18" height="54.48" transform="translate(-251.86 456.12) rotate(-38.05)" fill="#facf20"/>
    <g>
      <path d="M366.73,752.62l-11.48-47,3.65-2.85,42.92,22.43-4.19,3.28-11.18-6-18.77,14.7,3,12.32Zm-.27-20.14,15.72-12.31-21.61-11.46Z"/>
      <path d="M409,719.57l-27-34.49,3.89-3,27,34.49Z"/>
      <path d="M423,708.61l-27-34.49,3.94-3.09,27.3,9L425,651.36l3.94-3.09,27,34.49-3.89,3L430.2,657.87l1.9,28.32-.2.15-27-8.59,21.83,27.89Z"/>
      <path d="M491.3,655.11l-10.69-13.65L450,631.84l4.73-3.7,25.13,8.14L478,609.85l4.53-3.55,1.94,32L495.24,652Z"/>
      <path d="M540.82,608.83a22.7,22.7,0,0,1-25.26,19.81,23.51,23.51,0,0,1-19.68-25.24,22.7,22.7,0,0,1,25.26-19.81,23.51,23.51,0,0,1,19.68,25.24Zm-24.25,15A17.12,17.12,0,0,0,536,608.62a19.34,19.34,0,0,0-15.88-20.19,17.12,17.12,0,0,0-19.43,15.17,19.34,19.34,0,0,0,15.88,20.19Z"/>
      <path d="M571.9,592.89q-6.55,5.13-13.51,4.26t-12.55-8l-15.7-20.06,3.89-3,15.51,19.81q4.36,5.57,9.52,6.42t10.13-3q4.88-3.82,5.36-8.89t-3.87-10.64L555,549.63l3.89-3,15.47,19.76q5.79,7.39,5,14.38T571.9,592.89Z"/>
      <path d="M595.08,573.87l-27-34.49,14.83-11.61q6.36-5,12.51-4.23a11.86,11.86,0,0,1,8.06,4.82,11.51,11.51,0,0,1,2.68,8.71,16,16,0,0,1-4.18,8.67l21.63,5.8-4.78,3.74-20.5-5.57-9.85,7.71L599,570.82Zm-9.34-20,10.59-8.29a12.86,12.86,0,0,0,4.9-6.94,8,8,0,0,0-1.66-7.2,7.56,7.56,0,0,0-6.26-3.17q-3.75,0-7.89,3.27l-10.64,8.33Z"/>
      <path d="M645.49,534.41l-27-34.49,12.91-10.11q5.91-4.63,11.73-4.41a12.73,12.73,0,0,1,9.82,5.34q4.21,5.37,2.65,11.36a19.67,19.67,0,0,1-7.37,10.54l-8.38,6.56,9.53,12.17Zm-8.41-18.77L645.6,509a13.45,13.45,0,0,0,5.23-7.48,8.67,8.67,0,0,0-1.79-7.62,8.42,8.42,0,0,0-6.83-3.6q-4,0-8.3,3.36l-8.72,6.83Z"/>
      <path d="M678.4,508.64l-27-34.49,14.83-11.61q6.36-5,12.51-4.23a11.86,11.86,0,0,1,8.06,4.82,11.51,11.51,0,0,1,2.68,8.71,16,16,0,0,1-4.18,8.67l21.63,5.8L702.15,490l-20.5-5.57-9.85,7.71,10.49,13.4Zm-9.34-20,10.59-8.29a12.86,12.86,0,0,0,4.9-6.94,8,8,0,0,0-1.66-7.2,7.56,7.56,0,0,0-6.26-3.17q-3.75,0-7.89,3.27l-10.64,8.33Z"/>
      <path d="M714.37,480.48l-27-34.49,3.89-3,27,34.49Z"/>
      <path d="M726.79,470.76l-2-2.61.1-45.86-21.58,16.9-2.74-3.5,26.9-21.06,2,2.61-.15,45.9,22.37-17.51,2.74,3.5Z"/>
    </g>
  </g>
</svg>
