<?xml version="1.0" encoding="UTF-8"?>
<svg width="11px" height="20px" viewBox="0 0 11 20" version="1.1" xmlns="http://www.w3.org/2000/svg" xmlns:xlink="http://www.w3.org/1999/xlink">
    <!-- Generator: Sketch 49.1 (51147) - http://www.bohemiancoding.com/sketch -->
    <title>facebook copy</title>
    <desc>Created with Sketch.</desc>
    <defs>
        <path d="M7.5,5.83333333 C7.5,3.07190958 9.73857625,0.833333333 12.5,0.833333333 L15,0.833333333 C15.4602373,0.833333333 15.8333333,1.20642938 15.8333333,1.66666667 L15.8333333,5 C15.8333333,5.46023729 15.4602373,5.83333333 15,5.83333333 L12.5,5.83333333 L12.5,7.5 L15,7.5 C15.5421426,7.5 15.939941,8.00949075 15.8084521,8.53544635 L14.9751188,11.8687797 C14.8823756,12.2397522 14.5490564,12.5 14.1666667,12.5 L12.5,12.5 L12.5,18.3333333 C12.5,18.7935706 12.126904,19.1666667 11.6666667,19.1666667 L8.33333333,19.1666667 C7.87309604,19.1666667 7.5,18.7935706 7.5,18.3333333 L7.5,12.5 L5.83333333,12.5 C5.37309604,12.5 5,12.126904 5,11.6666667 L5,8.33333333 C5,7.87309604 5.37309604,7.5 5.83333333,7.5 L7.5,7.5 L7.5,5.83333333 Z M14.1666667,2.5 L12.5,2.5 C10.6590508,2.5 9.16666667,3.99238417 9.16666667,5.83333333 L9.16666667,8.33333333 C9.16666667,8.79357062 8.79357062,9.16666667 8.33333333,9.16666667 L6.66666667,9.16666667 L6.66666667,10.8333333 L8.33333333,10.8333333 C8.79357062,10.8333333 9.16666667,11.2064294 9.16666667,11.6666667 L9.16666667,17.5 L10.8333333,17.5 L10.8333333,11.6666667 C10.8333333,11.2064294 11.2064294,10.8333333 11.6666667,10.8333333 L13.5160197,10.8333333 L13.9326863,9.16666667 L11.6666667,9.16666667 C11.2064294,9.16666667 10.8333333,8.79357062 10.8333333,8.33333333 L10.8333333,5.83333333 C10.8333333,4.91285875 11.5795254,4.16666667 12.5,4.16666667 L14.1666667,4.16666667 L14.1666667,2.5 Z" id="path-1"></path>
    </defs>
    <g id="Page-1" stroke="none" stroke-width="1" fill="none" fill-rule="evenodd">
        <g id="Artboard" transform="translate(-61.000000, -500.000000)">
            <g id="Group-2" transform="translate(25.000000, 380.000000)">
                <g id="facebook" transform="translate(31.000000, 120.000000)">
                    <mask id="mask-2" fill="white">
                        <use xlink:href="#path-1"></use>
                    </mask>
                    <use id="Shape" fill="#000000" fill-rule="nonzero" xlink:href="#path-1"></use>
                    <g id="COLOR/-black" mask="url(#mask-2)" fill="#000000" fill-rule="evenodd">
                        <rect id="Rectangle" x="0" y="0" width="20" height="20"></rect>
                    </g>
                </g>
            </g>
        </g>
    </g>
</svg>