<?xml version="1.0" encoding="UTF-8"?>
<svg width="20px" height="20px" viewBox="0 0 20 20" version="1.1" xmlns="http://www.w3.org/2000/svg" xmlns:xlink="http://www.w3.org/1999/xlink">
    <!-- Generator: Sketch 49.1 (51147) - http://www.bohemiancoding.com/sketch -->
    <title>instagram copy</title>
    <desc>Created with Sketch.</desc>
    <defs>
        <path d="M5.83333333,0.833333333 L14.1666667,0.833333333 C16.9280904,0.833333333 19.1666667,3.07190958 19.1666667,5.83333333 L19.1666667,14.1666667 C19.1666667,16.9280904 16.9280904,19.1666667 14.1666667,19.1666667 L5.83333333,19.1666667 C3.07190958,19.1666667 0.833333333,16.9280904 0.833333333,14.1666667 L0.833333333,5.83333333 C0.833333333,3.07190958 3.07190958,0.833333333 5.83333333,0.833333333 Z M5.83333333,2.5 C3.99238417,2.5 2.5,3.99238417 2.5,5.83333333 L2.5,14.1666667 C2.5,16.0076158 3.99238417,17.5 5.83333333,17.5 L14.1666667,17.5 C16.0076158,17.5 17.5,16.0076158 17.5,14.1666667 L17.5,5.83333333 C17.5,3.99238417 16.0076158,2.5 14.1666667,2.5 L5.83333333,2.5 Z M14.1576529,9.35276377 C14.4213221,11.1308592 13.5149715,12.8776018 11.9093472,13.6857574 C10.3037229,14.4939129 8.36082849,14.1812749 7.08977681,12.9102232 C5.81872513,11.6391715 5.5060871,9.69627709 6.31424265,8.0906528 C7.12239819,6.48502851 8.86914082,5.57867789 10.6472362,5.8423471 C12.462837,6.11157788 13.8884221,7.53716297 14.1576529,9.35276377 Z M12.5090138,9.59723623 C12.3474753,8.50787575 11.4921242,7.6525247 10.4027638,7.49098623 C9.33590652,7.33278471 8.28786094,7.87659508 7.80296761,8.83996965 C7.31807429,9.80334423 7.50565711,10.9690809 8.26828811,11.7317119 C9.03091912,12.4943429 10.1966558,12.6819257 11.1600303,12.1970324 C12.1234049,11.7121391 12.6672153,10.6640935 12.5090138,9.59723623 Z" id="path-1"></path>
    </defs>
    <g id="Page-1" stroke="none" stroke-width="1" fill="none" fill-rule="evenodd">
        <g id="Artboard" transform="translate(-26.000000, -500.000000)">
            <g id="Group-2" transform="translate(25.000000, 380.000000)">
                <g id="instagram" transform="translate(1.000000, 120.000000)">
                    <mask id="mask-2" fill="white">
                        <use xlink:href="#path-1"></use>
                    </mask>
                    <use id="Combined-Shape" fill="#000000" fill-rule="nonzero" xlink:href="#path-1"></use>
                    <g id="COLOR/-black" mask="url(#mask-2)" fill="#000000" fill-rule="evenodd">
                        <rect id="Rectangle" x="0" y="0" width="20" height="20"></rect>
                    </g>
                </g>
            </g>
        </g>
    </g>
</svg>