<svg id="Слой_1" data-name="Слой 1" xmlns="http://www.w3.org/2000/svg" xmlns:xlink="http://www.w3.org/1999/xlink" viewBox="0 0 127 151"><defs><style>.cls-1{fill:#100fdb;}.cls-10,.cls-2,.cls-3,.cls-7{fill:none;}.cls-2{clip-rule:evenodd;}.cls-4{clip-path:url(#clip-path);}.cls-5{clip-path:url(#clip-path-2);}.cls-6{clip-path:url(#clip-path-3);}.cls-10,.cls-7{stroke:#000105;stroke-width:7.09px;}.cls-7{stroke-miterlimit:10;}.cls-8{clip-path:url(#clip-path-4);}.cls-11,.cls-9{fill:#fff;}.cls-10{stroke-linejoin:round;}.cls-11{font-size:35.44px;font-family:BebasNeue, Bebas Neue;}</style><clipPath id="clip-path"><path class="cls-1" d="M75.22,4.82l47.25,47.25v88.59a5.91,5.91,0,0,1-5.91,5.91H10.25a5.91,5.91,0,0,1-5.91-5.91V10.73a5.92,5.92,0,0,1,5.91-5.91Z"/></clipPath><clipPath id="clip-path-2"><path class="cls-2" d="M75.22,4.82l47.25,47.25v78a16.54,16.54,0,0,1-16.54,16.54H20.88A16.54,16.54,0,0,1,4.34,130V21.36A16.55,16.55,0,0,1,20.88,4.82Z"/></clipPath><clipPath id="clip-path-3"><rect class="cls-3" x="-9.83" y="-10.53" width="150.02" height="178.37"/></clipPath><clipPath id="clip-path-4"><path class="cls-2" d="M122.47,52.07H92.59c-9.13,0-17.37-8.24-17.37-17.37V4.82Z"/></clipPath></defs><title>icons</title><path class="cls-1" d="M75.22,4.82l47.25,47.25v88.59a5.91,5.91,0,0,1-5.91,5.91H10.25a5.91,5.91,0,0,1-5.91-5.91V10.73a5.92,5.92,0,0,1,5.91-5.91Z"/><g class="cls-4"><rect class="cls-1" x="-9.6" y="-6.63" width="151.26" height="172.98"/></g><g class="cls-6"><path class="cls-7" d="M75.22,4.82l47.25,47.25v88.59a5.91,5.91,0,0,1-5.91,5.91H10.25a5.91,5.91,0,0,1-5.91-5.91V10.73a5.92,5.92,0,0,1,5.91-5.91Z"/></g><g class="cls-8"><g class="cls-6"><rect class="cls-9" x="69.31" y="-1.08" width="59.06" height="59.06"/></g></g><g class="cls-6"><path class="cls-10" d="M122.47,52.07H92.59c-9.13,0-17.37-8.24-17.37-17.37V4.82Z"/><text class="cls-11" transform="translate(36.01 83.97)">Dead</text><text class="cls-11" transform="translate(23 113.5)">Screen</text></g></svg>