<svg id="Слой_1" data-name="Слой 1" xmlns="http://www.w3.org/2000/svg" xmlns:xlink="http://www.w3.org/1999/xlink" viewBox="0 0 127 151"><defs><style>.cls-1{fill:#100fdb;}.cls-10,.cls-2,.cls-3,.cls-7{fill:none;}.cls-2{clip-rule:evenodd;}.cls-4{clip-path:url(#clip-path);}.cls-5{clip-path:url(#clip-path-2);}.cls-6{clip-path:url(#clip-path-3);}.cls-10,.cls-7{stroke:#000105;stroke-width:7.09px;}.cls-7{stroke-miterlimit:10;}.cls-8{clip-path:url(#clip-path-4);}.cls-9{fill:#fff;}.cls-10{stroke-linejoin:round;}</style><clipPath id="clip-path"><path class="cls-1" d="M75.22,4.82l47.25,47.25v88.59a5.91,5.91,0,0,1-5.91,5.91H10.25a5.91,5.91,0,0,1-5.91-5.91V10.73a5.92,5.92,0,0,1,5.91-5.91Z"/></clipPath><clipPath id="clip-path-2"><path class="cls-2" d="M75.22,4.82l47.25,47.25v78a16.54,16.54,0,0,1-16.54,16.54H20.88A16.54,16.54,0,0,1,4.34,130V21.36A16.55,16.55,0,0,1,20.88,4.82Z"/></clipPath><clipPath id="clip-path-3"><rect class="cls-3" x="-9.83" y="-10.53" width="150.02" height="178.37"/></clipPath><clipPath id="clip-path-4"><path class="cls-2" d="M122.47,52.07H92.59c-9.13,0-17.37-8.24-17.37-17.37V4.82Z"/></clipPath></defs><title>icons</title><path class="cls-1" d="M75.22,4.82l47.25,47.25v88.59a5.91,5.91,0,0,1-5.91,5.91H10.25a5.91,5.91,0,0,1-5.91-5.91V10.73a5.92,5.92,0,0,1,5.91-5.91Z"/><g class="cls-4"><rect class="cls-1" x="-9.6" y="-6.63" width="151.26" height="172.98"/></g><g class="cls-6"><path class="cls-7" d="M75.22,4.82l47.25,47.25v88.59a5.91,5.91,0,0,1-5.91,5.91H10.25a5.91,5.91,0,0,1-5.91-5.91V10.73a5.92,5.92,0,0,1,5.91-5.91Z"/></g><g class="cls-8"><g class="cls-6"><rect class="cls-9" x="69.31" y="-1.08" width="59.06" height="59.06"/></g></g><g class="cls-6"><path class="cls-10" d="M122.47,52.07H92.59c-9.13,0-17.37-8.24-17.37-17.37V4.82Z"/><path class="cls-9" d="M37.42,59.16h6.17c3.9,0,5.81,2.17,5.81,6.13V77.84c0,4-1.91,6.13-5.81,6.13H37.42Zm3.9,3.55V80.42h2.2c1.24,0,2-.64,2-2.41V65.12c0-1.78-.74-2.41-2-2.41Z"/><path class="cls-9" d="M55.78,69.62h5.35v3.54H55.78v7.26h6.73V84H51.88V59.16H62.51v3.55H55.78Z"/><path class="cls-9" d="M77.54,84H73.6l-.67-4.5H68.15L67.47,84H63.9l4-24.81h5.71Zm-8.9-7.87H72.4L70.56,63.56h-.07Z"/><path class="cls-9" d="M79.35,59.16h6.16c3.9,0,5.81,2.17,5.81,6.13V77.84c0,4-1.91,6.13-5.81,6.13H79.35Zm3.89,3.55V80.42h2.2c1.24,0,2-.64,2-2.41V65.12c0-1.78-.74-2.41-2-2.41Z"/><path class="cls-9" d="M29.66,88.41c3.79,0,5.74,2.27,5.74,6.24v.78H31.72v-1c0-1.77-.71-2.45-1.95-2.45s-1.95.68-1.95,2.45.78,3.15,3.33,5.38c3.26,2.87,4.29,4.93,4.29,7.76,0,4-2,6.24-5.81,6.24s-5.81-2.27-5.81-6.24V106H27.5v1.77c0,1.77.78,2.41,2,2.41s2-.64,2-2.41-.78-3.15-3.33-5.38c-3.26-2.87-4.29-4.93-4.29-7.76C23.92,90.68,25.87,88.41,29.66,88.41Z"/><path class="cls-9" d="M49,104.25v3.29c0,4-2,6.24-5.81,6.24s-5.81-2.27-5.81-6.24V94.65c0-4,2-6.24,5.81-6.24S49,90.68,49,94.65v2.41H45.29V94.4c0-1.77-.78-2.45-2-2.45s-2,.68-2,2.45v13.39c0,1.77.78,2.41,2,2.41s2-.64,2-2.41v-3.54Z"/><path class="cls-9" d="M59.5,113.5a7.66,7.66,0,0,1-.36-3v-3.9c0-2.3-.77-3.15-2.55-3.15H55.25v10.1h-3.9V88.69h5.88c4,0,5.78,1.88,5.78,5.71v1.95c0,2.55-.82,4.18-2.55,5v.07c1.94.82,2.58,2.66,2.58,5.25v3.82a7.35,7.35,0,0,0,.43,3ZM55.25,92.24v7.61h1.52c1.45,0,2.34-.63,2.34-2.62V94.79c0-1.77-.6-2.55-2-2.55Z"/><path class="cls-9" d="M69.49,99.15h5.35v3.54H69.49V110h6.74v3.55H65.6V88.69H76.23v3.55H69.49Z"/><path class="cls-9" d="M82.53,99.15h5.35v3.54H82.53V110h6.74v3.55H78.64V88.69H89.27v3.55H82.53Z"/><path class="cls-9" d="M95.22,95.53h-.07v18H91.64V88.69h4.89l3.93,14.85h.07V88.69H104V113.5h-4Z"/></g></svg>