<?xml version="1.0" encoding="utf-8"?>
<!-- Generator: Adobe Illustrator 21.0.2, SVG Export Plug-In . SVG Version: 6.00 Build 0)  -->
<svg version="1.1" id="Слой_1" xmlns="http://www.w3.org/2000/svg" xmlns:xlink="http://www.w3.org/1999/xlink" x="0px" y="0px"
	 viewBox="0 0 127.1 118.1" style="enable-background:new 0 0 127.1 118.1;" xml:space="preserve">
<style type="text/css">
	.st0{fill:#A36473;stroke:#000000;stroke-width:4;stroke-miterlimit:10;}
	.st1{fill:#ABFFE5;stroke:#000000;stroke-width:4;stroke-miterlimit:10;}
	.st2{fill:#629688;stroke:#000000;stroke-width:4;stroke-miterlimit:10;}
	.st3{fill:#FCD120;}
	.st4{fill:#629688;stroke:#000000;stroke-width:4;stroke-linecap:round;stroke-linejoin:round;stroke-miterlimit:10;}
	.st5{fill:#FCD120;stroke:#000000;stroke-width:4;stroke-linecap:round;stroke-linejoin:round;stroke-miterlimit:10;}
	.st6{fill:#68EDC6;stroke:#000000;stroke-width:4;stroke-linecap:round;stroke-linejoin:round;stroke-miterlimit:10;}
	.st7{fill:#FCD120;stroke:#000000;stroke-width:4;stroke-miterlimit:10;}
	.st8{fill:#FFFFFF;stroke:#000000;stroke-linecap:round;stroke-linejoin:round;stroke-miterlimit:10;}
	.st9{fill:#FFFFFF;stroke:#000000;stroke-width:4;stroke-linecap:round;stroke-linejoin:round;stroke-miterlimit:10;}
	.st10{fill:none;stroke:#000000;stroke-linecap:round;stroke-linejoin:round;stroke-miterlimit:10;}
	.st11{fill:#4696FC;stroke:#201600;stroke-width:4;stroke-miterlimit:10;}
	.st12{fill:#F0491F;stroke:#000000;stroke-width:4;stroke-miterlimit:10;}
	.st13{enable-background:new    ;}
	.st14{fill:#FFFFFF;}
	.st15{fill:#1D1D1B;}
	.st16{fill:#FCF0E0;stroke:#201600;stroke-width:4;stroke-linecap:round;stroke-linejoin:round;stroke-miterlimit:10;}
	.st17{fill:#CEA97C;stroke:#201600;stroke-width:4;stroke-linecap:round;stroke-linejoin:round;stroke-miterlimit:10;}
	.st18{fill:#FCF0E0;stroke:#201600;stroke-width:3;stroke-linecap:round;stroke-linejoin:round;stroke-miterlimit:10;}
	.st19{fill:#0C74F9;stroke:#000000;stroke-width:4;stroke-miterlimit:10;}
	.st20{fill:#68EDC6;stroke:#000000;stroke-width:3;stroke-linecap:round;stroke-linejoin:round;stroke-miterlimit:10;}
	.st21{fill:#F0491F;stroke:#000000;stroke-width:3;stroke-linecap:round;stroke-linejoin:round;stroke-miterlimit:10;}
	.st22{fill:#0C74F9;stroke:#000000;stroke-width:3;stroke-miterlimit:10;}
	.st23{fill:#FCD120;stroke:#000000;stroke-width:3;stroke-miterlimit:10;}
	.st24{fill:#FEC2CE;stroke:#000000;stroke-width:4;stroke-miterlimit:10;}
	.st25{fill:#A36473;}
	.st26{fill:none;stroke:#000000;stroke-width:4;stroke-linecap:round;stroke-linejoin:round;stroke-miterlimit:10;}
	.st27{fill:#A36473;stroke:#000000;stroke-width:4;stroke-linecap:round;stroke-linejoin:round;stroke-miterlimit:10;}
	.st28{fill:none;stroke:#000000;stroke-width:4;stroke-miterlimit:10;}
	.st29{fill:none;stroke:#000000;stroke-width:2;stroke-linecap:round;stroke-linejoin:round;stroke-miterlimit:10;}
</style>
<ellipse class="st0" cx="58.9" cy="-149" rx="35.3" ry="8.3"/>
<title>icons</title>
<path class="st1" d="M-412.3-188.7c0.6-0.6,1.5-1,2.4-1h77.5l1.5-0.1c0.5,0,0.9,0.4,0.9,0.9c0,0,0,0,0,0v9.2c0,0,0,0.4-2.3,0.4
	l-87.4,0v-1.4c0-0.6,0.2-1.1,0.6-1.5L-412.3-188.7z"/>
<path class="st1" d="M-415.5-115.6c0.8-0.6,1.8-0.8,2.7-0.8l84.5-13.2h5c0.5,0.2,0.9,0.6,0.8,2v7.2c0,0-13.2,12.9-15.9,12.9
	c-2.7,0-86.4,1.1-86.4,1.1v-3.1c0-0.5,0.3-1,0.7-1.3L-415.5-115.6z"/>
<path class="st2" d="M-331.3-127.5c1.1-1.1,1.8-2.6,1.8-4.1v-56.4c0-0.3-0.3-0.6-0.6-0.6c-0.1,0-0.2,0-0.3,0.1l-12.2,5.2
	c-0.4,0.2-0.8,0.3-1.3,0.3h-2.5l-68.4,1.3c-2.3,0-4.2,1.9-4.2,4.2v58.1c0,0.4,0.3,0.6,0.6,0.6l71.9,3.3c1.4,0.1,2.9-0.5,3.9-1.4
	L-331.3-127.5z"/>
<path class="st3" d="M-415.4-115.6c-0.9,0-1.7-0.2-2.5-0.7c-1.4-0.9-2.2-2.4-2.1-4.1V-179c0.2-2.5,2.3-4.3,4.8-4.1c0,0,0,0,0,0h70
	c2.3,0,4.1,1.8,4.1,4.1c0,0,0,0,0,0.1v58.8c0,1.3-0.5,2.5-1.3,3.5c-0.7,0.7-1.7,1.1-2.6,1.1H-415.4z"/>
<path d="M-345.2-181.1c1.2,0,2.1,1,2.1,2.2c0,0,0,0,0,0v58.8c0,0,0,2.5-2,2.5h-70.2c-1.4,0.1-2.6-1-2.7-2.4c0-0.1,0-0.2,0-0.3V-179
	c0,0,0.1-2.1,2.8-2.1H-345.2 M-345.1-185.1h-70c-3.5-0.2-6.6,2.5-6.8,6v58.8c-0.2,3.6,2.6,6.6,6.2,6.8c0.1,0,0.3,0,0.4,0h70.2
	c1.5,0,3-0.6,4.1-1.7c1.2-1.3,1.8-3.1,1.8-4.9V-179C-339.1-182.3-341.8-185-345.1-185.1L-345.1-185.1z"/>
<path class="st4" d="M-324-99.7c1-0.7,1.6-1,1.6-1.3v-24.4c0-0.2-0.6-0.3-1.1-0.2l-17.5,17.4c-0.1,0-0.1-0.4-0.2-0.4l-82,0.7
	c-0.7,0-1.3,0.2-1.3,0.5v19.8c0,0.1,0.3,0.3,0.7,0.3l80.6,1.8c0.7,0,1,0.5,1.5,0.3L-324-99.7z"/>
<path class="st5" d="M-424.6-91l-0.3-17.2c0-0.8,0.6-1.4,1.4-1.4c0,0,0,0,0,0c11.4,0.1,80.2,0.7,80.2,0.7s2.4,0,2.4,0.6v17.4
	c0,0,0,0.8-2.3,0.8h-78.3C-421.5-90.2-424.7-90.2-424.6-91"/>
<path class="st6" d="M-442-84.6v5.9l79.7,0.5c0.7,0,1.3,0,1.8-0.1h0.1l18.8-7c0.5-0.2,0.8-0.7,0.8-1.2v-6.1
	c-0.2,0.1-0.5,0.2-0.7,0.2l-18.6,7.7c-0.1,0-0.1-0.1-0.2-0.1L-442-84.6"/>
<path class="st7" d="M-442.9-78.6c0,0.2,0.2,0.4,0.4,0.4h79.3c2.2,0,2.2-0.2,2.2-0.2v-5.4c0-0.2-2.4-0.2-2.4-0.2h-78.9
	c-0.4,0-0.7,0.3-0.7,0.7l0,0L-442.9-78.6z"/>
<path class="st6" d="M-360.4-84.6c-2.1,0-71.2,0.3-81.9,0.3c-0.2,0-0.3-0.2-0.3-0.3c0-0.1,0.1-0.2,0.2-0.3l18.2-8.1
	c2.4,0.3,75.8,0.3,81.9,0.3c0,0,0.1,0,0.1,0.1s0,0.1-0.1,0.1L-360.4-84.6z"/>
<path class="st8" d="M-426.2-90.6l0.9-2.1v-2.1c0,0,0,0,0,0l-0.9,2.4l0,0l-4.1,0.1v1.8h4C-426.3-90.5-426.2-90.5-426.2-90.6
	L-426.2-90.6z"/>
<path class="st8" d="M-430.3-90.6h4c0.1,0,0.1-0.1,0.1-0.1v-1.7c0-0.1-0.1-0.1-0.1-0.1h-4V-90.6z"/>
<path class="st8" d="M-426.2-92.4c-0.1,0-3.6,0.1-4.1,0.1c0-0.1,0-0.1,0-0.2l1-2.2c0-0.1,0.1-0.1,0.2-0.1c0.6,0,3.4,0,3.9,0v0.1
	L-426.2-92.4z"/>
<path class="st8" d="M-428.6-88.8l1-2.1V-93l-0.9,2.4l0,0l-4.1,0.1v1.8L-428.6-88.8L-428.6-88.8L-428.6-88.8z"/>
<path class="st8" d="M-432.8-88.7h4c0.1,0,0.1-0.1,0.1-0.1v-1.7c0-0.1-0.1-0.1-0.1-0.1h-4L-432.8-88.7z"/>
<path class="st8" d="M-428.7-90.6c-0.1,0-3.6,0.1-4.1,0.1c0,0,0-0.1,0-0.2l1-2.2c0-0.1,0.1-0.1,0.2-0.1c0.6,0,3.4,0,3.9,0v0.1
	L-428.7-90.6z"/>
<path class="st8" d="M-431.3-86.6l0.9-2.1v-2.1c0,0,0,0,0,0l-1,2.4l0,0h-4.1v1.8h4C-431.4-86.6-431.4-86.6-431.3-86.6L-431.3-86.6z"
	/>
<path class="st8" d="M-435.5-86.6h4c0.1,0,0.1-0.1,0.1-0.1v-1.7c0-0.1-0.1-0.1-0.1-0.1h-4V-86.6z"/>
<path class="st8" d="M-431.3-88.4c-0.1,0-3.6,0.1-4.1,0.1c0-0.1,0-0.1,0-0.2l1-2.2c0-0.1,0.1-0.1,0.2-0.1c0.6,0,3.4,0,3.9,0v0.1
	L-431.3-88.4z"/>
<path class="st8" d="M-421.6-90.6l1-2.1v-2.1c0,0,0,0,0,0l-0.9,2.4l0,0l-4.1,0.1v1.8L-421.6-90.6C-421.7-90.5-421.6-90.5-421.6-90.6
	L-421.6-90.6z"/>
<path class="st8" d="M-425.8-90.6h4c0.1,0,0.1-0.1,0.1-0.1v-1.7c0-0.1-0.1-0.1-0.1-0.1h-4V-90.6z"/>
<path class="st8" d="M-421.7-92.4c-0.1,0-3.6,0.1-4.1,0.1c0-0.1,0-0.1,0-0.2l0.9-2.2c0-0.1,0.1-0.1,0.2-0.1c0.6,0,3.4,0,3.9,0v0.1
	L-421.7-92.4z"/>
<path class="st8" d="M-424.1-88.8l0.9-2.1V-93l-0.9,2.4l0,0l-4.1,0.1v1.8h4L-424.1-88.8L-424.1-88.8z"/>
<path class="st8" d="M-428.2-88.7h4c0.1,0,0.1-0.1,0.1-0.1v-1.7c0-0.1-0.1-0.1-0.1-0.1h-4L-428.2-88.7z"/>
<path class="st8" d="M-424.1-90.6c-0.1,0-3.6,0.1-4.1,0.1c0,0,0-0.1,0-0.2l0.9-2.2c0-0.1,0.1-0.1,0.2-0.1c0.6,0,3.4,0,3.9,0v0.1
	L-424.1-90.6z"/>
<path class="st8" d="M-426.8-86.6l0.9-2.1v-2.1c0,0,0,0,0,0l-1,2.4l0,0l-4.1,0.1v1.8h4C-426.9-86.5-426.8-86.5-426.8-86.6
	L-426.8-86.6z"/>
<path class="st8" d="M-430.9-86.6h4c0.1,0,0.1-0.1,0.1-0.1v-1.7c0-0.1-0.1-0.1-0.1-0.1h-4L-430.9-86.6z"/>
<path class="st8" d="M-426.8-88.4c-0.1,0-3.6,0.1-4.1,0.1c0-0.1,0-0.1,0-0.2l0.9-2.2c0-0.1,0.1-0.1,0.2-0.1c0.6,0,3.4,0,3.9,0v0.1
	L-426.8-88.4z"/>
<path class="st8" d="M-417.1-90.6l1-2.1v-2.1c0,0,0,0-0.1,0l-0.9,2.4l0,0l-4.1,0.1v1.8h4C-417.2-90.5-417.2-90.5-417.1-90.6
	L-417.1-90.6z"/>
<path class="st8" d="M-421.2-90.6h4c0.1,0,0.1-0.1,0.1-0.1v-1.7c0-0.1-0.1-0.1-0.1-0.1h-4V-90.6z"/>
<path class="st8" d="M-417.1-92.4c-0.1,0-3.6,0.1-4.1,0.1c0-0.1,0-0.1,0-0.2l0.9-2.2c0-0.1,0.1-0.1,0.2-0.1c0.6,0,3.4,0,3.9,0v0.1
	L-417.1-92.4z"/>
<path class="st8" d="M-419.6-88.8l1-2.1V-93l-0.9,2.4l0,0l-4.1,0.1v1.8L-419.6-88.8L-419.6-88.8L-419.6-88.8z"/>
<path class="st8" d="M-423.7-88.7h4c0.1,0,0.1-0.1,0.1-0.1v-1.7c0-0.1-0.1-0.1-0.1-0.1h-4V-88.7z"/>
<path class="st8" d="M-419.6-90.6c-0.1,0-3.6,0.1-4.1,0.1c0,0,0-0.1,0-0.2l0.9-2.2c0-0.1,0.1-0.1,0.2-0.1c0.6,0,3.4,0,3.9,0v0.1
	L-419.6-90.6z"/>
<path class="st8" d="M-422.2-86.6l1-2.1v-2.1l0,0l-1,2.4l0,0l-4.1,0.1v1.8h4C-422.3-86.5-422.3-86.5-422.2-86.6L-422.2-86.6z"/>
<path class="st8" d="M-426.3-86.6h4c0.1,0,0.1-0.1,0.1-0.1v-1.7c0-0.1-0.1-0.1-0.1-0.1h-4L-426.3-86.6z"/>
<path class="st8" d="M-422.2-88.4c-0.1,0-3.6,0.1-4.1,0.1c0-0.1,0-0.1,0-0.2l1-2.2c0-0.1,0.1-0.1,0.2-0.1c0.6,0,3.4,0,3.9,0v0.1
	L-422.2-88.4z"/>
<path class="st8" d="M-412.5-90.6l1-2.1v-2.1c0,0,0,0-0.1,0l-0.9,2.4l0,0l-4.1,0.1v1.8h4C-412.6-90.5-412.6-90.5-412.5-90.6
	L-412.5-90.6z"/>
<path class="st8" d="M-416.7-90.6h4c0.1,0,0.1-0.1,0.1-0.1v-1.7c0-0.1-0.1-0.1-0.1-0.1h-4V-90.6z"/>
<path class="st8" d="M-412.6-92.4c-0.1,0-3.6,0.1-4.1,0.1c0-0.1,0-0.1,0-0.2l1-2.2c0-0.1,0.1-0.1,0.2-0.1c0.6,0,3.4,0,3.9,0v0.1
	L-412.6-92.4z"/>
<path class="st8" d="M-415-88.8l1-2.1V-93l0,0l-0.9,2.4l0,0l-4.1,0.1v1.8L-415-88.8L-415-88.8L-415-88.8z"/>
<path class="st8" d="M-419.2-88.7h4c0.1,0,0.1-0.1,0.1-0.1v-1.7c0-0.1-0.1-0.1-0.1-0.1h-4V-88.7z"/>
<path class="st8" d="M-415.1-90.6c-0.1,0-3.6,0.1-4.1,0.1c0,0,0-0.1,0-0.2l1-2.2c0-0.1,0.1-0.1,0.2-0.1c0.6,0,3.4,0,3.9,0v0.1
	L-415.1-90.6z"/>
<path class="st8" d="M-417.7-86.6l1-2.1v-2.1c0,0,0,0-0.1,0l-0.9,2.4l0,0l-4.1,0.1v1.8h4C-417.8-86.5-417.8-86.5-417.7-86.6
	L-417.7-86.6z"/>
<path class="st8" d="M-421.8-86.6h4c0.1,0,0.1-0.1,0.1-0.1v-1.7c0-0.1-0.1-0.1-0.1-0.1h-4L-421.8-86.6z"/>
<path class="st8" d="M-417.7-88.4c-0.1,0-3.6,0.1-4.1,0.1c0-0.1,0-0.1,0-0.2l1-2.2c0-0.1,0.1-0.1,0.2-0.1c0.6,0,3.4,0,3.9,0v0.1
	L-417.7-88.4z"/>
<path class="st8" d="M-408-90.6l0.9-2.1v-2.1c0,0,0,0,0,0l-0.9,2.4l0,0l-4.1,0.1v1.8h4C-408.1-90.5-408.1-90.5-408-90.6L-408-90.6z"
	/>
<path class="st8" d="M-412.1-90.6h4c0.1,0,0.1-0.1,0.1-0.1v-1.7c0-0.1-0.1-0.1-0.1-0.1h-4V-90.6z"/>
<path class="st8" d="M-408-92.4c-0.1,0-3.6,0.1-4.1,0.1c0-0.1,0-0.1,0-0.2l1-2.2c0-0.1,0.1-0.1,0.2-0.1c0.6,0,3.4,0,3.9,0v0.1
	L-408-92.4z"/>
<path class="st8" d="M-410.5-88.8l1-2.1V-93l0,0l-1,2.4l0,0l-4.1,0.1v1.8h4L-410.5-88.8L-410.5-88.8z"/>
<path class="st8" d="M-414.6-88.7h4c0.1,0,0.1-0.1,0.1-0.1v-1.7c0-0.1-0.1-0.1-0.1-0.1h-4V-88.7z"/>
<path class="st8" d="M-410.5-90.6c-0.1,0-3.6,0.1-4.1,0.1c0,0,0-0.1,0-0.2l1-2.2c0-0.1,0.1-0.1,0.2-0.1c0.6,0,3.4,0,3.9,0v0.1
	L-410.5-90.6z"/>
<path class="st8" d="M-413.1-86.6l1-2.1v-2.1l0,0l-1,2.4l0,0l-4.1,0.1v1.8h4L-413.1-86.6L-413.1-86.6z"/>
<path class="st8" d="M-417.3-86.6h4c0.1,0,0.1-0.1,0.1-0.1v-1.7c0-0.1-0.1-0.1-0.1-0.1h-4L-417.3-86.6z"/>
<path class="st8" d="M-413.2-88.4c-0.1,0-3.6,0.1-4.1,0.1c0-0.1,0-0.1,0-0.2l0.9-2.2c0-0.1,0.1-0.1,0.2-0.1c0.6,0,3.4,0,3.9,0v0.1
	L-413.2-88.4z"/>
<path class="st8" d="M-403.5-90.6l1-2.1v-2.1c0,0,0,0-0.1,0l-0.9,2.4l0,0l-4.1,0.1v1.8h4C-403.5-90.6-403.5-90.6-403.5-90.6
	L-403.5-90.6z"/>
<path class="st8" d="M-407.6-90.6h4c0.1,0,0.1-0.1,0.1-0.1v-1.7c0-0.1-0.1-0.1-0.1-0.1h-4V-90.6z"/>
<path class="st8" d="M-403.5-92.4c-0.1,0-3.6,0.1-4.1,0.1c0-0.1,0-0.1,0-0.2l1-2.2c0-0.1,0.1-0.1,0.2-0.1c0.6,0,3.4,0,3.9,0v0.1
	L-403.5-92.4z"/>
<path class="st8" d="M-405.9-88.8l1-2.1V-93l0,0l-0.9,2.4l0,0l-4.1,0.1v1.8L-405.9-88.8L-405.9-88.8L-405.9-88.8z"/>
<path class="st8" d="M-410.1-88.7h4c0.1,0,0.1-0.1,0.1-0.1v-1.7c0-0.1-0.1-0.1-0.1-0.1h-4V-88.7z"/>
<path class="st8" d="M-406-90.6c-0.1,0-3.6,0.1-4.1,0.1c0,0,0-0.1,0-0.2l1-2.2c0-0.1,0.1-0.1,0.2-0.1c0.6,0,3.4,0,3.9,0v0.1
	L-406-90.6z"/>
<path class="st8" d="M-408.6-86.6l1-2.1v-2.1c0,0,0,0,0,0l-1,2.4l0,0l-4.1,0.1v1.8h4L-408.6-86.6L-408.6-86.6z"/>
<path class="st8" d="M-412.7-86.6h4c0.1,0,0.1-0.1,0.1-0.1v-1.7c0-0.1-0.1-0.1-0.1-0.1h-4L-412.7-86.6z"/>
<path class="st8" d="M-408.6-88.4c-0.1,0-3.6,0.1-4.1,0.1c0-0.1,0-0.1,0-0.2l1-2.2c0-0.1,0.1-0.1,0.2-0.1c0.6,0,3.4,0,3.9,0v0.1
	L-408.6-88.4z"/>
<path class="st8" d="M-398.9-90.6l1-2.1v-2.1l0,0l-0.9,2.4l0,0l-4.1,0.1v1.8h4C-399-90.5-399-90.5-398.9-90.6L-398.9-90.6z"/>
<path class="st8" d="M-403.1-90.6h4c0.1,0,0.1-0.1,0.1-0.1v-1.7c0-0.1-0.1-0.1-0.1-0.1h-4V-90.6z"/>
<path class="st8" d="M-399-92.4c-0.1,0-3.6,0.1-4.1,0.1c0-0.1,0-0.1,0-0.2l1-2.2c0-0.1,0.1-0.1,0.2-0.1c0.6,0,3.4,0,3.9,0v0.1
	L-399-92.4z"/>
<path class="st8" d="M-401.4-88.8l1-2.1V-93l-1,2.4l0,0l-4.1,0.1v1.8h4L-401.4-88.8L-401.4-88.8z"/>
<path class="st8" d="M-405.5-88.7h4c0.1,0,0.1-0.1,0.1-0.1v-1.7c0-0.1-0.1-0.1-0.1-0.1h-4V-88.7z"/>
<path class="st8" d="M-401.5-90.6c-0.1,0-3.6,0.1-4.1,0.1c0,0,0-0.1,0-0.2l1-2.2c0-0.1,0.1-0.1,0.2-0.1c0.6,0,3.4,0,3.9,0v0.1
	L-401.5-90.6z"/>
<path class="st8" d="M-404.1-86.6l1-2.1v-2.1c0,0,0,0,0,0l-1,2.4l0,0l-4.1,0.1v1.8h4L-404.1-86.6L-404.1-86.6z"/>
<path class="st8" d="M-408.2-86.6h4c0.1,0,0.1-0.1,0.1-0.1v-1.7c0-0.1-0.1-0.1-0.1-0.1h-4L-408.2-86.6z"/>
<path class="st8" d="M-404.1-88.4c-0.1,0-3.6,0.1-4.1,0.1c0-0.1,0-0.1,0-0.2l1-2.2c0-0.1,0.1-0.1,0.2-0.1c0.6,0,3.4,0,3.9,0v0.1
	L-404.1-88.4z"/>
<path class="st8" d="M-394.4-90.6l1-2.1v-2.1l0,0l-0.9,2.4l0,0l-4.1,0.1v1.8L-394.4-90.6C-394.4-90.5-394.4-90.5-394.4-90.6
	L-394.4-90.6z"/>
<path class="st8" d="M-398.5-90.6h4c0.1,0,0.1-0.1,0.1-0.1v-1.7c0-0.1-0.1-0.1-0.1-0.1h-4V-90.6z"/>
<path class="st8" d="M-394.5-92.4c-0.1,0-3.6,0.1-4.1,0.1c0-0.1,0-0.1,0-0.2l1-2.2c0-0.1,0.1-0.1,0.2-0.1c0.6,0,3.4,0,3.9,0v0.1
	L-394.5-92.4z"/>
<path class="st8" d="M-396.9-88.8l1-2.1V-93l-0.9,2.4l0,0l-4.1,0.1v1.8h4L-396.9-88.8L-396.9-88.8z"/>
<path class="st8" d="M-401-88.7h4c0.1,0,0.1-0.1,0.1-0.1v-1.7c0-0.1-0.1-0.1-0.1-0.1h-4V-88.7z"/>
<path class="st8" d="M-396.9-90.6c-0.1,0-3.6,0.1-4.1,0.1c0,0,0-0.1,0-0.2l1-2.2c0-0.1,0.1-0.1,0.2-0.1c0.6,0,3.4,0,3.9,0v0.1
	L-396.9-90.6z"/>
<path class="st8" d="M-399.5-86.6l1-2.1v-2.1c0,0,0,0-0.1,0l-0.9,2.4l0,0l-4.1,0.1v1.8h4L-399.5-86.6L-399.5-86.6z"/>
<path class="st8" d="M-403.6-86.6h4c0.1,0,0.1-0.1,0.1-0.1v-1.7c0-0.1-0.1-0.1-0.1-0.1h-4L-403.6-86.6z"/>
<path class="st8" d="M-399.5-88.4c-0.1,0-3.6,0.1-4.1,0.1c0-0.1,0-0.1,0-0.2l1-2.2c0-0.1,0.1-0.1,0.2-0.1c0.6,0,3.4,0,3.9,0v0.1
	L-399.5-88.4z"/>
<path class="st8" d="M-389.8-90.6l1-2.1v-2.1l0,0l-0.9,2.4l0,0l-4.1,0.1v1.8L-389.8-90.6C-389.9-90.5-389.8-90.5-389.8-90.6
	L-389.8-90.6z"/>
<path class="st8" d="M-394-90.6h4c0.1,0,0.1-0.1,0.1-0.1v-1.7c0-0.1-0.1-0.1-0.1-0.1h-4V-90.6z"/>
<path class="st8" d="M-389.9-92.4c-0.1,0-3.6,0.1-4.1,0.1c0-0.1,0-0.1,0-0.2l1-2.2c0-0.1,0.1-0.1,0.2-0.1c0.6,0,3.4,0,3.9,0v0.1
	L-389.9-92.4z"/>
<path class="st8" d="M-392.3-88.8l0.9-2.1V-93l-0.9,2.4l0,0l-4.1,0.1v1.8h4L-392.3-88.8L-392.3-88.8z"/>
<path class="st8" d="M-396.5-88.7h4c0.1,0,0.1-0.1,0.1-0.1v-1.7c0-0.1-0.1-0.1-0.1-0.1h-4V-88.7z"/>
<path class="st8" d="M-392.4-90.6c-0.1,0-3.6,0.1-4.1,0.1c0,0,0-0.1,0-0.2l1-2.2c0-0.1,0.1-0.1,0.2-0.1c0.6,0,3.4,0,3.9,0v0.1
	L-392.4-90.6z"/>
<path class="st8" d="M-395-86.6l1-2.1v-2.1c0,0,0,0-0.1,0l-0.9,2.4l0,0l-4.1,0.1v1.8h4L-395-86.6L-395-86.6z"/>
<path class="st8" d="M-399.1-86.6h4c0.1,0,0.1-0.1,0.1-0.1v-1.7c0-0.1-0.1-0.1-0.1-0.1h-4L-399.1-86.6z"/>
<path class="st8" d="M-395-88.4c-0.1,0-3.6,0.1-4.1,0.1c0-0.1,0-0.1,0-0.2l0.9-2.2c0-0.1,0.1-0.1,0.2-0.1c0.6,0,3.4,0,3.9,0v0.1
	L-395-88.4z"/>
<path class="st8" d="M-385.3-90.6l1-2.1v-2.1l0,0l-0.9,2.4l0,0l-4.1,0.1v1.8L-385.3-90.6C-385.3-90.5-385.3-90.5-385.3-90.6
	L-385.3-90.6z"/>
<path class="st8" d="M-389.5-90.6h4c0.1,0,0.1-0.1,0.1-0.1v-1.7c0-0.1-0.1-0.1-0.1-0.1h-4V-90.6z"/>
<path class="st8" d="M-385.3-92.4c-0.1,0-3.6,0.1-4.1,0.1c0-0.1,0-0.1,0-0.2l1-2.2c0-0.1,0.1-0.1,0.2-0.1c0.6,0,3.4,0,3.9,0v0.1
	L-385.3-92.4z"/>
<path class="st8" d="M-387.8-88.8l1-2.1V-93l0,0l-0.9,2.4l0,0l-4.1,0.1v1.8L-387.8-88.8L-387.8-88.8L-387.8-88.8z"/>
<path class="st8" d="M-391.9-88.7h4c0.1,0,0.1-0.1,0.1-0.1v-1.7c0-0.1-0.1-0.1-0.1-0.1h-4V-88.7z"/>
<path class="st8" d="M-387.8-90.6c-0.1,0-3.6,0.1-4.1,0.1c0,0,0-0.1,0-0.2l0.9-2.2c0-0.1,0.1-0.1,0.2-0.1c0.6,0,3.4,0,3.9,0v0.1
	L-387.8-90.6z"/>
<path class="st8" d="M-390.5-86.6l1-2.1v-2.1l0,0l-1,2.4l0,0l-4.1,0.1v1.8h4L-390.5-86.6L-390.5-86.6z"/>
<path class="st8" d="M-394.6-86.6h4c0.1,0,0.1-0.1,0.1-0.1v-1.7c0-0.1-0.1-0.1-0.1-0.1h-4L-394.6-86.6z"/>
<path class="st8" d="M-390.5-88.4c-0.1,0-3.6,0.1-4.1,0.1c0-0.1,0-0.1,0-0.2l1-2.2c0-0.1,0.1-0.1,0.2-0.1c0.6,0,3.4,0,3.9,0v0.1
	L-390.5-88.4z"/>
<path class="st8" d="M-380.8-90.6l1-2.1v-2.1l0,0l-0.9,2.4l0,0l-4.1,0.1v1.8L-380.8-90.6C-380.8-90.5-380.7-90.5-380.8-90.6
	L-380.8-90.6z"/>
<path class="st8" d="M-384.9-90.6h4c0.1,0,0.1-0.1,0.1-0.1v-1.7c0-0.1-0.1-0.1-0.1-0.1h-4V-90.6z"/>
<path class="st8" d="M-380.8-92.4c-0.1,0-3.6,0.1-4.1,0.1c0-0.1,0-0.1,0-0.2l1-2.2c0-0.1,0.1-0.1,0.2-0.1c0.6,0,3.4,0,3.9,0v0.1
	L-380.8-92.4z"/>
<path class="st8" d="M-383.2-88.8l1-2.1V-93l-0.9,2.4l0,0l-4.1,0.1v1.8h4L-383.2-88.8L-383.2-88.8z"/>
<path class="st8" d="M-387.4-88.7h4c0.1,0,0.1-0.1,0.1-0.1v-1.7c0-0.1-0.1-0.1-0.1-0.1h-4V-88.7z"/>
<path class="st8" d="M-383.3-90.6c-0.1,0-3.6,0.1-4.1,0.1c0,0,0-0.1,0-0.2l1-2.2c0-0.1,0.1-0.1,0.2-0.1c0.6,0,3.4,0,3.9,0v0.1
	L-383.3-90.6z"/>
<path class="st8" d="M-385.9-86.6l1-2.1v-2.1l0,0l-1,2.4l0,0l-4.1,0.1v1.8h4L-385.9-86.6L-385.9-86.6z"/>
<path class="st8" d="M-390-86.6h4c0.1,0,0.1-0.1,0.1-0.1v-1.7c0-0.1-0.1-0.1-0.1-0.1h-4L-390-86.6z"/>
<path class="st8" d="M-385.9-88.4c-0.1,0-3.6,0.1-4.1,0.1c0-0.1,0-0.1,0-0.2l1-2.2c0-0.1,0.1-0.1,0.2-0.1c0.6,0,3.4,0,3.9,0v0.1
	L-385.9-88.4z"/>
<path class="st8" d="M-376.2-90.6l1-2.1v-2.1l0,0l-0.9,2.4l0,0l-4.1,0.1v1.8L-376.2-90.6C-376.2-90.5-376.2-90.5-376.2-90.6
	L-376.2-90.6z"/>
<path class="st8" d="M-380.4-90.6h4c0.1,0,0.1-0.1,0.1-0.1v-1.7c0-0.1-0.1-0.1-0.1-0.1h-4V-90.6z"/>
<path class="st8" d="M-376.3-92.4c-0.1,0-3.6,0.1-4.1,0.1c0-0.1,0-0.1,0-0.2l1-2.2c0-0.1,0.1-0.1,0.2-0.1c0.6,0,3.4,0,3.9,0v0.1
	L-376.3-92.4z"/>
<path class="st8" d="M-378.7-88.8l1-2.1V-93l0,0l-0.9,2.4l0,0l-4.1,0.1v1.8L-378.7-88.8L-378.7-88.8L-378.7-88.8z"/>
<path class="st8" d="M-382.8-88.7h4c0.1,0,0.1-0.1,0.1-0.1v-1.7c0-0.1-0.1-0.1-0.1-0.1h-4V-88.7z"/>
<path class="st8" d="M-378.7-90.6c-0.1,0-3.6,0.1-4.1,0.1c0,0,0-0.1,0-0.2l1-2.2c0-0.1,0.1-0.1,0.2-0.1c0.6,0,3.4,0,3.9,0v0.1
	L-378.7-90.6z"/>
<path class="st8" d="M-381.4-86.6l1-2.1v-2.1l0,0l-1,2.4l0,0h-4.1v1.8h4L-381.4-86.6L-381.4-86.6z"/>
<path class="st8" d="M-385.5-86.6h4c0.1,0,0.1-0.1,0.1-0.1v-1.7c0-0.1-0.1-0.1-0.1-0.1h-4V-86.6z"/>
<path class="st8" d="M-381.4-88.4c-0.1,0-3.6,0.1-4.1,0.1c0-0.1,0-0.1,0-0.2l1-2.2c0-0.1,0.1-0.1,0.2-0.1c0.6,0,3.4,0,3.9,0v0.1
	L-381.4-88.4z"/>
<path class="st8" d="M-371.7-90.6l1-2.1v-2.1l0,0l-0.9,2.4l0,0l-4.1,0.1v1.8L-371.7-90.6C-371.7-90.5-371.7-90.5-371.7-90.6
	L-371.7-90.6z"/>
<path class="st8" d="M-375.8-90.6h4c0.1,0,0.1-0.1,0.1-0.1v-1.7c0-0.1-0.1-0.1-0.1-0.1h-4V-90.6z"/>
<path class="st8" d="M-371.7-92.4c-0.1,0-3.6,0.1-4.1,0.1c0-0.1,0-0.1,0-0.2l1-2.2c0-0.1,0.1-0.1,0.2-0.1c0.6,0,3.4,0,3.9,0v0.1
	L-371.7-92.4z"/>
<path class="st8" d="M-374.2-88.8l0.9-2.1V-93l-0.9,2.4l0,0l-4.1,0.1v1.8h4L-374.2-88.8L-374.2-88.8z"/>
<path class="st8" d="M-378.3-88.7h4c0.1,0,0.1-0.1,0.1-0.1v-1.7c0-0.1-0.1-0.1-0.1-0.1h-4V-88.7z"/>
<path class="st8" d="M-374.2-90.6c-0.1,0-3.6,0.1-4.1,0.1c0,0,0-0.1,0-0.2l0.9-2.2c0-0.1,0.1-0.1,0.2-0.1c0.6,0,3.4,0,3.9,0v0.1
	L-374.2-90.6z"/>
<path class="st8" d="M-376.8-86.6l1-2.1v-2.1c0,0,0,0,0,0l-1,2.4l0,0l-4.1,0.1v1.8h4L-376.8-86.6L-376.8-86.6z"/>
<path class="st8" d="M-380.9-86.6h4c0.1,0,0.1-0.1,0.1-0.1v-1.7c0-0.1-0.1-0.1-0.1-0.1h-4L-380.9-86.6z"/>
<path class="st8" d="M-376.8-88.4c-0.1,0-3.6,0.1-4.1,0.1c0-0.1,0-0.1,0-0.2l0.9-2.2c0-0.1,0.1-0.1,0.2-0.1c0.6,0,3.4,0,3.9,0v0.1
	L-376.8-88.4z"/>
<path class="st8" d="M-367.1-90.6l1-2.1v-2.1l0,0l-0.9,2.4l0,0l-4.1,0.1v1.8L-367.1-90.6C-367.2-90.5-367.1-90.5-367.1-90.6
	L-367.1-90.6z"/>
<path class="st8" d="M-371.3-90.6h4c0.1,0,0.1-0.1,0.1-0.1v-1.7c0-0.1-0.1-0.1-0.1-0.1h-4V-90.6z"/>
<path class="st8" d="M-367.2-92.4c-0.1,0-3.6,0.1-4.1,0.1c0-0.1,0-0.1,0-0.2l1-2.2c0-0.1,0.1-0.1,0.2-0.1c0.6,0,3.4,0,3.9,0v0.1
	L-367.2-92.4z"/>
<path class="st8" d="M-369.6-88.8l1-2.1V-93l0,0l-0.9,2.4l0,0l-4.1,0.1v1.8L-369.6-88.8L-369.6-88.8L-369.6-88.8z"/>
<path class="st8" d="M-373.8-88.7h4c0.1,0,0.1-0.1,0.1-0.1v-1.7c0-0.1-0.1-0.1-0.1-0.1h-4V-88.7z"/>
<path class="st8" d="M-369.7-90.6c-0.1,0-3.6,0.1-4.1,0.1c0,0,0-0.1,0-0.2l1-2.2c0-0.1,0.1-0.1,0.2-0.1c0.6,0,3.4,0,3.9,0v0.1
	L-369.7-90.6z"/>
<path class="st8" d="M-372.3-86.6l1-2.1v-2.1l0,0l-1,2.4l0,0h-4.1v1.8h4L-372.3-86.6L-372.3-86.6z"/>
<path class="st8" d="M-376.4-86.6h4c0.1,0,0.1-0.1,0.1-0.1v-1.7c0-0.1-0.1-0.1-0.1-0.1h-4L-376.4-86.6z"/>
<path class="st8" d="M-372.3-88.4c-0.1,0-3.6,0.1-4.1,0.1c0-0.1,0-0.1,0-0.2l1-2.2c0-0.1,0.1-0.1,0.2-0.1c0.6,0,3.4,0,3.9,0v0.1
	L-372.3-88.4z"/>
<path class="st8" d="M-362.6-90.6l1-2.1v-2.1l0,0l-0.9,2.4l0,0l-4.1,0.1v1.8L-362.6-90.6C-362.6-90.5-362.6-90.5-362.6-90.6
	L-362.6-90.6z"/>
<path class="st8" d="M-366.7-90.6h4c0.1,0,0.1-0.1,0.1-0.1v-1.7c0-0.1-0.1-0.1-0.1-0.1h-4V-90.6z"/>
<path class="st8" d="M-362.6-92.4c-0.1,0-3.6,0.1-4.1,0.1c0-0.1,0-0.1,0-0.2l1-2.2c0-0.1,0.1-0.1,0.2-0.1c0.6,0,3.4,0,3.9,0v0.1
	L-362.6-92.4z"/>
<path class="st8" d="M-365.1-88.8l1-2.1V-93l0,0l-0.9,2.4l0,0l-4.1,0.1v1.8h4L-365.1-88.8L-365.1-88.8z"/>
<path class="st8" d="M-369.2-88.7h4c0.1,0,0.1-0.1,0.1-0.1v-1.7c0-0.1-0.1-0.1-0.1-0.1h-4V-88.7z"/>
<path class="st8" d="M-365.1-90.6c-0.1,0-3.6,0.1-4.1,0.1c0,0,0-0.1,0-0.2l1-2.2c0-0.1,0.1-0.1,0.2-0.1c0.6,0,3.4,0,3.9,0v0.1
	L-365.1-90.6z"/>
<path class="st8" d="M-367.7-86.6l1-2.1v-2.1l0,0l-1,2.4l0,0l-4.1,0.1v1.8h4L-367.7-86.6L-367.7-86.6z"/>
<path class="st8" d="M-371.9-86.6h4c0.1,0,0.1-0.1,0.1-0.1v-1.7c0-0.1-0.1-0.1-0.1-0.1h-4L-371.9-86.6z"/>
<path class="st8" d="M-367.8-88.4c-0.1,0-3.6,0.1-4.1,0.1c0-0.1,0-0.1,0-0.2l1-2.2c0-0.1,0.1-0.1,0.2-0.1c0.6,0,3.4,0,3.9,0v0.1
	L-367.8-88.4z"/>
<path class="st8" d="M-358.1-90.6l1-2.1v-2.1l0,0l-0.9,2.4l0,0l-4.1,0.1v1.8L-358.1-90.6C-358.1-90.5-358-90.5-358.1-90.6
	L-358.1-90.6z"/>
<path class="st8" d="M-362.2-90.6h4c0.1,0,0.1-0.1,0.1-0.1v-1.7c0-0.1-0.1-0.1-0.1-0.1h-4V-90.6z"/>
<path class="st8" d="M-358.1-92.4c-0.1,0-3.6,0.1-4.1,0.1c0-0.1,0-0.1,0-0.2l1-2.2c0-0.1,0.1-0.1,0.2-0.1c0.6,0,3.4,0,3.9,0v0.1
	L-358.1-92.4z"/>
<path class="st8" d="M-360.5-88.8l1-2.1V-93l0,0l-0.9,2.4l0,0l-4.1,0.1v1.8L-360.5-88.8C-360.6-88.7-360.5-88.7-360.5-88.8
	L-360.5-88.8z"/>
<path class="st8" d="M-364.7-88.7h4c0.1,0,0.1-0.1,0.1-0.1v-1.7c0-0.1-0.1-0.1-0.1-0.1h-4V-88.7z"/>
<path class="st8" d="M-360.6-90.6c-0.1,0-3.6,0.1-4.1,0.1c0,0,0-0.1,0-0.2l1-2.2c0-0.1,0.1-0.1,0.2-0.1c0.6,0,3.4,0,3.9,0v0.1
	L-360.6-90.6z"/>
<path class="st8" d="M-363.2-86.6l0.9-2.1v-2.1l0,0l-1,2.4l0,0l-4.1,0.1v1.8h4L-363.2-86.6L-363.2-86.6z"/>
<path class="st8" d="M-367.3-86.6h4c0.1,0,0.1-0.1,0.1-0.1v-1.7c0-0.1-0.1-0.1-0.1-0.1h-4L-367.3-86.6z"/>
<path class="st8" d="M-363.2-88.4c-0.1,0-3.6,0.1-4.1,0.1c0-0.1,0-0.1,0-0.2l1-2.2c0-0.1,0.1-0.1,0.2-0.1c0.6,0,3.4,0,3.9,0v0.1
	L-363.2-88.4z"/>
<path class="st8" d="M-353.5-90.6l1-2.1v-2.1c0,0,0,0-0.1,0l-0.9,2.4l0,0l-4.1,0.1v1.8h4C-353.6-90.5-353.6-90.5-353.5-90.6
	L-353.5-90.6z"/>
<path class="st8" d="M-357.7-90.6h4c0.1,0,0.1-0.1,0.1-0.1v-1.7c0-0.1-0.1-0.1-0.1-0.1h-4V-90.6z"/>
<path class="st8" d="M-353.6-92.4c-0.1,0-3.6,0.1-4.1,0.1c0-0.1,0-0.1,0-0.2l0.9-2.2c0-0.1,0.1-0.1,0.2-0.1c0.6,0,3.4,0,3.9,0v0.1
	L-353.6-92.4z"/>
<path class="st8" d="M-356-88.8l1-2.1V-93l0,0l-0.9,2.4l0,0l-4.1,0.1v1.8L-356-88.8C-356-88.7-356-88.7-356-88.8L-356-88.8z"/>
<path class="st8" d="M-360.1-88.7h4c0.1,0,0.1-0.1,0.1-0.1v-1.7c0-0.1-0.1-0.1-0.1-0.1h-4V-88.7z"/>
<path class="st8" d="M-356-90.6c-0.1,0-3.6,0.1-4.1,0.1c0,0,0-0.1,0-0.2l1-2.2c0-0.1,0.1-0.1,0.2-0.1c0.6,0,3.4,0,3.9,0v0.1
	L-356-90.6z"/>
<path class="st8" d="M-358.7-86.6l1-2.1v-2.1l0,0l-1,2.4l0,0l-4.1,0.1v1.8h4L-358.7-86.6L-358.7-86.6z"/>
<path class="st8" d="M-362.8-86.6h4c0.1,0,0.1-0.1,0.1-0.1v-1.7c0-0.1-0.1-0.1-0.1-0.1h-4L-362.8-86.6z"/>
<line class="st9" x1="-199" y1="-177.5" x2="-273.7" y2="-177.5"/>
<path class="st8" d="M-358.7-88.4c-0.1,0-3.6,0.1-4.1,0.1c0-0.1,0-0.1,0-0.2l1-2.2c0-0.1,0.1-0.1,0.2-0.1c0.6,0,3.4,0,3.9,0v0.1
	L-358.7-88.4z"/>
<line class="st9" x1="-292.5" y1="-162.2" x2="-273.7" y2="-177.5"/>
<line class="st10" x1="-381.4" y1="-86.6" x2="-381.4" y2="-86.6"/>
<path class="st11" d="M-361.2-173.6h-45.2c-2.9,0-5.2,2.3-5.2,5.2l-0.1,38.1c0,2.9,2.3,5.2,5.2,5.2c0,0,0,0,0,0h45.4
	c2.9,0,5.2-2.3,5.2-5.2c0,0,0,0,0,0l-0.1-38.1C-356-171.3-358.3-173.6-361.2-173.6L-361.2-173.6z"/>
<g id="Page-1_1_">
	<g id="Profile_1_" transform="translate(-207.000000, -586.000000)">
		<g id="Notifications_1_" transform="translate(207.000000, 586.000000)">
			<path id="Popover_1_" class="st12" d="M-269.6-154.9l-3.1,1.8c-0.9,0.5-1.6,0.1-1.6-0.9l0.1-3.6l-12.5-7.4
				c-1.5-0.9-2-2.9-1.1-4.4l9.5-16c0.9-1.5,2.9-2,4.4-1.1l29.6,17.5c1.5,0.9,2,2.9,1.1,4.4l-9.5,16c-0.9,1.5-2.9,2-4.4,1.1
				L-269.6-154.9z"/>
			<g id="Likes_1_" transform="translate(12.000000, 10.000000)">
				
					<text transform="matrix(0.8601 0.5102 -0.5102 0.8601 -282.0424 -175.5795)" class="st14" style="font-family:'ArialMT'; font-size:9.6398px;">134</text>
				<path id="btn_like_suggestion_1_" class="st14" d="M-287-178.5l-0.1-0.3c-0.7-2-1.2-3.2-1.1-4.4c0-0.9,0.3-1.6,0.8-2.1
					c0.4-0.4,1-0.6,1.6-0.5c0.3,0,0.6,0.1,0.9,0.3c0.6,0.4,1,1.1,1.1,1.8c0.6-0.3,1.4-0.3,2.1,0.1c0.3,0.2,0.5,0.4,0.7,0.6
					c0.3,0.5,0.4,1.1,0.3,1.6c-0.2,0.7-0.6,1.3-1.4,1.7c-1,0.6-2.3,0.8-4.4,1.1L-287-178.5z"/>
			</g>
		</g>
	</g>
</g>
<g id="Page-1_2_">
	<g id="Profile_2_" transform="translate(-207.000000, -586.000000)">
		<g id="Notifications_2_" transform="translate(207.000000, 586.000000)">
			<path id="Popover_2_" class="st12" d="M-229.9-168.8l-2.2-2.8c-0.7-0.8-0.3-1.6,0.7-1.7l3.5-0.3l5.7-13.3
				c0.7-1.6,2.6-2.4,4.2-1.7l17.1,7.4c1.6,0.7,2.4,2.6,1.7,4.2l-13.6,31.6c-0.7,1.6-2.6,2.4-4.2,1.7l-17.1-7.4
				c-1.6-0.7-2.4-2.6-1.7-4.2L-229.9-168.8z"/>
			<g id="Likes_2_" transform="translate(12.000000, 10.000000)">
				
					<text transform="matrix(-0.3963 0.9181 -0.9181 -0.3963 -231.3382 -180.609)" class="st14" style="font-family:'ArialMT'; font-size:9.6398px;">134</text>
				<path id="btn_like_suggestion_2_" class="st14" d="M-229-185.9l0.3-0.2c1.9-1,3-1.6,4.2-1.7c0.9-0.1,1.6,0.1,2.1,0.6
					c0.4,0.4,0.7,0.9,0.7,1.5c0,0.3,0,0.6-0.2,0.9c-0.3,0.7-0.9,1.2-1.6,1.3c0.4,0.6,0.5,1.4,0.2,2.1c-0.1,0.3-0.3,0.5-0.5,0.7
					c-0.4,0.4-1,0.6-1.6,0.5c-0.7-0.1-1.3-0.5-1.9-1.2c-0.7-0.9-1.1-2.2-1.7-4.2L-229-185.9z"/>
			</g>
		</g>
	</g>
</g>
<g id="Page-1">
	<g id="Profile" transform="translate(-207.000000, -586.000000)">
		<g id="Notifications" transform="translate(207.000000, 586.000000)">
			<path id="Popover" class="st12" d="M-237.9-159.4l-0.9,3.4c-0.3,1-1.1,1.2-1.8,0.4l-2.4-2.7l-14.1,3.3c-1.7,0.4-3.5-0.7-3.9-2.4
				l-4.3-18.1c-0.4-1.7,0.7-3.5,2.4-3.9l33.4-7.9c1.7-0.4,3.5,0.7,3.9,2.4l4.3,18.1c0.4,1.7-0.7,3.5-2.4,3.9L-237.9-159.4z"/>
			<g id="Likes" transform="translate(12.000000, 10.000000)">
				
					<text transform="matrix(0.9732 -0.2302 0.2302 0.9732 -257.7097 -176.8006)" class="st14" style="font-family:'ArialMT'; font-size:9.6398px;">134</text>
				<path id="btn_like_suggestion" class="st14" d="M-263.4-175.5l-0.3-0.2c-1.9-0.9-3.1-1.5-3.9-2.4c-0.6-0.7-0.9-1.4-0.8-2.1
					c0-0.6,0.3-1.1,0.8-1.5c0.2-0.2,0.5-0.3,0.8-0.4c0.7-0.2,1.5,0,2,0.5c0.2-0.7,0.8-1.2,1.6-1.4c0.3-0.1,0.6-0.1,0.9,0
					c0.6,0.1,1.1,0.5,1.4,1c0.4,0.6,0.4,1.4,0.2,2.2c-0.3,1.2-1.1,2.2-2.4,3.8L-263.4-175.5z"/>
			</g>
		</g>
	</g>
</g>
<ellipse class="st14" cx="-403.2" cy="-156.5" rx="1.3" ry="7.2"/>
<circle cx="-415.5" cy="-101.5" r="2.5"/>
<rect x="-367.5" y="-103.9" class="st15" width="20.9" height="2.5"/>
<polygon class="st16" points="-226.8,-162.2 -283.8,-162.2 -292.8,-162.2 -283.8,-79.3 -226.8,-79.3 -217.7,-162.2 "/>
<path class="st17" d="M-217.7-162.2c6.2-5.1,12.5-10.2,18.7-15.2c-3.1,27.7-6.2,55.3-9.4,83c-6.1,5.1-12.3,10.2-18.4,15.2
	C-223.8-106.9-220.8-134.6-217.7-162.2z"/>
<rect x="66.7" y="-165.7" class="st18" width="5.2" height="36.1"/>
<g>
	<path d="M-123.8-76.4l-2.3-5.3c15.7-7,29.4-16.9,40.7-29.5c22.2-24.6,28.6-52.7,30.4-67.3l5.7,0.7c-1.9,15.2-8.6,44.6-31.8,70.4
		C-92.9-94.2-107.3-83.8-123.8-76.4z"/>
</g>
<rect x="82" y="-153.4" transform="matrix(-1 -4.446589e-11 4.446589e-11 -1 169.1371 -270.7352)" class="st18" width="5.2" height="36.1"/>
<g>
	<path class="st19" d="M-116.8-170.8h38.7c21.9,0,35.6,11.7,35.6,29.6c0,18-13.8,29.6-35.8,29.6h-14v24.3h-24.5V-170.8z
		 M-80.9-129.3c8.3,0,13.8-4.7,13.8-11.9c0-7.2-5.5-11.9-13.8-11.9h-11.4v23.8H-80.9z"/>
</g>
<g>
	<path class="st3" d="M-52.1-178.1c1.5-1.6-1.5-8.3-4.3-10.4c-8.6-6.5-40.5,12.7-60.7,40.5c-17.5,24.2-29.3,59.2-19.2,67.5
		c3.1,2.5,7.6,2.2,11.3,1.4c-8.4-5.5,2.6-44.2,26.2-71.1c16.7-19,38.7-29.3,44.1-27.8C-54.3-177.9-52.8-177.4-52.1-178.1z"/>
	<path d="M-129.8-75.6c-3.4,0-6.1-0.9-8.2-2.6c-12.9-10.6,2.2-48.7,18.6-71.4c13.4-18.5,38.5-40.1,55.6-42.7c3.8-0.6,6.9,0,9.1,1.6
		c2.8,2.1,5.6,7.2,5.8,10.8c0.2,2.1-0.6,3.3-1.2,3.9l0,0c-0.8,0.9-2.5,1.7-5.3,0.9c-3.6-1-24.7,8.2-41.2,26.9
		c-19.7,22.4-29.7,52-28.1,63.4c0.2,1.7,0.7,2.9,1.3,3.4c1,0.6,1.5,1.8,1.2,2.9c-0.2,1.1-1.1,2-2.2,2.3
		C-126.3-75.8-128.1-75.6-129.8-75.6z M-60.9-186.8c-0.6,0-1.3,0.1-2,0.2c-12.2,1.8-35.9,18.5-51.8,40.4
		c-17.6,24.3-27.7,57-19.7,63.6c1.1,0.9,2.6,1.3,4.5,1.3c0,0,0,0,0,0c-0.3-0.8-0.5-1.7-0.6-2.7c-1.9-14.1,9.8-45.5,29.5-68
		c16.4-18.6,38-29.6,46-28.9c-0.6-1.8-2-4.3-3.2-5.2C-58.7-186.6-59.7-186.8-60.9-186.8z"/>
</g>
<rect x="33.2" y="-171.8" transform="matrix(0.9669 -0.255 0.255 0.9669 40.3779 4.8369)" class="st20" width="11.3" height="37"/>
<rect x="48.4" y="-177.2" transform="matrix(0.9993 -3.713785e-02 3.713785e-02 0.9993 5.8911 1.8967)" class="st21" width="11.3" height="39.2"/>
<path class="st22" d="M66.7-165.7c-3.4-1.7-3.8-6.4-3.9-8.3c-0.9-10.5,8.4-19.6,9.8-18.9c0.9,0.5-2.3,4.7-0.7,10.6
	c1,3.8,3,4.2,3.4,7.9c0.3,2.7-0.2,7.2-3.4,8.8C70.3-164.9,68.3-164.9,66.7-165.7z"/>
<path class="st23" d="M87.1-153.4c3.4-1.7,3.8-6.4,3.9-8.3c0.9-10.5-8.4-19.6-9.8-18.9c-0.9,0.5,2.3,4.7,0.7,10.6
	c-1,3.8-3,4.2-3.4,7.9c-0.3,2.7,0.2,7.2,3.4,8.8C83.5-152.6,85.6-152.6,87.1-153.4z"/>
<polygon class="st18" points="31.6,-180.7 39.6,-172.6 28.7,-169.8 "/>
<polygon class="st18" points="52.9,-187.6 58.9,-177.4 47.6,-177 "/>
<path class="st0" d="M-323.8,229.1l6.9-6.9c0.6-0.6,0.2-1.5-0.6-1.5h-42c-0.8,0-1.5,0.3-2.1,0.8l-8.1,7.7"/>
<path class="st24" d="M23.5-149c0,4.6,15.8,8.3,35.3,8.3s35.3-3.7,35.3-8.3v62.4c0,4.6-15.8,8.3-35.3,8.3S23.5-82,23.5-86.6V-149z"
	/>
<path class="st25" d="M58.9-140.6c4.9,0.8,14.5,1.8,25-2.4c4.3-1.7,7.8-3.9,10.4-5.9v62.4c-3.2,1.8-7.1,3.6-11.6,5
	c-9.4,3.1-17.8,3.5-23.7,3.3c8.5-13.4,8.6-22.3,6.9-28c-1.6-5.5-4.7-8.3-6.6-16.1C57.4-129.8,58.1-136.3,58.9-140.6z"/>
<path class="st26" d="M32.4-134.7c2.9,6.8,16.4,36.8,42.6,42c4.1,0.8,11.5,2.1,17.1-2c8.2-6.1,9.5-21.9,2.2-39.5"/>
<path class="st27" d="M-316.7,221.8c0.1,11.8,0.2,23.6,0.3,35.4c-2,2-4,3.9-6,5.9c-0.5-11.3-0.9-22.6-1.4-33.9
	C-321.4,226.7-319.1,224.2-316.7,221.8z"/>
<path class="st28" d="M23.5-149c0,4.6,15.8,8.3,35.3,8.3s35.3-3.7,35.3-8.3v62.4c0,4.6-15.8,8.3-35.3,8.3S23.5-82,23.5-86.6V-149z"
	/>
<path class="st24" d="M-323.8,246.1h-45.3c-0.9,0-1.6-0.7-1.6-1.6v-13.8c0-0.9,0.7-1.6,1.6-1.6h45.3c0.9,0,1.6,0.7,1.6,1.6v13.8
	C-322.2,245.4-322.9,246.1-323.8,246.1z"/>
<line class="st29" x1="-331.9" y1="233.3" x2="-327.6" y2="233.3"/>
<line class="st29" x1="-365.6" y1="237.3" x2="-327.6" y2="237.3"/>
<line class="st29" x1="-365.6" y1="241.3" x2="-327.6" y2="241.3"/>
<path class="st24" d="M-323.8,263.1h-45.3c-0.9,0-1.6-0.7-1.6-1.6v-13.8c0-0.9,0.7-1.6,1.6-1.6h45.3c0.9,0,1.6,0.7,1.6,1.6v13.8
	C-322.2,262.4-322.9,263.1-323.8,263.1z"/>
<line class="st29" x1="-331.9" y1="250.3" x2="-327.6" y2="250.3"/>
<line class="st29" x1="-365.6" y1="254.3" x2="-327.6" y2="254.3"/>
<line class="st29" x1="-365.6" y1="258.3" x2="-327.6" y2="258.3"/>
<path class="st27" d="M0.8,106.8c20.4-3.7,74.2-16.3,108.6-63.3c7.3-10,12.7-20.1,16.6-29.6C89.3,14,52.7,14.2,16.1,14.4
	C11,19.5,5.9,24.6,0.8,29.7C0.8,55.4,0.8,81.1,0.8,106.8z"/>
<path class="st24" d="M110.8,68.3H1.2c-0.6,0-1-0.4-1-1V30.2c0-0.6,0.4-1,1-1h109.6c0.6,0,1,0.4,1,1v37.1
	C111.8,67.9,111.3,68.3,110.8,68.3z"/>
<line class="st26" x1="89.5" y1="38.8" x2="99.3" y2="38.8"/>
<line class="st26" x1="11.9" y1="48" x2="99.3" y2="48"/>
<line class="st26" x1="11.9" y1="57.2" x2="99.3" y2="57.2"/>
<path class="st24" d="M110.8,107.5H1.2c-0.6,0-1-0.4-1-1V69.3c0-0.6,0.4-1,1-1h109.6c0.6,0,1,0.4,1,1v37.1
	C111.8,107,111.3,107.5,110.8,107.5z"/>
<line class="st26" x1="89.5" y1="77.9" x2="99.3" y2="77.9"/>
<line class="st26" x1="11.9" y1="87.1" x2="99.3" y2="87.1"/>
<line class="st26" x1="11.9" y1="96.3" x2="99.3" y2="96.3"/>
<path class="st27" d="M111.8,107.5c5.1-5.2,10.2-10.4,15.4-15.6c0-25.6,0-51.2,0-76.8c-5.1,5.1-10.2,10.2-15.4,15.4
	C111.8,56.1,111.8,81.8,111.8,107.5z"/>
</svg>
