<svg id="Слой_1" data-name="Слой 1" xmlns="http://www.w3.org/2000/svg" viewBox="0 0 574.07 459.6">
  <title>computer_icon</title>
  <ellipse cx="503.83" cy="45.47" rx="35.34" ry="8.35" fill="#a36473" stroke="#000" stroke-miterlimit="10" stroke-width="4"/>
  <path d="M34.12,4.46a3.44,3.44,0,0,1,2.39-1h77.54l1.54-.06a.91.91,0,0,1,.93.89s0,0,0,0v9.24s0,.42-2.35.42L26.74,14V12.62a2.12,2.12,0,0,1,.63-1.51Z" transform="translate(-1.5 1.35)" fill="#abffe5" stroke="#000" stroke-miterlimit="10" stroke-width="4"/>
  <path d="M30.93,77.55a4.68,4.68,0,0,1,2.74-.83l84.46-13.2h5c.48.19.88.58.84,2v7.19S110.8,85.58,108.1,85.58s-86.39,1.13-86.39,1.13V83.64a1.6,1.6,0,0,1,.71-1.27Z" transform="translate(-1.5 1.35)" fill="#abffe5" stroke="#000" stroke-miterlimit="10" stroke-width="4"/>
  <path d="M115.19,65.57A5.65,5.65,0,0,0,117,61.45V5a.63.63,0,0,0-.93-.56l-12.2,5.17a3.22,3.22,0,0,1-1.26.29h-2.47L31.76,11.19a4.22,4.22,0,0,0-4.18,4.21V73.52a.64.64,0,0,0,.64.64l71.88,3.29A5.27,5.27,0,0,0,104,76Z" transform="translate(-1.5 1.35)" fill="#629688" stroke="#000" stroke-miterlimit="10" stroke-width="4"/>
  <path d="M31.08,77.53a5,5,0,0,1-2.51-.67,4.49,4.49,0,0,1-2.14-4.09V14.12A4.46,4.46,0,0,1,31.2,10h70a4.08,4.08,0,0,1,4.06,4.1V73A5.2,5.2,0,0,1,104,76.46a3.65,3.65,0,0,1-2.65,1.07Z" transform="translate(-1.5 1.35)" fill="#fcd120"/>
  <path d="M101.23,12a2.11,2.11,0,0,1,2.06,2.16h0V73s0,2.53-2,2.53H31.08a2.54,2.54,0,0,1-2.65-2.76V14.12S28.52,12,31.25,12h70m.07-4h-70a6.48,6.48,0,0,0-6.82,6V72.77a6.49,6.49,0,0,0,6.21,6.76H101.4a5.7,5.7,0,0,0,4.07-1.66A7.17,7.17,0,0,0,107.29,73V14.12A6.07,6.07,0,0,0,101.37,8Z" transform="translate(-1.5 1.35)"/>
  <path d="M122.47,93.45c1-.66,1.56-1,1.56-1.31V67.76c0-.2-.58-.33-1.07-.24l-17.54,17.4c-.06,0-.12-.37-.19-.37l-82,.68c-.7,0-1.27.21-1.27.47v19.79c0,.14.32.26.73.26l80.64,1.79c.67,0,1,.47,1.49.3Z" transform="translate(-1.5 1.35)" fill="#629688" stroke="#000" stroke-linecap="round" stroke-linejoin="round" stroke-width="4"/>
  <path d="M21.84,102.12l-.27-17.23A1.42,1.42,0,0,1,23,83.45h0c11.38.08,80.18.68,80.18.68s2.43,0,2.43.64v17.42s0,.75-2.31.75H25s-3.21,0-3.21-.81" transform="translate(-1.5 1.35)" fill="#fcd120" stroke="#000" stroke-linecap="round" stroke-linejoin="round" stroke-width="4"/>
  <path d="M4.41,108.55v5.89l79.7.51a13.91,13.91,0,0,0,1.79-.07H86l18.76-7a1.33,1.33,0,0,0,.85-1.24v-6.08a1.69,1.69,0,0,1-.73.25L86.25,108.5c-.06,0-.13-.11-.19-.11l-81.67.2" transform="translate(-1.5 1.35)" fill="#68edc6" stroke="#000" stroke-linecap="round" stroke-linejoin="round" stroke-width="4"/>
  <path d="M3.52,114.49a.42.42,0,0,0,.42.41H83.28c2.25,0,2.24-.24,2.24-.24v-5.43c0-.2-2.36-.2-2.36-.2H4.22a.72.72,0,0,0-.72.72h0Z" transform="translate(-1.5 1.35)" fill="#fcd120" stroke="#000" stroke-miterlimit="10" stroke-width="4"/>
  <path d="M86.07,108.52c-2.08,0-71.24.28-81.88.28a.3.3,0,0,1-.11-.57l18.22-8.08c2.41.28,75.8.31,81.86.31a.08.08,0,0,1,0,.16Z" transform="translate(-1.5 1.35)" fill="#68edc6" stroke="#000" stroke-linecap="round" stroke-linejoin="round" stroke-width="4"/>
  <path d="M20.29,102.49l1-2.12v-2.1h0l-.94,2.41h0l-4.11.06v1.83h4.11Z" transform="translate(-1.5 1.35)" fill="#fff" stroke="#000" stroke-linecap="round" stroke-linejoin="round"/>
  <path d="M16.15,102.54h4c.12,0,.12-.07.12-.07v-1.69c0-.06-.12-.06-.12-.06h-4Z" transform="translate(-1.5 1.35)" fill="#fff" stroke="#000" stroke-linecap="round" stroke-linejoin="round"/>
  <path d="M20.26,100.68c-.11,0-3.57.09-4.11.09a.36.36,0,0,1,0-.18l1-2.22a.19.19,0,0,1,.18-.13h3.86v.08Z" transform="translate(-1.5 1.35)" fill="#fff" stroke="#000" stroke-linecap="round" stroke-linejoin="round"/>
  <path d="M17.81,104.32l1-2.11V100.1l-.94,2.42h0l-4.11.06v1.82h4.1Z" transform="translate(-1.5 1.35)" fill="#fff" stroke="#000" stroke-linecap="round" stroke-linejoin="round"/>
  <path d="M13.67,104.38h4c.11,0,.11-.07.11-.07v-1.69c0-.06-.12-.06-.12-.06h-4Z" transform="translate(-1.5 1.35)" fill="#fff" stroke="#000" stroke-linecap="round" stroke-linejoin="round"/>
  <path d="M17.78,102.52c-.11,0-3.57.08-4.1.08v-.17l.95-2.22a.2.2,0,0,1,.18-.13h3.86v.08Z" transform="translate(-1.5 1.35)" fill="#fff" stroke="#000" stroke-linecap="round" stroke-linejoin="round"/>
  <path d="M15.16,106.49l1-2.11v-2.1h0l-.95,2.42H11v1.83h4.1Z" transform="translate(-1.5 1.35)" fill="#fff" stroke="#000" stroke-linecap="round" stroke-linejoin="round"/>
  <path d="M11,106.55h4c.11,0,.11-.07.11-.07v-1.69c0-.06-.12-.06-.12-.06H11Z" transform="translate(-1.5 1.35)" fill="#fff" stroke="#000" stroke-linecap="round" stroke-linejoin="round"/>
  <path d="M15.13,104.69c-.1,0-3.57.09-4.1.09a.36.36,0,0,1,0-.18l1-2.22a.19.19,0,0,1,.17-.13h3.87v.08Z" transform="translate(-1.5 1.35)" fill="#fff" stroke="#000" stroke-linecap="round" stroke-linejoin="round"/>
  <path d="M24.83,102.49l1-2.12v-2.1h0l-.94,2.41h0l-4.11.06v1.83h4.11Z" transform="translate(-1.5 1.35)" fill="#fff" stroke="#000" stroke-linecap="round" stroke-linejoin="round"/>
  <path d="M20.69,102.54h4c.12,0,.12-.07.12-.07v-1.69c0-.06-.12-.06-.12-.06h-4Z" transform="translate(-1.5 1.35)" fill="#fff" stroke="#000" stroke-linecap="round" stroke-linejoin="round"/>
  <path d="M24.8,100.68c-.11,0-3.57.09-4.11.09a.36.36,0,0,1,0-.18l1-2.22a.19.19,0,0,1,.18-.13h3.86v.08Z" transform="translate(-1.5 1.35)" fill="#fff" stroke="#000" stroke-linecap="round" stroke-linejoin="round"/>
  <path d="M22.35,104.32l1-2.11V100.1l-.94,2.42h0l-4.11.06v1.82h4.1Z" transform="translate(-1.5 1.35)" fill="#fff" stroke="#000" stroke-linecap="round" stroke-linejoin="round"/>
  <path d="M18.21,104.38h4c.11,0,.11-.07.11-.07v-1.69c0-.06-.12-.06-.12-.06h-4Z" transform="translate(-1.5 1.35)" fill="#fff" stroke="#000" stroke-linecap="round" stroke-linejoin="round"/>
  <path d="M22.32,102.52c-.11,0-3.57.08-4.1.08v-.17l1-2.22a.2.2,0,0,1,.18-.13h3.86v.08Z" transform="translate(-1.5 1.35)" fill="#fff" stroke="#000" stroke-linecap="round" stroke-linejoin="round"/>
  <path d="M19.7,106.49l1-2.11v-2.1h0l-1,2.42h0l-4.11.06v1.83h4.1Z" transform="translate(-1.5 1.35)" fill="#fff" stroke="#000" stroke-linecap="round" stroke-linejoin="round"/>
  <path d="M15.57,106.55h4c.11,0,.11-.07.11-.07v-1.69c0-.06-.12-.06-.12-.06h-4Z" transform="translate(-1.5 1.35)" fill="#fff" stroke="#000" stroke-linecap="round" stroke-linejoin="round"/>
  <path d="M19.67,104.69c-.1,0-3.57.09-4.1.09a.36.36,0,0,1,0-.18l1-2.22a.19.19,0,0,1,.17-.13h3.87v.08Z" transform="translate(-1.5 1.35)" fill="#fff" stroke="#000" stroke-linecap="round" stroke-linejoin="round"/>
  <path d="M29.37,102.49l1-2.12v-2.1h0l-.94,2.41h0l-4.11.06v1.83h4.11Z" transform="translate(-1.5 1.35)" fill="#fff" stroke="#000" stroke-linecap="round" stroke-linejoin="round"/>
  <path d="M25.23,102.54h4c.12,0,.12-.07.12-.07v-1.69c0-.06-.12-.06-.12-.06h-4Z" transform="translate(-1.5 1.35)" fill="#fff" stroke="#000" stroke-linecap="round" stroke-linejoin="round"/>
  <path d="M29.34,100.68c-.11,0-3.57.09-4.11.09a.36.36,0,0,1,0-.18l1-2.22a.19.19,0,0,1,.18-.13h3.86v.08Z" transform="translate(-1.5 1.35)" fill="#fff" stroke="#000" stroke-linecap="round" stroke-linejoin="round"/>
  <path d="M26.89,104.32l1-2.11V100.1l-.94,2.42h0l-4.11.06v1.82h4.1Z" transform="translate(-1.5 1.35)" fill="#fff" stroke="#000" stroke-linecap="round" stroke-linejoin="round"/>
  <path d="M22.75,104.38h4c.12,0,.12-.07.12-.07v-1.69c0-.06-.12-.06-.12-.06h-4Z" transform="translate(-1.5 1.35)" fill="#fff" stroke="#000" stroke-linecap="round" stroke-linejoin="round"/>
  <path d="M26.86,102.52c-.11,0-3.57.08-4.1.08v-.17l1-2.22a.2.2,0,0,1,.18-.13h3.86v.08Z" transform="translate(-1.5 1.35)" fill="#fff" stroke="#000" stroke-linecap="round" stroke-linejoin="round"/>
  <path d="M24.24,106.49l1-2.11v-2.1h0l-1,2.42h0l-4.11.06v1.83h4.1Z" transform="translate(-1.5 1.35)" fill="#fff" stroke="#000" stroke-linecap="round" stroke-linejoin="round"/>
  <path d="M20.11,106.55h4c.11,0,.11-.07.11-.07v-1.69c0-.06-.12-.06-.12-.06h-4Z" transform="translate(-1.5 1.35)" fill="#fff" stroke="#000" stroke-linecap="round" stroke-linejoin="round"/>
  <path d="M24.21,104.69c-.1,0-3.57.09-4.1.09a.36.36,0,0,1,0-.18l1-2.22a.19.19,0,0,1,.17-.13H25.1v.08Z" transform="translate(-1.5 1.35)" fill="#fff" stroke="#000" stroke-linecap="round" stroke-linejoin="round"/>
  <path d="M33.91,102.49l1-2.12v-2.1h0l-.94,2.41h0l-4.11.06v1.83h4.1Z" transform="translate(-1.5 1.35)" fill="#fff" stroke="#000" stroke-linecap="round" stroke-linejoin="round"/>
  <path d="M29.77,102.54h4c.12,0,.12-.07.12-.07v-1.69c0-.06-.12-.06-.12-.06h-4Z" transform="translate(-1.5 1.35)" fill="#fff" stroke="#000" stroke-linecap="round" stroke-linejoin="round"/>
  <path d="M33.88,100.68c-.11,0-3.57.09-4.11.09a.36.36,0,0,1,0-.18l1-2.22a.19.19,0,0,1,.18-.13h3.86v.08Z" transform="translate(-1.5 1.35)" fill="#fff" stroke="#000" stroke-linecap="round" stroke-linejoin="round"/>
  <path d="M31.43,104.32l1-2.11V100.1h0l-.94,2.42h0l-4.11.06v1.82h4.1Z" transform="translate(-1.5 1.35)" fill="#fff" stroke="#000" stroke-linecap="round" stroke-linejoin="round"/>
  <path d="M27.29,104.38h4c.12,0,.12-.07.12-.07v-1.69c0-.06-.12-.06-.12-.06h-4Z" transform="translate(-1.5 1.35)" fill="#fff" stroke="#000" stroke-linecap="round" stroke-linejoin="round"/>
  <path d="M31.4,102.52c-.11,0-3.57.08-4.1.08v-.17l1-2.22a.2.2,0,0,1,.18-.13h3.86v.08Z" transform="translate(-1.5 1.35)" fill="#fff" stroke="#000" stroke-linecap="round" stroke-linejoin="round"/>
  <path d="M28.78,106.49l1-2.11v-2.1h0l-1,2.42h0l-4.11.06v1.83h4.1Z" transform="translate(-1.5 1.35)" fill="#fff" stroke="#000" stroke-linecap="round" stroke-linejoin="round"/>
  <path d="M24.65,106.55h4c.11,0,.11-.07.11-.07v-1.69c0-.06-.12-.06-.12-.06h-4Z" transform="translate(-1.5 1.35)" fill="#fff" stroke="#000" stroke-linecap="round" stroke-linejoin="round"/>
  <path d="M28.75,104.69c-.1,0-3.57.09-4.1.09a.36.36,0,0,1,0-.18l1-2.22a.19.19,0,0,1,.17-.13h3.87v.08Z" transform="translate(-1.5 1.35)" fill="#fff" stroke="#000" stroke-linecap="round" stroke-linejoin="round"/>
  <path d="M38.45,102.49l1-2.12v-2.1h0l-.94,2.41h0l-4.11.06v1.83h4.1Z" transform="translate(-1.5 1.35)" fill="#fff" stroke="#000" stroke-linecap="round" stroke-linejoin="round"/>
  <path d="M34.31,102.54h4c.12,0,.12-.07.12-.07v-1.69c0-.06-.12-.06-.12-.06h-4Z" transform="translate(-1.5 1.35)" fill="#fff" stroke="#000" stroke-linecap="round" stroke-linejoin="round"/>
  <path d="M38.42,100.68c-.11,0-3.57.09-4.11.09a.36.36,0,0,1,0-.18l1-2.22a.19.19,0,0,1,.18-.13H39.3v.08Z" transform="translate(-1.5 1.35)" fill="#fff" stroke="#000" stroke-linecap="round" stroke-linejoin="round"/>
  <path d="M36,104.32l1-2.11V100.1h0l-1,2.4h0l-4.11.06v1.82H36Z" transform="translate(-1.5 1.35)" fill="#fff" stroke="#000" stroke-linecap="round" stroke-linejoin="round"/>
  <path d="M31.83,104.38h4c.12,0,.12-.07.12-.07v-1.69c0-.06-.12-.06-.12-.06h-4Z" transform="translate(-1.5 1.35)" fill="#fff" stroke="#000" stroke-linecap="round" stroke-linejoin="round"/>
  <path d="M35.94,102.52c-.11,0-3.57.08-4.1.08v-.17l1-2.22a.2.2,0,0,1,.18-.13h3.86v.08Z" transform="translate(-1.5 1.35)" fill="#fff" stroke="#000" stroke-linecap="round" stroke-linejoin="round"/>
  <path d="M33.32,106.49l1-2.11v-2.1h0l-1,2.42h0l-4.11.06v1.83h4.1Z" transform="translate(-1.5 1.35)" fill="#fff" stroke="#000" stroke-linecap="round" stroke-linejoin="round"/>
  <path d="M29.19,106.55h4c.11,0,.11-.07.11-.07v-1.69c0-.06-.12-.06-.12-.06h-4Z" transform="translate(-1.5 1.35)" fill="#fff" stroke="#000" stroke-linecap="round" stroke-linejoin="round"/>
  <path d="M33.29,104.69c-.1,0-3.57.09-4.1.09a.36.36,0,0,1,0-.18l1-2.22a.19.19,0,0,1,.17-.13h3.87v.08Z" transform="translate(-1.5 1.35)" fill="#fff" stroke="#000" stroke-linecap="round" stroke-linejoin="round"/>
  <path d="M43,102.49l1-2.12v-2.1h0l-.9,2.39h0l-4.11.06v1.83H43Z" transform="translate(-1.5 1.35)" fill="#fff" stroke="#000" stroke-linecap="round" stroke-linejoin="round"/>
  <path d="M38.85,102.54h4c.12,0,.12-.07.12-.07v-1.69c0-.06-.12-.06-.12-.06h-4Z" transform="translate(-1.5 1.35)" fill="#fff" stroke="#000" stroke-linecap="round" stroke-linejoin="round"/>
  <path d="M43,100.68c-.11,0-3.57.09-4.11.09a.36.36,0,0,1,0-.18l1-2.22a.19.19,0,0,1,.18-.13h3.86v.08Z" transform="translate(-1.5 1.35)" fill="#fff" stroke="#000" stroke-linecap="round" stroke-linejoin="round"/>
  <path d="M40.51,104.32l1-2.11V100.1h0l-.94,2.42h0l-4.11.06v1.82h4.1Z" transform="translate(-1.5 1.35)" fill="#fff" stroke="#000" stroke-linecap="round" stroke-linejoin="round"/>
  <path d="M36.37,104.38h4c.12,0,.12-.07.12-.07v-1.69c0-.06-.12-.06-.12-.06h-4Z" transform="translate(-1.5 1.35)" fill="#fff" stroke="#000" stroke-linecap="round" stroke-linejoin="round"/>
  <path d="M40.48,102.52c-.11,0-3.57.08-4.1.08v-.17l1-2.22a.2.2,0,0,1,.18-.13h3.86v.08Z" transform="translate(-1.5 1.35)" fill="#fff" stroke="#000" stroke-linecap="round" stroke-linejoin="round"/>
  <path d="M37.86,106.49l1-2.11v-2.1h0l-1,2.42h0l-4.11.06v1.83h4.1Z" transform="translate(-1.5 1.35)" fill="#fff" stroke="#000" stroke-linecap="round" stroke-linejoin="round"/>
  <path d="M33.73,106.55h4c.11,0,.11-.07.11-.07v-1.69c0-.06-.12-.06-.12-.06h-4Z" transform="translate(-1.5 1.35)" fill="#fff" stroke="#000" stroke-linecap="round" stroke-linejoin="round"/>
  <path d="M37.83,104.69c-.1,0-3.57.09-4.1.09a.36.36,0,0,1,0-.18l1-2.22a.19.19,0,0,1,.17-.13h3.87v.08Z" transform="translate(-1.5 1.35)" fill="#fff" stroke="#000" stroke-linecap="round" stroke-linejoin="round"/>
  <path d="M47.53,102.49l1-2.12v-2.1h0l-.94,2.41h0l-4.11.06v1.83h4.1Z" transform="translate(-1.5 1.35)" fill="#fff" stroke="#000" stroke-linecap="round" stroke-linejoin="round"/>
  <path d="M43.39,102.54h4c.12,0,.12-.07.12-.07v-1.69c0-.06-.12-.06-.12-.06h-4Z" transform="translate(-1.5 1.35)" fill="#fff" stroke="#000" stroke-linecap="round" stroke-linejoin="round"/>
  <path d="M47.5,100.68c-.11,0-3.57.09-4.11.09a.36.36,0,0,1,0-.18l1-2.22a.19.19,0,0,1,.18-.13h3.86v.08Z" transform="translate(-1.5 1.35)" fill="#fff" stroke="#000" stroke-linecap="round" stroke-linejoin="round"/>
  <path d="M45,104.32l1-2.11V100.1l-1,2.4h0l-4.11.06v1.82H45Z" transform="translate(-1.5 1.35)" fill="#fff" stroke="#000" stroke-linecap="round" stroke-linejoin="round"/>
  <path d="M40.91,104.38h4c.12,0,.12-.07.12-.07v-1.69c0-.06-.12-.06-.12-.06h-4Z" transform="translate(-1.5 1.35)" fill="#fff" stroke="#000" stroke-linecap="round" stroke-linejoin="round"/>
  <path d="M45,102.52c-.11,0-3.57.08-4.1.08v-.17l1-2.22a.2.2,0,0,1,.18-.13h3.86v.08Z" transform="translate(-1.5 1.35)" fill="#fff" stroke="#000" stroke-linecap="round" stroke-linejoin="round"/>
  <path d="M42.4,106.49l1-2.11v-2.1h0l-1,2.42h0l-4.11.06v1.83h4.1Z" transform="translate(-1.5 1.35)" fill="#fff" stroke="#000" stroke-linecap="round" stroke-linejoin="round"/>
  <path d="M38.27,106.55h4c.11,0,.11-.07.11-.07v-1.69c0-.06-.12-.06-.12-.06h-4Z" transform="translate(-1.5 1.35)" fill="#fff" stroke="#000" stroke-linecap="round" stroke-linejoin="round"/>
  <path d="M42.37,104.69c-.1,0-3.57.09-4.1.09a.36.36,0,0,1,0-.18l1-2.22a.19.19,0,0,1,.17-.13h3.87v.08Z" transform="translate(-1.5 1.35)" fill="#fff" stroke="#000" stroke-linecap="round" stroke-linejoin="round"/>
  <path d="M52.07,102.49l1-2.12v-2.1h0l-.94,2.41h0l-4.11.06v1.83h4.1Z" transform="translate(-1.5 1.35)" fill="#fff" stroke="#000" stroke-linecap="round" stroke-linejoin="round"/>
  <path d="M47.93,102.54h4c.12,0,.12-.07.12-.07v-1.69c0-.06-.12-.06-.12-.06h-4Z" transform="translate(-1.5 1.35)" fill="#fff" stroke="#000" stroke-linecap="round" stroke-linejoin="round"/>
  <path d="M52,100.68c-.11,0-3.57.09-4.11.09a.36.36,0,0,1,0-.18l1-2.22a.19.19,0,0,1,.18-.13h3.86v.08Z" transform="translate(-1.5 1.35)" fill="#fff" stroke="#000" stroke-linecap="round" stroke-linejoin="round"/>
  <path d="M49.59,104.32l1-2.11V100.1l-.94,2.42h0l-4.11.06v1.82h4.1Z" transform="translate(-1.5 1.35)" fill="#fff" stroke="#000" stroke-linecap="round" stroke-linejoin="round"/>
  <path d="M45.45,104.38h4c.12,0,.12-.07.12-.07v-1.69c0-.06-.12-.06-.12-.06h-4Z" transform="translate(-1.5 1.35)" fill="#fff" stroke="#000" stroke-linecap="round" stroke-linejoin="round"/>
  <path d="M49.56,102.52c-.11,0-3.57.08-4.1.08v-.17l1-2.22a.2.2,0,0,1,.18-.13h3.86v.08Z" transform="translate(-1.5 1.35)" fill="#fff" stroke="#000" stroke-linecap="round" stroke-linejoin="round"/>
  <path d="M46.94,106.49l1-2.11v-2.1h0l-1,2.42h0l-4.11.06v1.83h4.1Z" transform="translate(-1.5 1.35)" fill="#fff" stroke="#000" stroke-linecap="round" stroke-linejoin="round"/>
  <path d="M42.81,106.55h4c.11,0,.11-.07.11-.07v-1.69c0-.06-.12-.06-.12-.06h-4Z" transform="translate(-1.5 1.35)" fill="#fff" stroke="#000" stroke-linecap="round" stroke-linejoin="round"/>
  <path d="M46.91,104.69c-.1,0-3.57.09-4.1.09a.36.36,0,0,1,0-.18l1-2.22a.19.19,0,0,1,.17-.13H47.8v.08Z" transform="translate(-1.5 1.35)" fill="#fff" stroke="#000" stroke-linecap="round" stroke-linejoin="round"/>
  <path d="M56.61,102.49l1-2.12v-2.1h0l-.94,2.41h0l-4.11.06v1.83h4.1Z" transform="translate(-1.5 1.35)" fill="#fff" stroke="#000" stroke-linecap="round" stroke-linejoin="round"/>
  <path d="M52.47,102.54h4c.12,0,.12-.07.12-.07v-1.69c0-.06-.12-.06-.12-.06h-4Z" transform="translate(-1.5 1.35)" fill="#fff" stroke="#000" stroke-linecap="round" stroke-linejoin="round"/>
  <path d="M56.58,100.68c-.11,0-3.57.09-4.11.09a.36.36,0,0,1,0-.18l1-2.22a.19.19,0,0,1,.18-.13h3.86v.08Z" transform="translate(-1.5 1.35)" fill="#fff" stroke="#000" stroke-linecap="round" stroke-linejoin="round"/>
  <path d="M54.13,104.32l1-2.11V100.1l-.94,2.42h0l-4.11.06v1.82h4.1Z" transform="translate(-1.5 1.35)" fill="#fff" stroke="#000" stroke-linecap="round" stroke-linejoin="round"/>
  <path d="M50,104.38h4c.12,0,.12-.07.12-.07v-1.69c0-.06-.12-.06-.12-.06H50Z" transform="translate(-1.5 1.35)" fill="#fff" stroke="#000" stroke-linecap="round" stroke-linejoin="round"/>
  <path d="M54.1,102.52c-.11,0-3.57.08-4.1.08v-.17l1-2.22a.2.2,0,0,1,.18-.13H55v.08Z" transform="translate(-1.5 1.35)" fill="#fff" stroke="#000" stroke-linecap="round" stroke-linejoin="round"/>
  <path d="M51.48,106.49l1-2.11v-2.1h0l-1,2.42h0l-4.11.06v1.83h4.1Z" transform="translate(-1.5 1.35)" fill="#fff" stroke="#000" stroke-linecap="round" stroke-linejoin="round"/>
  <path d="M47.35,106.55h4c.11,0,.11-.07.11-.07v-1.69c0-.06-.12-.06-.12-.06h-4Z" transform="translate(-1.5 1.35)" fill="#fff" stroke="#000" stroke-linecap="round" stroke-linejoin="round"/>
  <path d="M51.45,104.69c-.1,0-3.57.09-4.1.09a.36.36,0,0,1,0-.18l1-2.22a.19.19,0,0,1,.17-.13h3.87v.08Z" transform="translate(-1.5 1.35)" fill="#fff" stroke="#000" stroke-linecap="round" stroke-linejoin="round"/>
  <path d="M61.15,102.49l1-2.12v-2.1h0l-.94,2.41h0l-4.11.06v1.83h4.1Z" transform="translate(-1.5 1.35)" fill="#fff" stroke="#000" stroke-linecap="round" stroke-linejoin="round"/>
  <path d="M57,102.54h4c.12,0,.12-.07.12-.07v-1.69c0-.06-.12-.06-.12-.06H57Z" transform="translate(-1.5 1.35)" fill="#fff" stroke="#000" stroke-linecap="round" stroke-linejoin="round"/>
  <path d="M61.12,100.68c-.11,0-3.57.09-4.11.09a.36.36,0,0,1,0-.18l1-2.22a.19.19,0,0,1,.18-.13H62v.08Z" transform="translate(-1.5 1.35)" fill="#fff" stroke="#000" stroke-linecap="round" stroke-linejoin="round"/>
  <path d="M58.67,104.32l1-2.11V100.1h0l-.94,2.42h0l-4.11.06v1.82h4.1Z" transform="translate(-1.5 1.35)" fill="#fff" stroke="#000" stroke-linecap="round" stroke-linejoin="round"/>
  <path d="M54.53,104.38h4c.12,0,.12-.07.12-.07v-1.69c0-.06-.12-.06-.12-.06h-4Z" transform="translate(-1.5 1.35)" fill="#fff" stroke="#000" stroke-linecap="round" stroke-linejoin="round"/>
  <path d="M58.64,102.52c-.11,0-3.57.08-4.1.08v-.17l1-2.22a.2.2,0,0,1,.18-.13h3.86v.08Z" transform="translate(-1.5 1.35)" fill="#fff" stroke="#000" stroke-linecap="round" stroke-linejoin="round"/>
  <path d="M56,106.49l1-2.11v-2.1h0l-1,2.42h0l-4.11.06v1.83h4.1Z" transform="translate(-1.5 1.35)" fill="#fff" stroke="#000" stroke-linecap="round" stroke-linejoin="round"/>
  <path d="M51.89,106.55h4c.11,0,.11-.07.11-.07v-1.69c0-.06-.12-.06-.12-.06h-4Z" transform="translate(-1.5 1.35)" fill="#fff" stroke="#000" stroke-linecap="round" stroke-linejoin="round"/>
  <path d="M56,104.69c-.1,0-3.57.09-4.1.09a.36.36,0,0,1,0-.18l1-2.22a.19.19,0,0,1,.17-.13h3.87v.08Z" transform="translate(-1.5 1.35)" fill="#fff" stroke="#000" stroke-linecap="round" stroke-linejoin="round"/>
  <path d="M65.69,102.49l1-2.12v-2.1h0l-.94,2.41h0l-4.11.06v1.83h4.1Z" transform="translate(-1.5 1.35)" fill="#fff" stroke="#000" stroke-linecap="round" stroke-linejoin="round"/>
  <path d="M61.55,102.54h4c.12,0,.12-.07.12-.07v-1.69c0-.06-.12-.06-.12-.06h-4Z" transform="translate(-1.5 1.35)" fill="#fff" stroke="#000" stroke-linecap="round" stroke-linejoin="round"/>
  <path d="M65.66,100.68c-.11,0-3.57.09-4.11.09a.36.36,0,0,1,0-.18l1-2.22a.19.19,0,0,1,.17-.13h3.87v.08Z" transform="translate(-1.5 1.35)" fill="#fff" stroke="#000" stroke-linecap="round" stroke-linejoin="round"/>
  <path d="M63.21,104.32l.95-2.11V100.1l-.94,2.42h0l-4.11.06v1.82h4.1Z" transform="translate(-1.5 1.35)" fill="#fff" stroke="#000" stroke-linecap="round" stroke-linejoin="round"/>
  <path d="M59.07,104.38h4c.12,0,.12-.07.12-.07v-1.69c0-.06-.12-.06-.12-.06h-4Z" transform="translate(-1.5 1.35)" fill="#fff" stroke="#000" stroke-linecap="round" stroke-linejoin="round"/>
  <path d="M63.18,102.52c-.11,0-3.57.08-4.1.08v-.17l1-2.22a.2.2,0,0,1,.18-.13h3.86v.08Z" transform="translate(-1.5 1.35)" fill="#fff" stroke="#000" stroke-linecap="round" stroke-linejoin="round"/>
  <path d="M60.56,106.49l1-2.11v-2.1h0l-1,2.42h0l-4.11.06v1.83h4.1Z" transform="translate(-1.5 1.35)" fill="#fff" stroke="#000" stroke-linecap="round" stroke-linejoin="round"/>
  <path d="M56.43,106.55h4c.11,0,.11-.07.11-.07v-1.69c0-.06-.12-.06-.12-.06h-4Z" transform="translate(-1.5 1.35)" fill="#fff" stroke="#000" stroke-linecap="round" stroke-linejoin="round"/>
  <path d="M60.53,104.69c-.1,0-3.57.09-4.1.09a.36.36,0,0,1,0-.18l1-2.22a.19.19,0,0,1,.17-.13h3.87v.08Z" transform="translate(-1.5 1.35)" fill="#fff" stroke="#000" stroke-linecap="round" stroke-linejoin="round"/>
  <path d="M70.23,102.49l1-2.12v-2.1h0l-.94,2.41h0l-4.11.06v1.83h4.1Z" transform="translate(-1.5 1.35)" fill="#fff" stroke="#000" stroke-linecap="round" stroke-linejoin="round"/>
  <path d="M66.09,102.54h4c.12,0,.12-.07.12-.07v-1.69c0-.06-.12-.06-.12-.06h-4Z" transform="translate(-1.5 1.35)" fill="#fff" stroke="#000" stroke-linecap="round" stroke-linejoin="round"/>
  <path d="M70.2,100.68c-.11,0-3.57.09-4.11.09a.36.36,0,0,1,0-.18l1-2.22a.19.19,0,0,1,.17-.13h3.87v.08Z" transform="translate(-1.5 1.35)" fill="#fff" stroke="#000" stroke-linecap="round" stroke-linejoin="round"/>
  <path d="M67.75,104.32l1-2.11V100.1h0l-.94,2.42h0l-4.11.06v1.82h4.1Z" transform="translate(-1.5 1.35)" fill="#fff" stroke="#000" stroke-linecap="round" stroke-linejoin="round"/>
  <path d="M63.61,104.38h4c.12,0,.12-.07.12-.07v-1.69c0-.06-.12-.06-.12-.06h-4Z" transform="translate(-1.5 1.35)" fill="#fff" stroke="#000" stroke-linecap="round" stroke-linejoin="round"/>
  <path d="M67.72,102.52c-.11,0-3.57.08-4.1.08v-.17l1-2.22a.2.2,0,0,1,.18-.13h3.86v.08Z" transform="translate(-1.5 1.35)" fill="#fff" stroke="#000" stroke-linecap="round" stroke-linejoin="round"/>
  <path d="M65.1,106.49l1-2.11v-2.1h0l-1,2.42H61v1.83h4.1Z" transform="translate(-1.5 1.35)" fill="#fff" stroke="#000" stroke-linecap="round" stroke-linejoin="round"/>
  <path d="M61,106.55h4c.11,0,.11-.07.11-.07v-1.69c0-.06-.12-.06-.12-.06H61Z" transform="translate(-1.5 1.35)" fill="#fff" stroke="#000" stroke-linecap="round" stroke-linejoin="round"/>
  <path d="M65.07,104.69c-.1,0-3.57.09-4.1.09a.36.36,0,0,1,0-.18l1-2.22a.19.19,0,0,1,.17-.13H66v.08Z" transform="translate(-1.5 1.35)" fill="#fff" stroke="#000" stroke-linecap="round" stroke-linejoin="round"/>
  <path d="M74.77,102.49l1-2.12v-2.1h0l-.94,2.41h0l-4.11.06v1.83h4.1Z" transform="translate(-1.5 1.35)" fill="#fff" stroke="#000" stroke-linecap="round" stroke-linejoin="round"/>
  <path d="M70.63,102.54h4c.12,0,.12-.07.12-.07v-1.69c0-.06-.12-.06-.12-.06h-4Z" transform="translate(-1.5 1.35)" fill="#fff" stroke="#000" stroke-linecap="round" stroke-linejoin="round"/>
  <path d="M74.74,100.68c-.11,0-3.57.09-4.11.09a.36.36,0,0,1,0-.18l1-2.22a.19.19,0,0,1,.17-.13h3.87v.08Z" transform="translate(-1.5 1.35)" fill="#fff" stroke="#000" stroke-linecap="round" stroke-linejoin="round"/>
  <path d="M72.29,104.32l.95-2.11V100.1l-.94,2.42h0l-4.11.06v1.82h4.1Z" transform="translate(-1.5 1.35)" fill="#fff" stroke="#000" stroke-linecap="round" stroke-linejoin="round"/>
  <path d="M68.15,104.38h4c.12,0,.12-.07.12-.07v-1.69c0-.06-.12-.06-.12-.06h-4Z" transform="translate(-1.5 1.35)" fill="#fff" stroke="#000" stroke-linecap="round" stroke-linejoin="round"/>
  <path d="M72.26,102.52c-.11,0-3.57.08-4.1.08v-.17l.95-2.22a.2.2,0,0,1,.18-.13h3.86v.08Z" transform="translate(-1.5 1.35)" fill="#fff" stroke="#000" stroke-linecap="round" stroke-linejoin="round"/>
  <path d="M69.64,106.49l1-2.11v-2.1h-.05l-.95,2.42h0l-4.11.06v1.83h4.1Z" transform="translate(-1.5 1.35)" fill="#fff" stroke="#000" stroke-linecap="round" stroke-linejoin="round"/>
  <path d="M65.51,106.55h4c.11,0,.11-.07.11-.07v-1.69c0-.06-.12-.06-.12-.06h-4Z" transform="translate(-1.5 1.35)" fill="#fff" stroke="#000" stroke-linecap="round" stroke-linejoin="round"/>
  <path d="M69.61,104.69c-.1,0-3.57.09-4.1.09a.36.36,0,0,1,0-.18l.95-2.22a.19.19,0,0,1,.17-.13H70.5v.08Z" transform="translate(-1.5 1.35)" fill="#fff" stroke="#000" stroke-linecap="round" stroke-linejoin="round"/>
  <path d="M79.31,102.49l1-2.12v-2.1h0l-.94,2.41h0l-4.11.06v1.83h4.1Z" transform="translate(-1.5 1.35)" fill="#fff" stroke="#000" stroke-linecap="round" stroke-linejoin="round"/>
  <path d="M75.17,102.54h4c.12,0,.12-.07.12-.07v-1.69c0-.06-.12-.06-.12-.06h-4Z" transform="translate(-1.5 1.35)" fill="#fff" stroke="#000" stroke-linecap="round" stroke-linejoin="round"/>
  <path d="M79.28,100.68c-.11,0-3.57.09-4.11.09a.36.36,0,0,1,0-.18l1-2.22a.19.19,0,0,1,.17-.13h3.87v.08Z" transform="translate(-1.5 1.35)" fill="#fff" stroke="#000" stroke-linecap="round" stroke-linejoin="round"/>
  <path d="M76.83,104.32l1-2.11V100.1h0l-.94,2.42h0l-4.11.06v1.82h4.1Z" transform="translate(-1.5 1.35)" fill="#fff" stroke="#000" stroke-linecap="round" stroke-linejoin="round"/>
  <path d="M72.69,104.38h4c.12,0,.12-.07.12-.07v-1.69c0-.06-.12-.06-.12-.06h-4Z" transform="translate(-1.5 1.35)" fill="#fff" stroke="#000" stroke-linecap="round" stroke-linejoin="round"/>
  <path d="M76.8,102.52c-.11,0-3.57.08-4.1.08v-.17l1-2.22a.2.2,0,0,1,.18-.13h3.86v.08Z" transform="translate(-1.5 1.35)" fill="#fff" stroke="#000" stroke-linecap="round" stroke-linejoin="round"/>
  <path d="M74.18,106.49l.95-2.11v-2.1h0l-1,2.42H70v1.83h4.1Z" transform="translate(-1.5 1.35)" fill="#fff" stroke="#000" stroke-linecap="round" stroke-linejoin="round"/>
  <path d="M70.05,106.55h4c.11,0,.11-.07.11-.07v-1.69c0-.06-.12-.06-.12-.06H70Z" transform="translate(-1.5 1.35)" fill="#fff" stroke="#000" stroke-linecap="round" stroke-linejoin="round"/>
  <path d="M74.15,104.69c-.1,0-3.57.09-4.1.09a.36.36,0,0,1,0-.18l1-2.22a.19.19,0,0,1,.17-.13h3.87v.08Z" transform="translate(-1.5 1.35)" fill="#fff" stroke="#000" stroke-linecap="round" stroke-linejoin="round"/>
  <path d="M83.85,102.49l1-2.12v-2.1h0l-.94,2.41h0l-4.11.06v1.83h4.1Z" transform="translate(-1.5 1.35)" fill="#fff" stroke="#000" stroke-linecap="round" stroke-linejoin="round"/>
  <path d="M79.71,102.54h4c.12,0,.12-.07.12-.07v-1.69c0-.06-.12-.06-.12-.06h-4Z" transform="translate(-1.5 1.35)" fill="#fff" stroke="#000" stroke-linecap="round" stroke-linejoin="round"/>
  <path d="M83.82,100.68c-.11,0-3.57.09-4.11.09a.36.36,0,0,1,0-.18l1-2.22a.19.19,0,0,1,.17-.13h3.87v.08Z" transform="translate(-1.5 1.35)" fill="#fff" stroke="#000" stroke-linecap="round" stroke-linejoin="round"/>
  <path d="M81.37,104.32l.95-2.11V100.1h0l-.94,2.42h0l-4.11.06v1.82h4.1Z" transform="translate(-1.5 1.35)" fill="#fff" stroke="#000" stroke-linecap="round" stroke-linejoin="round"/>
  <path d="M77.23,104.38h4c.12,0,.12-.07.12-.07v-1.69c0-.06-.12-.06-.12-.06h-4Z" transform="translate(-1.5 1.35)" fill="#fff" stroke="#000" stroke-linecap="round" stroke-linejoin="round"/>
  <path d="M81.34,102.52c-.11,0-3.57.08-4.1.08v-.17l1-2.22a.2.2,0,0,1,.18-.13h3.86v.08Z" transform="translate(-1.5 1.35)" fill="#fff" stroke="#000" stroke-linecap="round" stroke-linejoin="round"/>
  <path d="M78.72,106.49l1-2.11v-2.1h0l-1,2.42h0l-4.11.06v1.83h4.1Z" transform="translate(-1.5 1.35)" fill="#fff" stroke="#000" stroke-linecap="round" stroke-linejoin="round"/>
  <path d="M74.59,106.55h4c.11,0,.11-.07.11-.07v-1.69c0-.06-.12-.06-.12-.06h-4Z" transform="translate(-1.5 1.35)" fill="#fff" stroke="#000" stroke-linecap="round" stroke-linejoin="round"/>
  <path d="M78.69,104.69c-.1,0-3.57.09-4.1.09a.36.36,0,0,1,0-.18l1-2.22a.19.19,0,0,1,.17-.13h3.87v.08Z" transform="translate(-1.5 1.35)" fill="#fff" stroke="#000" stroke-linecap="round" stroke-linejoin="round"/>
  <path d="M88.39,102.49l1-2.12v-2.1h0l-.94,2.41h0l-4.11.06v1.83h4.1Z" transform="translate(-1.5 1.35)" fill="#fff" stroke="#000" stroke-linecap="round" stroke-linejoin="round"/>
  <path d="M84.25,102.54h4c.12,0,.12-.07.12-.07v-1.69c0-.06-.12-.06-.12-.06h-4Z" transform="translate(-1.5 1.35)" fill="#fff" stroke="#000" stroke-linecap="round" stroke-linejoin="round"/>
  <path d="M88.36,100.68c-.11,0-3.57.09-4.11.09a.36.36,0,0,1,0-.18l1-2.22a.19.19,0,0,1,.17-.13h3.87v.08Z" transform="translate(-1.5 1.35)" fill="#fff" stroke="#000" stroke-linecap="round" stroke-linejoin="round"/>
  <path d="M85.91,104.32l1-2.11V100.1h0L86,102.52h0l-4.11.06v1.82H86Z" transform="translate(-1.5 1.35)" fill="#fff" stroke="#000" stroke-linecap="round" stroke-linejoin="round"/>
  <path d="M81.77,104.38h4c.12,0,.12-.07.12-.07v-1.69c0-.06-.12-.06-.12-.06h-4Z" transform="translate(-1.5 1.35)" fill="#fff" stroke="#000" stroke-linecap="round" stroke-linejoin="round"/>
  <path d="M85.88,102.52c-.11,0-3.57.08-4.1.08v-.17l1-2.22a.2.2,0,0,1,.18-.13h3.86v.08Z" transform="translate(-1.5 1.35)" fill="#fff" stroke="#000" stroke-linecap="round" stroke-linejoin="round"/>
  <path d="M83.26,106.49l.95-2.11v-2.1h0l-1,2.42h0l-4.11.06v1.83h4.1Z" transform="translate(-1.5 1.35)" fill="#fff" stroke="#000" stroke-linecap="round" stroke-linejoin="round"/>
  <path d="M79.13,106.55h4c.11,0,.11-.07.11-.07v-1.69c0-.06-.12-.06-.12-.06h-4Z" transform="translate(-1.5 1.35)" fill="#fff" stroke="#000" stroke-linecap="round" stroke-linejoin="round"/>
  <path d="M83.23,104.69c-.1,0-3.57.09-4.1.09a.36.36,0,0,1,0-.18l1-2.22a.19.19,0,0,1,.17-.13h3.87v.08Z" transform="translate(-1.5 1.35)" fill="#fff" stroke="#000" stroke-linecap="round" stroke-linejoin="round"/>
  <path d="M92.93,102.49l.95-2.12v-2.1h-.05l-.94,2.41h0l-4.11.06v1.83h4.1Z" transform="translate(-1.5 1.35)" fill="#fff" stroke="#000" stroke-linecap="round" stroke-linejoin="round"/>
  <path d="M88.79,102.54h4c.12,0,.12-.07.12-.07v-1.69c0-.06-.12-.06-.12-.06h-4Z" transform="translate(-1.5 1.35)" fill="#fff" stroke="#000" stroke-linecap="round" stroke-linejoin="round"/>
  <path d="M92.9,100.68c-.11,0-3.57.09-4.11.09a.36.36,0,0,1,0-.18l.95-2.22a.19.19,0,0,1,.17-.13h3.87v.08Z" transform="translate(-1.5 1.35)" fill="#fff" stroke="#000" stroke-linecap="round" stroke-linejoin="round"/>
  <path d="M90.45,104.32l1-2.11V100.1h0l-.94,2.42h0l-4.11.06v1.82h4.11Z" transform="translate(-1.5 1.35)" fill="#fff" stroke="#000" stroke-linecap="round" stroke-linejoin="round"/>
  <path d="M86.31,104.38h4c.12,0,.12-.07.12-.07v-1.69c0-.06-.12-.06-.12-.06h-4Z" transform="translate(-1.5 1.35)" fill="#fff" stroke="#000" stroke-linecap="round" stroke-linejoin="round"/>
  <path d="M90.42,102.52c-.11,0-3.57.08-4.1.08v-.17l1-2.22a.2.2,0,0,1,.18-.13h3.86v.08Z" transform="translate(-1.5 1.35)" fill="#fff" stroke="#000" stroke-linecap="round" stroke-linejoin="round"/>
  <path d="M87.8,106.49l1-2.11v-2.1h0l-1,2.42h0l-4.11.06v1.83h4.1Z" transform="translate(-1.5 1.35)" fill="#fff" stroke="#000" stroke-linecap="round" stroke-linejoin="round"/>
  <path d="M83.67,106.55h4c.11,0,.11-.07.11-.07v-1.69c0-.06-.12-.06-.12-.06h-4Z" transform="translate(-1.5 1.35)" fill="#fff" stroke="#000" stroke-linecap="round" stroke-linejoin="round"/>
  <line x1="245.95" y1="16.97" x2="171.21" y2="16.97" fill="#fff" stroke="#000" stroke-linecap="round" stroke-linejoin="round" stroke-width="4"/>
  <path d="M87.77,104.69c-.1,0-3.57.09-4.1.09a.36.36,0,0,1,0-.18l1-2.22a.19.19,0,0,1,.17-.13h3.87v.08Z" transform="translate(-1.5 1.35)" fill="#fff" stroke="#000" stroke-linecap="round" stroke-linejoin="round"/>
  <line x1="152.48" y1="32.21" x2="171.21" y2="16.97" fill="#fff" stroke="#000" stroke-linecap="round" stroke-linejoin="round" stroke-width="4"/>
  <line x1="63.6" y1="107.84" x2="63.58" y2="107.87" fill="none" stroke="#000" stroke-linecap="round" stroke-linejoin="round"/>
  <path d="M85.24,19.49H40a5.19,5.19,0,0,0-5.19,5.18L34.7,62.79A5.19,5.19,0,0,0,39.87,68H85.31a5.19,5.19,0,0,0,5.19-5.19h0l-.07-38.12a5.19,5.19,0,0,0-5.19-5.19Z" transform="translate(-1.5 1.35)" fill="#4696fc" stroke="#201600" stroke-miterlimit="10" stroke-width="4"/>
  <g id="Page-1">
    <g id="Profile">
      <g id="Notifications">
        <path id="Popover" d="M176.85,38.25l-3.06,1.82c-.91.54-1.63.12-1.59-.94l.13-3.56-12.45-7.39a3.22,3.22,0,0,1-1.13-4.41l9.51-16a3.22,3.22,0,0,1,4.41-1.12l29.56,17.54a3.22,3.22,0,0,1,1.13,4.41l-9.51,16a3.22,3.22,0,0,1-4.41,1.12Z" transform="translate(-1.5 1.35)" fill="#f0491f" stroke="#000" stroke-miterlimit="10" stroke-width="4"/>
        <g id="Likes">
          <g id="_134" data-name="134" style="isolation: isolate">
            <text transform="translate(174.91 28.88) rotate(30.68)" font-size="9.64" fill="#fff" font-family="ArialMT, Arial" style="isolation: isolate">134</text>
          </g>
          <path id="btn_like_suggestion" data-name="btn like suggestion" d="M171.42,24.57l-.12-.33c-.74-2-1.19-3.19-1.14-4.38a2.84,2.84,0,0,1,.84-2.05,2.07,2.07,0,0,1,1.59-.53,2,2,0,0,1,.86.28,2.19,2.19,0,0,1,1.07,1.79,2.19,2.19,0,0,1,2.09.08,2,2,0,0,1,.66.62,2.07,2.07,0,0,1,.3,1.65,2.84,2.84,0,0,1-1.4,1.72,12,12,0,0,1-4.39,1.1Z" transform="translate(-1.5 1.35)" fill="#fff"/>
        </g>
      </g>
    </g>
  </g>
  <g id="Page-1-2" data-name="Page-1">
    <g id="Profile-2" data-name="Profile">
      <g id="Notifications-2" data-name="Notifications">
        <path id="Popover-2" data-name="Popover" d="M216.53,24.31l-2.2-2.81c-.65-.84-.33-1.6.73-1.69l3.55-.33,5.74-13.29a3.22,3.22,0,0,1,4.23-1.68l17.11,7.39a3.22,3.22,0,0,1,1.67,4.23L233.74,47.68a3.22,3.22,0,0,1-4.23,1.68L212.41,42a3.22,3.22,0,0,1-1.67-4.23Z" transform="translate(-1.5 1.35)" fill="#f0491f" stroke="#000" stroke-miterlimit="10" stroke-width="4"/>
        <g id="Likes-2" data-name="Likes">
          <g id="_134-2" data-name="134" style="isolation: isolate">
            <text transform="translate(225.61 23.85) rotate(113.35)" font-size="9.64" fill="#fff" font-family="ArialMT, Arial" style="isolation: isolate">134</text>
          </g>
          <path id="btn_like_suggestion-2" data-name="btn like suggestion" d="M229.41,17.18l.31-.17c1.88-1,3-1.58,4.2-1.69a2.84,2.84,0,0,1,2.14.57,2.07,2.07,0,0,1,.73,1.5,2,2,0,0,1-.17.89A2.19,2.19,0,0,1,235,19.58a2.19,2.19,0,0,1,.19,2.08,2,2,0,0,1-.53.73,2.07,2.07,0,0,1-1.59.5,2.84,2.84,0,0,1-1.89-1.17,12,12,0,0,1-1.65-4.22Z" transform="translate(-1.5 1.35)" fill="#fff"/>
        </g>
      </g>
    </g>
  </g>
  <g id="Page-1-3" data-name="Page-1">
    <g id="Profile-3" data-name="Profile">
      <g id="Notifications-3" data-name="Notifications">
        <path id="Popover-3" data-name="Popover" d="M208.5,33.72l-.94,3.44c-.28,1-1.09,1.22-1.8.42l-2.38-2.65L189.3,38.26a3.22,3.22,0,0,1-3.87-2.39l-4.29-18.14a3.22,3.22,0,0,1,2.39-3.87L217,6a3.22,3.22,0,0,1,3.87,2.39l4.29,18.14a3.22,3.22,0,0,1-2.39,3.87Z" transform="translate(-1.5 1.35)" fill="#f0491f" stroke="#000" stroke-miterlimit="10" stroke-width="4"/>
        <g id="Likes-3" data-name="Likes">
          <g id="_134-3" data-name="134" style="isolation: isolate">
            <text transform="matrix(0.97, -0.23, 0.23, 0.97, 199.24, 27.66)" font-size="9.64" fill="#fff" font-family="ArialMT, Arial" style="isolation: isolate">134</text>
          </g>
          <path id="btn_like_suggestion-3" data-name="btn like suggestion" d="M195.1,27.64l-.32-.15c-1.91-.92-3.07-1.47-3.86-2.36a2.84,2.84,0,0,1-.82-2.06,2.07,2.07,0,0,1,.77-1.48,2,2,0,0,1,.82-.4,2.19,2.19,0,0,1,2,.55,2.19,2.19,0,0,1,1.56-1.39,2,2,0,0,1,.91,0,2.07,2.07,0,0,1,1.36,1,2.84,2.84,0,0,1,.19,2.21,12,12,0,0,1-2.4,3.84Z" transform="translate(-1.5 1.35)" fill="#fff"/>
        </g>
      </g>
    </g>
  </g>
  <ellipse cx="41.73" cy="37.93" rx="1.26" ry="7.16" fill="#fff"/>
  <circle cx="29.41" cy="93.01" r="2.48"/>
  <rect x="77.44" y="90.53" width="20.95" height="2.48" fill="#1d1d1b"/>
  <polygon points="218.15 32.22 161.2 32.22 152.13 32.22 161.2 115.17 218.15 115.17 227.22 32.22 218.15 32.22" fill="#fcf0e0" stroke="#201600" stroke-linecap="round" stroke-linejoin="round" stroke-width="4"/>
  <path d="M228.72,30.87l18.73-15.24-9.36,83-18.44,15.24Z" transform="translate(-1.5 1.35)" fill="#cea97c" stroke="#201600" stroke-linecap="round" stroke-linejoin="round" stroke-width="4"/>
  <rect x="511.68" y="28.73" width="5.15" height="36.13" fill="#fcf0e0" stroke="#201600" stroke-linecap="round" stroke-linejoin="round" stroke-width="3"/>
  <path d="M322.7,116.69l-2.35-5.26a120.55,120.55,0,0,0,40.73-29.48c22.19-24.62,28.58-52.72,30.41-67.28l5.72.72C395.29,30.62,388.6,60,365.36,85.8A126.25,126.25,0,0,1,322.7,116.69Z" transform="translate(-1.5 1.35)"/>
  <rect x="528.44" y="39.68" width="5.15" height="36.13" transform="translate(1060.54 116.83) rotate(-180)" fill="#fcf0e0" stroke="#201600" stroke-linecap="round" stroke-linejoin="round" stroke-width="3"/>
  <path d="M329.66,22.28h38.72C390.31,22.28,404,33.94,404,51.9s-13.76,29.62-35.81,29.62h-14v24.26H329.66ZM365.58,63.8c8.28,0,13.76-4.67,13.76-11.9S373.87,40,365.58,40H354.15V63.8Z" transform="translate(-1.5 1.35)" fill="#0c74f9" stroke="#000" stroke-miterlimit="10" stroke-width="4"/>
  <g>
    <path d="M394.35,15c1.54-1.56-1.5-8.27-4.27-10.35-8.63-6.47-40.49,12.66-60.67,40.51-17.55,24.22-29.29,59.18-19.15,67.51,3.07,2.52,7.63,2.18,11.27,1.37-8.39-5.53,2.61-44.24,26.21-71.08,16.74-19,38.74-29.27,44.08-27.8C392.13,15.26,393.65,15.73,394.35,15Z" transform="translate(-1.5 1.35)" fill="#fcd120"/>
    <path d="M316.66,117.53a12.56,12.56,0,0,1-8.23-2.61c-12.86-10.57,2.19-48.72,18.65-71.43C340.51,25,365.59,3.35,382.69.76c3.85-.58,6.91,0,9.12,1.61,2.78,2.08,5.55,7.21,5.82,10.75A4.82,4.82,0,0,1,396.41,17h0c-.85.86-2.46,1.73-5.32.91-3.62-1-24.75,8.21-41.18,26.91-19.7,22.42-29.67,52-28.14,63.42.23,1.69.73,2.95,1.35,3.35a2.88,2.88,0,0,1-1,5.22A25.44,25.44,0,0,1,316.66,117.53ZM385.52,6.29a13.2,13.2,0,0,0-2,.16C371.34,8.3,347.6,25,331.74,46.87c-17.6,24.29-27.71,57-19.65,63.59a7,7,0,0,0,4.55,1.31h0a15.92,15.92,0,0,1-.59-2.71c-1.9-14.12,9.76-45.51,29.52-68,16.36-18.61,38-29.65,46-28.85-.59-1.76-2-4.29-3.24-5.24A4.8,4.8,0,0,0,385.52,6.29Z" transform="translate(-1.5 1.35)"/>
  </g>
  <rect x="479.65" y="21.29" width="11.3" height="36.99" transform="translate(4.4 126.41) rotate(-14.77)" fill="#68edc6" stroke="#000" stroke-linecap="round" stroke-linejoin="round" stroke-width="3"/>
  <rect x="494.8" y="15.87" width="11.3" height="39.23" transform="translate(-2.47 19.96) rotate(-2.13)" fill="#f0491f" stroke="#000" stroke-linecap="round" stroke-linejoin="round" stroke-width="3"/>
  <path d="M513.18,27.38c-3.35-1.68-3.76-6.39-3.93-8.29C508.34,8.6,517.69-.53,519.07.19c.9.47-2.32,4.71-.74,10.55,1,3.84,3,4.22,3.44,7.85.3,2.68-.24,7.17-3.44,8.78A5.9,5.9,0,0,1,513.18,27.38Z" transform="translate(-1.5 1.35)" fill="#0c74f9" stroke="#000" stroke-miterlimit="10" stroke-width="3"/>
  <path d="M533.6,39.68c3.35-1.68,3.76-6.39,3.93-8.29.91-10.49-8.44-19.62-9.82-18.9-.9.47,2.32,4.71.74,10.55-1,3.84-3,4.22-3.44,7.85-.3,2.68.24,7.17,3.44,8.78A5.9,5.9,0,0,0,533.6,39.68Z" transform="translate(-1.5 1.35)" fill="#fcd120" stroke="#000" stroke-miterlimit="10" stroke-width="3"/>
  <polygon points="476.58 13.79 484.54 21.81 473.62 24.7 476.58 13.79" fill="#fcf0e0" stroke="#201600" stroke-linecap="round" stroke-linejoin="round" stroke-width="3"/>
  <polygon points="497.84 6.87 503.87 17.02 492.58 17.44 497.84 6.87" fill="#fcf0e0" stroke="#201600" stroke-linecap="round" stroke-linejoin="round" stroke-width="3"/>
  <path d="M122.64,422.25l6.86-6.86a.87.87,0,0,0-.62-1.49h-42a3,3,0,0,0-2.09.83L76.7,422.4" transform="translate(-1.5 1.35)" fill="#a36473" stroke="#000" stroke-miterlimit="10" stroke-width="4"/>
  <path d="M470,44.13c0,4.61,15.82,8.35,35.34,8.35s35.34-3.74,35.34-8.35v62.4c0,4.61-15.82,8.35-35.34,8.35S470,111.14,470,106.53Z" transform="translate(-1.5 1.35)" fill="#fec2ce" stroke="#000" stroke-miterlimit="10" stroke-width="4"/>
  <path d="M505.33,52.47a46.07,46.07,0,0,0,25-2.44,44.07,44.07,0,0,0,10.35-5.9v62.4a68.22,68.22,0,0,1-11.63,5,69.12,69.12,0,0,1-23.72,3.32c8.5-13.39,8.55-22.32,6.94-28-1.55-5.53-4.73-8.34-6.62-16.11A43,43,0,0,1,505.33,52.47Z" transform="translate(-1.5 1.35)" fill="#a36473"/>
  <path d="M478.82,58.36c2.87,6.75,16.4,36.84,42.57,42,4.07.8,11.5,2.14,17.07-2,8.21-6.05,9.47-21.86,2.22-39.51" transform="translate(-1.5 1.35)" fill="none" stroke="#000" stroke-linecap="round" stroke-linejoin="round" stroke-width="4"/>
  <path d="M129.75,414.88l.25,35.38-6,5.92-1.36-33.92Z" transform="translate(-1.5 1.35)" fill="#a36473" stroke="#000" stroke-linecap="round" stroke-linejoin="round" stroke-width="4"/>
  <path d="M470,44.13c0,4.61,15.82,8.35,35.34,8.35s35.34-3.74,35.34-8.35v62.4c0,4.61-15.82,8.35-35.34,8.35S470,111.14,470,106.53Z" transform="translate(-1.5 1.35)" fill="none" stroke="#000" stroke-miterlimit="10" stroke-width="4"/>
  <rect x="74.25" y="423.6" width="48.5" height="17" rx="1.61" ry="1.61" fill="#fec2ce" stroke="#000" stroke-miterlimit="10" stroke-width="4"/>
  <line x1="113.08" y1="427.77" x2="117.33" y2="427.77" fill="none" stroke="#000" stroke-linecap="round" stroke-linejoin="round" stroke-width="2"/>
  <line x1="79.33" y1="431.77" x2="117.33" y2="431.77" fill="none" stroke="#000" stroke-linecap="round" stroke-linejoin="round" stroke-width="2"/>
  <line x1="79.33" y1="435.77" x2="117.33" y2="435.77" fill="none" stroke="#000" stroke-linecap="round" stroke-linejoin="round" stroke-width="2"/>
  <rect x="74.25" y="440.6" width="48.5" height="17" rx="1.61" ry="1.61" fill="#fec2ce" stroke="#000" stroke-miterlimit="10" stroke-width="4"/>
  <line x1="113.08" y1="444.77" x2="117.33" y2="444.77" fill="none" stroke="#000" stroke-linecap="round" stroke-linejoin="round" stroke-width="2"/>
  <line x1="79.33" y1="448.77" x2="117.33" y2="448.77" fill="none" stroke="#000" stroke-linecap="round" stroke-linejoin="round" stroke-width="2"/>
  <line x1="79.33" y1="452.77" x2="117.33" y2="452.77" fill="none" stroke="#000" stroke-linecap="round" stroke-linejoin="round" stroke-width="2"/>
  <path d="M447.21,299.9c20.45-3.66,74.25-16.26,108.57-63.29A143.66,143.66,0,0,0,572.39,207l-109.81.52-15.36,15.36Z" transform="translate(-1.5 1.35)" fill="#a36473" stroke="#000" stroke-linecap="round" stroke-linejoin="round" stroke-width="4"/>
  <rect x="445.12" y="223.69" width="111.59" height="39.11" rx="1" ry="1" fill="#fec2ce" stroke="#000" stroke-miterlimit="10" stroke-width="4"/>
  <line x1="534.47" y1="233.28" x2="544.24" y2="233.28" fill="none" stroke="#000" stroke-linecap="round" stroke-linejoin="round" stroke-width="4"/>
  <line x1="456.82" y1="242.48" x2="544.24" y2="242.48" fill="none" stroke="#000" stroke-linecap="round" stroke-linejoin="round" stroke-width="4"/>
  <line x1="456.82" y1="251.68" x2="544.24" y2="251.68" fill="none" stroke="#000" stroke-linecap="round" stroke-linejoin="round" stroke-width="4"/>
  <rect x="445.12" y="262.8" width="111.59" height="39.11" rx="1" ry="1" fill="#fec2ce" stroke="#000" stroke-miterlimit="10" stroke-width="4"/>
  <line x1="534.47" y1="272.39" x2="544.24" y2="272.39" fill="none" stroke="#000" stroke-linecap="round" stroke-linejoin="round" stroke-width="4"/>
  <line x1="456.82" y1="281.59" x2="544.24" y2="281.59" fill="none" stroke="#000" stroke-linecap="round" stroke-linejoin="round" stroke-width="4"/>
  <line x1="456.82" y1="290.8" x2="544.24" y2="290.8" fill="none" stroke="#000" stroke-linecap="round" stroke-linejoin="round" stroke-width="4"/>
  <path d="M558.21,300.57l15.36-15.62V208.16l-15.36,15.36Z" transform="translate(-1.5 1.35)" fill="#a36473" stroke="#000" stroke-linecap="round" stroke-linejoin="round" stroke-width="4"/>
</svg>
