<svg id="Слой_1" data-name="Слой 1" xmlns="http://www.w3.org/2000/svg" xmlns:xlink="http://www.w3.org/1999/xlink" viewBox="0 0 127 151"><defs><style>.cls-1{fill:#3b5998;}.cls-2,.cls-3,.cls-9{fill:none;}.cls-2,.cls-4{clip-rule:evenodd;}.cls-10,.cls-13,.cls-4,.cls-5{fill:#fff;}.cls-6{clip-path:url(#clip-path);}.cls-7{clip-path:url(#clip-path-2);}.cls-8{clip-path:url(#clip-path-3);}.cls-13,.cls-9{stroke:#000105;stroke-width:6px;}.cls-9{stroke-miterlimit:10;}.cls-10{fill-rule:evenodd;}.cls-11{clip-path:url(#clip-path-4);}.cls-12{clip-path:url(#clip-path-5);}.cls-13{stroke-linejoin:round;}</style><clipPath id="clip-path"><path class="cls-1" d="M72,13l40,40v75a5,5,0,0,1-5,5H17a5,5,0,0,1-5-5V18a5,5,0,0,1,5-5Z"/></clipPath><clipPath id="clip-path-2"><path class="cls-2" d="M72,13l40,40v66a14,14,0,0,1-14,14H26a14,14,0,0,1-14-14V27A14,14,0,0,1,26,13Z"/></clipPath><clipPath id="clip-path-3"><rect class="cls-3" width="127" height="151"/></clipPath><clipPath id="clip-path-4"><path class="cls-4" d="M112,53H86.71C79,53,72,46,72,38.29V13Z"/></clipPath><clipPath id="clip-path-5"><rect class="cls-5" width="127" height="151"/></clipPath></defs><title>facebook_icon</title><path class="cls-1" d="M72,13l40,40v75a5,5,0,0,1-5,5H17a5,5,0,0,1-5-5V18a5,5,0,0,1,5-5Z"/><g class="cls-6"><rect class="cls-1" x="0.2" y="3.3" width="128.05" height="146.44"/></g><path class="cls-5" d="M49.39,39.7c5.91,0,11.81,0,17.72,0,.61,0,.76.13.75.75,0,5.09,0,10.17,0,15.26-2.62,0-5.25.11-7.86,0-3.3-.17-6.66,3.34-6.66,6.67,0,1.23.05,2.46,0,3.68-.06,1,.3,1.27,1.27,1.26,4.42,0,8.84,0,13.27,0V83H54.56c-.37,0-1-.28-1,.52,0,1-.28,1.91-.27,2.9,0,14.27,0,28.54,0,42.81,0,1-.23,1.29-1.27,1.28-5.94-.05-11.89,0-17.83,0-1.59,0-1.59,0-1.59-1.64q0-22.34,0-44.66c0-.95-.22-1.24-1.2-1.22-3.49.06-7,0-10.46,0-1,0-1.45-.21-1.43-1.35.06-4.39.05-8.77,0-13.16,0-1,.26-1.29,1.25-1.28,3.53.06,7,0,10.58,0,.9,0,1.29-.12,1.26-1.17-.09-2.5,0-5,0-7.5a18,18,0,0,1,2.52-9.67,18.37,18.37,0,0,1,11.25-8.55A14.4,14.4,0,0,0,49.39,39.7Z"/><g class="cls-8"><path class="cls-9" d="M72,13l40,40v75a5,5,0,0,1-5,5H17a5,5,0,0,1-5-5V18a5,5,0,0,1,5-5Z"/></g><path class="cls-10" d="M112,53H86.71C79,53,72,46,72,38.29V13Z"/><g class="cls-11"><rect class="cls-5" width="127" height="151"/><g class="cls-12"><rect class="cls-5" x="67" y="8" width="50" height="50"/></g></g><g class="cls-8"><path class="cls-13" d="M112,53H86.71C79,53,72,46,72,38.29V13Z"/></g></svg>
