<svg id="Слой_1" data-name="Слой 1" xmlns="http://www.w3.org/2000/svg" xmlns:xlink="http://www.w3.org/1999/xlink" viewBox="0 0 127 151"><defs><style>.cls-1{fill:#3b5998;}.cls-2,.cls-3,.cls-9{fill:none;}.cls-2,.cls-4{clip-rule:evenodd;}.cls-10,.cls-13,.cls-4,.cls-5{fill:#fff;}.cls-6{clip-path:url(#clip-path);}.cls-7{clip-path:url(#clip-path-2);}.cls-8{clip-path:url(#clip-path-3);}.cls-13,.cls-9{stroke:#000105;stroke-width:6px;}.cls-9{stroke-miterlimit:10;}.cls-10{fill-rule:evenodd;}.cls-11{clip-path:url(#clip-path-4);}.cls-12{clip-path:url(#clip-path-5);}.cls-13{stroke-linejoin:round;}</style><clipPath id="clip-path"><path class="cls-1" d="M75.81,3.46l47.86,47.86v89.73a6,6,0,0,1-6,6H10a6,6,0,0,1-6-6V9.44a6,6,0,0,1,6-6Z"/></clipPath><clipPath id="clip-path-2"><path class="cls-2" d="M75.81,3.46l47.86,47.86v79A16.75,16.75,0,0,1,106.92,147H20.77A16.75,16.75,0,0,1,4,130.28V20.21A16.75,16.75,0,0,1,20.77,3.46Z"/></clipPath><clipPath id="clip-path-3"><rect class="cls-3" x="-10.33" y="-12.1" width="151.95" height="180.67"/></clipPath><clipPath id="clip-path-4"><path class="cls-4" d="M123.67,51.32H93.41c-9.25,0-17.6-8.35-17.6-17.6V3.46Z"/></clipPath><clipPath id="clip-path-5"><rect class="cls-5" x="-10.33" y="-12.1" width="151.95" height="180.67"/></clipPath></defs><title>facebook_icon</title><path class="cls-1" d="M75.81,3.46l47.86,47.86v89.73a6,6,0,0,1-6,6H10a6,6,0,0,1-6-6V9.44a6,6,0,0,1,6-6Z"/><g class="cls-6"><rect class="cls-1" x="-10.1" y="-8.14" width="153.21" height="175.21"/></g><path class="cls-5" d="M48.76,35.4c7.07,0,14.13,0,21.2,0,.74,0,.91.17.9.91,0,6.08,0,12.17,0,18.25-3.13,0-6.28.13-9.4,0-3.94-.2-8,4-8,8,0,1.47.07,2.94,0,4.41-.07,1.18.36,1.52,1.52,1.5,5.29-.05,10.58,0,15.87,0V87.22q-7.95,0-15.89,0c-.45,0-1.21-.34-1.17.61,0,1.17-.34,2.29-.33,3.47,0,17.08,0,34.15,0,51.23,0,1.21-.28,1.54-1.52,1.53-7.11-.06-14.22,0-21.34,0-1.9,0-1.9,0-1.9-2q0-26.72,0-53.43c0-1.14-.25-1.49-1.43-1.47-4.17.08-8.34,0-12.51.06-1.24,0-1.73-.26-1.72-1.62.08-5.25.06-10.5,0-15.75,0-1.15.32-1.54,1.5-1.52,4.22.06,8.44,0,12.66,0,1.07,0,1.55-.15,1.5-1.4-.1-3,0-6,0-9a21.48,21.48,0,0,1,3-11.57A22,22,0,0,1,45.2,36.23C46.38,35.9,47.65,36,48.76,35.4Z"/><g class="cls-8"><path class="cls-9" d="M75.81,3.46l47.86,47.86v89.73a6,6,0,0,1-6,6H10a6,6,0,0,1-6-6V9.44a6,6,0,0,1,6-6Z"/></g><path class="cls-10" d="M123.67,51.32H93.41c-9.25,0-17.6-8.35-17.6-17.6V3.46Z"/><g class="cls-11"><rect class="cls-5" x="-10.33" y="-12.1" width="151.95" height="180.67"/><g class="cls-12"><rect class="cls-5" x="69.83" y="-2.53" width="59.82" height="59.82"/></g></g><g class="cls-8"><path class="cls-13" d="M123.67,51.32H93.41c-9.25,0-17.6-8.35-17.6-17.6V3.46Z"/></g></svg>