<svg id="Слой_1" data-name="Слой 1" xmlns="http://www.w3.org/2000/svg" xmlns:xlink="http://www.w3.org/1999/xlink" viewBox="0 0 127 151"><defs><style>.cls-1{fill:#fec2ce;}.cls-10,.cls-2,.cls-3,.cls-6{fill:none;}.cls-3{clip-rule:evenodd;}.cls-4{clip-path:url(#clip-path);}.cls-5{clip-path:url(#clip-path-2);}.cls-10,.cls-6{stroke:#000;stroke-width:7.08px;}.cls-6{stroke-miterlimit:10;}.cls-7{fill:#4696fc;stroke:#fcf0e0;stroke-linecap:round;stroke-width:4.22px;}.cls-10,.cls-7{stroke-linejoin:round;}.cls-8{clip-path:url(#clip-path-3);}.cls-9{fill:#fff;}</style><clipPath id="clip-path"><path class="cls-1" d="M75.32,5.21,122.5,52.39v88.46a5.9,5.9,0,0,1-5.9,5.9H10.44a5.9,5.9,0,0,1-5.89-5.9V11.11a5.9,5.9,0,0,1,5.89-5.9Z"/></clipPath><clipPath id="clip-path-2"><rect class="cls-2" x="-9.61" y="-10.72" width="149.8" height="178.11"/></clipPath><clipPath id="clip-path-3"><path class="cls-3" d="M122.5,51.8H92.66c-9.12,0-17.34-8.23-17.34-17.35V4.62Z"/></clipPath></defs><title>iloveyou_icon</title><path class="cls-1" d="M75.32,5.21,122.5,52.39v88.46a5.9,5.9,0,0,1-5.9,5.9H10.44a5.9,5.9,0,0,1-5.89-5.9V11.11a5.9,5.9,0,0,1,5.89-5.9Z"/><g class="cls-4"><rect class="cls-1" x="-9.37" y="-6.23" width="151.03" height="172.72"/></g><g class="cls-5"><path class="cls-6" d="M75.32,4.62,122.5,51.8v88.46a5.9,5.9,0,0,1-5.9,5.9H10.44a5.9,5.9,0,0,1-5.89-5.9V10.52a5.9,5.9,0,0,1,5.89-5.9Z"/></g><path class="cls-7" d="M73.56,34.36,38.26,50.42S29,31.8,18.75,34l-7.06,3.21L53.14,18.37S61.42,17.9,73.56,34.36Z"/><path class="cls-7" d="M40.8,102.64,82.26,83.79S78.48,58.34,67,49.49,53.14,18.37,53.14,18.37L11.69,37.22S10.21,59.15,26.25,69.93,40.8,102.64,40.8,102.64Z"/><path class="cls-7" d="M20.38,86.65l35.3-16.06S65,89.22,75.2,87l7.06-3.21L40.8,102.64S32.53,103.11,20.38,86.65Z"/><g class="cls-8"><g class="cls-5"><rect class="cls-9" x="69.42" y="-1.28" width="58.98" height="58.98"/></g></g><g class="cls-5"><path class="cls-10" d="M122.5,51.8H92.66c-9.12,0-17.34-8.23-17.34-17.35V4.62Z"/></g><path d="M15.63,103.62h3.85v24.5H15.63Z"/><path d="M22.28,103.62h3.85v21h6.34v3.5H22.28Z"/><path d="M33.83,109.5c0-3.92,2.06-6.16,5.85-6.16s5.84,2.24,5.84,6.16v12.74c0,3.92-2.06,6.16-5.84,6.16s-5.85-2.24-5.85-6.16Zm3.85,13c0,1.75.77,2.42,2,2.42s2-.67,2-2.42V109.25c0-1.75-.77-2.41-2-2.41s-2,.66-2,2.41Z"/><path d="M53.75,123.6h.07l2.9-20h3.54l-3.78,24.5H50.74L47,103.62h3.88Z"/><path d="M65.89,113.94h5.29v3.5H65.89v7.18h6.65v3.5H62v-24.5h10.5v3.5H65.89Z"/><path d="M78.52,120l-4.86-16.38h4l2.9,11.16h.07l2.91-11.16h3.67L82.38,120v8.12H78.52Z"/><path d="M87.94,109.5c0-3.92,2.06-6.16,5.85-6.16s5.84,2.24,5.84,6.16v12.74c0,3.92-2.06,6.16-5.84,6.16s-5.85-2.24-5.85-6.16Zm3.85,13c0,1.75.77,2.42,2,2.42s2-.67,2-2.42V109.25c0-1.75-.77-2.41-2-2.41s-2,.66-2,2.41Z"/><path d="M105.79,103.62v18.9c0,1.75.77,2.38,2,2.38s2-.63,2-2.38v-18.9h3.64v18.65c0,3.93-2,6.17-5.74,6.17s-5.74-2.24-5.74-6.17V103.62Z"/></svg>