<svg id="Слой_1" data-name="Слой 1" xmlns="http://www.w3.org/2000/svg" xmlns:xlink="http://www.w3.org/1999/xlink" viewBox="0 0 127 151"><defs><style>.cls-1,.cls-13,.cls-14,.cls-2,.cls-3,.cls-6,.cls-9{fill:none;}.cls-2{clip-rule:evenodd;}.cls-3{fill-rule:evenodd;}.cls-4{clip-path:url(#clip-path);}.cls-5{clip-path:url(#clip-path-2);}.cls-13,.cls-14,.cls-6,.cls-9{stroke:#000;}.cls-13,.cls-14,.cls-6{stroke-miterlimit:10;}.cls-6,.cls-9{stroke-width:7.06px;}.cls-7{clip-path:url(#clip-path-3);}.cls-10,.cls-8{fill:#fff;}.cls-9{stroke-linejoin:round;}.cls-10{font-size:35.32px;font-family:BebasNeue, Bebas Neue;}.cls-11{clip-path:url(#clip-path-6);}.cls-12{clip-path:url(#clip-path-7);}.cls-13{stroke-width:9.42px;}.cls-14{stroke-width:2.35px;}</style><clipPath id="clip-path"><path d="M74.88,5.07,122,52.16v88.29a5.88,5.88,0,0,1-5.88,5.88H10.14a5.89,5.89,0,0,1-5.89-5.88V11a5.89,5.89,0,0,1,5.89-5.88Z"/></clipPath><clipPath id="clip-path-2"><rect class="cls-1" x="-9.38" y="-10.24" width="149.51" height="177.76"/></clipPath><clipPath id="clip-path-3"><path class="cls-2" d="M122.47,52.16H92.7c-9.11,0-17.32-8.22-17.32-17.32V5.07Z"/></clipPath><clipPath id="clip-path-6"><path class="cls-2" d="M85.73,87,83.91,88.5l-1.78,1.55.19.21,10.11,11.65L86.26,87.77,51.31,7.83,49.45,3.6l-2.33,4L33.81,30.3l1.09-1-24,10.41-4,1.75,3.69,2.39L82.67,90.52l12.67,8.19L85.76,87.05Zm-3.64,3,0,0,1.82-1.5,1.28-2L13.09,39.93l-.35,4.13,24-10.41.71-.3.39-.67L51.18,10,47,9.72,81.94,89.66l2.16-.94,1.78-1.55L85.69,87Zm74.8-53.77-54.41,98.16L-30.67,60.59,23.74-37.58Z"/></clipPath><clipPath id="clip-path-7"><polygon class="cls-2" points="83.91 88.5 83.94 88.54 11.81 41.9 35.84 31.49 49.15 8.77 84.1 88.72 83.91 88.5"/></clipPath></defs><title>icons</title><path d="M74.88,5.07,122,52.16v88.29a5.88,5.88,0,0,1-5.88,5.88H10.14a5.89,5.89,0,0,1-5.89-5.88V11a5.89,5.89,0,0,1,5.89-5.88Z"/><g class="cls-4"><rect x="-9.64" y="-6.35" width="150.74" height="172.39"/></g><g class="cls-5"><path class="cls-6" d="M75.38,5.07l47.09,47.09v88.29a5.88,5.88,0,0,1-5.88,5.88h-106a5.88,5.88,0,0,1-5.88-5.88V11a5.88,5.88,0,0,1,5.88-5.88Z"/></g><g class="cls-7"><g class="cls-5"><rect class="cls-8" x="69.5" y="-0.82" width="58.86" height="58.86"/></g></g><g class="cls-5"><path class="cls-9" d="M122.47,52.16H92.7c-9.11,0-17.32-8.22-17.32-17.32V5.07Z"/><text class="cls-10" transform="translate(27.12 109.84)">e-Mail</text></g><g class="cls-11"><g class="cls-12"><g class="cls-5"><polygon class="cls-8" points="83.91 88.5 83.94 88.54 11.81 41.9 35.84 31.49 49.15 8.77 84.1 88.72 83.91 88.5"/></g></g></g><g class="cls-12"><g class="cls-5"><polygon class="cls-13" points="83.91 88.5 83.94 88.54 11.81 41.9 35.84 31.49 49.15 8.77 84.1 88.72 83.91 88.5"/></g></g><g class="cls-5"><polyline class="cls-14" points="36.15 32.23 51.84 50.76 79.08 82.94"/></g></svg>