<svg id="Слой_1" data-name="Слой 1" xmlns="http://www.w3.org/2000/svg" xmlns:xlink="http://www.w3.org/1999/xlink" viewBox="0 0 127 151"><defs><style>.cls-1{fill:#ce1412;}.cls-15,.cls-16,.cls-2,.cls-3{fill:none;}.cls-2{clip-rule:evenodd;}.cls-4{clip-path:url(#clip-path);}.cls-5{clip-path:url(#clip-path-2);}.cls-6{clip-path:url(#clip-path-3);}.cls-7{fill:#4a98eb;}.cls-8{fill:#9cecc6;}.cls-9{fill:#f6c4cf;}.cls-10{fill:#f6d14d;}.cls-11{fill:#5897f6;}.cls-12{clip-path:url(#clip-path-4);}.cls-13{clip-path:url(#clip-path-5);}.cls-14{fill:#fff;}.cls-15,.cls-16{stroke:#000105;stroke-width:7.09px;}.cls-15{stroke-linejoin:round;}.cls-16{stroke-miterlimit:10;}</style><clipPath id="clip-path"><path class="cls-1" d="M75.22,4.82l47.25,47.25v88.59a5.91,5.91,0,0,1-5.91,5.91H10.25a5.91,5.91,0,0,1-5.91-5.91V10.73a5.92,5.92,0,0,1,5.91-5.91Z"/></clipPath><clipPath id="clip-path-2"><path class="cls-2" d="M75.22,4.82l47.25,47.25v78a16.54,16.54,0,0,1-16.54,16.54H20.88A16.54,16.54,0,0,1,4.34,130V21.36A16.55,16.55,0,0,1,20.88,4.82Z"/></clipPath><clipPath id="clip-path-3"><path class="cls-3" d="M74.77,4.63,122,51.88v88.59a5.9,5.9,0,0,1-5.91,5.9H9.8a5.9,5.9,0,0,1-5.9-5.9V10.53a5.9,5.9,0,0,1,5.9-5.9Z"/></clipPath><clipPath id="clip-path-4"><path class="cls-2" d="M122.47,52.07H92.59c-9.13,0-17.37-8.24-17.37-17.37V4.82Z"/></clipPath><clipPath id="clip-path-5"><rect class="cls-3" x="-9.83" y="-10.53" width="150.02" height="178.37"/></clipPath></defs><title>million_dollar_icon</title><path class="cls-1" d="M75.22,4.82l47.25,47.25v88.59a5.91,5.91,0,0,1-5.91,5.91H10.25a5.91,5.91,0,0,1-5.91-5.91V10.73a5.92,5.92,0,0,1,5.91-5.91Z"/><g class="cls-4"><rect class="cls-1" x="-9.6" y="-6.63" width="151.26" height="172.98"/></g><g class="cls-6"><rect class="cls-7" x="-6.23" y="4.24" width="9.82" height="9.82"/><rect class="cls-8" x="3.59" y="4.24" width="9.82" height="9.82"/><rect class="cls-9" x="13.42" y="4.24" width="9.82" height="9.82"/><rect class="cls-10" x="23.24" y="4.24" width="9.82" height="9.82"/><rect class="cls-9" x="33.07" y="4.24" width="9.82" height="9.82"/><rect class="cls-8" x="42.89" y="4.24" width="9.82" height="9.82"/><rect class="cls-7" x="52.72" y="4.24" width="9.82" height="9.82"/><rect class="cls-10" x="62.54" y="4.24" width="9.82" height="9.82"/><rect class="cls-7" x="72.37" y="4.24" width="9.82" height="9.82"/><rect class="cls-10" x="82.19" y="4.24" width="9.82" height="9.82"/><rect class="cls-7" x="92.02" y="4.24" width="9.82" height="9.82"/><rect class="cls-8" x="101.84" y="4.24" width="9.82" height="9.82"/><rect class="cls-10" x="111.67" y="4.24" width="9.82" height="9.82"/><rect class="cls-7" x="121.49" y="4.24" width="9.82" height="9.82"/><rect class="cls-10" x="-6.23" y="14.07" width="9.82" height="9.82"/><rect class="cls-9" x="3.59" y="14.07" width="9.82" height="9.82"/><rect class="cls-7" x="13.42" y="14.07" width="9.82" height="9.82"/><rect class="cls-10" x="23.24" y="14.07" width="9.82" height="9.82"/><rect class="cls-7" x="33.07" y="14.07" width="9.82" height="9.82"/><rect class="cls-11" x="42.89" y="14.07" width="9.82" height="9.82"/><rect class="cls-10" x="52.72" y="14.07" width="9.82" height="9.82"/><rect class="cls-9" x="62.54" y="14.07" width="9.82" height="9.82"/><rect class="cls-7" x="72.37" y="14.07" width="9.82" height="9.82"/><rect class="cls-7" x="82.19" y="14.07" width="9.82" height="9.82"/><rect class="cls-8" x="92.02" y="14.07" width="9.82" height="9.82"/><rect class="cls-7" x="101.84" y="14.07" width="9.82" height="9.82"/><rect class="cls-8" x="111.67" y="14.07" width="9.82" height="9.82"/><rect class="cls-9" x="121.49" y="14.07" width="9.82" height="9.82"/><rect class="cls-8" x="-6.23" y="23.89" width="9.82" height="9.82"/><rect class="cls-7" x="3.59" y="23.89" width="9.82" height="9.82"/><rect class="cls-8" x="13.42" y="23.89" width="9.82" height="9.82"/><rect class="cls-10" x="23.24" y="23.89" width="9.82" height="9.82"/><rect class="cls-10" x="33.07" y="23.89" width="9.82" height="9.82"/><rect class="cls-9" x="42.89" y="23.89" width="9.82" height="9.82"/><rect class="cls-8" x="52.72" y="23.89" width="9.82" height="9.82"/><rect class="cls-7" x="62.54" y="23.89" width="9.82" height="9.82"/><rect class="cls-8" x="72.37" y="23.89" width="9.82" height="9.82"/><rect class="cls-7" x="82.19" y="23.89" width="9.82" height="9.82"/><rect class="cls-8" x="92.02" y="23.89" width="9.82" height="9.82"/><rect class="cls-10" x="101.84" y="23.89" width="9.82" height="9.82"/><rect class="cls-9" x="111.67" y="23.89" width="9.82" height="9.82"/><rect class="cls-10" x="121.49" y="23.89" width="9.82" height="9.82"/><rect class="cls-7" x="-6.23" y="33.72" width="9.82" height="9.82"/><rect class="cls-10" x="3.59" y="33.72" width="9.82" height="9.82"/><rect class="cls-7" x="13.42" y="33.72" width="9.82" height="9.82"/><rect class="cls-10" x="23.24" y="33.72" width="9.82" height="9.82"/><rect class="cls-7" x="33.07" y="33.72" width="9.82" height="9.82"/><rect class="cls-10" x="42.89" y="33.72" width="9.82" height="9.82"/><rect class="cls-7" x="52.72" y="33.72" width="9.82" height="9.82"/><rect class="cls-10" x="62.54" y="33.72" width="9.82" height="9.82"/><rect class="cls-7" x="72.37" y="33.72" width="9.82" height="9.82"/><rect class="cls-9" x="82.19" y="33.72" width="9.82" height="9.82"/><rect class="cls-7" x="92.02" y="33.72" width="9.82" height="9.82"/><rect class="cls-9" x="101.84" y="33.72" width="9.82" height="9.82"/><rect class="cls-7" x="111.67" y="33.72" width="9.82" height="9.82"/><rect class="cls-8" x="121.49" y="33.72" width="9.82" height="9.82"/><rect class="cls-10" x="-6.23" y="43.54" width="9.82" height="9.82"/><rect class="cls-7" x="3.59" y="43.54" width="9.82" height="9.82"/><rect class="cls-8" x="13.42" y="43.54" width="9.82" height="9.82"/><rect class="cls-7" x="23.24" y="43.54" width="9.82" height="9.82"/><rect class="cls-10" x="33.07" y="43.54" width="9.82" height="9.82"/><rect class="cls-8" x="42.89" y="43.54" width="9.82" height="9.82"/><rect class="cls-9" x="52.72" y="43.54" width="9.82" height="9.82"/><rect class="cls-7" x="62.54" y="43.54" width="9.82" height="9.82"/><rect class="cls-9" x="72.37" y="43.54" width="9.82" height="9.82"/><rect class="cls-7" x="82.19" y="43.54" width="9.82" height="9.82"/><rect class="cls-8" x="92.02" y="43.54" width="9.82" height="9.82"/><rect class="cls-7" x="101.84" y="43.54" width="9.82" height="9.82"/><rect class="cls-8" x="111.67" y="43.54" width="9.82" height="9.82"/><rect class="cls-10" x="121.49" y="43.54" width="9.82" height="9.82"/><rect class="cls-9" x="-6.23" y="53.37" width="9.82" height="9.82"/><rect class="cls-8" x="3.59" y="53.37" width="9.82" height="9.82"/><rect class="cls-7" x="13.42" y="53.37" width="9.82" height="9.82"/><rect class="cls-10" x="23.24" y="53.37" width="9.82" height="9.82"/><rect class="cls-8" x="33.07" y="53.37" width="9.82" height="9.82"/><rect class="cls-7" x="42.89" y="53.37" width="9.82" height="9.82"/><rect class="cls-7" x="52.72" y="53.37" width="9.82" height="9.82"/><rect class="cls-9" x="62.54" y="53.37" width="9.82" height="9.82"/><rect class="cls-7" x="72.37" y="53.37" width="9.82" height="9.82"/><rect class="cls-9" x="82.19" y="53.37" width="9.82" height="9.82"/><rect class="cls-7" x="92.02" y="53.37" width="9.82" height="9.82"/><rect class="cls-10" x="101.84" y="53.37" width="9.82" height="9.82"/><rect class="cls-10" x="111.67" y="53.37" width="9.82" height="9.82"/><rect class="cls-7" x="121.49" y="53.37" width="9.82" height="9.82"/><rect class="cls-10" x="-6.23" y="63.19" width="9.82" height="9.82"/><rect class="cls-7" x="3.59" y="63.19" width="9.82" height="9.82"/><rect class="cls-8" x="13.42" y="63.19" width="9.82" height="9.82"/><rect class="cls-8" x="23.24" y="63.19" width="9.82" height="9.82"/><rect class="cls-9" x="33.07" y="63.19" width="9.82" height="9.82"/><rect class="cls-10" x="42.89" y="63.19" width="9.82" height="9.82"/><rect class="cls-8" x="52.72" y="63.19" width="9.82" height="9.82"/><rect class="cls-7" x="62.54" y="63.19" width="9.82" height="9.82"/><rect class="cls-8" x="72.37" y="63.19" width="9.82" height="9.82"/><rect class="cls-8" x="82.19" y="63.19" width="9.82" height="9.82"/><rect class="cls-7" x="92.02" y="63.19" width="9.82" height="9.82"/><rect class="cls-7" x="101.84" y="63.19" width="9.82" height="9.82"/><rect class="cls-8" x="111.67" y="63.19" width="9.82" height="9.82"/><rect class="cls-8" x="121.49" y="63.19" width="9.82" height="9.82"/><rect class="cls-7" x="-6.23" y="73.02" width="9.82" height="9.82"/><rect class="cls-8" x="3.59" y="73.02" width="9.82" height="9.82"/><rect class="cls-7" x="13.42" y="73.02" width="9.82" height="9.82"/><rect class="cls-10" x="23.24" y="73.02" width="9.82" height="9.82"/><rect class="cls-7" x="33.07" y="73.02" width="9.82" height="9.82"/><rect class="cls-11" x="42.89" y="73.02" width="9.82" height="9.82"/><rect class="cls-9" x="52.72" y="73.02" width="9.82" height="9.82"/><rect class="cls-10" x="62.54" y="73.02" width="9.82" height="9.82"/><rect class="cls-7" x="72.37" y="73.02" width="9.82" height="9.82"/><rect class="cls-9" x="82.19" y="73.02" width="9.82" height="9.82"/><rect class="cls-10" x="92.02" y="73.02" width="9.82" height="9.82"/><rect class="cls-8" x="101.84" y="73.02" width="9.82" height="9.82"/><rect class="cls-7" x="111.67" y="73.02" width="9.82" height="9.82"/><rect class="cls-9" x="121.49" y="73.02" width="9.82" height="9.82"/><rect class="cls-9" x="-6.23" y="82.84" width="9.82" height="9.82"/><rect class="cls-7" x="3.59" y="82.84" width="9.82" height="9.82"/><rect class="cls-9" x="13.42" y="82.84" width="9.82" height="9.82"/><rect class="cls-7" x="23.24" y="82.84" width="9.82" height="9.82"/><rect class="cls-8" x="33.07" y="82.84" width="9.82" height="9.82"/><rect class="cls-10" x="42.89" y="82.84" width="9.82" height="9.82"/><rect class="cls-9" x="52.72" y="82.84" width="9.82" height="9.82"/><rect class="cls-8" x="62.54" y="82.84" width="9.82" height="9.82"/><rect class="cls-10" x="72.37" y="82.84" width="9.82" height="9.82"/><rect class="cls-10" x="82.19" y="82.84" width="9.82" height="9.82"/><rect class="cls-8" x="92.02" y="82.84" width="9.82" height="9.82"/><rect class="cls-9" x="101.84" y="82.84" width="9.82" height="9.82"/><rect class="cls-9" x="111.67" y="82.84" width="9.82" height="9.82"/><rect class="cls-7" x="121.49" y="82.84" width="9.82" height="9.82"/><rect class="cls-8" x="-6.23" y="92.67" width="9.82" height="9.82"/><rect class="cls-9" x="3.59" y="92.67" width="9.82" height="9.82"/><rect class="cls-8" x="13.42" y="92.67" width="9.82" height="9.82"/><rect class="cls-9" x="23.24" y="92.67" width="9.82" height="9.82"/><rect class="cls-7" x="33.07" y="92.67" width="9.82" height="9.82"/><rect class="cls-10" x="42.89" y="92.67" width="9.82" height="9.82"/><rect class="cls-9" x="52.72" y="92.67" width="9.82" height="9.82"/><rect class="cls-9" x="62.54" y="92.67" width="9.82" height="9.82"/><rect class="cls-7" x="72.37" y="92.67" width="9.82" height="9.82"/><rect class="cls-8" x="82.19" y="92.67" width="9.82" height="9.82"/><rect class="cls-7" x="92.02" y="92.67" width="9.82" height="9.82"/><rect class="cls-9" x="101.84" y="92.67" width="9.82" height="9.82"/><rect class="cls-8" x="111.67" y="92.67" width="9.82" height="9.82"/><rect class="cls-8" x="121.49" y="92.67" width="9.82" height="9.82"/><rect class="cls-9" x="-6.23" y="102.49" width="9.82" height="9.82"/><rect class="cls-10" x="3.59" y="102.49" width="9.82" height="9.82"/><rect class="cls-9" x="13.42" y="102.49" width="9.82" height="9.82"/><rect class="cls-9" x="23.24" y="102.49" width="9.82" height="9.82"/><rect class="cls-10" x="33.07" y="102.49" width="9.82" height="9.82"/><rect class="cls-9" x="42.89" y="102.49" width="9.82" height="9.82"/><rect class="cls-7" x="52.72" y="102.49" width="9.82" height="9.82"/><rect class="cls-10" x="62.54" y="102.49" width="9.82" height="9.82"/><rect class="cls-8" x="72.37" y="102.49" width="9.82" height="9.82"/><rect class="cls-10" x="82.19" y="102.49" width="9.82" height="9.82"/><rect class="cls-9" x="92.02" y="102.49" width="9.82" height="9.82"/><rect class="cls-8" x="101.84" y="102.49" width="9.82" height="9.82"/><rect class="cls-9" x="111.67" y="102.49" width="9.82" height="9.82"/><rect class="cls-10" x="121.49" y="102.49" width="9.82" height="9.82"/><rect class="cls-9" x="-6.23" y="112.32" width="9.82" height="9.82"/><rect class="cls-8" x="3.59" y="112.32" width="9.82" height="9.82"/><rect class="cls-10" x="13.42" y="112.32" width="9.82" height="9.82"/><rect class="cls-8" x="23.24" y="112.32" width="9.82" height="9.82"/><rect class="cls-9" x="33.07" y="112.32" width="9.82" height="9.82"/><rect class="cls-8" x="42.89" y="112.32" width="9.82" height="9.82"/><rect class="cls-10" x="52.72" y="112.32" width="9.82" height="9.82"/><rect class="cls-7" x="62.54" y="112.32" width="9.82" height="9.82"/><rect class="cls-9" x="72.37" y="112.32" width="9.82" height="9.82"/><rect class="cls-8" x="82.19" y="112.32" width="9.82" height="9.82"/><rect class="cls-7" x="92.02" y="112.32" width="9.82" height="9.82"/><rect class="cls-10" x="101.84" y="112.32" width="9.82" height="9.82"/><rect class="cls-8" x="111.67" y="112.32" width="9.82" height="9.82"/><rect class="cls-9" x="121.49" y="112.32" width="9.82" height="9.82"/><rect class="cls-9" x="-6.23" y="122.14" width="9.82" height="9.82"/><rect class="cls-8" x="3.59" y="122.14" width="9.82" height="9.82"/><rect class="cls-7" x="13.42" y="122.14" width="9.82" height="9.82"/><rect class="cls-8" x="23.24" y="122.14" width="9.82" height="9.82"/><rect class="cls-10" x="33.07" y="122.14" width="9.82" height="9.82"/><rect class="cls-9" x="42.89" y="122.14" width="9.82" height="9.82"/><rect class="cls-8" x="52.72" y="122.14" width="9.82" height="9.82"/><rect class="cls-9" x="62.54" y="122.14" width="9.82" height="9.82"/><rect class="cls-7" x="72.37" y="122.14" width="9.82" height="9.82"/><rect class="cls-8" x="82.19" y="122.14" width="9.82" height="9.82"/><rect class="cls-10" x="92.02" y="122.14" width="9.82" height="9.82"/><rect class="cls-9" x="101.84" y="122.14" width="9.82" height="9.82"/><rect class="cls-7" x="111.67" y="122.14" width="9.82" height="9.82"/><rect class="cls-7" x="121.49" y="122.14" width="9.82" height="9.82"/><rect class="cls-8" x="-6.23" y="131.97" width="9.82" height="9.82"/><rect class="cls-9" x="3.59" y="131.97" width="9.82" height="9.82"/><rect class="cls-7" x="13.42" y="131.97" width="9.82" height="9.82"/><rect class="cls-9" x="23.24" y="131.97" width="9.82" height="9.82"/><rect class="cls-10" x="33.07" y="131.97" width="9.82" height="9.82"/><rect class="cls-7" x="42.89" y="131.97" width="9.82" height="9.82"/><rect class="cls-8" x="52.72" y="131.97" width="9.82" height="9.82"/><rect class="cls-9" x="62.54" y="131.97" width="9.82" height="9.82"/><rect class="cls-8" x="72.37" y="131.97" width="9.82" height="9.82"/><rect class="cls-10" x="82.19" y="131.97" width="9.82" height="9.82"/><rect class="cls-8" x="92.02" y="131.97" width="9.82" height="9.82"/><rect class="cls-8" x="101.84" y="131.97" width="9.82" height="9.82"/><rect class="cls-10" x="111.67" y="131.97" width="9.82" height="9.82"/><rect class="cls-9" x="121.49" y="131.97" width="9.82" height="9.82"/><rect class="cls-7" x="-6.23" y="141.79" width="9.82" height="9.82"/><rect class="cls-8" x="3.59" y="141.79" width="9.82" height="9.82"/><rect class="cls-8" x="13.42" y="141.79" width="9.82" height="9.82"/><rect class="cls-10" x="23.24" y="141.79" width="9.82" height="9.82"/><rect class="cls-8" x="33.07" y="141.79" width="9.82" height="9.82"/><rect class="cls-9" x="42.89" y="141.79" width="9.82" height="9.82"/><rect class="cls-7" x="52.72" y="141.79" width="9.82" height="9.82"/><rect class="cls-7" x="62.54" y="141.79" width="9.82" height="9.82"/><rect class="cls-10" x="72.37" y="141.79" width="9.82" height="9.82"/><rect class="cls-9" x="82.19" y="141.79" width="9.82" height="9.82"/><rect class="cls-7" x="92.02" y="141.79" width="9.82" height="9.82"/><rect class="cls-10" x="101.84" y="141.79" width="9.82" height="9.82"/><rect class="cls-9" x="111.67" y="141.79" width="9.82" height="9.82"/><rect class="cls-8" x="121.49" y="141.79" width="9.82" height="9.82"/><rect class="cls-3" x="-10.04" y="-6.83" width="151.26" height="172.98"/></g><g class="cls-12"><g class="cls-13"><rect class="cls-14" x="69.31" y="-1.08" width="59.06" height="59.06"/></g></g><g class="cls-13"><path class="cls-15" d="M122.47,52.07H92.59c-9.13,0-17.37-8.24-17.37-17.37V4.82Z"/></g><g class="cls-13"><path class="cls-16" d="M75.22,4.82l47.25,47.25v88.59a5.91,5.91,0,0,1-5.91,5.91H10.25a5.91,5.91,0,0,1-5.91-5.91V10.73a5.92,5.92,0,0,1,5.91-5.91Z"/></g></svg>