<svg id="Слой_1" data-name="Слой 1" xmlns="http://www.w3.org/2000/svg" xmlns:xlink="http://www.w3.org/1999/xlink" viewBox="0 0 127 151"><defs><style>.cls-1,.cls-2,.cls-28,.cls-6{fill:none;}.cls-1{clip-rule:evenodd;}.cls-3{clip-path:url(#clip-path);}.cls-4{clip-path:url(#clip-path-2);}.cls-5{fill:#fff;}.cls-28,.cls-6{stroke:#000;stroke-width:7.1px;}.cls-6{stroke-miterlimit:10;}.cls-7{clip-path:url(#clip-path-4);}.cls-8{fill:#bfbfbd;}.cls-9{clip-path:url(#clip-path-6);}.cls-10{clip-path:url(#clip-path-8);}.cls-11{fill:#edc0cb;}.cls-12{clip-path:url(#clip-path-10);}.cls-13{clip-path:url(#clip-path-12);}.cls-14{clip-path:url(#clip-path-14);}.cls-15{clip-path:url(#clip-path-16);}.cls-16{clip-path:url(#clip-path-18);}.cls-17{clip-path:url(#clip-path-20);}.cls-18{clip-path:url(#clip-path-22);}.cls-19{clip-path:url(#clip-path-24);}.cls-20{clip-path:url(#clip-path-26);}.cls-21{clip-path:url(#clip-path-28);}.cls-22{clip-path:url(#clip-path-30);}.cls-23{clip-path:url(#clip-path-32);}.cls-24{clip-path:url(#clip-path-34);}.cls-25{clip-path:url(#clip-path-36);}.cls-26{clip-path:url(#clip-path-38);}.cls-27{clip-path:url(#clip-path-40);}.cls-28{stroke-linejoin:round;}</style><clipPath id="clip-path"><path class="cls-1" d="M75.26,4.65,122.6,52V130.1A16.57,16.57,0,0,1,106,146.67H20.82A16.57,16.57,0,0,1,4.25,130.1V21.22A16.57,16.57,0,0,1,20.82,4.65Z"/></clipPath><clipPath id="clip-path-2"><rect class="cls-2" x="-9.95" y="-10.73" width="150.3" height="178.7"/></clipPath><clipPath id="clip-path-4"><rect class="cls-2" x="27.92" y="107.61" width="91.13" height="1.18"/></clipPath><clipPath id="clip-path-6"><rect class="cls-2" x="68.16" y="130.1" width="50.89" height="1.18"/></clipPath><clipPath id="clip-path-8"><rect class="cls-2" x="42.12" y="119.45" width="76.93" height="1.18"/></clipPath><clipPath id="clip-path-10"><rect class="cls-2" x="20.82" y="137.2" width="67.46" height="1.18"/></clipPath><clipPath id="clip-path-12"><rect class="cls-2" x="7.8" y="94.59" width="76.93" height="1.18"/></clipPath><clipPath id="clip-path-14"><rect class="cls-2" x="7.8" y="56.72" width="100.6" height="1.18"/></clipPath><clipPath id="clip-path-16"><rect class="cls-2" x="7.8" y="23.59" width="30.77" height="1.18"/></clipPath><clipPath id="clip-path-18"><rect class="cls-2" x="30.29" y="12.94" width="42.61" height="1.18"/></clipPath><clipPath id="clip-path-20"><rect class="cls-2" x="56.32" y="100.51" width="62.72" height="1.18"/></clipPath><clipPath id="clip-path-22"><rect class="cls-2" x="7.8" y="85.13" width="28.4" height="1.18"/></clipPath><clipPath id="clip-path-24"><rect class="cls-2" x="27.92" y="65.01" width="91.13" height="1.18"/></clipPath><clipPath id="clip-path-26"><rect class="cls-2" x="7.8" y="43.71" width="67.46" height="1.18"/></clipPath><clipPath id="clip-path-28"><rect class="cls-2" x="52.77" y="27.14" width="40.24" height="1.18"/></clipPath><clipPath id="clip-path-30"><rect class="cls-2" x="48.04" y="86.31" width="71.01" height="1.18"/></clipPath><clipPath id="clip-path-32"><rect class="cls-2" x="6.62" y="125.37" width="99.41" height="1.18"/></clipPath><clipPath id="clip-path-34"><rect class="cls-2" x="12.54" y="59.09" width="75.74" height="1.18"/></clipPath><clipPath id="clip-path-36"><rect class="cls-2" x="25.55" y="33.05" width="52.07" height="1.18"/></clipPath><clipPath id="clip-path-38"><rect class="cls-2" x="6.62" y="20.04" width="52.07" height="1.18"/></clipPath><clipPath id="clip-path-40"><path class="cls-1" d="M122.6,52H92.67c-9.15,0-17.41-8.25-17.41-17.41V4.65Z"/></clipPath></defs><title>icons</title><g class="cls-3"><g class="cls-4"><rect class="cls-5" x="-1.67" y="-1.27" width="130.18" height="153.85"/></g></g><g class="cls-4"><path class="cls-6" d="M75.26,4.65,122.6,52v88.76a5.92,5.92,0,0,1-5.92,5.92H10.17a5.92,5.92,0,0,1-5.92-5.92V10.57a5.92,5.92,0,0,1,5.92-5.92Z"/></g><g class="cls-7"><g class="cls-4"><rect class="cls-8" x="22" y="101.7" width="102.96" height="13.02"/></g></g><g class="cls-9"><g class="cls-4"><rect class="cls-8" x="62.24" y="124.18" width="62.72" height="13.02"/></g></g><g class="cls-10"><g class="cls-4"><rect class="cls-11" x="36.21" y="113.53" width="88.76" height="13.02"/></g></g><g class="cls-12"><g class="cls-4"><rect class="cls-11" x="14.9" y="131.28" width="79.29" height="13.02"/></g></g><g class="cls-13"><g class="cls-4"><rect class="cls-11" x="1.89" y="88.68" width="88.76" height="13.02"/></g></g><g class="cls-14"><g class="cls-4"><rect class="cls-11" x="1.89" y="50.81" width="112.43" height="13.02"/></g></g><g class="cls-15"><g class="cls-4"><rect class="cls-11" x="1.89" y="17.67" width="42.61" height="13.02"/></g></g><g class="cls-16"><g class="cls-4"><rect class="cls-11" x="24.37" y="7.02" width="54.44" height="13.02"/></g></g><g class="cls-17"><g class="cls-4"><rect class="cls-5" x="50.41" y="94.59" width="74.56" height="13.02"/></g></g><g class="cls-18"><g class="cls-4"><rect class="cls-8" x="1.89" y="79.21" width="40.24" height="13.02"/></g></g><g class="cls-19"><g class="cls-4"><rect class="cls-8" x="22" y="59.09" width="102.96" height="13.02"/></g></g><g class="cls-20"><g class="cls-4"><rect class="cls-8" x="1.89" y="37.79" width="79.29" height="13.02"/></g></g><g class="cls-21"><g class="cls-4"><rect class="cls-8" x="46.86" y="21.22" width="52.07" height="13.02"/></g></g><g class="cls-22"><g class="cls-4"><rect x="42.12" y="80.39" width="82.84" height="13.02"/></g></g><g class="cls-23"><g class="cls-4"><rect x="0.7" y="119.45" width="111.25" height="13.02"/></g></g><g class="cls-24"><g class="cls-4"><rect x="6.62" y="53.17" width="87.58" height="13.02"/></g></g><g class="cls-25"><g class="cls-4"><rect x="19.64" y="27.14" width="63.91" height="13.02"/></g></g><g class="cls-26"><g class="cls-4"><rect x="0.7" y="14.12" width="63.91" height="13.02"/></g></g><g class="cls-27"><g class="cls-4"><rect class="cls-5" x="69.34" y="-1.27" width="59.17" height="59.17"/></g></g><g class="cls-4"><path class="cls-28" d="M122.6,52H92.67c-9.15,0-17.41-8.25-17.41-17.41V4.65Z"/><path d="M48.28,65.94h-.07v18H44.69V59.09h4.9L53.53,74h.07V59.09h3.48V83.94h-4Z"/><path d="M59.57,65.05c0-4,2.09-6.25,5.93-6.25s5.93,2.28,5.93,6.25V78c0,4-2.1,6.25-5.93,6.25S59.57,82,59.57,78Zm3.9,13.18c0,1.77.78,2.45,2,2.45s2-.68,2-2.45V64.81c0-1.78-.78-2.45-2-2.45s-2,.67-2,2.45Z"/><path d="M72.81,59.09H84.88v3.55H80.8v21.3H76.89V62.64H72.81Z"/><path d="M35.61,99.72h5v3.55h-5v10.26h-3.9V88.68H42v3.55H35.61Z"/><path d="M43.6,94.64c0-4,2.1-6.25,5.93-6.25s5.93,2.27,5.93,6.25v12.93c0,4-2.09,6.24-5.93,6.24s-5.93-2.27-5.93-6.24Zm3.91,13.17c0,1.78.78,2.45,2,2.45s2-.67,2-2.45V94.39c0-1.77-.79-2.45-2-2.45s-2,.68-2,2.45Z"/><path d="M61.71,88.68v19.17c0,1.77.78,2.41,2,2.41s2-.64,2-2.41V88.68h3.69V107.6c0,4-2,6.25-5.82,6.25s-5.83-2.27-5.83-6.25V88.68Z"/><path d="M75.66,95.53h-.07v18H72.08V88.68H77l3.94,14.87H81V88.68h3.48v24.85h-4Z"/><path d="M87.27,88.68h6.18c3.9,0,5.82,2.16,5.82,6.14v12.57c0,4-1.92,6.14-5.82,6.14H87.27Zm3.91,3.55V110h2.2c1.24,0,2-.64,2-2.41V94.64c0-1.77-.75-2.41-2-2.41Z"/></g></svg>