<svg id="Слой_1" data-name="Слой 1" xmlns="http://www.w3.org/2000/svg" xmlns:xlink="http://www.w3.org/1999/xlink" viewBox="0 0 127 151"><defs><style>.cls-1{fill:#6594f8;}.cls-2,.cls-20,.cls-3,.cls-6,.cls-8{fill:none;}.cls-3{clip-rule:evenodd;}.cls-4{clip-path:url(#clip-path);}.cls-5{clip-path:url(#clip-path-2);}.cls-20,.cls-6{stroke:#000;stroke-width:7.08px;}.cls-6,.cls-8{stroke-miterlimit:10;}.cls-7{font-size:35.39px;font-family:BebasNeue, Bebas Neue;}.cls-10,.cls-7{fill:#fff;}.cls-8{stroke:#fff;stroke-width:1.18px;}.cls-9{clip-path:url(#clip-path-3);}.cls-11{clip-path:url(#clip-path-5);}.cls-12{clip-path:url(#clip-path-7);}.cls-13{clip-path:url(#clip-path-9);}.cls-14{clip-path:url(#clip-path-11);}.cls-15{clip-path:url(#clip-path-13);}.cls-16{clip-path:url(#clip-path-15);}.cls-17{clip-path:url(#clip-path-17);}.cls-18{clip-path:url(#clip-path-19);}.cls-19{clip-path:url(#clip-path-22);}.cls-20{stroke-linejoin:round;}</style><clipPath id="clip-path"><path class="cls-1" d="M75.4,4.62,122.58,51.8v88.46a5.9,5.9,0,0,1-5.9,5.9H10.52a5.9,5.9,0,0,1-5.89-5.9V10.52a5.9,5.9,0,0,1,5.89-5.9Z"/></clipPath><clipPath id="clip-path-2"><rect class="cls-2" x="-9.53" y="-10.72" width="149.8" height="178.11"/></clipPath><clipPath id="clip-path-3"><circle class="cls-2" cx="31.75" cy="61.23" r="1.18"/></clipPath><clipPath id="clip-path-5"><circle class="cls-2" cx="52.99" cy="28.21" r="1.18"/></clipPath><clipPath id="clip-path-7"><circle class="cls-2" cx="18.78" cy="18.77" r="1.18"/></clipPath><clipPath id="clip-path-9"><circle class="cls-2" cx="94.27" cy="38.82" r="1.18"/></clipPath><clipPath id="clip-path-11"><circle class="cls-2" cx="84.83" cy="78.93" r="1.18"/></clipPath><clipPath id="clip-path-13"><circle class="cls-2" cx="111.96" cy="106.06" r="1.18"/></clipPath><clipPath id="clip-path-15"><circle class="cls-2" cx="15.24" cy="115.49" r="1.18"/></clipPath><clipPath id="clip-path-17"><circle class="cls-2" cx="31.75" cy="109.59" r="1.18"/></clipPath><clipPath id="clip-path-19"><circle class="cls-2" cx="57.7" cy="124.93" r="1.18"/></clipPath><clipPath id="clip-path-22"><path class="cls-3" d="M122.58,51.8H92.74c-9.12,0-17.34-8.23-17.34-17.35V4.62Z"/></clipPath></defs><title>icons</title><path class="cls-1" d="M75.4,4.62,122.58,51.8v88.46a5.9,5.9,0,0,1-5.9,5.9H10.52a5.9,5.9,0,0,1-5.89-5.9V10.52a5.9,5.9,0,0,1,5.89-5.9Z"/><g class="cls-4"><rect class="cls-1" x="-9.29" y="-6.82" width="151.03" height="172.72"/></g><g class="cls-5"><path class="cls-6" d="M75.4,4.62,122.58,51.8v88.46a5.9,5.9,0,0,1-5.9,5.9H10.52a5.9,5.9,0,0,1-5.89-5.9V10.52a5.9,5.9,0,0,1,5.89-5.9Z"/><text class="cls-7" transform="translate(43.55 82.47)">NSF</text><text class="cls-7" transform="translate(43.55 111.95)">NET</text><polygon class="cls-8" points="20.03 137.9 111.96 106.18 84.73 79.05 94.27 38.82 19.05 18.72 31.79 61.52 15.62 115.61 20.03 137.9"/></g><g class="cls-9"><g class="cls-5"><rect class="cls-10" x="24.68" y="54.16" width="14.15" height="14.15"/></g></g><g class="cls-11"><g class="cls-5"><rect class="cls-10" x="45.91" y="21.13" width="14.15" height="14.15"/></g></g><g class="cls-12"><g class="cls-5"><rect class="cls-10" x="11.7" y="11.69" width="14.15" height="14.15"/></g></g><g class="cls-13"><g class="cls-5"><rect class="cls-10" x="87.19" y="31.75" width="14.15" height="14.15"/></g></g><g class="cls-14"><g class="cls-5"><rect class="cls-10" x="77.76" y="71.85" width="14.15" height="14.15"/></g></g><g class="cls-15"><g class="cls-5"><rect class="cls-10" x="104.88" y="98.98" width="14.15" height="14.15"/></g></g><g class="cls-16"><g class="cls-5"><rect class="cls-10" x="8.16" y="108.41" width="14.15" height="14.15"/></g></g><g class="cls-17"><g class="cls-5"><rect class="cls-10" x="24.68" y="102.52" width="14.15" height="14.15"/></g></g><g class="cls-18"><g class="cls-5"><rect class="cls-10" x="50.63" y="117.85" width="14.15" height="14.15"/></g></g><g class="cls-5"><polyline class="cls-8" points="15.24 115.98 31.5 109.59 57.7 124.93"/><line class="cls-8" x1="31.75" y1="61.23" x2="31.75" y2="109.77"/><line class="cls-8" x1="31.75" y1="62.41" x2="52.99" y2="28.21"/></g><g class="cls-19"><g class="cls-5"><rect class="cls-10" x="69.5" y="-1.28" width="58.98" height="58.98"/></g></g><g class="cls-5"><path class="cls-20" d="M122.58,51.8H92.74c-9.12,0-17.34-8.23-17.34-17.35V4.62Z"/></g></svg>