<svg id="Слой_1" data-name="Слой 1" xmlns="http://www.w3.org/2000/svg" xmlns:xlink="http://www.w3.org/1999/xlink" viewBox="0 0 127 151"><defs><style>.cls-1{fill:#fcd120;}.cls-2,.cls-3,.cls-6,.cls-9{fill:none;}.cls-3{clip-rule:evenodd;}.cls-4{clip-path:url(#clip-path);}.cls-5{clip-path:url(#clip-path-2);}.cls-6,.cls-9{stroke:#000;stroke-width:7.08px;}.cls-6{stroke-miterlimit:10;}.cls-7{clip-path:url(#clip-path-3);}.cls-8{fill:#fff;}.cls-9{stroke-linejoin:round;}.cls-10{fill:red;}</style><clipPath id="clip-path"><path class="cls-1" d="M75.32,5.21,122.5,52.39v88.46a5.9,5.9,0,0,1-5.9,5.9H10.44a5.9,5.9,0,0,1-5.89-5.9V11.11a5.9,5.9,0,0,1,5.89-5.9Z"/></clipPath><clipPath id="clip-path-2"><rect class="cls-2" x="-9.61" y="-10.72" width="149.8" height="178.11"/></clipPath><clipPath id="clip-path-3"><path class="cls-3" d="M122.5,51.8H92.66c-9.12,0-17.34-8.23-17.34-17.35V4.62Z"/></clipPath></defs><title>icons</title><path class="cls-1" d="M75.32,5.21,122.5,52.39v88.46a5.9,5.9,0,0,1-5.9,5.9H10.44a5.9,5.9,0,0,1-5.89-5.9V11.11a5.9,5.9,0,0,1,5.89-5.9Z"/><g class="cls-4"><rect class="cls-1" x="-11.37" y="-8.23" width="155.03" height="176.72"/><path d="M141.66-6.23V166.49h-151V-6.23h151m4-4h-159V170.49h159V-10.23Z"/></g><g class="cls-5"><path class="cls-6" d="M75.32,4.62,122.5,51.8v88.46a5.9,5.9,0,0,1-5.9,5.9H10.44a5.9,5.9,0,0,1-5.89-5.9V10.52a5.9,5.9,0,0,1,5.89-5.9Z"/></g><g class="cls-7"><g class="cls-5"><rect class="cls-8" x="69.42" y="-1.28" width="58.98" height="58.98"/></g></g><g class="cls-5"><path class="cls-9" d="M122.5,51.8H92.66c-9.12,0-17.34-8.23-17.34-17.35V4.62Z"/></g><rect class="cls-10" x="33.17" y="66.02" width="59.55" height="41.26"/><path class="cls-8" d="M46.79,91.8,41.92,75.42h4l2.9,11.16h.07l2.91-11.16H55.5L50.64,91.8v8.12H46.79Z"/><path class="cls-8" d="M62.68,78.64c-1.23,0-2,.66-2,2.41v2.63H57V81.3c0-3.92,2-6.16,5.74-6.16s5.74,2.24,5.74,6.16c0,3.25-1.19,5.88-4.76,9.69-2.27,2.45-2.9,3.61-2.9,4.9a3.14,3.14,0,0,0,0,.53h7.28v3.5H57v-3c0-2.73,1-4.8,3.85-7.81s3.78-5,3.78-7.66C64.67,79.23,63.9,78.64,62.68,78.64Z"/><path class="cls-8" d="M75.94,90.15l-1.19,2.24v7.53H70.9V75.42h3.85V86h.07l5-10.6h3.85L78.29,86.34l5.35,13.58h-4Z"/></svg>