<svg id="Слой_1" data-name="Слой 1" xmlns="http://www.w3.org/2000/svg" xmlns:xlink="http://www.w3.org/1999/xlink" viewBox="0 0 127 151"><defs><style>.cls-1{fill:#fcd120;}.cls-2,.cls-3,.cls-6,.cls-9{fill:none;}.cls-3{clip-rule:evenodd;}.cls-4{clip-path:url(#clip-path);}.cls-5{clip-path:url(#clip-path-2);}.cls-6,.cls-9{stroke:#000;stroke-width:7.08px;}.cls-6{stroke-miterlimit:10;}.cls-7{clip-path:url(#clip-path-3);}.cls-11,.cls-8{fill:#fff;}.cls-9{stroke-linejoin:round;}.cls-10{fill:red;}.cls-11{font-size:35px;font-family:BebasNeue, Bebas Neue;}</style><clipPath id="clip-path"><path class="cls-1" d="M75.32,5.21,122.5,52.39v88.46a5.9,5.9,0,0,1-5.9,5.9H10.44a5.9,5.9,0,0,1-5.89-5.9V11.11a5.9,5.9,0,0,1,5.89-5.9Z"/></clipPath><clipPath id="clip-path-2"><rect class="cls-2" x="-9.61" y="-10.72" width="149.8" height="178.11"/></clipPath><clipPath id="clip-path-3"><path class="cls-3" d="M122.5,51.8H92.66c-9.12,0-17.34-8.23-17.34-17.35V4.62Z"/></clipPath></defs><title>Монтажная область 10 копия</title><path class="cls-1" d="M75.32,5.21,122.5,52.39v88.46a5.9,5.9,0,0,1-5.9,5.9H10.44a5.9,5.9,0,0,1-5.89-5.9V11.11a5.9,5.9,0,0,1,5.89-5.9Z"/><g class="cls-4"><rect class="cls-1" x="-11.37" y="-8.23" width="155.03" height="176.72"/><path d="M141.66-6.23V166.49h-151V-6.23h151m4-4h-159V170.49h159V-10.23Z"/></g><g class="cls-5"><path class="cls-6" d="M75.32,4.62,122.5,51.8v88.46a5.9,5.9,0,0,1-5.9,5.9H10.44a5.9,5.9,0,0,1-5.89-5.9V10.52a5.9,5.9,0,0,1,5.89-5.9Z"/></g><g class="cls-7"><g class="cls-5"><rect class="cls-8" x="69.42" y="-1.28" width="58.98" height="58.98"/></g></g><g class="cls-5"><path class="cls-9" d="M122.5,51.8H92.66c-9.12,0-17.34-8.23-17.34-17.35V4.62Z"/></g><rect class="cls-10" x="33.17" y="66.02" width="59.55" height="41.26"/><text class="cls-11" transform="translate(41.78 99.92)">Y2K</text></svg>